<svg width="176" height="30" viewBox="0 0 176 30" fill="none" xmlns="http://www.w3.org/2000/svg">
<circle cx="15" cy="15" r="15" fill="#00A801"/>
<path d="M20.3741 14.4174C20.207 14.2503 20.0042 14.1668 19.7653 14.1668H19.479V12.4479C19.479 11.3498 19.0853 10.407 18.2975 9.61921C17.5097 8.8314 16.5669 8.4375 15.4687 8.4375C14.3705 8.4375 13.4275 8.8314 12.6399 9.61918C11.8521 10.407 11.4583 11.3498 11.4583 12.4479V14.1668H11.1719C10.9332 14.1668 10.7303 14.2503 10.5631 14.4174C10.396 14.5844 10.3125 14.7874 10.3125 15.0262V20.1825C10.3125 20.4211 10.3961 20.6241 10.5631 20.7913C10.7303 20.9582 10.9332 21.0418 11.1719 21.0418H19.7655C20.0044 21.0418 20.2072 20.9583 20.3744 20.7913C20.5413 20.6241 20.625 20.4211 20.625 20.1825V15.0261C20.6251 14.7875 20.5413 14.5845 20.3741 14.4174ZM17.7604 14.1668H13.1771V12.4479C13.1771 11.8154 13.4009 11.2752 13.8485 10.8277C14.2961 10.3801 14.8362 10.1564 15.4688 10.1564C16.1015 10.1564 16.6414 10.3801 17.0891 10.8277C17.5365 11.2752 17.7604 11.8154 17.7604 12.4479V14.1668Z" fill="white"/>
<path d="M40.972 14.12C40.212 14.12 39.56 14.008 39.016 13.784C38.472 13.56 38.06 13.268 37.78 12.908C37.508 12.54 37.364 12.14 37.348 11.708C37.348 11.644 37.372 11.588 37.42 11.54C37.476 11.484 37.54 11.456 37.612 11.456H39.124C39.22 11.456 39.296 11.476 39.352 11.516C39.416 11.548 39.48 11.6 39.544 11.672C39.648 11.88 39.816 12.052 40.048 12.188C40.28 12.324 40.588 12.392 40.972 12.392C41.428 12.392 41.776 12.32 42.016 12.176C42.256 12.032 42.376 11.836 42.376 11.588C42.376 11.412 42.312 11.268 42.184 11.156C42.064 11.044 41.872 10.944 41.608 10.856C41.344 10.768 40.952 10.668 40.432 10.556C39.472 10.356 38.752 10.064 38.272 9.68C37.8 9.288 37.564 8.732 37.564 8.012C37.564 7.524 37.7 7.088 37.972 6.704C38.244 6.32 38.632 6.02 39.136 5.804C39.64 5.588 40.228 5.48 40.9 5.48C41.596 5.48 42.2 5.6 42.712 5.84C43.224 6.08 43.612 6.384 43.876 6.752C44.148 7.112 44.292 7.468 44.308 7.82C44.308 7.892 44.284 7.952 44.236 8C44.188 8.048 44.128 8.072 44.056 8.072H42.472C42.376 8.072 42.296 8.056 42.232 8.024C42.176 7.992 42.124 7.94 42.076 7.868C42.028 7.684 41.896 7.528 41.68 7.4C41.472 7.272 41.212 7.208 40.9 7.208C40.54 7.208 40.264 7.272 40.072 7.4C39.88 7.528 39.784 7.716 39.784 7.964C39.784 8.132 39.836 8.272 39.94 8.384C40.052 8.496 40.228 8.6 40.468 8.696C40.716 8.784 41.068 8.876 41.524 8.972C42.268 9.108 42.86 9.28 43.3 9.488C43.748 9.688 44.076 9.952 44.284 10.28C44.492 10.6 44.596 11.004 44.596 11.492C44.596 12.028 44.44 12.496 44.128 12.896C43.824 13.288 43.396 13.592 42.844 13.808C42.3 14.016 41.676 14.12 40.972 14.12ZM46.097 14C46.017 14 45.945 13.972 45.881 13.916C45.825 13.852 45.797 13.78 45.797 13.7V5.9C45.797 5.812 45.825 5.74 45.881 5.684C45.945 5.628 46.017 5.6 46.097 5.6H47.705C47.793 5.6 47.865 5.628 47.921 5.684C47.985 5.74 48.017 5.812 48.017 5.9V13.7C48.017 13.788 47.985 13.86 47.921 13.916C47.865 13.972 47.793 14 47.705 14H46.097ZM51.8357 14C51.7557 14 51.6837 13.972 51.6197 13.916C51.5637 13.852 51.5357 13.78 51.5357 13.7V7.484H49.3997C49.3197 7.484 49.2477 7.456 49.1837 7.4C49.1277 7.336 49.0997 7.264 49.0997 7.184V5.9C49.0997 5.812 49.1277 5.74 49.1837 5.684C49.2477 5.628 49.3197 5.6 49.3997 5.6H55.8557C55.9437 5.6 56.0157 5.628 56.0717 5.684C56.1277 5.74 56.1557 5.812 56.1557 5.9V7.184C56.1557 7.272 56.1277 7.344 56.0717 7.4C56.0157 7.456 55.9437 7.484 55.8557 7.484H53.7197V13.7C53.7197 13.78 53.6917 13.852 53.6357 13.916C53.5797 13.972 53.5077 14 53.4197 14H51.8357ZM57.5463 14C57.4663 14 57.3943 13.972 57.3303 13.916C57.2743 13.852 57.2463 13.78 57.2463 13.7V5.9C57.2463 5.812 57.2743 5.74 57.3303 5.684C57.3943 5.628 57.4663 5.6 57.5463 5.6H63.1503C63.2383 5.6 63.3103 5.628 63.3663 5.684C63.4223 5.74 63.4503 5.812 63.4503 5.9V7.028C63.4503 7.108 63.4223 7.18 63.3663 7.244C63.3103 7.3 63.2383 7.328 63.1503 7.328H59.3223V8.948H62.8863C62.9743 8.948 63.0463 8.98 63.1023 9.044C63.1583 9.1 63.1862 9.172 63.1862 9.26V10.304C63.1862 10.384 63.1583 10.456 63.1023 10.52C63.0463 10.576 62.9743 10.604 62.8863 10.604H59.3223V12.272H63.2463C63.3343 12.272 63.4063 12.3 63.4622 12.356C63.5183 12.412 63.5463 12.484 63.5463 12.572V13.7C63.5463 13.78 63.5183 13.852 63.4622 13.916C63.4063 13.972 63.3343 14 63.2463 14H57.5463ZM69.949 14C69.869 14 69.797 13.972 69.733 13.916C69.677 13.852 69.649 13.78 69.649 13.7V7.988L68.005 9.248C67.949 9.296 67.889 9.32 67.825 9.32C67.737 9.32 67.657 9.272 67.585 9.176L66.877 8.252C66.837 8.188 66.817 8.128 66.817 8.072C66.817 7.96 66.865 7.876 66.961 7.82L69.721 5.684C69.809 5.628 69.905 5.6 70.009 5.6H71.509C71.597 5.6 71.669 5.628 71.725 5.684C71.781 5.74 71.809 5.812 71.809 5.9V13.7C71.809 13.78 71.781 13.852 71.725 13.916C71.669 13.972 71.597 14 71.509 14H69.949ZM76.6578 14.12C75.5538 14.112 74.7178 13.82 74.1498 13.244C73.5818 12.66 73.2738 11.896 73.2258 10.952C73.2098 10.52 73.2018 10.136 73.2018 9.8C73.2018 9.456 73.2098 9.06 73.2258 8.612C73.2578 8.012 73.4018 7.48 73.6578 7.016C73.9218 6.544 74.3058 6.172 74.8098 5.9C75.3138 5.62 75.9298 5.48 76.6578 5.48C77.7378 5.488 78.5698 5.78 79.1538 6.356C79.7378 6.932 80.0538 7.684 80.1018 8.612C80.1178 9.06 80.1258 9.456 80.1258 9.8C80.1258 10.136 80.1178 10.52 80.1018 10.952C80.0458 11.896 79.7338 12.66 79.1658 13.244C78.5978 13.82 77.7618 14.112 76.6578 14.12ZM76.6578 12.38C77.0498 12.38 77.3418 12.252 77.5338 11.996C77.7338 11.732 77.8418 11.364 77.8578 10.892C77.8738 10.66 77.8818 10.288 77.8818 9.776C77.8818 9.264 77.8738 8.9 77.8578 8.684C77.8418 8.228 77.7378 7.868 77.5458 7.604C77.3538 7.34 77.0578 7.204 76.6578 7.196C76.2658 7.204 75.9698 7.34 75.7698 7.604C75.5778 7.868 75.4738 8.228 75.4578 8.684C75.4498 8.9 75.4458 9.264 75.4458 9.776C75.4458 10.288 75.4498 10.66 75.4578 10.892C75.4978 11.884 75.8978 12.38 76.6578 12.38ZM84.8141 14.12C83.7101 14.112 82.8741 13.82 82.3061 13.244C81.7381 12.66 81.4301 11.896 81.3821 10.952C81.3661 10.52 81.3581 10.136 81.3581 9.8C81.3581 9.456 81.3661 9.06 81.3821 8.612C81.4141 8.012 81.5581 7.48 81.8141 7.016C82.0781 6.544 82.4621 6.172 82.9661 5.9C83.4701 5.62 84.0861 5.48 84.8141 5.48C85.8941 5.488 86.7261 5.78 87.3101 6.356C87.8941 6.932 88.2101 7.684 88.2581 8.612C88.2741 9.06 88.2821 9.456 88.2821 9.8C88.2821 10.136 88.2741 10.52 88.2581 10.952C88.2021 11.896 87.8901 12.66 87.3221 13.244C86.7541 13.82 85.9181 14.112 84.8141 14.12ZM84.8141 12.38C85.2061 12.38 85.4981 12.252 85.6901 11.996C85.8901 11.732 85.9981 11.364 86.0141 10.892C86.0301 10.66 86.0381 10.288 86.0381 9.776C86.0381 9.264 86.0301 8.9 86.0141 8.684C85.9981 8.228 85.8941 7.868 85.7021 7.604C85.5101 7.34 85.2141 7.204 84.8141 7.196C84.4221 7.204 84.1261 7.34 83.9261 7.604C83.7341 7.868 83.6301 8.228 83.6141 8.684C83.6061 8.9 83.6021 9.264 83.6021 9.776C83.6021 10.288 83.6061 10.66 83.6141 10.892C83.6541 11.884 84.0541 12.38 84.8141 12.38ZM91.2063 9.836C90.6623 9.836 90.2263 9.696 89.8983 9.416C89.5703 9.128 89.3903 8.744 89.3583 8.264C89.3423 8.024 89.3343 7.856 89.3343 7.76C89.3343 7.664 89.3423 7.456 89.3583 7.136C89.3823 6.648 89.5543 6.26 89.8743 5.972C90.1943 5.684 90.6383 5.54 91.2063 5.54C91.7663 5.54 92.2063 5.684 92.5263 5.972C92.8463 6.26 93.0183 6.648 93.0423 7.136C93.0583 7.456 93.0663 7.664 93.0663 7.76C93.0663 7.856 93.0583 8.024 93.0423 8.264C93.0103 8.744 92.8303 9.128 92.5023 9.416C92.1743 9.696 91.7423 9.836 91.2063 9.836ZM90.2463 14C90.1663 14 90.0983 13.98 90.0423 13.94C89.9943 13.892 89.9703 13.832 89.9703 13.76C89.9703 13.712 89.9863 13.668 90.0183 13.628L95.9463 5.828C96.0103 5.748 96.0703 5.692 96.1263 5.66C96.1823 5.62 96.2623 5.6 96.3663 5.6H97.2183C97.2983 5.6 97.3623 5.624 97.4103 5.672C97.4663 5.712 97.4943 5.768 97.4943 5.84C97.4943 5.888 97.4783 5.932 97.4463 5.972L91.5183 13.772C91.4543 13.852 91.3943 13.912 91.3383 13.952C91.2823 13.984 91.2023 14 91.0983 14H90.2463ZM91.2063 8.792C91.5423 8.792 91.7263 8.596 91.7583 8.204C91.7743 7.948 91.7823 7.78 91.7823 7.7C91.7823 7.596 91.7743 7.432 91.7583 7.208C91.7503 7.032 91.6983 6.888 91.6023 6.776C91.5143 6.664 91.3823 6.608 91.2063 6.608C91.0223 6.608 90.8863 6.664 90.7983 6.776C90.7103 6.888 90.6583 7.032 90.6423 7.208C90.6343 7.32 90.6303 7.484 90.6303 7.7C90.6303 7.908 90.6343 8.076 90.6423 8.204C90.6743 8.596 90.8623 8.792 91.2063 8.792ZM96.2823 14.06C95.7383 14.06 95.3023 13.92 94.9743 13.64C94.6543 13.352 94.4743 12.964 94.4343 12.476C94.4263 12.34 94.4223 12.156 94.4223 11.924C94.4223 11.684 94.4263 11.492 94.4343 11.348C94.4663 10.852 94.6383 10.46 94.9503 10.172C95.2703 9.884 95.7143 9.74 96.2823 9.74C96.8503 9.74 97.2903 9.884 97.6023 10.172C97.9223 10.46 98.0983 10.852 98.1303 11.348C98.1463 11.668 98.1543 11.876 98.1543 11.972C98.1543 12.068 98.1463 12.236 98.1303 12.476C98.0983 12.956 97.9183 13.34 97.5903 13.628C97.2623 13.916 96.8263 14.06 96.2823 14.06ZM96.2823 13.004C96.4663 13.004 96.6023 12.948 96.6903 12.836C96.7783 12.716 96.8303 12.572 96.8463 12.404C96.8623 12.164 96.8703 11.996 96.8703 11.9C96.8703 11.796 96.8623 11.632 96.8463 11.408C96.8303 11.24 96.7783 11.1 96.6903 10.988C96.6023 10.868 96.4663 10.808 96.2823 10.808C96.0983 10.808 95.9623 10.868 95.8743 10.988C95.7863 11.1 95.7383 11.24 95.7303 11.408C95.7223 11.52 95.7183 11.684 95.7183 11.9C95.7183 12.116 95.7223 12.284 95.7303 12.404C95.7463 12.58 95.7943 12.724 95.8743 12.836C95.9623 12.948 96.0983 13.004 96.2823 13.004ZM105.109 14.12C104.349 14.12 103.697 14.008 103.153 13.784C102.609 13.56 102.197 13.268 101.917 12.908C101.645 12.54 101.501 12.14 101.485 11.708C101.485 11.644 101.509 11.588 101.557 11.54C101.613 11.484 101.677 11.456 101.749 11.456H103.261C103.357 11.456 103.433 11.476 103.489 11.516C103.553 11.548 103.617 11.6 103.681 11.672C103.785 11.88 103.953 12.052 104.185 12.188C104.417 12.324 104.725 12.392 105.109 12.392C105.565 12.392 105.913 12.32 106.153 12.176C106.393 12.032 106.513 11.836 106.513 11.588C106.513 11.412 106.449 11.268 106.321 11.156C106.201 11.044 106.009 10.944 105.745 10.856C105.481 10.768 105.089 10.668 104.569 10.556C103.609 10.356 102.889 10.064 102.409 9.68C101.937 9.288 101.701 8.732 101.701 8.012C101.701 7.524 101.837 7.088 102.109 6.704C102.381 6.32 102.769 6.02 103.273 5.804C103.777 5.588 104.365 5.48 105.037 5.48C105.733 5.48 106.337 5.6 106.849 5.84C107.361 6.08 107.749 6.384 108.013 6.752C108.285 7.112 108.429 7.468 108.445 7.82C108.445 7.892 108.421 7.952 108.373 8C108.325 8.048 108.265 8.072 108.193 8.072H106.609C106.513 8.072 106.433 8.056 106.369 8.024C106.313 7.992 106.261 7.94 106.213 7.868C106.165 7.684 106.033 7.528 105.817 7.4C105.609 7.272 105.349 7.208 105.037 7.208C104.677 7.208 104.401 7.272 104.209 7.4C104.017 7.528 103.921 7.716 103.921 7.964C103.921 8.132 103.973 8.272 104.077 8.384C104.189 8.496 104.365 8.6 104.605 8.696C104.853 8.784 105.205 8.876 105.661 8.972C106.405 9.108 106.997 9.28 107.437 9.488C107.885 9.688 108.213 9.952 108.421 10.28C108.629 10.6 108.733 11.004 108.733 11.492C108.733 12.028 108.577 12.496 108.265 12.896C107.961 13.288 107.533 13.592 106.981 13.808C106.437 14.016 105.813 14.12 105.109 14.12ZM110.234 14C110.154 14 110.082 13.972 110.018 13.916C109.962 13.852 109.934 13.78 109.934 13.7V5.9C109.934 5.812 109.962 5.74 110.018 5.684C110.082 5.628 110.154 5.6 110.234 5.6H115.838C115.926 5.6 115.998 5.628 116.054 5.684C116.11 5.74 116.138 5.812 116.138 5.9V7.028C116.138 7.108 116.11 7.18 116.054 7.244C115.998 7.3 115.926 7.328 115.838 7.328H112.01V8.948H115.574C115.662 8.948 115.734 8.98 115.79 9.044C115.846 9.1 115.874 9.172 115.874 9.26V10.304C115.874 10.384 115.846 10.456 115.79 10.52C115.734 10.576 115.662 10.604 115.574 10.604H112.01V12.272H115.934C116.022 12.272 116.094 12.3 116.15 12.356C116.206 12.412 116.234 12.484 116.234 12.572V13.7C116.234 13.78 116.206 13.852 116.15 13.916C116.094 13.972 116.022 14 115.934 14H110.234ZM120.996 14.12C119.844 14.12 118.944 13.84 118.296 13.28C117.648 12.712 117.304 11.908 117.264 10.868C117.256 10.636 117.252 10.268 117.252 9.764C117.252 9.26 117.256 8.892 117.264 8.66C117.304 7.644 117.652 6.86 118.308 6.308C118.972 5.756 119.868 5.48 120.996 5.48C121.756 5.48 122.416 5.604 122.976 5.852C123.544 6.1 123.976 6.416 124.272 6.8C124.576 7.184 124.736 7.58 124.752 7.988C124.752 8.06 124.724 8.12 124.668 8.168C124.62 8.216 124.56 8.24 124.488 8.24H122.736C122.656 8.24 122.592 8.228 122.544 8.204C122.496 8.18 122.456 8.136 122.424 8.072C122.32 7.84 122.156 7.64 121.932 7.472C121.708 7.296 121.396 7.208 120.996 7.208C120.044 7.208 119.544 7.712 119.496 8.72C119.488 8.944 119.484 9.292 119.484 9.764C119.484 10.228 119.488 10.576 119.496 10.808C119.544 11.864 120.056 12.392 121.032 12.392C121.504 12.392 121.88 12.272 122.16 12.032C122.448 11.784 122.592 11.408 122.592 10.904V10.676H121.464C121.376 10.676 121.304 10.648 121.248 10.592C121.192 10.528 121.164 10.452 121.164 10.364V9.476C121.164 9.388 121.192 9.316 121.248 9.26C121.304 9.196 121.376 9.164 121.464 9.164H124.488C124.576 9.164 124.648 9.196 124.704 9.26C124.76 9.316 124.788 9.388 124.788 9.476V10.844C124.788 11.524 124.632 12.112 124.32 12.608C124.008 13.096 123.564 13.472 122.988 13.736C122.42 13.992 121.756 14.12 120.996 14.12ZM129.692 14.12C128.564 14.12 127.68 13.844 127.04 13.292C126.408 12.74 126.092 11.908 126.092 10.796V5.9C126.092 5.812 126.12 5.74 126.176 5.684C126.24 5.628 126.312 5.6 126.392 5.6H127.94C128.028 5.6 128.1 5.628 128.156 5.684C128.22 5.74 128.252 5.812 128.252 5.9V10.784C128.252 11.304 128.372 11.696 128.612 11.96C128.86 12.216 129.216 12.344 129.68 12.344C130.136 12.344 130.488 12.212 130.736 11.948C130.984 11.684 131.108 11.296 131.108 10.784V5.9C131.108 5.812 131.136 5.74 131.192 5.684C131.256 5.628 131.328 5.6 131.408 5.6H132.968C133.056 5.6 133.128 5.628 133.184 5.684C133.24 5.74 133.268 5.812 133.268 5.9V10.796C133.268 11.908 132.948 12.74 132.308 13.292C131.676 13.844 130.804 14.12 129.692 14.12ZM135.16 14C135.08 14 135.008 13.972 134.944 13.916C134.888 13.852 134.86 13.78 134.86 13.7V5.9C134.86 5.812 134.888 5.74 134.944 5.684C135.008 5.628 135.08 5.6 135.16 5.6H138.424C139.472 5.6 140.288 5.84 140.872 6.32C141.464 6.792 141.76 7.464 141.76 8.336C141.76 8.896 141.628 9.372 141.364 9.764C141.1 10.156 140.736 10.456 140.272 10.664L141.916 13.616C141.94 13.664 141.952 13.708 141.952 13.748C141.952 13.812 141.924 13.872 141.868 13.928C141.82 13.976 141.764 14 141.7 14H140.104C139.872 14 139.708 13.892 139.612 13.676L138.244 11.036H137.02V13.7C137.02 13.788 136.988 13.86 136.924 13.916C136.868 13.972 136.796 14 136.708 14H135.16ZM138.4 9.332C138.768 9.332 139.048 9.244 139.24 9.068C139.432 8.884 139.528 8.632 139.528 8.312C139.528 7.992 139.432 7.74 139.24 7.556C139.056 7.364 138.776 7.268 138.4 7.268H137.02V9.332H138.4ZM146.553 14.12C145.425 14.12 144.537 13.844 143.889 13.292C143.241 12.74 142.897 11.928 142.857 10.856C142.849 10.624 142.845 10.28 142.845 9.824C142.845 9.36 142.849 9.012 142.857 8.78C142.897 7.724 143.245 6.912 143.901 6.344C144.565 5.768 145.449 5.48 146.553 5.48C147.657 5.48 148.541 5.768 149.205 6.344C149.869 6.912 150.217 7.724 150.249 8.78C150.265 9.244 150.273 9.592 150.273 9.824C150.273 10.048 150.265 10.392 150.249 10.856C150.209 11.928 149.865 12.74 149.217 13.292C148.569 13.844 147.681 14.12 146.553 14.12ZM146.553 12.392C146.993 12.392 147.341 12.26 147.597 11.996C147.861 11.732 148.001 11.328 148.017 10.784C148.033 10.32 148.041 9.992 148.041 9.8C148.041 9.592 148.033 9.264 148.017 8.816C148.001 8.272 147.861 7.868 147.597 7.604C147.333 7.34 146.985 7.208 146.553 7.208C146.121 7.208 145.773 7.34 145.509 7.604C145.253 7.868 145.113 8.272 145.089 8.816C145.081 9.04 145.077 9.368 145.077 9.8C145.077 10.224 145.081 10.552 145.089 10.784C145.113 11.328 145.253 11.732 145.509 11.996C145.765 12.26 146.113 12.392 146.553 12.392Z" fill="#00A801"/>
<path d="M39.367 26C39.307 26 39.256 25.982 39.214 25.946C39.178 25.904 39.16 25.853 39.16 25.793V20.501H37.432C37.372 20.501 37.321 20.483 37.279 20.447C37.243 20.405 37.225 20.354 37.225 20.294V19.916C37.225 19.856 37.243 19.805 37.279 19.763C37.321 19.721 37.372 19.7 37.432 19.7H41.77C41.836 19.7 41.887 19.721 41.923 19.763C41.965 19.799 41.986 19.85 41.986 19.916V20.294C41.986 20.354 41.965 20.405 41.923 20.447C41.881 20.483 41.83 20.501 41.77 20.501H40.051V25.793C40.051 25.853 40.03 25.904 39.988 25.946C39.946 25.982 39.895 26 39.835 26H39.367ZM43.2019 26C43.1419 26 43.0909 25.982 43.0489 25.946C43.0129 25.904 42.9949 25.853 42.9949 25.793V19.916C42.9949 19.85 43.0129 19.799 43.0489 19.763C43.0909 19.721 43.1419 19.7 43.2019 19.7H45.3979C46.0879 19.7 46.6279 19.862 47.0179 20.186C47.4079 20.51 47.6029 20.978 47.6029 21.59C47.6029 22.046 47.4889 22.421 47.2609 22.715C47.0389 23.009 46.7239 23.213 46.3159 23.327L47.7019 25.721C47.7199 25.757 47.7289 25.79 47.7289 25.82C47.7289 25.868 47.7079 25.91 47.6659 25.946C47.6299 25.982 47.5879 26 47.5399 26H47.1079C47.0179 26 46.9459 25.979 46.8919 25.937C46.8439 25.895 46.7989 25.835 46.7569 25.757L45.4519 23.471H43.8769V25.793C43.8769 25.853 43.8559 25.904 43.8139 25.946C43.7719 25.982 43.7209 26 43.6609 26H43.2019ZM45.3619 22.706C46.2559 22.706 46.7029 22.331 46.7029 21.581C46.7029 20.831 46.2559 20.456 45.3619 20.456H43.8769V22.706H45.3619ZM48.4694 26C48.4214 26 48.3794 25.982 48.3434 25.946C48.3074 25.91 48.2894 25.868 48.2894 25.82C48.2894 25.772 48.2924 25.739 48.2984 25.721L50.5304 19.898C50.5784 19.766 50.6744 19.7 50.8184 19.7H51.4304C51.5744 19.7 51.6704 19.766 51.7184 19.898L53.9414 25.721L53.9594 25.82C53.9594 25.868 53.9414 25.91 53.9054 25.946C53.8694 25.982 53.8274 26 53.7794 26H53.3204C53.2544 26 53.2034 25.985 53.1674 25.955C53.1314 25.919 53.1074 25.883 53.0954 25.847L52.6004 24.569H49.6484L49.1534 25.847C49.1414 25.883 49.1144 25.919 49.0724 25.955C49.0364 25.985 48.9884 26 48.9284 26H48.4694ZM52.3394 23.795L51.1244 20.6L49.9094 23.795H52.3394ZM55.1287 26C55.0687 26 55.0177 25.982 54.9757 25.946C54.9397 25.904 54.9217 25.853 54.9217 25.793V19.916C54.9217 19.85 54.9397 19.799 54.9757 19.763C55.0177 19.721 55.0687 19.7 55.1287 19.7H55.5427C55.6507 19.7 55.7257 19.742 55.7677 19.826L58.7557 24.416V19.916C58.7557 19.85 58.7737 19.799 58.8097 19.763C58.8517 19.721 58.9027 19.7 58.9627 19.7H59.3947C59.4607 19.7 59.5117 19.721 59.5477 19.763C59.5897 19.799 59.6107 19.85 59.6107 19.916V25.784C59.6107 25.844 59.5897 25.895 59.5477 25.937C59.5117 25.979 59.4637 26 59.4037 26H58.9717C58.8817 26 58.8097 25.958 58.7557 25.874L55.7767 21.329V25.793C55.7767 25.853 55.7557 25.904 55.7137 25.946C55.6717 25.982 55.6207 26 55.5607 26H55.1287ZM63.2045 26.09C62.7065 26.09 62.2745 26.012 61.9085 25.856C61.5485 25.7 61.2725 25.496 61.0805 25.244C60.8885 24.986 60.7865 24.71 60.7745 24.416C60.7745 24.368 60.7925 24.326 60.8285 24.29C60.8705 24.248 60.9185 24.227 60.9725 24.227H61.4315C61.5455 24.227 61.6235 24.287 61.6655 24.407C61.7195 24.659 61.8725 24.875 62.1245 25.055C62.3825 25.235 62.7425 25.325 63.2045 25.325C63.7025 25.325 64.0775 25.238 64.3295 25.064C64.5815 24.884 64.7075 24.635 64.7075 24.317C64.7075 24.113 64.6445 23.948 64.5185 23.822C64.3985 23.696 64.2185 23.585 63.9785 23.489C63.7385 23.393 63.3785 23.273 62.8985 23.129C62.4305 22.997 62.0585 22.856 61.7825 22.706C61.5065 22.556 61.2995 22.37 61.1615 22.148C61.0235 21.926 60.9545 21.647 60.9545 21.311C60.9545 20.987 61.0415 20.696 61.2155 20.438C61.3955 20.18 61.6505 19.979 61.9805 19.835C62.3105 19.685 62.7035 19.61 63.1595 19.61C63.6275 19.61 64.0295 19.694 64.3655 19.862C64.7015 20.024 64.9565 20.231 65.1305 20.483C65.3045 20.735 65.3975 20.987 65.4095 21.239C65.4095 21.287 65.3915 21.329 65.3555 21.365C65.3255 21.401 65.2805 21.419 65.2205 21.419H64.7435C64.6175 21.419 64.5395 21.362 64.5095 21.248C64.4735 20.996 64.3325 20.789 64.0865 20.627C63.8405 20.459 63.5315 20.375 63.1595 20.375C62.7515 20.375 62.4305 20.453 62.1965 20.609C61.9625 20.765 61.8455 20.996 61.8455 21.302C61.8455 21.506 61.8995 21.674 62.0075 21.806C62.1215 21.938 62.2925 22.055 62.5205 22.157C62.7485 22.253 63.0815 22.364 63.5195 22.49C64.0295 22.628 64.4315 22.772 64.7255 22.922C65.0195 23.066 65.2385 23.249 65.3825 23.471C65.5265 23.687 65.5985 23.963 65.5985 24.299C65.5985 24.857 65.3825 25.295 64.9505 25.613C64.5185 25.931 63.9365 26.09 63.2045 26.09ZM66.2672 26C66.2192 26 66.1772 25.982 66.1412 25.946C66.1052 25.91 66.0872 25.868 66.0872 25.82C66.0872 25.772 66.0902 25.739 66.0962 25.721L68.3282 19.898C68.3762 19.766 68.4722 19.7 68.6162 19.7H69.2282C69.3722 19.7 69.4682 19.766 69.5162 19.898L71.7392 25.721L71.7572 25.82C71.7572 25.868 71.7392 25.91 71.7032 25.946C71.6672 25.982 71.6252 26 71.5772 26H71.1182C71.0522 26 71.0012 25.985 70.9652 25.955C70.9292 25.919 70.9052 25.883 70.8932 25.847L70.3982 24.569H67.4462L66.9512 25.847C66.9392 25.883 66.9122 25.919 66.8702 25.955C66.8342 25.985 66.7862 26 66.7262 26H66.2672ZM70.1372 23.795L68.9222 20.6L67.7072 23.795H70.1372ZM74.8553 27.98C74.6513 27.98 74.4683 27.935 74.3063 27.845C74.1503 27.761 74.0723 27.677 74.0723 27.593C74.0723 27.563 74.0843 27.539 74.1083 27.521L74.2433 27.395C74.2733 27.365 74.3033 27.35 74.3333 27.35C74.3573 27.35 74.4173 27.38 74.5133 27.44C74.6033 27.5 74.7113 27.53 74.8373 27.53C74.9393 27.53 75.0233 27.5 75.0893 27.44C75.1613 27.38 75.1973 27.299 75.1973 27.197C75.1973 27.101 75.1613 27.023 75.0893 26.963C75.0233 26.909 74.9393 26.882 74.8373 26.882C74.7713 26.882 74.6963 26.897 74.6123 26.927C74.5223 26.951 74.4623 26.963 74.4323 26.963C74.3783 26.963 74.3363 26.945 74.3063 26.909L74.1533 26.747C74.1353 26.723 74.1263 26.699 74.1263 26.675C74.1263 26.645 74.1353 26.609 74.1533 26.567C74.1713 26.525 74.1833 26.495 74.1893 26.477L74.3693 26.054C73.7273 25.964 73.2383 25.712 72.9023 25.298C72.5723 24.878 72.3953 24.329 72.3713 23.651C72.3653 23.489 72.3623 23.225 72.3623 22.859C72.3623 22.487 72.3653 22.217 72.3713 22.049C72.4013 21.293 72.6263 20.699 73.0463 20.267C73.4663 19.829 74.0753 19.61 74.8733 19.61C75.4073 19.61 75.8603 19.706 76.2323 19.898C76.6043 20.084 76.8863 20.33 77.0783 20.636C77.2703 20.942 77.3753 21.269 77.3933 21.617V21.635C77.3933 21.683 77.3723 21.725 77.3303 21.761C77.2943 21.791 77.2523 21.806 77.2043 21.806H76.7093C76.5893 21.806 76.5143 21.737 76.4843 21.599C76.3823 21.149 76.1993 20.834 75.9353 20.654C75.6713 20.468 75.3173 20.375 74.8733 20.375C73.8413 20.375 73.3073 20.948 73.2713 22.094C73.2653 22.256 73.2623 22.505 73.2623 22.841C73.2623 23.177 73.2653 23.432 73.2713 23.606C73.3073 24.752 73.8413 25.325 74.8733 25.325C75.3173 25.325 75.6713 25.235 75.9353 25.055C76.2053 24.869 76.3883 24.551 76.4843 24.101C76.5023 24.023 76.5293 23.969 76.5653 23.939C76.6013 23.909 76.6493 23.894 76.7093 23.894H77.2043C77.2583 23.894 77.3033 23.912 77.3393 23.948C77.3813 23.978 77.3993 24.02 77.3933 24.074C77.3753 24.428 77.2703 24.758 77.0783 25.064C76.8863 25.37 76.6043 25.619 76.2323 25.811C75.8603 25.997 75.4073 26.09 74.8733 26.09L74.6753 26.504C74.7533 26.456 74.8613 26.432 74.9993 26.432C75.2033 26.432 75.3683 26.501 75.4943 26.639C75.6263 26.783 75.6923 26.966 75.6923 27.188C75.6923 27.416 75.6203 27.605 75.4763 27.755C75.3323 27.905 75.1253 27.98 74.8553 27.98ZM80.8674 26.09C80.0814 26.09 79.4724 25.886 79.0404 25.478C78.6144 25.064 78.3894 24.443 78.3654 23.615C78.3594 23.435 78.3564 23.18 78.3564 22.85C78.3564 22.52 78.3594 22.268 78.3654 22.094C78.3894 21.284 78.6234 20.669 79.0674 20.249C79.5114 19.823 80.1114 19.61 80.8674 19.61C81.6174 19.61 82.2144 19.823 82.6584 20.249C83.1024 20.669 83.3364 21.284 83.3604 22.094C83.3724 22.442 83.3784 22.694 83.3784 22.85C83.3784 23 83.3724 23.255 83.3604 23.615C83.3364 24.443 83.1084 25.064 82.6764 25.478C82.2504 25.886 81.6474 26.09 80.8674 26.09ZM80.8674 25.325C81.3414 25.325 81.7194 25.181 82.0014 24.893C82.2834 24.605 82.4364 24.164 82.4604 23.57C82.4724 23.21 82.4784 22.97 82.4784 22.85C82.4784 22.718 82.4724 22.478 82.4604 22.13C82.4364 21.536 82.2804 21.095 81.9924 20.807C81.7104 20.519 81.3354 20.375 80.8674 20.375C80.3934 20.375 80.0124 20.519 79.7244 20.807C79.4424 21.095 79.2894 21.536 79.2654 22.13C79.2594 22.304 79.2564 22.544 79.2564 22.85C79.2564 23.15 79.2594 23.39 79.2654 23.57C79.2894 24.164 79.4424 24.605 79.7244 24.893C80.0124 25.181 80.3934 25.325 80.8674 25.325ZM81.3354 19.295C81.2274 19.295 81.1314 19.28 81.0474 19.25C80.9694 19.22 80.8794 19.175 80.7774 19.115C80.7234 19.085 80.6664 19.058 80.6064 19.034C80.5464 19.004 80.4894 18.989 80.4354 18.989C80.3874 18.989 80.3484 18.998 80.3184 19.016C80.2944 19.034 80.2734 19.055 80.2554 19.079C80.2374 19.103 80.2254 19.118 80.2194 19.124C80.1714 19.208 80.1144 19.25 80.0484 19.25H79.7604C79.7184 19.25 79.6824 19.235 79.6524 19.205C79.6224 19.175 79.6074 19.142 79.6074 19.106C79.6074 18.98 79.6374 18.854 79.6974 18.728C79.7634 18.596 79.8534 18.488 79.9674 18.404C80.0874 18.314 80.2254 18.269 80.3814 18.269C80.4894 18.269 80.5824 18.284 80.6604 18.314C80.7384 18.344 80.8344 18.389 80.9484 18.449C81.0024 18.479 81.0594 18.509 81.1194 18.539C81.1854 18.563 81.2454 18.575 81.2994 18.575C81.3534 18.575 81.3924 18.563 81.4164 18.539C81.4464 18.515 81.4764 18.479 81.5064 18.431C81.5304 18.389 81.5544 18.359 81.5784 18.341C81.6024 18.317 81.6354 18.305 81.6774 18.305H81.9654C82.0134 18.305 82.0494 18.32 82.0734 18.35C82.1034 18.38 82.1184 18.416 82.1184 18.458C82.1184 18.578 82.0854 18.704 82.0194 18.836C81.9534 18.968 81.8604 19.079 81.7404 19.169C81.6204 19.253 81.4854 19.295 81.3354 19.295ZM84.8972 26C84.8372 26 84.7862 25.982 84.7442 25.946C84.7082 25.904 84.6902 25.853 84.6902 25.793V19.916C84.6902 19.85 84.7082 19.799 84.7442 19.763C84.7862 19.721 84.8372 19.7 84.8972 19.7H88.6142C88.6742 19.7 88.7222 19.721 88.7582 19.763C88.8002 19.799 88.8212 19.85 88.8212 19.916V20.258C88.8212 20.318 88.8032 20.369 88.7672 20.411C88.7312 20.447 88.6802 20.465 88.6142 20.465H85.5542V22.436H88.4162C88.4762 22.436 88.5242 22.457 88.5602 22.499C88.6022 22.535 88.6232 22.586 88.6232 22.652V22.985C88.6232 23.045 88.6022 23.096 88.5602 23.138C88.5242 23.174 88.4762 23.192 88.4162 23.192H85.5542V25.235H88.6862C88.7522 25.235 88.8032 25.253 88.8392 25.289C88.8752 25.325 88.8932 25.376 88.8932 25.442V25.793C88.8932 25.853 88.8722 25.904 88.8302 25.946C88.7942 25.982 88.7462 26 88.6862 26H84.8972ZM92.1732 26.09C91.6752 26.09 91.2432 26.012 90.8772 25.856C90.5172 25.7 90.2412 25.496 90.0492 25.244C89.8572 24.986 89.7552 24.71 89.7432 24.416C89.7432 24.368 89.7612 24.326 89.7972 24.29C89.8392 24.248 89.8872 24.227 89.9412 24.227H90.4002C90.5142 24.227 90.5922 24.287 90.6342 24.407C90.6882 24.659 90.8412 24.875 91.0932 25.055C91.3512 25.235 91.7112 25.325 92.1732 25.325C92.6712 25.325 93.0462 25.238 93.2982 25.064C93.5502 24.884 93.6762 24.635 93.6762 24.317C93.6762 24.113 93.6132 23.948 93.4872 23.822C93.3672 23.696 93.1872 23.585 92.9472 23.489C92.7072 23.393 92.3472 23.273 91.8672 23.129C91.3992 22.997 91.0272 22.856 90.7512 22.706C90.4752 22.556 90.2682 22.37 90.1302 22.148C89.9922 21.926 89.9232 21.647 89.9232 21.311C89.9232 20.987 90.0102 20.696 90.1842 20.438C90.3642 20.18 90.6192 19.979 90.9492 19.835C91.2792 19.685 91.6722 19.61 92.1282 19.61C92.5962 19.61 92.9982 19.694 93.3342 19.862C93.6702 20.024 93.9252 20.231 94.0992 20.483C94.2732 20.735 94.3662 20.987 94.3782 21.239C94.3782 21.287 94.3602 21.329 94.3242 21.365C94.2942 21.401 94.2492 21.419 94.1892 21.419H93.7122C93.5862 21.419 93.5082 21.362 93.4782 21.248C93.4422 20.996 93.3012 20.789 93.0552 20.627C92.8092 20.459 92.5002 20.375 92.1282 20.375C91.7202 20.375 91.3992 20.453 91.1652 20.609C90.9312 20.765 90.8142 20.996 90.8142 21.302C90.8142 21.506 90.8682 21.674 90.9762 21.806C91.0902 21.938 91.2612 22.055 91.4892 22.157C91.7172 22.253 92.0502 22.364 92.4882 22.49C92.9982 22.628 93.4002 22.772 93.6942 22.922C93.9882 23.066 94.2072 23.249 94.3512 23.471C94.4952 23.687 94.5672 23.963 94.5672 24.299C94.5672 24.857 94.3512 25.295 93.9192 25.613C93.4872 25.931 92.9052 26.09 92.1732 26.09ZM100.221 26.09C99.4169 26.09 98.8049 25.874 98.3849 25.442C97.9709 25.01 97.7489 24.413 97.7189 23.651C97.7129 23.489 97.7099 23.225 97.7099 22.859C97.7099 22.487 97.7129 22.217 97.7189 22.049C97.7489 21.293 97.9739 20.699 98.3939 20.267C98.8139 19.829 99.4229 19.61 100.221 19.61C100.755 19.61 101.208 19.706 101.58 19.898C101.952 20.084 102.234 20.33 102.426 20.636C102.618 20.942 102.723 21.269 102.741 21.617V21.635C102.741 21.683 102.72 21.725 102.678 21.761C102.642 21.791 102.6 21.806 102.552 21.806H102.057C101.937 21.806 101.862 21.737 101.832 21.599C101.73 21.149 101.547 20.834 101.283 20.654C101.019 20.468 100.665 20.375 100.221 20.375C99.1889 20.375 98.6549 20.948 98.6189 22.094C98.6129 22.256 98.6099 22.505 98.6099 22.841C98.6099 23.177 98.6129 23.432 98.6189 23.606C98.6549 24.752 99.1889 25.325 100.221 25.325C100.665 25.325 101.019 25.235 101.283 25.055C101.553 24.869 101.736 24.551 101.832 24.101C101.85 24.023 101.877 23.969 101.913 23.939C101.949 23.909 101.997 23.894 102.057 23.894H102.552C102.606 23.894 102.651 23.912 102.687 23.948C102.729 23.978 102.747 24.02 102.741 24.074C102.723 24.428 102.618 24.758 102.426 25.064C102.234 25.37 101.952 25.619 101.58 25.811C101.208 25.997 100.755 26.09 100.221 26.09ZM104.154 26C104.094 26 104.043 25.982 104.001 25.946C103.965 25.904 103.947 25.853 103.947 25.793V19.916C103.947 19.85 103.965 19.799 104.001 19.763C104.043 19.721 104.094 19.7 104.154 19.7H106.35C107.04 19.7 107.58 19.862 107.97 20.186C108.36 20.51 108.555 20.978 108.555 21.59C108.555 22.046 108.441 22.421 108.213 22.715C107.991 23.009 107.676 23.213 107.268 23.327L108.654 25.721C108.672 25.757 108.681 25.79 108.681 25.82C108.681 25.868 108.66 25.91 108.618 25.946C108.582 25.982 108.54 26 108.492 26H108.06C107.97 26 107.898 25.979 107.844 25.937C107.796 25.895 107.751 25.835 107.709 25.757L106.404 23.471H104.829V25.793C104.829 25.853 104.808 25.904 104.766 25.946C104.724 25.982 104.673 26 104.613 26H104.154ZM106.314 22.706C107.208 22.706 107.655 22.331 107.655 21.581C107.655 20.831 107.208 20.456 106.314 20.456H104.829V22.706H106.314ZM110.052 26C109.992 26 109.941 25.982 109.899 25.946C109.863 25.904 109.845 25.853 109.845 25.793V19.907C109.845 19.847 109.863 19.799 109.899 19.763C109.941 19.721 109.992 19.7 110.052 19.7H110.529C110.589 19.7 110.637 19.721 110.673 19.763C110.715 19.799 110.736 19.847 110.736 19.907V25.793C110.736 25.853 110.715 25.904 110.673 25.946C110.637 25.982 110.589 26 110.529 26H110.052ZM112.512 26C112.452 26 112.401 25.982 112.359 25.946C112.323 25.904 112.305 25.853 112.305 25.793V19.916C112.305 19.85 112.323 19.799 112.359 19.763C112.401 19.721 112.452 19.7 112.512 19.7H114.798C115.476 19.7 116.01 19.865 116.4 20.195C116.79 20.525 116.985 21.002 116.985 21.626C116.985 22.25 116.79 22.727 116.4 23.057C116.016 23.381 115.482 23.543 114.798 23.543H113.205V25.793C113.205 25.853 113.184 25.904 113.142 25.946C113.1 25.982 113.049 26 112.989 26H112.512ZM114.753 22.787C115.191 22.787 115.521 22.688 115.743 22.49C115.971 22.292 116.085 22.004 116.085 21.626C116.085 21.248 115.974 20.96 115.752 20.762C115.53 20.558 115.197 20.456 114.753 20.456H113.196V22.787H114.753ZM119.664 26C119.604 26 119.553 25.982 119.511 25.946C119.475 25.904 119.457 25.853 119.457 25.793V20.501H117.729C117.669 20.501 117.618 20.483 117.576 20.447C117.54 20.405 117.522 20.354 117.522 20.294V19.916C117.522 19.856 117.54 19.805 117.576 19.763C117.618 19.721 117.669 19.7 117.729 19.7H122.067C122.133 19.7 122.184 19.721 122.22 19.763C122.262 19.799 122.283 19.85 122.283 19.916V20.294C122.283 20.354 122.262 20.405 122.22 20.447C122.178 20.483 122.127 20.501 122.067 20.501H120.348V25.793C120.348 25.853 120.327 25.904 120.285 25.946C120.243 25.982 120.192 26 120.132 26H119.664ZM125.428 26.09C124.642 26.09 124.033 25.886 123.601 25.478C123.175 25.064 122.95 24.443 122.926 23.615C122.92 23.435 122.917 23.18 122.917 22.85C122.917 22.52 122.92 22.268 122.926 22.094C122.95 21.284 123.184 20.669 123.628 20.249C124.072 19.823 124.672 19.61 125.428 19.61C126.178 19.61 126.775 19.823 127.219 20.249C127.663 20.669 127.897 21.284 127.921 22.094C127.933 22.442 127.939 22.694 127.939 22.85C127.939 23 127.933 23.255 127.921 23.615C127.897 24.443 127.669 25.064 127.237 25.478C126.811 25.886 126.208 26.09 125.428 26.09ZM125.428 25.325C125.902 25.325 126.28 25.181 126.562 24.893C126.844 24.605 126.997 24.164 127.021 23.57C127.033 23.21 127.039 22.97 127.039 22.85C127.039 22.718 127.033 22.478 127.021 22.13C126.997 21.536 126.841 21.095 126.553 20.807C126.271 20.519 125.896 20.375 125.428 20.375C124.954 20.375 124.573 20.519 124.285 20.807C124.003 21.095 123.85 21.536 123.826 22.13C123.82 22.304 123.817 22.544 123.817 22.85C123.817 23.15 123.82 23.39 123.826 23.57C123.85 24.164 124.003 24.605 124.285 24.893C124.573 25.181 124.954 25.325 125.428 25.325ZM131.546 26.09C130.76 26.09 130.148 25.877 129.71 25.451C129.278 25.019 129.047 24.431 129.017 23.687C129.011 23.507 129.008 23.225 129.008 22.841C129.008 22.451 129.011 22.169 129.017 21.995C129.047 21.257 129.281 20.675 129.719 20.249C130.157 19.823 130.766 19.61 131.546 19.61C132.074 19.61 132.521 19.706 132.887 19.898C133.259 20.084 133.538 20.312 133.724 20.582C133.91 20.852 134.009 21.104 134.021 21.338V21.356C134.021 21.404 134.003 21.443 133.967 21.473C133.931 21.503 133.886 21.518 133.832 21.518H133.301C133.241 21.518 133.196 21.509 133.166 21.491C133.142 21.467 133.118 21.422 133.094 21.356C133.004 21.086 132.83 20.855 132.572 20.663C132.32 20.471 131.978 20.375 131.546 20.375C131.048 20.375 130.658 20.51 130.376 20.78C130.094 21.05 129.941 21.47 129.917 22.04C129.911 22.214 129.908 22.481 129.908 22.841C129.908 23.195 129.911 23.462 129.917 23.642C129.941 24.218 130.094 24.644 130.376 24.92C130.658 25.19 131.048 25.325 131.546 25.325C132.05 25.325 132.452 25.187 132.752 24.911C133.052 24.635 133.202 24.221 133.202 23.669V23.291H131.852C131.792 23.291 131.741 23.273 131.699 23.237C131.663 23.195 131.645 23.141 131.645 23.075V22.787C131.645 22.727 131.663 22.676 131.699 22.634C131.741 22.592 131.792 22.571 131.852 22.571H133.886C133.946 22.571 133.994 22.592 134.03 22.634C134.072 22.67 134.093 22.721 134.093 22.787V23.651C134.093 24.143 133.991 24.572 133.787 24.938C133.583 25.304 133.289 25.589 132.905 25.793C132.521 25.991 132.068 26.09 131.546 26.09ZM135.584 26C135.524 26 135.473 25.982 135.431 25.946C135.395 25.904 135.377 25.853 135.377 25.793V19.916C135.377 19.85 135.395 19.799 135.431 19.763C135.473 19.721 135.524 19.7 135.584 19.7H137.78C138.47 19.7 139.01 19.862 139.4 20.186C139.79 20.51 139.985 20.978 139.985 21.59C139.985 22.046 139.871 22.421 139.643 22.715C139.421 23.009 139.106 23.213 138.698 23.327L140.084 25.721C140.102 25.757 140.111 25.79 140.111 25.82C140.111 25.868 140.09 25.91 140.048 25.946C140.012 25.982 139.97 26 139.922 26H139.49C139.4 26 139.328 25.979 139.274 25.937C139.226 25.895 139.181 25.835 139.139 25.757L137.834 23.471H136.259V25.793C136.259 25.853 136.238 25.904 136.196 25.946C136.154 25.982 136.103 26 136.043 26H135.584ZM137.744 22.706C138.638 22.706 139.085 22.331 139.085 21.581C139.085 20.831 138.638 20.456 137.744 20.456H136.259V22.706H137.744ZM140.851 26C140.803 26 140.761 25.982 140.725 25.946C140.689 25.91 140.671 25.868 140.671 25.82C140.671 25.772 140.674 25.739 140.68 25.721L142.912 19.898C142.96 19.766 143.056 19.7 143.2 19.7H143.812C143.956 19.7 144.052 19.766 144.1 19.898L146.323 25.721L146.341 25.82C146.341 25.868 146.323 25.91 146.287 25.946C146.251 25.982 146.209 26 146.161 26H145.702C145.636 26 145.585 25.985 145.549 25.955C145.513 25.919 145.489 25.883 145.477 25.847L144.982 24.569H142.03L141.535 25.847C141.523 25.883 141.496 25.919 141.454 25.955C141.418 25.985 141.37 26 141.31 26H140.851ZM144.721 23.795L143.506 20.6L142.291 23.795H144.721ZM147.511 26C147.451 26 147.4 25.982 147.358 25.946C147.322 25.904 147.304 25.853 147.304 25.793V19.916C147.304 19.85 147.322 19.799 147.358 19.763C147.4 19.721 147.451 19.7 147.511 19.7H151.183C151.249 19.7 151.3 19.721 151.336 19.763C151.378 19.799 151.399 19.85 151.399 19.916V20.276C151.399 20.336 151.378 20.387 151.336 20.429C151.3 20.465 151.249 20.483 151.183 20.483H148.177V22.58H151.003C151.069 22.58 151.12 22.601 151.156 22.643C151.198 22.679 151.219 22.73 151.219 22.796V23.156C151.219 23.216 151.198 23.267 151.156 23.309C151.114 23.345 151.063 23.363 151.003 23.363H148.177V25.793C148.177 25.853 148.156 25.904 148.114 25.946C148.072 25.982 148.021 26 147.961 26H147.511ZM151.75 26C151.702 26 151.66 25.982 151.624 25.946C151.588 25.91 151.57 25.868 151.57 25.82C151.57 25.772 151.573 25.739 151.579 25.721L153.811 19.898C153.859 19.766 153.955 19.7 154.099 19.7H154.711C154.855 19.7 154.951 19.766 154.999 19.898L157.222 25.721L157.24 25.82C157.24 25.868 157.222 25.91 157.186 25.946C157.15 25.982 157.108 26 157.06 26H156.601C156.535 26 156.484 25.985 156.448 25.955C156.412 25.919 156.388 25.883 156.376 25.847L155.881 24.569H152.929L152.434 25.847C152.422 25.883 152.395 25.919 152.353 25.955C152.317 25.985 152.269 26 152.209 26H151.75ZM155.62 23.795L154.405 20.6L153.19 23.795H155.62ZM158.409 26C158.349 26 158.298 25.982 158.256 25.946C158.22 25.904 158.202 25.853 158.202 25.793V19.916C158.202 19.85 158.22 19.799 158.256 19.763C158.298 19.721 158.349 19.7 158.409 19.7H160.452C161.358 19.7 162.012 19.904 162.414 20.312C162.816 20.714 163.026 21.323 163.044 22.139C163.05 22.313 163.053 22.547 163.053 22.841C163.053 23.135 163.05 23.372 163.044 23.552C163.026 24.122 162.93 24.587 162.756 24.947C162.588 25.301 162.321 25.565 161.955 25.739C161.589 25.913 161.103 26 160.497 26H158.409ZM160.452 25.235C160.866 25.235 161.193 25.178 161.433 25.064C161.679 24.95 161.856 24.77 161.964 24.524C162.078 24.272 162.141 23.936 162.153 23.516C162.165 23.156 162.171 22.931 162.171 22.841C162.171 22.745 162.165 22.523 162.153 22.175C162.141 21.581 162 21.149 161.73 20.879C161.46 20.603 161.019 20.465 160.407 20.465H159.084V25.235H160.452ZM163.879 26C163.831 26 163.789 25.982 163.753 25.946C163.717 25.91 163.699 25.868 163.699 25.82C163.699 25.772 163.702 25.739 163.708 25.721L165.94 19.898C165.988 19.766 166.084 19.7 166.228 19.7H166.84C166.984 19.7 167.08 19.766 167.128 19.898L169.351 25.721L169.369 25.82C169.369 25.868 169.351 25.91 169.315 25.946C169.279 25.982 169.237 26 169.189 26H168.73C168.664 26 168.613 25.985 168.577 25.955C168.541 25.919 168.517 25.883 168.505 25.847L168.01 24.569H165.058L164.563 25.847C164.551 25.883 164.524 25.919 164.482 25.955C164.446 25.985 164.398 26 164.338 26H163.879ZM167.749 23.795L166.534 20.6L165.319 23.795H167.749ZM172.268 26.09C171.77 26.09 171.338 26.012 170.972 25.856C170.612 25.7 170.336 25.496 170.144 25.244C169.952 24.986 169.85 24.71 169.838 24.416C169.838 24.368 169.856 24.326 169.892 24.29C169.934 24.248 169.982 24.227 170.036 24.227H170.495C170.609 24.227 170.687 24.287 170.729 24.407C170.783 24.659 170.936 24.875 171.188 25.055C171.446 25.235 171.806 25.325 172.268 25.325C172.766 25.325 173.141 25.238 173.393 25.064C173.645 24.884 173.771 24.635 173.771 24.317C173.771 24.113 173.708 23.948 173.582 23.822C173.462 23.696 173.282 23.585 173.042 23.489C172.802 23.393 172.442 23.273 171.962 23.129C171.494 22.997 171.122 22.856 170.846 22.706C170.57 22.556 170.363 22.37 170.225 22.148C170.087 21.926 170.018 21.647 170.018 21.311C170.018 20.987 170.105 20.696 170.279 20.438C170.459 20.18 170.714 19.979 171.044 19.835C171.374 19.685 171.767 19.61 172.223 19.61C172.691 19.61 173.093 19.694 173.429 19.862C173.765 20.024 174.02 20.231 174.194 20.483C174.368 20.735 174.461 20.987 174.473 21.239C174.473 21.287 174.455 21.329 174.419 21.365C174.389 21.401 174.344 21.419 174.284 21.419H173.807C173.681 21.419 173.603 21.362 173.573 21.248C173.537 20.996 173.396 20.789 173.15 20.627C172.904 20.459 172.595 20.375 172.223 20.375C171.815 20.375 171.494 20.453 171.26 20.609C171.026 20.765 170.909 20.996 170.909 21.302C170.909 21.506 170.963 21.674 171.071 21.806C171.185 21.938 171.356 22.055 171.584 22.157C171.812 22.253 172.145 22.364 172.583 22.49C173.093 22.628 173.495 22.772 173.789 22.922C174.083 23.066 174.302 23.249 174.446 23.471C174.59 23.687 174.662 23.963 174.662 24.299C174.662 24.857 174.446 25.295 174.014 25.613C173.582 25.931 173 26.09 172.268 26.09Z" fill="black"/>
</svg>
