<svg width="20" height="15" viewBox="0 0 20 15" fill="none" xmlns="http://www.w3.org/2000/svg">
<path d="M6.9185 14.5098C6.7309 14.51 6.54512 14.4731 6.37182 14.4013C6.19851 14.3295 6.04112 14.2241 5.90867 14.0913L0.424104 8.60678C0.290241 8.47444 0.183859 8.31695 0.111077 8.14335C0.0382944 7.96975 0.000547356 7.78348 5.90879e-06 7.59525C-0.000535539 7.40701 0.0361395 7.22053 0.107922 7.04651C0.179704 6.8725 0.285177 6.7144 0.418277 6.58129C0.551377 6.44819 0.709476 6.3427 0.883484 6.27091C1.05749 6.19912 1.24398 6.16244 1.43221 6.16297C1.62045 6.1635 1.80672 6.20124 1.98032 6.27401C2.15392 6.34679 2.31142 6.45316 2.44376 6.58702L6.9185 11.0617L17.5641 0.416186C17.8321 0.149274 18.1951 -0.000403345 18.5734 8.16371e-07C18.9516 0.000404978 19.3143 0.150857 19.5817 0.418342C19.8492 0.685827 19.9996 1.04849 20 1.42676C20.0004 1.80502 19.8507 2.16799 19.5837 2.436L7.92834 14.0914C7.79588 14.2242 7.63847 14.3296 7.46517 14.4014C7.29187 14.4732 7.10608 14.51 6.9185 14.5098Z" fill="#2715FF"/>
</svg>
