<svg width="12" height="8" viewBox="0 0 12 8" fill="none" xmlns="http://www.w3.org/2000/svg">
<path d="M-0.000322342 1.49686C-0.00028038 1.29911 0.0583916 1.10581 0.168276 0.941399C0.27816 0.776989 0.434323 0.648849 0.617023 0.573179C0.799724 0.497509 1.00076 0.477706 1.19471 0.516274C1.38866 0.554842 1.56683 0.650048 1.70668 0.789857L5.99968 5.0828L10.2927 0.789857C10.4808 0.605147 10.7342 0.502187 10.9978 0.503381C11.2614 0.504575 11.5139 0.609825 11.7003 0.796232C11.8867 0.982638 11.992 1.23512 11.9932 1.49873C11.9943 1.76235 11.8914 2.01577 11.7067 2.20386L6.70668 7.20386C6.61385 7.29674 6.50363 7.37042 6.38231 7.42069C6.261 7.47096 6.13097 7.49683 5.99965 7.49683C5.86833 7.49683 5.7383 7.47096 5.61698 7.42069C5.49567 7.37042 5.38545 7.29674 5.29262 7.20386L0.292618 2.20386C0.19962 2.11112 0.125865 2.00092 0.075592 1.87959C0.0253191 1.75826 -0.000478745 1.62819 -0.000322342 1.49686Z" fill="#2715FF"/>
</svg>
