<svg width="163" height="20" viewBox="0 0 163 20" fill="none" xmlns="http://www.w3.org/2000/svg">
<path d="M0 6.45569H7.1332L0 2.38911V6.45569Z" fill="white"/>
<path d="M14.2346 6.06824L3.9707 0.00015357H14.2346V6.06824Z" fill="white"/>
<path d="M0 1.42092L8.77385 6.58484H11.2645L0 0.000523838V1.42092Z" fill="white"/>
<path d="M34.3747 17.559V13.4923H27.2412L34.3747 17.559Z" fill="white"/>
<path d="M20.1416 13.8789L30.4055 19.9469H20.1416V13.8789Z" fill="white"/>
<path d="M23.1104 13.363H25.601L34.3752 18.5273V19.9477L23.1104 13.363Z" fill="white"/>
<path d="M0 13.4922V17.559L7.1332 13.4922H0Z" fill="white"/>
<path d="M14.2346 13.8797L3.9707 19.9477H14.2346V13.8797Z" fill="white"/>
<path d="M34.3747 2.38911V6.45569H27.2412L34.3747 2.38911Z" fill="white"/>
<path d="M20.1416 6.06824L30.4055 0.00015357H20.1416V6.06824Z" fill="white"/>
<path d="M11.0708 13.4923L0 19.9477H2.29197L13.3303 13.4923H11.0708" fill="white"/>
<path d="M23.2711 6.45508H20.9785L32.0498 0.00033653H34.3739L23.2711 6.45508Z" fill="white"/>
<path d="M0.0585938 12.0723H34.4405V8.00475H0.0585938V12.0723Z" fill="white"/>
<path d="M19.2807 19.9469H15.2139V6.2932e-06H19.2807V19.9469Z" fill="white"/>
<path d="M39.126 3.62685H41.3483V11.0225C41.3483 11.4496 41.369 11.8825 41.4107 12.3207C41.452 12.7593 41.5706 13.1534 41.7663 13.503C41.9619 13.8525 42.2578 14.1402 42.6553 14.3654C43.0522 14.5905 43.6121 14.7028 44.3352 14.7028C45.0582 14.7028 45.618 14.5905 46.0155 14.3654C46.4124 14.1402 46.7087 13.8525 46.9042 13.503C47.0999 13.1534 47.2181 12.7593 47.2599 12.3207C47.3012 11.8825 47.3223 11.4496 47.3223 11.0225V3.62685H49.5446V11.7518C49.5446 12.5695 49.4202 13.2807 49.1711 13.8849C48.922 14.4897 48.5692 14.9962 48.1132 15.4054C47.6568 15.8139 47.1088 16.1195 46.4688 16.3209C45.8287 16.5223 45.1175 16.6229 44.3352 16.6229C43.5529 16.6229 42.8418 16.5223 42.2017 16.3209C41.5616 16.1195 41.0133 15.8139 40.5572 15.4054C40.1009 14.9962 39.7481 14.4897 39.4993 13.8849C39.2504 13.2807 39.126 12.5695 39.126 11.7518V3.62685" fill="white"/>
<path d="M51.5693 3.62728H53.7921V9.4053L59.4456 3.62728H62.1834L57.1168 8.69409L62.539 16.3214H59.7655L55.6053 10.2586L53.7921 12.0543V16.3214H51.5693V3.62728" fill="white"/>
<path d="M78.8789 16.3209H77.456L77.1187 14.8278C76.5257 15.5031 75.9332 15.9713 75.3407 16.2317C74.7477 16.4928 74.0661 16.6229 73.2958 16.6229C72.3477 16.6229 71.4971 16.4481 70.7451 16.0986C69.9921 15.7492 69.3551 15.2722 68.8339 14.6674C68.3117 14.0632 67.912 13.3577 67.6338 12.5516C67.3552 11.746 67.2158 10.8865 67.2158 9.97388C67.2158 9.07338 67.3552 8.2198 67.6338 7.41345C67.912 6.60786 68.3117 5.90233 68.8339 5.29814C69.3551 4.69342 69.9921 4.21364 70.7451 3.85776C71.4971 3.50244 72.3477 3.32469 73.2958 3.32469C73.983 3.32469 74.6384 3.41668 75.261 3.6003C75.883 3.78429 76.4366 4.05625 76.9231 4.418C77.4087 4.77974 77.8121 5.23293 78.1321 5.7781C78.4515 6.32328 78.6533 6.95164 78.7363 7.66233H76.5675C76.5079 7.24799 76.3808 6.88329 76.1852 6.5692C75.9895 6.25549 75.7437 5.99161 75.4477 5.7781C75.1507 5.56441 74.819 5.40482 74.4517 5.29814C74.0844 5.19113 73.6988 5.13797 73.2958 5.13797C72.6207 5.13797 72.0366 5.27449 71.545 5.54701C71.0529 5.81972 70.6527 6.18418 70.3449 6.64032C70.0367 7.09697 69.8087 7.6156 69.6605 8.19596C69.5118 8.77708 69.4381 9.36917 69.4381 9.97388C69.4381 10.5781 69.5118 11.1713 69.6605 11.7518C69.8087 12.3328 70.0367 12.8513 70.3449 13.3075C70.6527 13.764 71.0529 14.1281 71.545 14.4006C72.0366 14.6738 72.6207 14.8098 73.2958 14.8098C73.8648 14.8213 74.3687 14.7473 74.8073 14.5875C75.246 14.4272 75.6161 14.1963 75.9187 13.8943C76.2208 13.5915 76.4488 13.2217 76.6027 12.783C76.757 12.3443 76.8401 11.8583 76.8518 11.3252H73.474V9.63578H78.8789V16.3209Z" fill="white"/>
<path d="M84.7701 14.9697C85.2204 14.9697 85.6117 14.8753 85.9434 14.6855C86.275 14.4956 86.5481 14.2467 86.7611 13.9389C86.9745 13.6305 87.1312 13.2838 87.2325 12.8984C87.3329 12.5133 87.3836 12.1194 87.3836 11.7166C87.3836 11.3253 87.3329 10.9341 87.2325 10.5428C87.1312 10.1515 86.9745 9.80505 86.7611 9.50283C86.5481 9.20085 86.275 8.95475 85.9434 8.76508C85.6117 8.57578 85.2204 8.48027 84.7701 8.48027C84.3192 8.48027 83.928 8.57578 83.5963 8.76508C83.2646 8.95475 82.9921 9.20085 82.7786 9.50283C82.5656 9.80505 82.4085 10.1515 82.3076 10.5428C82.2067 10.9341 82.1565 11.3253 82.1565 11.7166C82.1565 12.1194 82.2067 12.5133 82.3076 12.8984C82.4085 13.2838 82.5656 13.6305 82.7786 13.9389C82.9921 14.2467 83.2646 14.4956 83.5963 14.6855C83.928 14.8753 84.3192 14.9697 84.7701 14.9697ZM84.7701 16.5699C84.0349 16.5699 83.38 16.4482 82.8053 16.2052C82.2307 15.9628 81.7446 15.6276 81.3473 15.2011C80.9504 14.774 80.6483 14.2647 80.4414 13.6721C80.2336 13.0794 80.1299 12.4272 80.1299 11.7166C80.1299 11.0169 80.2336 10.3709 80.4414 9.77826C80.6483 9.18565 80.9504 8.6758 81.3473 8.24941C81.7446 7.82278 82.2307 7.48758 82.8053 7.24462C83.38 7.00217 84.0349 6.88067 84.7701 6.88067C85.5047 6.88067 86.1596 7.00217 86.7343 7.24462C87.3095 7.48758 87.795 7.82278 88.1924 8.24941C88.5893 8.6758 88.8919 9.18565 89.0992 9.77826C89.3061 10.3709 89.4102 11.0169 89.4102 11.7166C89.4102 12.4272 89.3061 13.0794 89.0992 13.6721C88.8919 14.2647 88.5893 14.774 88.1924 15.2011C87.795 15.6276 87.3095 15.9628 86.7343 16.2052C86.1596 16.4482 85.5047 16.5699 84.7701 16.5699Z" fill="white"/>
<path d="M89.3232 7.12987H91.5282L93.8569 14.1881H93.8931L96.1327 7.12987H98.2307L94.9416 16.3214H92.6663L89.3232 7.12987Z" fill="white"/>
<path d="M104.879 10.9161C104.856 10.5961 104.787 10.2883 104.675 9.99195C104.562 9.69565 104.408 9.438 104.212 9.21807C104.017 8.99946 103.78 8.82114 103.501 8.68518C103.223 8.54899 102.911 8.48027 102.568 8.48027C102.212 8.48027 101.89 8.5428 101.599 8.66722C101.308 8.79163 101.059 8.96352 100.852 9.18289C100.645 9.40225 100.479 9.66027 100.355 9.95606C100.23 10.2524 100.161 10.5723 100.15 10.9161H104.879ZM100.15 12.2495C100.15 12.6055 100.2 12.9493 100.301 13.2808C100.402 13.6125 100.553 13.903 100.754 14.1518C100.956 14.4007 101.21 14.5992 101.519 14.7474C101.827 14.896 102.195 14.9697 102.621 14.9697C103.214 14.9697 103.691 14.8424 104.052 14.5876C104.414 14.3331 104.684 13.9504 104.861 13.4406H106.781C106.675 13.9389 106.491 14.3833 106.231 14.774C105.97 15.1653 105.655 15.4945 105.288 15.7608C104.92 16.0276 104.508 16.2296 104.052 16.3656C103.596 16.5015 103.119 16.5699 102.621 16.5699C101.898 16.5699 101.258 16.4511 100.701 16.2146C100.144 15.9772 99.6731 15.6455 99.2874 15.2184C98.9027 14.792 98.6119 14.2827 98.4163 13.6895C98.2206 13.0974 98.123 12.4452 98.123 11.7338C98.123 11.0823 98.2267 10.4629 98.4345 9.87612C98.6414 9.28938 98.9379 8.77366 99.3235 8.3293C99.7082 7.8847 100.174 7.53229 100.719 7.27192C101.264 7.01076 101.88 6.88067 102.568 6.88067C103.291 6.88067 103.939 7.03168 104.515 7.33366C105.089 7.63583 105.566 8.03572 105.946 8.53417C106.325 9.03168 106.6 9.60365 106.772 10.2494C106.944 10.896 106.989 11.5627 106.906 12.2495H100.15" fill="white"/>
<path d="M107.988 7.12987H109.891V8.9076H109.926C109.985 8.65872 110.101 8.41576 110.273 8.17842C110.444 7.94165 110.652 7.72524 110.895 7.52971C111.138 7.33399 111.408 7.1773 111.704 7.05856C112 6.94001 112.302 6.88099 112.611 6.88099C112.848 6.88099 113.011 6.88667 113.099 6.8984C113.189 6.9105 113.28 6.9226 113.375 6.93415V8.88963C113.233 8.86598 113.088 8.84511 112.94 8.82789C112.791 8.80992 112.646 8.80059 112.504 8.80059C112.16 8.80059 111.837 8.8695 111.535 9.00546C111.233 9.14141 110.969 9.34281 110.744 9.60965C110.519 9.87645 110.341 10.2052 110.211 10.5965C110.08 10.9877 110.015 11.4385 110.015 11.9478V16.3214H107.988V7.12987" fill="white"/>
<path d="M114.246 7.12987H116.166V8.48059L116.201 8.51634C116.51 8.0071 116.913 7.60669 117.41 7.31621C117.909 7.02614 118.46 6.88099 119.064 6.88099C120.072 6.88099 120.866 7.14141 121.447 7.66275C122.027 8.18485 122.318 8.9668 122.318 10.0095V16.3214H120.291V10.5431C120.267 9.82039 120.113 9.2959 119.828 8.96952C119.544 8.64371 119.1 8.48059 118.495 8.48059C118.151 8.48059 117.843 8.54313 117.571 8.66754C117.298 8.79196 117.067 8.96385 116.877 9.18321C116.688 9.40258 116.54 9.6606 116.433 9.95639C116.326 10.2527 116.273 10.567 116.273 10.8985V16.3214H114.246V7.12987Z" fill="white"/>
<path d="M123.899 7.12987H125.82V8.40989H125.873C126.027 8.18485 126.193 7.97703 126.371 7.78717C126.549 7.59787 126.747 7.43827 126.966 7.30743C127.186 7.1773 127.438 7.07357 127.722 6.99607C128.007 6.91909 128.333 6.88099 128.7 6.88099C129.257 6.88099 129.776 7.00541 130.256 7.25428C130.736 7.50316 131.077 7.8885 131.278 8.40989C131.622 7.93598 132.019 7.56269 132.469 7.28947C132.919 7.01695 133.482 6.88099 134.158 6.88099C135.13 6.88099 135.885 7.11828 136.425 7.59163C136.964 8.06611 137.234 8.86012 137.234 9.97431V16.3214H135.207V10.9524C135.207 10.5847 135.195 10.2497 135.172 9.94776C135.147 9.64559 135.08 9.38461 134.967 9.16524C134.855 8.94588 134.686 8.77751 134.461 8.65872C134.235 8.54017 133.927 8.48059 133.535 8.48059C132.848 8.48059 132.35 8.69409 132.043 9.12054C131.734 9.54773 131.58 10.1519 131.58 10.9344V16.3214H129.553V10.4187C129.553 9.77859 129.438 9.2959 129.207 8.96952C128.976 8.64371 128.551 8.48059 127.936 8.48059C127.675 8.48059 127.423 8.5345 127.18 8.6408C126.937 8.74725 126.723 8.90192 126.54 9.10332C126.356 9.30472 126.208 9.55359 126.095 9.84989C125.982 10.1462 125.927 10.4842 125.927 10.8633V16.3214H123.899V7.12987" fill="white"/>
<path d="M145.136 10.9161C145.112 10.5961 145.044 10.2883 144.932 9.99195C144.819 9.69565 144.665 9.438 144.469 9.21807C144.274 8.99946 144.037 8.82114 143.758 8.68518C143.48 8.54899 143.168 8.48027 142.824 8.48027C142.469 8.48027 142.147 8.5428 141.856 8.66722C141.565 8.79163 141.317 8.96352 141.109 9.18289C140.901 9.40225 140.736 9.66027 140.612 9.95606C140.487 10.2524 140.418 10.5723 140.407 10.9161H145.136ZM140.407 12.2495C140.407 12.6055 140.457 12.9493 140.558 13.2808C140.658 13.6125 140.81 13.903 141.012 14.1518C141.213 14.4007 141.468 14.5992 141.776 14.7474C142.084 14.896 142.451 14.9697 142.878 14.9697C143.47 14.9697 143.948 14.8424 144.309 14.5876C144.671 14.3331 144.941 13.9504 145.118 13.4406H147.039C146.932 13.9389 146.748 14.3833 146.487 14.774C146.227 15.1653 145.912 15.4945 145.545 15.7608C145.177 16.0276 144.765 16.2296 144.309 16.3656C143.853 16.5015 143.376 16.5699 142.878 16.5699C142.155 16.5699 141.515 16.4511 140.958 16.2146C140.401 15.9772 139.93 15.6455 139.544 15.2184C139.16 14.792 138.869 14.2827 138.674 13.6895C138.478 13.0974 138.38 12.4452 138.38 11.7338C138.38 11.0823 138.484 10.4629 138.691 9.87612C138.899 9.28938 139.195 8.77366 139.58 8.3293C139.965 7.8847 140.43 7.53229 140.976 7.27192C141.521 7.01076 142.137 6.88067 142.824 6.88067C143.547 6.88067 144.196 7.03168 144.771 7.33366C145.346 7.63583 145.823 8.03572 146.203 8.53417C146.582 9.03168 146.857 9.60365 147.029 10.2494C147.201 10.896 147.246 11.5627 147.163 12.2495H140.407" fill="white"/>
<path d="M148.245 7.12987H150.165V8.48059L150.2 8.51634C150.509 8.0071 150.912 7.60669 151.409 7.31621C151.908 7.02614 152.459 6.88099 153.063 6.88099C154.07 6.88099 154.865 7.14141 155.446 7.66275C156.026 8.18485 156.317 8.9668 156.317 10.0095V16.3214H154.29V10.5431C154.266 9.82039 154.112 9.2959 153.827 8.96952C153.543 8.64371 153.099 8.48059 152.494 8.48059C152.15 8.48059 151.842 8.54313 151.57 8.66754C151.297 8.79196 151.066 8.96385 150.876 9.18321C150.686 9.40258 150.539 9.6606 150.432 9.95639C150.325 10.2527 150.272 10.567 150.272 10.8985V16.3214H148.245V7.12987Z" fill="white"/>
<path d="M156.938 7.12943H158.468V4.37342H160.494V7.12943H162.326V8.64036H160.494V13.5475C160.494 13.7605 160.503 13.9445 160.521 14.0986C160.539 14.2525 160.58 14.3832 160.646 14.4896C160.71 14.5963 160.808 14.676 160.939 14.7299C161.069 14.783 161.247 14.8098 161.472 14.8098C161.614 14.8098 161.756 14.8069 161.899 14.8004C162.041 14.7948 162.183 14.7739 162.326 14.7387V16.303C162.1 16.3266 161.881 16.3504 161.667 16.3741C161.454 16.3979 161.235 16.41 161.01 16.41C160.477 16.41 160.046 16.359 159.72 16.2584C159.395 16.1582 159.14 16.0096 158.956 15.8138C158.773 15.6189 158.648 15.3729 158.583 15.0766C158.518 14.7803 158.479 14.4422 158.468 14.0632V8.64036H156.938V7.12943" fill="white"/>
</svg>
