<svg width="24" height="17" viewBox="0 0 24 17" fill="none" xmlns="http://www.w3.org/2000/svg">
<g clip-path="url(#clip0_1015_3081)">
<path d="M23.7609 3.6998C23.7609 3.6998 23.5266 2.04512 22.8047 1.31855C21.8906 0.362305 20.8688 0.357617 20.4 0.301367C17.0438 0.0576171 12.0047 0.0576172 12.0047 0.0576172H11.9953C11.9953 0.0576172 6.95625 0.0576171 3.6 0.301367C3.13125 0.357617 2.10938 0.362305 1.19531 1.31855C0.473438 2.04512 0.24375 3.6998 0.24375 3.6998C0.24375 3.6998 0 5.64512 0 7.58574V9.40449C0 11.3451 0.239062 13.2904 0.239062 13.2904C0.239062 13.2904 0.473437 14.9451 1.19062 15.6717C2.10469 16.6279 3.30469 16.5951 3.83906 16.6982C5.76094 16.8811 12 16.9373 12 16.9373C12 16.9373 17.0438 16.9279 20.4 16.6889C20.8688 16.6326 21.8906 16.6279 22.8047 15.6717C23.5266 14.9451 23.7609 13.2904 23.7609 13.2904C23.7609 13.2904 24 11.3498 24 9.40449V7.58574C24 5.64512 23.7609 3.6998 23.7609 3.6998ZM9.52031 11.6123V4.86699L16.0031 8.25137L9.52031 11.6123Z" fill="white"/>
</g>
<defs>
<clipPath id="clip0_1015_3081">
<rect width="24" height="17" fill="white"/>
</clipPath>
</defs>
</svg>
