<svg width="51" height="30" viewBox="0 0 51 30" fill="none" xmlns="http://www.w3.org/2000/svg">
<path d="M0.873029 18.817L0.973783 23.2445V29.7685H0.0166016V16.7709H0.386038L9.28614 27.6889L9.18539 22.9762V16.7709H10.1258V29.7685H9.80673L0.873029 18.817Z" fill="white"/>
<path d="M21.3098 17.6263H14.7439V22.6744H21.0412V23.513H14.7439V28.9468H21.377V29.8022H13.8203V16.8213H21.3266V17.6263H21.3098Z" fill="white"/>
<path d="M31.486 17.0394L35.1133 27.9238H35.1301L36.507 22.9428L38.3207 16.8046H39.3114V16.9219L35.3819 29.8357H34.8614L31.2845 19.119L27.7413 29.8357H27.2543L23.2744 16.9555V16.8046H24.2148L25.7933 22.0204L27.5062 27.9574L31.0662 17.0561H31.486V17.0394Z" fill="white"/>
<path d="M41.5954 26.3977C41.7464 28.4438 44.1307 29.1649 45.9109 29.1649C47.7916 29.1649 49.9077 28.2928 49.9578 26.2467C50.0082 24.0665 47.8254 23.7981 45.7933 23.4963C43.4089 23.1944 41.0578 22.8086 41.0578 20.2091C41.0578 17.727 43.5262 16.5865 45.6927 16.5865C48.1108 16.5865 50.3779 17.5258 50.5122 19.9743H49.639C49.4876 17.9785 47.3215 17.4083 45.6756 17.4083C43.862 17.4083 41.9813 18.2301 41.9813 20.1756C41.9813 22.3223 44.215 22.4732 45.9109 22.6745C48.4129 23.0267 50.8981 23.5298 50.8481 26.23C50.7976 28.796 48.329 29.9364 45.9109 29.9364C43.5262 29.9364 40.8731 28.9301 40.7388 26.3641H41.5954V26.3977Z" fill="white"/>
<path d="M8.12766 6.70858C8.93369 6.22221 9.40392 5.29979 9.40392 4.36062C9.40392 1.97912 7.72464 0.603882 5.40725 0.603882H0V13.2996H5.91102C8.4635 13.2996 9.94127 11.7735 9.94127 9.54291C9.95804 8.23475 9.31993 7.19496 8.12766 6.70858ZM2.72041 2.93507H5.20574C6.14612 2.93507 6.75064 3.53883 6.73387 4.46125C6.71706 5.31658 6.12934 5.81971 5.20574 5.81971H2.72041V2.93507ZM5.72628 10.9349H2.70362V8.0335H5.59195C6.01178 8.0335 6.38121 8.06704 6.68347 8.28508C7.06972 8.55341 7.27122 9.023 7.25445 9.54291C7.20406 10.3982 6.6667 10.9349 5.72628 10.9349Z" fill="white"/>
<path d="M18.3206 6.59096L13.1988 0.553345H12.208V13.2994H14.9285V6.40646L18.1359 10.4148H18.4885L21.6791 6.40646V13.2994H24.4163V0.553345H23.4255L18.3206 6.59096Z" fill="white"/>
<path d="M48.2785 8.67087C47.8422 10.2138 46.5488 10.9517 44.9706 10.9517C42.7035 10.9517 41.2257 9.14046 41.2257 6.96021C41.2257 4.54517 42.7369 2.90159 44.9872 2.90159C46.5155 2.90159 47.6573 3.53889 48.2281 4.96446H50.8648C50.2769 1.82823 47.5564 0.436228 44.9872 0.436228C41.6455 0.385915 38.4717 2.70033 38.4717 6.94342C38.4717 11.153 41.6288 13.4171 44.9872 13.4171C47.6406 13.4171 50.3608 12.0251 50.8982 8.65408H48.2785V8.67087Z" fill="white"/>
<path d="M37.3804 7.12775V6.94325H35.147V7.12775C35.147 8.05017 35.063 8.58683 34.7943 9.15704L32.6448 7.09421C34.3913 6.02083 35.1637 4.91396 35.1637 3.4884C35.1637 1.37523 33.6356 0 31.2846 0C29.0344 0 27.4559 1.42555 27.4559 3.45485C27.4559 4.59529 27.9932 5.40029 28.5978 6.08792C27.1704 7.02712 26.4819 8.20108 26.4819 9.66017C26.4819 12.092 28.4131 13.7188 31.2846 13.7188C32.6784 13.7188 33.9883 13.266 34.9118 12.461L36.1713 13.7859L37.817 12.2262L36.4736 10.8509C37.1117 9.79433 37.3804 8.70421 37.3804 7.12775ZM31.3014 11.5553C30.1091 11.5553 28.8497 10.918 28.8497 9.526C28.8497 8.721 29.3031 8.03337 30.0755 7.64762L33.3501 10.8342C32.9135 11.2031 32.1747 11.5553 31.3014 11.5553ZM29.6725 3.53871C29.6725 2.63307 30.361 1.97899 31.3014 1.97899C32.309 1.97899 32.9807 2.59952 32.9807 3.53871C32.9807 4.32696 32.3593 5.08167 31.1503 5.7525C30.3274 5.06487 29.6725 4.42758 29.6725 3.53871Z" fill="white"/>
</svg>
