<svg width="75" height="22" viewBox="0 0 75 22" fill="none" xmlns="http://www.w3.org/2000/svg">
<path d="M20.5944 5.9424C20.8168 5.94221 21.0366 5.99022 21.2387 6.08311C21.4408 6.17601 21.6203 6.3116 21.765 6.48054L23.0514 5.00335C22.5282 4.46521 21.5206 4.10288 20.5665 4.10288C18.4826 4.10288 16.8296 5.48574 16.8296 7.66401C16.8296 9.88087 18.4697 11.2251 20.5794 11.2251C21.5613 11.2251 22.509 10.9035 23.0514 10.3675L21.8293 8.86677C21.6758 9.02876 21.49 9.15673 21.2839 9.2424C21.0778 9.32808 20.8561 9.36957 20.633 9.36417C19.6661 9.36417 19.0615 8.58377 19.0615 7.649C19.0615 6.71423 19.6596 5.9424 20.5944 5.9424ZM26.8119 4.10288C25.7114 4.09037 24.6465 4.49303 23.8296 5.23061L24.9445 6.42694C25.3938 6.00499 25.9814 5.7611 26.5975 5.74087C27.2836 5.74087 27.8067 6.05175 27.8067 6.70994V6.81714C25.8578 6.81714 23.5059 7.13874 23.5059 9.07474C23.5059 10.6484 24.878 11.1715 25.9393 11.1715C26.7326 11.1715 27.498 10.8499 27.8346 10.2989H27.8753V11.0107H29.8906V7.63614C29.8842 5.20488 29.0502 4.10288 26.8055 4.10288H26.8119ZM27.8839 8.3222C27.8839 9.15621 27.3865 9.69434 26.4989 9.69434C26.0551 9.69434 25.5448 9.51854 25.5448 9.00827C25.5448 8.21501 26.6339 8.09494 27.6009 8.09494H27.8839V8.3222ZM35.2505 4.12861C34.8396 4.11956 34.4322 4.20584 34.0602 4.38067C33.6882 4.55549 33.3618 4.81413 33.1066 5.13627H33.0658V4.31728H30.969V14.2374H33.1666V10.2711H33.1945C33.6104 10.8499 34.4037 11.1994 35.2227 11.1994C37.2401 11.1994 38.4086 9.50567 38.4086 7.63614C38.4086 5.7666 37.1844 4.12861 35.2355 4.12861H35.2505ZM34.7124 9.3706C33.7176 9.3706 33.1001 8.51302 33.1001 7.65543C33.1001 6.79785 33.7176 5.94026 34.7124 5.94026C35.7608 5.94026 36.2839 6.78713 36.2839 7.65543C36.2839 8.52374 35.7394 9.3706 34.6974 9.3706H34.7124Z" fill="white"/>
<path d="M46.3671 2.55719H44.2038V4.31738H43.1318V5.97038H44.2038V8.79398C44.2038 10.2176 44.7955 11.1716 46.5836 11.1716C47.0167 11.1711 47.4471 11.1031 47.8593 10.9701L47.8335 9.35784C47.6268 9.4298 47.4093 9.46605 47.1904 9.46504C46.5579 9.46504 46.3564 9.14345 46.3564 8.52384V5.97038H47.93V4.31738H46.3564L46.3671 2.55719Z" fill="white"/>
<path d="M52.1346 4.10304C51.0335 4.09104 49.9682 4.4936 49.1502 5.23077L50.2651 6.4271C50.7155 6.0055 51.3036 5.76172 51.9202 5.74103C52.6041 5.74103 53.1294 6.05191 53.1294 6.7101V6.8173C51.1805 6.8173 48.8286 7.1389 48.8286 9.0749C48.8286 10.6486 50.1986 11.1717 51.2599 11.1717C52.0531 11.1717 52.8207 10.8501 53.1551 10.2991H53.1959V11.0109H55.2133V7.6363C55.2133 5.20504 54.3793 4.10304 52.1346 4.10304ZM53.1959 8.32236C53.1959 9.15637 52.6985 9.6945 51.8109 9.6945C51.3692 9.6945 50.8568 9.5187 50.8568 9.00843C50.8568 8.21517 51.9459 8.0951 52.915 8.0951H53.1959V8.32236Z" fill="white"/>
<path d="M60.9801 4.12847C60.5941 4.12065 60.2111 4.19761 59.8581 4.35394C59.505 4.51027 59.1906 4.74214 58.9369 5.03322H58.9091V0.848206H56.7051V11.0106H58.7354V10.1359H58.7611C59.1899 10.8091 60.0647 11.2078 60.9523 11.2078C62.9676 11.2078 64.1382 9.51411 64.1382 7.64457C64.1382 5.77503 62.929 4.12847 60.9801 4.12847ZM60.4291 9.37046C59.4343 9.37046 58.8147 8.51288 58.8147 7.65529C58.8147 6.79771 59.4343 5.94012 60.4291 5.94012C61.4775 5.94012 62.0135 6.78699 62.0135 7.65529C62.0135 8.5236 61.4775 9.37046 60.4291 9.37046Z" fill="white"/>
<path d="M67.1635 0.848206H64.9316V11.0085H67.1635V0.848206Z" fill="white"/>
<path d="M74.9989 7.74337C74.9989 5.46005 73.6139 4.09863 71.6393 4.09863C69.609 4.09863 68.0225 5.4965 68.0225 7.68549C68.0225 9.94522 69.6905 11.2209 71.7058 11.2209C73.0629 11.2209 74.1113 10.7106 74.7438 9.79729L73.2109 8.82822C73.0412 9.05786 72.8178 9.24243 72.5603 9.36577C72.3028 9.48911 72.019 9.54747 71.7337 9.53573C70.9404 9.53573 70.2007 9.0126 70.1343 8.27293H74.9861C74.9989 8.10785 74.9989 7.91918 74.9989 7.74337ZM70.1343 6.89865C70.1773 6.53184 70.3579 6.19504 70.6397 5.95626C70.9214 5.71749 71.2833 5.59455 71.6522 5.61227C72.5269 5.61227 72.9686 6.19114 72.9686 6.89865H70.1343Z" fill="white"/>
<path d="M8.18737 8.5538C7.80324 8.86623 7.33825 9.06311 6.84656 9.12151C6.35486 9.17991 5.85669 9.09743 5.41006 8.88367C4.96343 8.66992 4.5867 8.33368 4.32376 7.91411C4.06082 7.49455 3.92248 7.00892 3.92484 6.51377C3.92721 6.01863 4.07018 5.53434 4.33712 5.11731C4.60406 4.70027 4.98398 4.36765 5.43263 4.15817C5.88129 3.94869 6.38022 3.87098 6.87134 3.93407C7.36245 3.99717 7.82554 4.19848 8.20667 4.51457L10.9724 1.74885C10.0428 0.883754 8.8811 0.308622 7.62955 0.0939444C6.37801 -0.120733 5.09102 0.034369 3.92631 0.540243C2.7616 1.04612 1.76976 1.88078 1.07236 2.94196C0.374961 4.00313 0.00228615 5.24471 1.04845e-05 6.51453C-0.00226519 7.78436 0.365957 9.02726 1.05955 10.0909C1.75314 11.1546 2.74198 11.9928 3.90487 12.5029C5.06776 13.0129 6.35418 13.1726 7.60649 12.9624C8.8588 12.7522 10.0226 12.1813 10.9552 11.3195L8.18737 8.5538Z" fill="white"/>
<path d="M41.1354 9.04052C41.8328 9.04052 42.3981 8.49915 42.3981 7.83133C42.3981 7.16351 41.8328 6.62213 41.1354 6.62213C40.4379 6.62213 39.8726 7.16351 39.8726 7.83133C39.8726 8.49915 40.4379 9.04052 41.1354 9.04052Z" fill="white"/>
<path d="M11.3332 6.34981V6.28978C11.2876 5.60337 11.0961 4.9346 10.7715 4.32805C10.831 4.22412 10.8551 4.1037 10.8403 3.98488C10.8255 3.86607 10.7725 3.75526 10.6894 3.66912C10.6062 3.58298 10.4973 3.52615 10.3791 3.50717C10.2609 3.4882 10.1397 3.5081 10.0337 3.56388C9.92777 3.61967 9.84278 3.70833 9.79152 3.81654C9.74027 3.92476 9.72551 4.04668 9.74947 4.164C9.77343 4.28132 9.8348 4.3877 9.92439 4.46715C10.014 4.5466 10.1269 4.59484 10.2462 4.60462C10.5823 5.22477 10.7584 5.9189 10.7587 6.62424C10.7587 6.71428 10.7587 6.80218 10.7587 6.89223H12.3516V6.95869C12.2961 7.95604 11.9853 8.9224 11.449 9.76514C11.3397 9.76768 11.2335 9.80244 11.1439 9.86507C11.0542 9.9277 10.9851 10.0154 10.9451 10.1172C10.9051 10.219 10.896 10.3303 10.919 10.4372C10.9421 10.5441 10.9962 10.6419 11.0745 10.7181C11.1529 10.7944 11.252 10.8459 11.3595 10.866C11.467 10.8862 11.578 10.8742 11.6787 10.8315C11.7794 10.7888 11.8652 10.7173 11.9254 10.626C11.9856 10.5347 12.0176 10.4276 12.0172 10.3183C12.017 10.2299 11.9949 10.143 11.9528 10.0653C12.532 9.1519 12.8705 8.10678 12.9369 7.0273V6.96298C12.9369 6.84935 12.9369 6.73358 12.9369 6.61566C12.9369 6.49774 12.9369 6.43557 12.9369 6.34552L11.3332 6.34981Z" fill="white"/>
<path d="M11.4449 7.86556C11.4439 7.77813 11.4222 7.69218 11.3817 7.61471C11.3412 7.53724 11.2829 7.47043 11.2117 7.41973C11.1405 7.36902 11.0583 7.33586 10.9718 7.32293C10.8853 7.30999 10.797 7.31766 10.7141 7.34531C10.6311 7.37296 10.5559 7.41981 10.4945 7.48203C10.4331 7.54426 10.3872 7.62011 10.3606 7.70341C10.3341 7.78671 10.3276 7.87511 10.3416 7.96141C10.3557 8.0477 10.3899 8.12946 10.4416 8.20002C10.3923 8.32222 10.3387 8.44443 10.2765 8.56663L10.2357 8.64382L9.47464 7.88271L9.49179 7.84197C9.7952 7.10168 9.80898 6.27433 9.53038 5.52435C9.61564 5.42532 9.66278 5.29912 9.66331 5.16845C9.66359 5.06418 9.63451 4.96193 9.5794 4.87341C9.52428 4.78489 9.44535 4.71368 9.35165 4.66793C9.25795 4.62218 9.15326 4.60374 9.04957 4.61472C8.94587 4.6257 8.84736 4.66565 8.76532 4.73C8.68327 4.79436 8.621 4.88052 8.58564 4.97861C8.55028 5.07671 8.54325 5.18278 8.56536 5.28468C8.58748 5.38658 8.63784 5.4802 8.71068 5.55481C8.78352 5.62943 8.8759 5.68203 8.97724 5.70659C9.11444 6.0722 9.16831 6.46382 9.13493 6.8529C9.10155 7.24198 8.98175 7.6187 8.78428 7.9556L10.373 9.53571C10.6291 9.19003 10.8375 8.81143 10.9926 8.41012C11.1197 8.38656 11.2346 8.31918 11.3173 8.21969C11.3999 8.1202 11.4451 7.9949 11.4449 7.86556Z" fill="white"/>
<path d="M12.6587 4.75883C12.4865 4.18378 12.2338 3.63594 11.9083 3.13156C11.9376 3.06385 11.9529 2.99093 11.9533 2.91716C11.9533 2.80734 11.9208 2.69998 11.8598 2.60866C11.7987 2.51735 11.712 2.44617 11.6106 2.40415C11.5091 2.36212 11.3974 2.35112 11.2897 2.37255C11.182 2.39397 11.0831 2.44686 11.0054 2.52452C10.9278 2.60217 10.8749 2.70112 10.8534 2.80883C10.832 2.91655 10.843 3.0282 10.885 3.12966C10.9271 3.23113 10.9982 3.31785 11.0896 3.37887C11.1809 3.43988 11.2882 3.47245 11.3981 3.47245H11.4238C11.722 3.9379 11.953 4.44315 12.1099 4.97323C12.0339 5.06983 11.9924 5.18907 11.9919 5.31197C11.9916 5.41762 12.0212 5.52121 12.0774 5.61066C12.1337 5.70011 12.2141 5.77174 12.3095 5.8172C12.4049 5.86266 12.5112 5.88008 12.6161 5.86742C12.721 5.85477 12.8201 5.81257 12.902 5.74574C12.9838 5.67891 13.045 5.5902 13.0783 5.48995C13.1116 5.38969 13.1158 5.28203 13.0903 5.1795C13.0648 5.07697 13.0107 4.98379 12.9343 4.91083C12.8579 4.83787 12.7623 4.78813 12.6587 4.7674V4.75883Z" fill="white"/>
<path d="M17.3187 17.2733L17.1043 17.7407H16.7334L17.6403 15.6825H18.0133L18.9202 17.7407H18.5493L18.3349 17.2733H17.3187ZM18.2063 16.9517L17.8333 16.0941L17.4581 16.9517H18.2063Z" fill="white"/>
<path d="M20.6635 16.1499C20.7633 16.1478 20.8625 16.1657 20.9553 16.2025C21.0481 16.2393 21.1326 16.2943 21.2038 16.3643C21.2774 16.4413 21.3344 16.5326 21.3712 16.6325C21.4081 16.7325 21.4241 16.8389 21.4182 16.9453C21.4235 17.0526 21.4072 17.1598 21.3704 17.2607C21.3336 17.3616 21.2769 17.4541 21.2038 17.5327C21.1367 17.6068 21.0543 17.6654 20.9623 17.7045C20.8703 17.7436 20.771 17.7623 20.6711 17.7592C20.5712 17.7562 20.4731 17.7315 20.3837 17.6868C20.2943 17.6421 20.2157 17.5786 20.1532 17.5006V18.3089H19.8252V16.182H20.1532V16.4565C20.2036 16.3648 20.2774 16.2882 20.367 16.2343C20.4566 16.1805 20.5589 16.1513 20.6635 16.1499ZM20.1489 16.9603C20.1461 17.0273 20.1566 17.0942 20.1798 17.1571C20.203 17.22 20.2384 17.2777 20.284 17.3269C20.3253 17.3734 20.3763 17.4103 20.4333 17.4351C20.4903 17.4599 20.552 17.472 20.6142 17.4706C20.6772 17.4709 20.7397 17.4586 20.7979 17.4343C20.8561 17.41 20.9089 17.3742 20.9529 17.3291C21.001 17.2813 21.0386 17.224 21.0633 17.1609C21.088 17.0977 21.0993 17.0302 21.0966 16.9624C21.1006 16.8236 21.0498 16.6888 20.9551 16.5873C20.9121 16.5402 20.8598 16.5028 20.8014 16.4773C20.7431 16.4518 20.68 16.4389 20.6163 16.4393C20.5535 16.4381 20.4911 16.4507 20.4337 16.4763C20.3763 16.5019 20.3252 16.5397 20.284 16.5873C20.1933 16.69 20.145 16.8233 20.1489 16.9603Z" fill="white"/>
<path d="M22.0592 17.7407H21.729V15.556H22.0592V17.7407Z" fill="white"/>
<path d="M23.7336 17.7406H23.4313V17.5262C23.3681 17.6022 23.2882 17.6627 23.1979 17.7028C23.1075 17.743 23.0091 17.7618 22.9103 17.7577C22.7629 17.7635 22.6186 17.7147 22.5051 17.6205C22.4524 17.5747 22.4107 17.5175 22.3833 17.4533C22.3558 17.389 22.3432 17.3194 22.3465 17.2496C22.3423 17.1823 22.3557 17.1151 22.3854 17.0546C22.4151 16.9941 22.46 16.9423 22.5158 16.9044C22.6551 16.8204 22.8164 16.78 22.9789 16.7887H23.4077V16.7308C23.4077 16.5164 23.2919 16.4178 23.0604 16.4178C22.8965 16.4244 22.7383 16.4797 22.6059 16.5764L22.4601 16.362C22.642 16.2146 22.8691 16.1343 23.1033 16.1348C23.2659 16.128 23.4259 16.178 23.5556 16.2763C23.6154 16.3298 23.6623 16.3962 23.6927 16.4705C23.7232 16.5448 23.7364 16.625 23.7315 16.7051L23.7336 17.7406ZM23.4034 17.1574V17.0245H23.0325C22.7945 17.0245 22.6745 17.0995 22.6745 17.2389C22.6729 17.2735 22.6804 17.3079 22.6962 17.3387C22.712 17.3696 22.7355 17.3958 22.7645 17.4147C22.8382 17.4587 22.9233 17.4796 23.0089 17.4747C23.1082 17.4763 23.2053 17.4454 23.2855 17.3868C23.3216 17.3603 23.351 17.3258 23.3714 17.286C23.3919 17.2462 23.4028 17.2022 23.4034 17.1574Z" fill="white"/>
<path d="M24.5074 16.4391V17.2345C24.5037 17.299 24.5243 17.3625 24.5653 17.4125C24.5864 17.4347 24.6121 17.4522 24.6406 17.4636C24.6691 17.4751 24.6997 17.4803 24.7304 17.4789C24.7696 17.477 24.808 17.4668 24.8431 17.4491C24.8782 17.4314 24.9092 17.4065 24.934 17.376L25.0691 17.6076C24.9659 17.7069 24.8286 17.7629 24.6853 17.7641C24.6185 17.7656 24.5521 17.7534 24.4902 17.7283C24.4283 17.7033 24.3721 17.6658 24.3252 17.6183C24.2748 17.5666 24.2356 17.5051 24.2102 17.4376C24.1847 17.3701 24.1735 17.298 24.1772 17.2259V16.4391H23.98V16.1818H24.1772V15.6909H24.5074V16.1818H24.919V16.4477L24.5074 16.4391Z" fill="white"/>
<path d="M26.5201 17.7406H26.22V17.5262C26.1568 17.6022 26.0769 17.6627 25.9865 17.7028C25.8962 17.743 25.7978 17.7618 25.699 17.7577C25.5516 17.7635 25.4073 17.7147 25.2938 17.6205C25.2408 17.5748 25.1988 17.5177 25.171 17.4535C25.1432 17.3892 25.1302 17.3196 25.133 17.2496C25.129 17.1821 25.1428 17.1148 25.1729 17.0542C25.2029 16.9937 25.2483 16.9421 25.3045 16.9044C25.4438 16.8204 25.6051 16.78 25.7676 16.7887H26.1964V16.7308C26.1964 16.5164 26.0806 16.4178 25.8491 16.4178C25.6851 16.4241 25.5268 16.4793 25.3946 16.5764L25.2466 16.362C25.4288 16.215 25.6558 16.1348 25.8898 16.1348C26.0525 16.128 26.2124 16.178 26.3422 16.2763C26.4017 16.3299 26.4482 16.3964 26.4783 16.4707C26.5084 16.545 26.5212 16.6251 26.5158 16.7051L26.5201 17.7406ZM26.19 17.1574V17.0245H25.8191C25.5811 17.0245 25.4632 17.0995 25.4632 17.2389C25.4616 17.2733 25.4688 17.3075 25.4842 17.3383C25.4996 17.369 25.5226 17.3953 25.5511 17.4147C25.632 17.4585 25.7235 17.4791 25.8155 17.4742C25.9074 17.4693 25.9962 17.439 26.072 17.3868C26.1095 17.3613 26.1404 17.3271 26.162 17.2872C26.1836 17.2473 26.1954 17.2028 26.1964 17.1574H26.19Z" fill="white"/>
<path d="M27.3077 16.0447V16.1734H27.7215V16.4392H27.3077V17.7406H26.9775V16.4392H26.7803V16.1819H26.9775V16.0619C26.9742 15.9897 26.9858 15.9176 27.0116 15.85C27.0375 15.7825 27.0769 15.7211 27.1276 15.6695C27.1742 15.6221 27.2299 15.5846 27.2915 15.5596C27.3531 15.5345 27.4192 15.5223 27.4856 15.5237C27.6292 15.5246 27.767 15.5798 27.8716 15.6781L27.7365 15.9118C27.7114 15.8815 27.6804 15.8568 27.6454 15.8391C27.6103 15.8214 27.572 15.8111 27.5328 15.8089C27.5021 15.8075 27.4715 15.8127 27.443 15.8242C27.4146 15.8356 27.3889 15.8531 27.3677 15.8753C27.3277 15.9226 27.3063 15.9828 27.3077 16.0447Z" fill="white"/>
<path d="M29.2361 17.5305C29.077 17.6807 28.8664 17.7643 28.6476 17.7643C28.4288 17.7643 28.2183 17.6807 28.0591 17.5305C27.908 17.3783 27.8232 17.1726 27.8232 16.9581C27.8232 16.7436 27.908 16.5379 28.0591 16.3857C28.2183 16.2355 28.4288 16.1519 28.6476 16.1519C28.8664 16.1519 29.077 16.2355 29.2361 16.3857C29.3872 16.5379 29.472 16.7436 29.472 16.9581C29.472 17.1726 29.3872 17.3783 29.2361 17.5305ZM28.2928 17.3161C28.3384 17.3635 28.3935 17.4008 28.4544 17.4255C28.5154 17.4503 28.5808 17.462 28.6466 17.4598C28.7126 17.4619 28.7784 17.4502 28.8396 17.4254C28.9009 17.4007 28.9564 17.3635 29.0025 17.3161C29.0491 17.2671 29.0854 17.2092 29.1094 17.1458C29.1333 17.0825 29.1443 17.015 29.1418 16.9474C29.1444 16.8794 29.1334 16.8116 29.1094 16.7479C29.0855 16.6842 29.0491 16.626 29.0025 16.5765C28.9559 16.5298 28.9004 16.4932 28.8392 16.4689C28.7779 16.4446 28.7124 16.433 28.6466 16.435C28.581 16.4329 28.5158 16.4444 28.4549 16.4688C28.394 16.4931 28.3388 16.5298 28.2928 16.5765C28.2457 16.6257 28.2091 16.6839 28.1851 16.7477C28.1612 16.8114 28.1504 16.8793 28.1534 16.9474C28.149 17.0169 28.159 17.0865 28.183 17.1518C28.207 17.2172 28.2444 17.2768 28.2928 17.3269V17.3161Z" fill="white"/>
<path d="M30.5941 16.4843C30.5247 16.479 30.455 16.4907 30.3912 16.5183C30.3273 16.5459 30.2711 16.5887 30.2275 16.6429C30.1381 16.7674 30.0942 16.9188 30.1031 17.0717V17.7428H29.7729V16.182H30.1031V16.4971C30.1545 16.4012 30.228 16.3189 30.3175 16.257C30.4018 16.1957 30.5027 16.1613 30.607 16.1584V16.4928L30.5941 16.4843Z" fill="white"/>
<path d="M31.1988 16.8939V17.7514H30.8687V16.1821H31.1988V16.4694C31.2454 16.3734 31.3202 16.2941 31.4132 16.2421C31.5059 16.1869 31.6119 16.158 31.7198 16.1585C31.8255 16.1492 31.9314 16.1739 32.0221 16.229C32.1127 16.2842 32.1833 16.3669 32.2236 16.4651C32.2883 16.3707 32.3751 16.2934 32.4763 16.24C32.5775 16.1866 32.6902 16.1586 32.8047 16.1585C32.8834 16.1556 32.9619 16.1686 33.0355 16.1965C33.1092 16.2245 33.1765 16.267 33.2334 16.3214C33.2901 16.3847 33.3337 16.4586 33.3617 16.5388C33.3896 16.619 33.4014 16.704 33.3964 16.7888V17.7493H33.0662V16.8917C33.0662 16.6023 32.9462 16.4629 32.706 16.4629C32.5989 16.461 32.4948 16.4992 32.4145 16.5701C32.371 16.61 32.3369 16.6588 32.3143 16.7133C32.2917 16.7677 32.2812 16.8264 32.2837 16.8853V17.7557H31.9535V16.8981C31.9617 16.7832 31.934 16.6686 31.8742 16.5701C31.8439 16.5337 31.8053 16.5051 31.7616 16.4868C31.718 16.4685 31.6705 16.4611 31.6233 16.4651C31.5131 16.4632 31.4063 16.5039 31.3253 16.5787C31.2839 16.6198 31.2513 16.669 31.2295 16.7232C31.2078 16.7774 31.1973 16.8355 31.1988 16.8939Z" fill="white"/>
<path d="M35.0505 17.7407H34.7504V17.5263C34.6872 17.6023 34.6073 17.6628 34.517 17.7029C34.4266 17.7431 34.3282 17.7619 34.2294 17.7578C34.082 17.7636 33.9377 17.7147 33.8242 17.6206C33.7712 17.5748 33.7293 17.5177 33.7014 17.4535C33.6736 17.3893 33.6606 17.3196 33.6634 17.2497C33.659 17.1821 33.6726 17.1146 33.7027 17.054C33.7328 16.9934 33.7784 16.9418 33.8349 16.9045C33.9735 16.8207 34.1341 16.7804 34.2959 16.7887H34.7247V16.7308C34.7247 16.5165 34.6089 16.4178 34.3773 16.4178C34.2141 16.4245 34.0566 16.4798 33.925 16.5765L33.777 16.3621C33.9591 16.215 34.1861 16.1347 34.4202 16.1348C34.5829 16.1277 34.743 16.1777 34.8726 16.2763C34.9327 16.3296 34.9799 16.396 35.0103 16.4703C35.0408 16.5446 35.0538 16.625 35.0484 16.7051L35.0505 17.7407ZM34.7204 17.1575V17.0246H34.3495C34.1115 17.0246 33.9936 17.0996 33.9936 17.239C33.9916 17.2734 33.9986 17.3078 34.0141 17.3386C34.0295 17.3694 34.0527 17.3957 34.0815 17.4148C34.1561 17.4582 34.2418 17.4791 34.328 17.4748C34.4267 17.4764 34.5231 17.4455 34.6025 17.3869C34.6388 17.3606 34.6684 17.3262 34.6888 17.2863C34.7093 17.2464 34.7201 17.2023 34.7204 17.1575Z" fill="white"/>
<path d="M36.2901 17.5411C36.2169 17.462 36.1603 17.3692 36.1235 17.2679C36.0867 17.1667 36.0704 17.0591 36.0757 16.9515C36.0706 16.8438 36.0882 16.7363 36.1273 16.6358C36.1665 16.5354 36.2263 16.4443 36.3029 16.3684C36.3741 16.2984 36.4586 16.2434 36.5514 16.2066C36.6442 16.1698 36.7434 16.1519 36.8432 16.154C36.943 16.1526 37.0416 16.1761 37.13 16.2226C37.2184 16.269 37.2937 16.3368 37.3492 16.4198V15.5623H37.6686V17.747H37.3406V17.5111C37.281 17.5962 37.2007 17.6646 37.1073 17.71C37.0139 17.7554 36.9105 17.7762 36.8068 17.7705C36.7095 17.7697 36.6135 17.749 36.5246 17.7095C36.4357 17.67 36.3559 17.6127 36.2901 17.5411ZM36.3994 16.9644C36.3966 17.0321 36.408 17.0997 36.4327 17.1628C36.4574 17.2259 36.495 17.2832 36.543 17.331C36.5871 17.3762 36.6398 17.4119 36.698 17.4363C36.7562 17.4606 36.8187 17.4729 36.8818 17.4725C36.9438 17.4742 37.0054 17.4624 37.0624 17.438C37.1194 17.4136 37.1704 17.3771 37.212 17.331C37.3032 17.2312 37.3517 17.0996 37.347 16.9644C37.3515 16.8267 37.3032 16.6925 37.212 16.5892C37.171 16.5413 37.12 16.503 37.0626 16.4771C37.0051 16.4512 36.9427 16.4382 36.8797 16.4391C36.8158 16.4386 36.7525 16.4516 36.694 16.4775C36.6356 16.5034 36.5834 16.5415 36.5409 16.5892C36.4462 16.6908 36.3953 16.8256 36.3994 16.9644Z" fill="white"/>
<path d="M39.535 17.1017H38.313C38.3158 17.1567 38.3315 17.2104 38.3586 17.2584C38.3858 17.3064 38.4237 17.3474 38.4695 17.3782C38.5657 17.447 38.6814 17.483 38.7997 17.4812C38.8831 17.4866 38.9668 17.4728 39.0441 17.4408C39.1214 17.4089 39.1903 17.3596 39.2456 17.2968L39.4343 17.5112C39.349 17.5985 39.2464 17.6669 39.133 17.7119C39.0196 17.757 38.898 17.7777 38.7761 17.7727C38.5678 17.7784 38.3658 17.7013 38.2143 17.5583C38.1364 17.482 38.0754 17.3899 38.0355 17.2883C37.9956 17.1867 37.9776 17.0778 37.9828 16.9687C37.9778 16.8597 37.9963 16.7508 38.0369 16.6494C38.0776 16.5481 38.1396 16.4566 38.2186 16.3813C38.3685 16.2399 38.5679 16.1629 38.7739 16.1669C38.9724 16.1617 39.1658 16.2304 39.3163 16.3599C39.3895 16.4269 39.4467 16.5094 39.4838 16.6014C39.5209 16.6934 39.537 16.7926 39.5307 16.8916L39.535 17.1017ZM38.313 16.8423H39.2113C39.2149 16.7857 39.2055 16.7291 39.184 16.6768C39.1624 16.6244 39.1293 16.5776 39.0869 16.54C39.0022 16.4678 38.8937 16.4296 38.7825 16.4328C38.6645 16.4326 38.5498 16.4718 38.4566 16.5442C38.4102 16.5784 38.3728 16.6235 38.3478 16.6754C38.3228 16.7274 38.3108 16.7846 38.313 16.8423Z" fill="white"/>
<path d="M3.41322 18.7267C3.37521 18.6868 3.354 18.6338 3.354 18.5788C3.354 18.5237 3.37521 18.4707 3.41322 18.4308C3.45298 18.3934 3.5055 18.3726 3.56008 18.3726C3.61466 18.3726 3.66718 18.3934 3.70694 18.4308C3.73345 18.4608 3.75104 18.4976 3.75772 18.5371C3.76439 18.5765 3.75989 18.6171 3.74472 18.6541C3.72955 18.6911 3.70432 18.7232 3.67187 18.7466C3.63943 18.7701 3.60108 18.7839 3.56115 18.7867C3.53371 18.7873 3.50643 18.7823 3.48099 18.772C3.45555 18.7617 3.43249 18.7462 3.41322 18.7267ZM3.72195 20.6048H3.39178V19.0376H3.72195V20.6048Z" fill="white"/>
<path d="M4.45419 19.7581V20.6049H4.12402V19.0377H4.45419V19.325C4.49977 19.2446 4.56294 19.1755 4.63898 19.1229C4.71502 19.0703 4.80197 19.0356 4.89332 19.0214C4.98466 19.0072 5.07804 19.0138 5.16647 19.0407C5.2549 19.0677 5.33609 19.1143 5.40397 19.1771C5.46175 19.2397 5.50618 19.3134 5.53456 19.3938C5.56294 19.4741 5.57468 19.5594 5.56905 19.6444V20.6049H5.23888V19.7474C5.23888 19.4579 5.11882 19.3186 4.8787 19.3186C4.76845 19.3167 4.66172 19.3574 4.58069 19.4322C4.5379 19.4746 4.50452 19.5255 4.48272 19.5817C4.46093 19.6378 4.45121 19.6979 4.45419 19.7581Z" fill="white"/>
<path d="M6.35133 20.605L5.72314 19.0377H6.06403L6.54214 20.2233L7.00952 19.0377H7.35041L6.72009 20.605H6.35133Z" fill="white"/>
<path d="M9.007 19.9663H7.77851C7.78171 20.021 7.7975 20.0742 7.82465 20.1218C7.8518 20.1694 7.88957 20.2101 7.93502 20.2407C8.03063 20.3109 8.14661 20.3478 8.26519 20.3457C8.34868 20.3512 8.4323 20.3374 8.50961 20.3054C8.58692 20.2734 8.65587 20.2242 8.71114 20.1614L8.89981 20.3758C8.81439 20.4628 8.71172 20.5311 8.59836 20.5761C8.48501 20.6212 8.36349 20.642 8.24161 20.6373C8.03337 20.643 7.83137 20.5659 7.67989 20.4229C7.59952 20.3466 7.53648 20.2538 7.49505 20.151C7.45362 20.0482 7.43477 19.9377 7.43977 19.8269C7.43476 19.7178 7.45323 19.6089 7.49391 19.5076C7.5346 19.4062 7.59656 19.3148 7.6756 19.2395C7.82561 19.0982 8.0249 19.0213 8.23089 19.0251C8.42938 19.0198 8.62273 19.0886 8.77331 19.218C8.84646 19.285 8.90369 19.3676 8.94079 19.4596C8.97789 19.5516 8.99392 19.6507 8.98771 19.7497L9.007 19.9663ZM7.77851 19.7068H8.67683C8.68041 19.6503 8.67108 19.5937 8.64953 19.5413C8.62799 19.489 8.5948 19.4422 8.55248 19.4045C8.46774 19.3324 8.35928 19.2942 8.24804 19.2973C8.12986 19.2961 8.01484 19.3355 7.92216 19.4088C7.87574 19.443 7.83839 19.4881 7.81335 19.54C7.78832 19.5919 7.77636 19.6492 7.77851 19.7068Z" fill="white"/>
<path d="M10.4111 20.1378C10.4134 20.2058 10.4001 20.2734 10.3723 20.3354C10.3444 20.3975 10.3027 20.4523 10.2504 20.4958C10.1314 20.5873 9.98432 20.6343 9.83442 20.6287C9.71314 20.6281 9.59284 20.6071 9.47852 20.5666C9.36099 20.5287 9.2513 20.4699 9.15479 20.3929L9.31344 20.1378C9.46142 20.2658 9.64764 20.3412 9.843 20.3522C9.90578 20.3558 9.9679 20.3377 10.0188 20.3007C10.0396 20.2859 10.0565 20.2662 10.0681 20.2435C10.0796 20.2207 10.0855 20.1955 10.0853 20.1699C10.0853 20.0906 9.98021 20.0199 9.77225 19.9555L9.73794 19.9427C9.40992 19.8548 9.24698 19.7068 9.24698 19.501C9.24572 19.4335 9.2604 19.3667 9.28983 19.306C9.31926 19.2453 9.36261 19.1924 9.41635 19.1515C9.54515 19.0605 9.7004 19.0145 9.858 19.0208C10.0411 19.0215 10.2197 19.0776 10.3704 19.1816L10.2461 19.426C10.1238 19.3416 9.97866 19.2967 9.83013 19.2973C9.7639 19.295 9.69819 19.3098 9.63932 19.3402C9.61649 19.3528 9.5976 19.3716 9.58474 19.3943C9.57187 19.417 9.56553 19.4428 9.56643 19.4689C9.56594 19.4932 9.57313 19.5171 9.58699 19.5371C9.60084 19.5571 9.62066 19.5722 9.64361 19.5803C9.69076 19.6032 9.74041 19.6204 9.79154 19.6318C9.84878 19.6446 9.90532 19.6603 9.96092 19.679C10.0102 19.694 10.0574 19.7111 10.1046 19.7304C10.156 19.7544 10.2054 19.7823 10.2525 19.814C10.3043 19.85 10.346 19.8987 10.3738 19.9553C10.4016 20.012 10.4144 20.0748 10.4111 20.1378Z" fill="white"/>
<path d="M11.1177 19.3034V20.0988C11.1144 20.1632 11.1351 20.2266 11.1756 20.2768C11.1968 20.299 11.2225 20.3165 11.251 20.3279C11.2794 20.3394 11.31 20.3446 11.3407 20.3432C11.3818 20.3428 11.4223 20.3334 11.4593 20.3156C11.4964 20.2978 11.5291 20.2721 11.5551 20.2403L11.6902 20.4719C11.587 20.5712 11.4497 20.6273 11.3064 20.6284C11.2397 20.6294 11.1734 20.617 11.1116 20.5919C11.0497 20.5669 10.9935 20.5297 10.9462 20.4826C10.8958 20.4309 10.8567 20.3694 10.8312 20.3019C10.8058 20.2344 10.7946 20.1623 10.7983 20.0902V19.3034H10.5903V19.0376H10.7876V18.5402H11.1177V19.0311H11.5294V19.297L11.1177 19.3034Z" fill="white"/>
<path d="M11.8898 18.7267C11.8518 18.6868 11.8306 18.6338 11.8306 18.5788C11.8306 18.5237 11.8518 18.4707 11.8898 18.4308C11.9295 18.3934 11.9821 18.3726 12.0366 18.3726C12.0912 18.3726 12.1437 18.3934 12.1835 18.4308C12.2215 18.4707 12.2427 18.5237 12.2427 18.5788C12.2427 18.6338 12.2215 18.6868 12.1835 18.7267C12.1437 18.7641 12.0912 18.7849 12.0366 18.7849C11.9821 18.7849 11.9295 18.7641 11.8898 18.7267ZM12.1985 20.6048H11.8683V19.0376H12.1985V20.6048Z" fill="white"/>
<path d="M12.9322 19.7581V20.605H12.6021V19.0378H12.9322V19.3251C12.9782 19.2288 13.0531 19.1493 13.1466 19.0978C13.2393 19.0426 13.3453 19.0137 13.4532 19.0142C13.5589 19.0049 13.6648 19.0296 13.7555 19.0848C13.8461 19.1399 13.9167 19.2226 13.957 19.3208C14.0217 19.2264 14.1084 19.1491 14.2097 19.0957C14.3109 19.0423 14.4236 19.0143 14.538 19.0142C14.6168 19.0113 14.6953 19.0243 14.7689 19.0523C14.8426 19.0802 14.9099 19.1227 14.9668 19.1771C15.0235 19.2404 15.0671 19.3143 15.0951 19.3945C15.123 19.4747 15.1348 19.5597 15.1298 19.6445V20.605H14.7996V19.7474C14.7996 19.458 14.6796 19.3186 14.4394 19.3186C14.3323 19.3167 14.2282 19.3549 14.1478 19.4258C14.1043 19.4656 14.0701 19.5144 14.0475 19.5689C14.0249 19.6233 14.0145 19.6821 14.0171 19.741V20.6114H13.6869V19.7539C13.6954 19.6389 13.6677 19.5242 13.6076 19.4258C13.5773 19.3894 13.5387 19.3608 13.495 19.3425C13.4514 19.3242 13.4039 19.3168 13.3567 19.3208C13.2465 19.3189 13.1397 19.3596 13.0587 19.4344C13.0162 19.4765 12.983 19.5271 12.9612 19.5829C12.9394 19.6386 12.9295 19.6983 12.9322 19.7581Z" fill="white"/>
<path d="M16.9744 19.9663H15.7459C15.7491 20.021 15.7649 20.0742 15.792 20.1218C15.8192 20.1694 15.857 20.2101 15.9024 20.2407C15.998 20.3109 16.114 20.3478 16.2326 20.3457C16.3161 20.3512 16.3997 20.3374 16.477 20.3054C16.5543 20.2734 16.6233 20.2242 16.6785 20.1614L16.8672 20.3758C16.7818 20.4628 16.6791 20.5311 16.5658 20.5761C16.4524 20.6212 16.3309 20.642 16.209 20.6373C16.0008 20.643 15.7988 20.5659 15.6473 20.4229C15.5685 20.3458 15.507 20.2527 15.4671 20.1499C15.4271 20.0472 15.4096 19.937 15.4157 19.8269C15.4107 19.7178 15.4292 19.6089 15.4699 19.5076C15.5106 19.4062 15.5725 19.3148 15.6516 19.2395C15.8016 19.0982 16.0009 19.0213 16.2069 19.0251C16.4053 19.0198 16.5987 19.0886 16.7493 19.218C16.8224 19.285 16.8797 19.3676 16.9168 19.4596C16.9539 19.5516 16.9699 19.6507 16.9637 19.7497L16.9744 19.9663ZM15.7459 19.7068H16.6442C16.6478 19.6503 16.6385 19.5937 16.6169 19.5413C16.5954 19.489 16.5622 19.4422 16.5199 19.4045C16.4351 19.3324 16.3267 19.2942 16.2154 19.2973C16.0973 19.2961 15.9822 19.3355 15.8896 19.4088C15.8431 19.443 15.8058 19.4881 15.7807 19.54C15.7557 19.5919 15.7437 19.6492 15.7459 19.7068Z" fill="white"/>
<path d="M17.5914 19.7582V20.6051H17.2612V19.0378H17.5914V19.3251C17.6406 19.2311 17.7148 19.1524 17.8058 19.0979C17.8962 19.0428 18.0001 19.0138 18.106 19.0143C18.1847 19.0111 18.2633 19.024 18.337 19.052C18.4107 19.08 18.4779 19.1226 18.5347 19.1772C18.5925 19.2398 18.637 19.3136 18.6653 19.3939C18.6937 19.4743 18.7055 19.5595 18.6998 19.6446V20.6051H18.3739V19.7475C18.3739 19.4581 18.2539 19.3187 18.0138 19.3187C17.9035 19.3168 17.7968 19.3575 17.7157 19.4323C17.6733 19.4749 17.6404 19.5259 17.6189 19.582C17.5975 19.6382 17.5881 19.6982 17.5914 19.7582Z" fill="white"/>
<path d="M19.4781 19.3034V20.0988C19.4748 20.1632 19.4954 20.2266 19.536 20.2768C19.5571 20.299 19.5828 20.3165 19.6113 20.3279C19.6398 20.3394 19.6704 20.3446 19.7011 20.3432C19.7403 20.3413 19.7787 20.3311 19.8138 20.3134C19.8489 20.2957 19.8799 20.2708 19.9047 20.2403L20.0398 20.4719C19.9366 20.5712 19.7993 20.6273 19.656 20.6284C19.5893 20.6295 19.523 20.6172 19.4611 20.5921C19.3992 20.5671 19.343 20.5298 19.2959 20.4826C19.2455 20.4309 19.2063 20.3694 19.1809 20.3019C19.1554 20.2344 19.1442 20.1623 19.1479 20.0902V19.3034H18.9507V19.0376H19.1479V18.5402H19.4781V19.0311H19.8897V19.297L19.4781 19.3034Z" fill="white"/>
<path d="M21.5274 20.3948C21.3681 20.5456 21.1571 20.6297 20.9378 20.6297C20.7184 20.6297 20.5074 20.5456 20.3482 20.3948C20.1971 20.2426 20.1123 20.0369 20.1123 19.8224C20.1123 19.6079 20.1971 19.4022 20.3482 19.25C20.5074 19.0992 20.7184 19.0151 20.9378 19.0151C21.1571 19.0151 21.3681 19.0992 21.5274 19.25C21.6784 19.4022 21.7632 19.6079 21.7632 19.8224C21.7632 20.0369 21.6784 20.2426 21.5274 20.3948ZM20.5819 20.1804C20.628 20.2278 20.6834 20.265 20.7447 20.2897C20.806 20.3145 20.8717 20.3262 20.9378 20.3241C21.0035 20.3264 21.069 20.3148 21.13 20.29C21.1909 20.2653 21.246 20.2279 21.2915 20.1804C21.3828 20.0789 21.4333 19.9472 21.4333 19.8106C21.4333 19.674 21.3828 19.5423 21.2915 19.4408C21.2456 19.394 21.1904 19.3573 21.1295 19.3329C21.0686 19.3085 21.0033 19.2971 20.9378 19.2993C20.8719 19.2973 20.8064 19.3088 20.7452 19.3332C20.684 19.3575 20.6284 19.3941 20.5819 19.4408C20.5352 19.4902 20.4988 19.5485 20.4749 19.6122C20.451 19.6759 20.44 19.7437 20.4425 19.8117C20.4385 19.8811 20.4489 19.9506 20.4728 20.0159C20.4968 20.0811 20.5339 20.1408 20.5819 20.1912V20.1804Z" fill="white"/>
<path d="M24.2544 19.9659H23.0259C23.0286 20.0208 23.0441 20.0742 23.0713 20.1218C23.0985 20.1695 23.1366 20.2101 23.1824 20.2404C23.278 20.3105 23.394 20.3474 23.5125 20.3454C23.596 20.3509 23.6796 20.3371 23.757 20.3051C23.8343 20.2731 23.9032 20.2238 23.9585 20.161L24.1472 20.3754C24.0616 20.4623 23.9589 20.5304 23.8456 20.5754C23.7323 20.6205 23.6108 20.6414 23.489 20.637C23.2807 20.6427 23.0787 20.5656 22.9272 20.4226C22.8492 20.3462 22.7883 20.2542 22.7484 20.1526C22.7085 20.051 22.6905 19.9421 22.6957 19.833C22.6907 19.7239 22.7092 19.615 22.7498 19.5137C22.7905 19.4123 22.8525 19.3209 22.9315 19.2456C23.0814 19.1041 23.2808 19.0272 23.4868 19.0312C23.6853 19.0259 23.8787 19.0947 24.0292 19.2241C24.1043 19.2901 24.1636 19.3722 24.2025 19.4643C24.2415 19.5563 24.2592 19.656 24.2544 19.7558V19.9659ZM23.0259 19.7065H23.9242C23.9278 19.65 23.9184 19.5934 23.8969 19.541C23.8753 19.4886 23.8421 19.4419 23.7998 19.4042C23.7151 19.3321 23.6066 19.2939 23.4954 19.297C23.3772 19.2958 23.2622 19.3352 23.1695 19.4085C23.1231 19.4427 23.0857 19.4877 23.0607 19.5397C23.0357 19.5916 23.0237 19.6489 23.0259 19.7065Z" fill="white"/>
<path d="M24.8722 19.7581V20.605H24.542V19.0378H24.8722V19.3251C24.9181 19.2288 24.9931 19.1493 25.0866 19.0978C25.1793 19.0426 25.2853 19.0137 25.3931 19.0142C25.4988 19.0049 25.6048 19.0296 25.6954 19.0848C25.786 19.1399 25.8567 19.2226 25.897 19.3208C25.9618 19.2265 26.0485 19.1494 26.1497 19.096C26.2509 19.0426 26.3636 19.0145 26.478 19.0142C26.5567 19.0113 26.6352 19.0243 26.7089 19.0523C26.7825 19.0802 26.8498 19.1227 26.9068 19.1771C26.9643 19.2399 27.0084 19.3137 27.0364 19.394C27.0644 19.4744 27.0758 19.5596 27.0697 19.6445V20.605H26.7353V19.7474C26.7353 19.458 26.6152 19.3186 26.3772 19.3186C26.2693 19.3161 26.1644 19.3544 26.0835 19.4258C26.0403 19.4659 26.0063 19.5148 25.9837 19.5691C25.9612 19.6235 25.9506 19.6821 25.9527 19.741V20.6114H25.6225V19.7539C25.6321 19.6388 25.6043 19.5238 25.5432 19.4258C25.513 19.3894 25.4744 19.3608 25.4307 19.3425C25.387 19.3242 25.3396 19.3168 25.2924 19.3208C25.1821 19.3189 25.0754 19.3596 24.9944 19.4344C24.9526 19.4769 24.9202 19.5277 24.8992 19.5834C24.8781 19.6391 24.8689 19.6987 24.8722 19.7581Z" fill="white"/>
<path d="M29.3078 20.1378C29.3102 20.206 29.2967 20.2738 29.2684 20.3359C29.2401 20.3981 29.1979 20.4528 29.1449 20.4958C29.026 20.5873 28.8789 20.6343 28.729 20.6287C28.4831 20.6243 28.2451 20.5417 28.0493 20.3929L28.208 20.1378C28.3568 20.2658 28.5437 20.3412 28.7397 20.3522C28.8024 20.3555 28.8644 20.3373 28.9155 20.3007C28.9356 20.2854 28.9519 20.2656 28.9631 20.2429C28.9742 20.2202 28.98 20.1952 28.9798 20.1699C28.9798 20.0906 28.8769 20.0199 28.6689 19.9555L28.6325 19.9427C28.3066 19.8548 28.1437 19.7068 28.1437 19.501C28.1424 19.4335 28.1571 19.3667 28.1865 19.306C28.2159 19.2453 28.2593 19.1924 28.313 19.1515C28.441 19.0605 28.5956 19.0145 28.7525 19.0208C28.9357 19.0213 29.1144 19.0773 29.2649 19.1816L29.1427 19.426C29.0203 19.342 28.8753 19.2971 28.7268 19.2973C28.6606 19.2948 28.5948 19.3096 28.536 19.3402C28.5129 19.3527 28.4937 19.3714 28.4805 19.394C28.4673 19.4167 28.4605 19.4426 28.461 19.4689C28.4605 19.4932 28.4677 19.5171 28.4815 19.5371C28.4954 19.5571 28.5152 19.5722 28.5381 19.5803C28.5862 19.6028 28.6365 19.62 28.6882 19.6318C28.7504 19.6468 28.8083 19.6618 28.8576 19.679C28.9069 19.6961 28.9541 19.7111 28.9991 19.7304C29.0515 19.7539 29.1017 19.7818 29.1492 19.814C29.201 19.85 29.2427 19.8987 29.2705 19.9553C29.2982 20.012 29.3111 20.0748 29.3078 20.1378Z" fill="white"/>
<path d="M30.0111 19.3034V20.0988C30.0084 20.1635 30.0298 20.2269 30.0711 20.2768C30.0923 20.299 30.118 20.3165 30.1465 20.3279C30.1749 20.3394 30.2056 20.3446 30.2362 20.3432C30.2754 20.341 30.3138 20.3308 30.3488 20.313C30.3839 20.2953 30.4149 20.2706 30.4399 20.2403L30.575 20.4719C30.4718 20.5712 30.3344 20.6273 30.1912 20.6284C30.1245 20.6295 30.0582 20.6172 29.9963 20.5921C29.9344 20.5671 29.8782 20.5298 29.831 20.4826C29.7806 20.4309 29.7415 20.3694 29.716 20.3019C29.6906 20.2344 29.6793 20.1623 29.6831 20.0902V19.3034H29.4858V19.0376H29.6831V18.5402H30.0111V19.0311H30.4249V19.297L30.0111 19.3034Z" fill="white"/>
<path d="M32.0325 20.605H31.7323V20.3906C31.6691 20.4666 31.5893 20.5271 31.4989 20.5672C31.4086 20.6074 31.3102 20.6262 31.2114 20.6221C31.064 20.6279 30.9197 20.579 30.8062 20.4849C30.7532 20.4392 30.7112 20.3821 30.6834 20.3178C30.6555 20.2536 30.6425 20.1839 30.6454 20.114C30.641 20.0467 30.6543 19.9794 30.684 19.9188C30.7137 19.8583 30.7588 19.8065 30.8147 19.7688C30.9542 19.6851 31.1154 19.6448 31.2778 19.6531H31.7066V19.6123C31.7066 19.3979 31.5908 19.2993 31.3593 19.2993C31.196 19.3056 31.0384 19.3609 30.9069 19.458L30.759 19.2436C30.9411 19.0964 31.1681 19.0162 31.4022 19.0163C31.5649 19.0092 31.7249 19.0592 31.8545 19.1578C31.9147 19.2111 31.9618 19.2774 31.9923 19.3518C32.0228 19.4261 32.0358 19.5064 32.0304 19.5866L32.0325 20.605ZM31.7023 20.0218V19.8889H31.3314C31.0934 19.8889 30.9755 19.9639 30.9755 20.114C30.9735 20.1481 30.9805 20.1822 30.996 20.2127C31.0114 20.2432 31.0347 20.2691 31.0634 20.2877C31.1374 20.3328 31.2234 20.3545 31.31 20.3498C31.4091 20.3525 31.5061 20.3206 31.5844 20.2598C31.6223 20.2331 31.6529 20.1973 31.6735 20.1558C31.6941 20.1142 31.704 20.0682 31.7023 20.0218Z" fill="white"/>
<path d="M33.2401 19.3486C33.1703 19.3429 33.1003 19.3544 33.036 19.3821C32.9717 19.4097 32.9152 19.4527 32.8713 19.5072C32.7837 19.6324 32.7406 19.7834 32.7491 19.936V20.6071H32.4189V19.0398H32.7491V19.355C32.7998 19.2586 32.8735 19.1761 32.9635 19.1149C33.0475 19.0529 33.1486 19.0185 33.2529 19.0162V19.3507L33.2401 19.3486Z" fill="white"/>
<path d="M33.919 19.3034V20.0988C33.9163 20.1635 33.9377 20.2269 33.979 20.2768C34.0002 20.299 34.0259 20.3165 34.0544 20.3279C34.0828 20.3394 34.1135 20.3446 34.1441 20.3432C34.1833 20.341 34.2217 20.3308 34.2567 20.313C34.2918 20.2953 34.3228 20.2706 34.3478 20.2403L34.4829 20.4719C34.3792 20.5717 34.2409 20.6278 34.097 20.6284C34.0306 20.6293 33.9646 20.6169 33.9031 20.5919C33.8416 20.5668 33.7858 20.5297 33.7389 20.4826C33.6885 20.4309 33.6494 20.3694 33.6239 20.3019C33.5985 20.2344 33.5873 20.1623 33.591 20.0902V19.3034H33.3916V19.0376H33.5953V18.5402H33.9233V19.0311H34.3371V19.297L33.919 19.3034Z" fill="white"/>
<path d="M35.7674 19.8869V19.0294H36.0975V20.5966H35.7674V20.32C35.7162 20.4135 35.6408 20.4915 35.5492 20.5458C35.4575 20.6001 35.3529 20.6288 35.2464 20.6288C35.1677 20.6324 35.0892 20.62 35.0155 20.5924C34.9418 20.5647 34.8744 20.5224 34.8176 20.468C34.7603 20.4046 34.7161 20.3304 34.6878 20.2498C34.6594 20.1692 34.6474 20.0837 34.6525 19.9984V19.0379H34.9827V19.8955C34.9827 20.185 35.1027 20.3243 35.3428 20.3243C35.4531 20.3262 35.5598 20.2855 35.6409 20.2107C35.6834 20.1685 35.7166 20.118 35.7384 20.0622C35.7602 20.0064 35.77 19.9467 35.7674 19.8869Z" fill="white"/>
<path d="M37.3393 19.0143C37.4391 19.0122 37.5383 19.03 37.6311 19.0669C37.7239 19.1037 37.8083 19.1587 37.8795 19.2287C37.9531 19.3057 38.0101 19.397 38.047 19.4969C38.0839 19.5969 38.0999 19.7033 38.0939 19.8097C38.0997 19.917 38.0837 20.0244 38.0469 20.1254C38.01 20.2263 37.9531 20.3188 37.8795 20.3971C37.8126 20.4711 37.7304 20.5297 37.6386 20.5688C37.5468 20.6079 37.4476 20.6266 37.3479 20.6235C37.2482 20.6204 37.1503 20.5957 37.0611 20.5511C36.9718 20.5064 36.8934 20.4429 36.8311 20.365V21.1732H36.501V19.0293H36.8311V19.3037C36.883 19.2151 36.9573 19.1418 37.0465 19.091C37.1357 19.0402 37.2366 19.0137 37.3393 19.0143ZM36.8247 19.8247C36.8219 19.8917 36.8324 19.9586 36.8556 20.0215C36.8788 20.0844 36.9142 20.1421 36.9598 20.1913C37.0011 20.2377 37.052 20.2747 37.1091 20.2995C37.1661 20.3243 37.2278 20.3364 37.29 20.3349C37.353 20.3353 37.4155 20.323 37.4737 20.2987C37.5319 20.2744 37.5846 20.2386 37.6287 20.1934C37.6768 20.1456 37.7143 20.0884 37.7391 20.0252C37.7638 19.9621 37.7751 19.8946 37.7723 19.8268C37.7764 19.688 37.7256 19.5532 37.6308 19.4516C37.5881 19.4044 37.5357 19.3668 37.4774 19.3413C37.419 19.3158 37.3558 19.303 37.2921 19.3037C37.2293 19.3025 37.1669 19.3151 37.1095 19.3407C37.0521 19.3662 37.0009 19.4041 36.9598 19.4516C36.8686 19.5549 36.8202 19.6891 36.8247 19.8268V19.8247Z" fill="white"/>
<path d="M39.5205 20.1375C39.5228 20.2055 39.5095 20.2731 39.4816 20.3352C39.4538 20.3972 39.4121 20.4521 39.3597 20.4956C39.2408 20.587 39.0937 20.634 38.9438 20.6285C38.8225 20.6278 38.7022 20.6068 38.5879 20.5663C38.4706 20.528 38.361 20.4692 38.2642 20.3927L38.4228 20.1375C38.5708 20.2655 38.757 20.3409 38.9524 20.3519C39.0158 20.3552 39.0785 20.3371 39.1303 20.3005C39.1505 20.2852 39.1668 20.2654 39.1779 20.2427C39.1891 20.22 39.1948 20.195 39.1946 20.1697C39.1946 20.0904 39.0896 20.0196 38.8816 19.9553L38.8473 19.9424C38.5214 19.8545 38.3585 19.7066 38.3585 19.5008C38.3572 19.4333 38.3719 19.3665 38.4014 19.3058C38.4308 19.245 38.4741 19.1921 38.5279 19.1513C38.6557 19.06 38.8104 19.0139 38.9674 19.0205C39.1505 19.0213 39.3291 19.0773 39.4798 19.1813L39.3554 19.4257C39.2339 19.3416 39.0895 19.2968 38.9417 19.2971C38.8747 19.2946 38.8083 19.3093 38.7487 19.34C38.7259 19.3526 38.707 19.3713 38.6941 19.394C38.6812 19.4167 38.6749 19.4425 38.6758 19.4686C38.6753 19.4929 38.6825 19.5168 38.6964 19.5368C38.7102 19.5568 38.73 19.572 38.753 19.5801C38.8001 19.6029 38.8498 19.6202 38.9009 19.6315C38.9582 19.6443 39.0147 19.6601 39.0703 19.6787C39.1196 19.6937 39.1668 19.7109 39.2139 19.7302C39.2654 19.7541 39.3148 19.7821 39.3619 19.8138C39.4141 19.8494 39.4562 19.8979 39.484 19.9547C39.5118 20.0114 39.5244 20.0744 39.5205 20.1375Z" fill="white"/>
<path d="M69.2504 16.3751C69.383 16.3751 69.4905 16.2676 69.4905 16.135C69.4905 16.0024 69.383 15.8949 69.2504 15.8949C69.1178 15.8949 69.0103 16.0024 69.0103 16.135C69.0103 16.2676 69.1178 16.3751 69.2504 16.3751Z" fill="white"/>
<path d="M69.7299 20.6885C69.8625 20.6885 69.97 20.581 69.97 20.4484C69.97 20.3158 69.8625 20.2083 69.7299 20.2083C69.5973 20.2083 69.4897 20.3158 69.4897 20.4484C69.4897 20.581 69.5973 20.6885 69.7299 20.6885Z" fill="white"/>
<path d="M70.4481 16.3751C70.5808 16.3751 70.6883 16.2676 70.6883 16.135C70.6883 16.0024 70.5808 15.8949 70.4481 15.8949C70.3155 15.8949 70.208 16.0024 70.208 16.135C70.208 16.2676 70.3155 16.3751 70.4481 16.3751Z" fill="white"/>
<path d="M70.4481 17.0932C70.5808 17.0932 70.6883 16.9857 70.6883 16.8531C70.6883 16.7205 70.5808 16.613 70.4481 16.613C70.3155 16.613 70.208 16.7205 70.208 16.8531C70.208 16.9857 70.3155 17.0932 70.4481 17.0932Z" fill="white"/>
<path d="M70.4481 19.9683C70.5808 19.9683 70.6883 19.8608 70.6883 19.7282C70.6883 19.5955 70.5808 19.488 70.4481 19.488C70.3155 19.488 70.208 19.5955 70.208 19.7282C70.208 19.8608 70.3155 19.9683 70.4481 19.9683Z" fill="white"/>
<path d="M70.4481 20.6885C70.5808 20.6885 70.6883 20.581 70.6883 20.4484C70.6883 20.3158 70.5808 20.2083 70.4481 20.2083C70.3155 20.2083 70.208 20.3158 70.208 20.4484C70.208 20.581 70.3155 20.6885 70.4481 20.6885Z" fill="white"/>
<path d="M71.1664 16.3751C71.299 16.3751 71.4065 16.2676 71.4065 16.135C71.4065 16.0024 71.299 15.8949 71.1664 15.8949C71.0338 15.8949 70.9263 16.0024 70.9263 16.135C70.9263 16.2676 71.0338 16.3751 71.1664 16.3751Z" fill="white"/>
<path d="M71.1664 17.0932C71.299 17.0932 71.4065 16.9857 71.4065 16.8531C71.4065 16.7205 71.299 16.613 71.1664 16.613C71.0338 16.613 70.9263 16.7205 70.9263 16.8531C70.9263 16.9857 71.0338 17.0932 71.1664 17.0932Z" fill="white"/>
<path d="M71.1664 17.8134C71.299 17.8134 71.4065 17.7059 71.4065 17.5733C71.4065 17.4407 71.299 17.3332 71.1664 17.3332C71.0338 17.3332 70.9263 17.4407 70.9263 17.5733C70.9263 17.7059 71.0338 17.8134 71.1664 17.8134Z" fill="white"/>
<path d="M71.1664 19.2499C71.299 19.2499 71.4065 19.1424 71.4065 19.0098C71.4065 18.8772 71.299 18.7697 71.1664 18.7697C71.0338 18.7697 70.9263 18.8772 70.9263 19.0098C70.9263 19.1424 71.0338 19.2499 71.1664 19.2499Z" fill="white"/>
<path d="M71.1664 19.9683C71.299 19.9683 71.4065 19.8608 71.4065 19.7282C71.4065 19.5955 71.299 19.488 71.1664 19.488C71.0338 19.488 70.9263 19.5955 70.9263 19.7282C70.9263 19.8608 71.0338 19.9683 71.1664 19.9683Z" fill="white"/>
<path d="M71.1664 20.6885C71.299 20.6885 71.4065 20.581 71.4065 20.4484C71.4065 20.3158 71.299 20.2083 71.1664 20.2083C71.0338 20.2083 70.9263 20.3158 70.9263 20.4484C70.9263 20.581 71.0338 20.6885 71.1664 20.6885Z" fill="white"/>
<path d="M71.8847 16.3751C72.0173 16.3751 72.1248 16.2676 72.1248 16.135C72.1248 16.0024 72.0173 15.8949 71.8847 15.8949C71.752 15.8949 71.6445 16.0024 71.6445 16.135C71.6445 16.2676 71.752 16.3751 71.8847 16.3751Z" fill="white"/>
<path d="M71.8847 17.0932C72.0173 17.0932 72.1248 16.9857 72.1248 16.8531C72.1248 16.7205 72.0173 16.613 71.8847 16.613C71.752 16.613 71.6445 16.7205 71.6445 16.8531C71.6445 16.9857 71.752 17.0932 71.8847 17.0932Z" fill="white"/>
<path d="M71.8847 17.8134C72.0173 17.8134 72.1248 17.7059 72.1248 17.5733C72.1248 17.4407 72.0173 17.3332 71.8847 17.3332C71.752 17.3332 71.6445 17.4407 71.6445 17.5733C71.6445 17.7059 71.752 17.8134 71.8847 17.8134Z" fill="white"/>
<path d="M71.8847 18.5318C72.0173 18.5318 72.1248 18.4243 72.1248 18.2917C72.1248 18.1591 72.0173 18.0516 71.8847 18.0516C71.752 18.0516 71.6445 18.1591 71.6445 18.2917C71.6445 18.4243 71.752 18.5318 71.8847 18.5318Z" fill="white"/>
<path d="M71.8847 19.2499C72.0173 19.2499 72.1248 19.1424 72.1248 19.0098C72.1248 18.8772 72.0173 18.7697 71.8847 18.7697C71.752 18.7697 71.6445 18.8772 71.6445 19.0098C71.6445 19.1424 71.752 19.2499 71.8847 19.2499Z" fill="white"/>
<path d="M71.8847 19.9683C72.0173 19.9683 72.1248 19.8608 72.1248 19.7282C72.1248 19.5955 72.0173 19.488 71.8847 19.488C71.752 19.488 71.6445 19.5955 71.6445 19.7282C71.6445 19.8608 71.752 19.9683 71.8847 19.9683Z" fill="white"/>
<path d="M71.8847 20.6885C72.0173 20.6885 72.1248 20.581 72.1248 20.4484C72.1248 20.3158 72.0173 20.2083 71.8847 20.2083C71.752 20.2083 71.6445 20.3158 71.6445 20.4484C71.6445 20.581 71.752 20.6885 71.8847 20.6885Z" fill="white"/>
<path d="M72.6044 16.3751C72.737 16.3751 72.8445 16.2676 72.8445 16.135C72.8445 16.0024 72.737 15.8949 72.6044 15.8949C72.4718 15.8949 72.3643 16.0024 72.3643 16.135C72.3643 16.2676 72.4718 16.3751 72.6044 16.3751Z" fill="white"/>
<path d="M72.6044 17.0932C72.737 17.0932 72.8445 16.9857 72.8445 16.8531C72.8445 16.7205 72.737 16.613 72.6044 16.613C72.4718 16.613 72.3643 16.7205 72.3643 16.8531C72.3643 16.9857 72.4718 17.0932 72.6044 17.0932Z" fill="white"/>
<path d="M72.6044 17.8134C72.737 17.8134 72.8445 17.7059 72.8445 17.5733C72.8445 17.4407 72.737 17.3332 72.6044 17.3332C72.4718 17.3332 72.3643 17.4407 72.3643 17.5733C72.3643 17.7059 72.4718 17.8134 72.6044 17.8134Z" fill="white"/>
<path d="M72.6044 18.5318C72.737 18.5318 72.8445 18.4243 72.8445 18.2917C72.8445 18.1591 72.737 18.0516 72.6044 18.0516C72.4718 18.0516 72.3643 18.1591 72.3643 18.2917C72.3643 18.4243 72.4718 18.5318 72.6044 18.5318Z" fill="white"/>
<path d="M72.6044 19.2499C72.737 19.2499 72.8445 19.1424 72.8445 19.0098C72.8445 18.8772 72.737 18.7697 72.6044 18.7697C72.4718 18.7697 72.3643 18.8772 72.3643 19.0098C72.3643 19.1424 72.4718 19.2499 72.6044 19.2499Z" fill="white"/>
<path d="M72.6044 19.9683C72.737 19.9683 72.8445 19.8608 72.8445 19.7282C72.8445 19.5955 72.737 19.488 72.6044 19.488C72.4718 19.488 72.3643 19.5955 72.3643 19.7282C72.3643 19.8608 72.4718 19.9683 72.6044 19.9683Z" fill="white"/>
<path d="M72.6044 20.6885C72.737 20.6885 72.8445 20.581 72.8445 20.4484C72.8445 20.3158 72.737 20.2083 72.6044 20.2083C72.4718 20.2083 72.3643 20.3158 72.3643 20.4484C72.3643 20.581 72.4718 20.6885 72.6044 20.6885Z" fill="white"/>
<path d="M73.3236 17.0932C73.4562 17.0932 73.5637 16.9857 73.5637 16.8531C73.5637 16.7205 73.4562 16.613 73.3236 16.613C73.191 16.613 73.0835 16.7205 73.0835 16.8531C73.0835 16.9857 73.191 17.0932 73.3236 17.0932Z" fill="white"/>
<path d="M73.3236 17.8134C73.4562 17.8134 73.5637 17.7059 73.5637 17.5733C73.5637 17.4407 73.4562 17.3332 73.3236 17.3332C73.191 17.3332 73.0835 17.4407 73.0835 17.5733C73.0835 17.7059 73.191 17.8134 73.3236 17.8134Z" fill="white"/>
<path d="M73.3236 18.5318C73.4562 18.5318 73.5637 18.4243 73.5637 18.2917C73.5637 18.1591 73.4562 18.0516 73.3236 18.0516C73.191 18.0516 73.0835 18.1591 73.0835 18.2917C73.0835 18.4243 73.191 18.5318 73.3236 18.5318Z" fill="white"/>
<path d="M73.3236 19.2499C73.4562 19.2499 73.5637 19.1424 73.5637 19.0098C73.5637 18.8772 73.4562 18.7697 73.3236 18.7697C73.191 18.7697 73.0835 18.8772 73.0835 19.0098C73.0835 19.1424 73.191 19.2499 73.3236 19.2499Z" fill="white"/>
<path d="M73.3236 19.9683C73.4562 19.9683 73.5637 19.8608 73.5637 19.7282C73.5637 19.5955 73.4562 19.488 73.3236 19.488C73.191 19.488 73.0835 19.5955 73.0835 19.7282C73.0835 19.8608 73.191 19.9683 73.3236 19.9683Z" fill="white"/>
<path d="M74.0414 17.8134C74.174 17.8134 74.2815 17.7059 74.2815 17.5733C74.2815 17.4407 74.174 17.3332 74.0414 17.3332C73.9088 17.3332 73.8013 17.4407 73.8013 17.5733C73.8013 17.7059 73.9088 17.8134 74.0414 17.8134Z" fill="white"/>
<path d="M74.0414 18.5318C74.174 18.5318 74.2815 18.4243 74.2815 18.2917C74.2815 18.1591 74.174 18.0516 74.0414 18.0516C73.9088 18.0516 73.8013 18.1591 73.8013 18.2917C73.8013 18.4243 73.9088 18.5318 74.0414 18.5318Z" fill="white"/>
<path d="M74.0414 19.2499C74.174 19.2499 74.2815 19.1424 74.2815 19.0098C74.2815 18.8772 74.174 18.7697 74.0414 18.7697C73.9088 18.7697 73.8013 18.8772 73.8013 19.0098C73.8013 19.1424 73.9088 19.2499 74.0414 19.2499Z" fill="white"/>
<path d="M74.7601 18.5318C74.8928 18.5318 75.0003 18.4243 75.0003 18.2917C75.0003 18.1591 74.8928 18.0516 74.7601 18.0516C74.6275 18.0516 74.52 18.1591 74.52 18.2917C74.52 18.4243 74.6275 18.5318 74.7601 18.5318Z" fill="white"/>
<path d="M41.4783 20.6865C41.8075 20.6865 42.0744 20.4196 42.0744 20.0905C42.0744 19.7613 41.8075 19.4944 41.4783 19.4944C41.1492 19.4944 40.8823 19.7613 40.8823 20.0905C40.8823 20.4196 41.1492 20.6865 41.4783 20.6865Z" fill="white"/>
<path d="M45.8479 17.8416L45.5628 17.8009C45.0204 17.7194 44.5723 17.6272 44.5723 17.3313C44.5723 17.0355 44.9282 16.8425 45.4792 16.8425C45.9266 16.8463 46.367 16.9542 46.7655 17.1577C46.8061 17.1803 46.8536 17.1873 46.8989 17.1774C46.9443 17.1676 46.9846 17.1415 47.0121 17.1041C47.0893 16.999 47.1579 16.8897 47.2265 16.776L47.3294 16.611C47.347 16.5873 47.3595 16.5602 47.3662 16.5314C47.3728 16.5026 47.3734 16.4728 47.368 16.4437C47.3608 16.4174 47.3481 16.3929 47.3307 16.3718C47.3134 16.3507 47.2917 16.3336 47.2672 16.3215C46.7063 16.0374 46.0843 15.8946 45.4556 15.9056C44.9526 15.8902 44.4557 16.0189 44.0234 16.2765C43.8316 16.3913 43.6729 16.554 43.5631 16.7488C43.4534 16.9435 43.3962 17.1635 43.3974 17.3871C43.3974 18.1396 43.9141 18.5791 44.9775 18.7292L45.2969 18.7742C45.9594 18.8686 46.3175 18.9715 46.3175 19.2502C46.3175 19.5289 45.9423 19.7412 45.3848 19.7412C44.8769 19.7408 44.3782 19.6054 43.9398 19.3488C43.8974 19.3204 43.8463 19.308 43.7956 19.3139C43.7449 19.3198 43.698 19.3436 43.6632 19.381C43.5946 19.4667 43.3095 19.8634 43.288 19.9127C43.267 19.9561 43.2628 20.0058 43.2763 20.0521C43.2898 20.0984 43.3199 20.1381 43.3609 20.1635C43.9772 20.516 44.6771 20.696 45.387 20.6845C45.8999 20.7001 46.407 20.5724 46.8513 20.3157C47.0501 20.1972 47.2143 20.0284 47.3272 19.8263C47.4401 19.6242 47.4978 19.3959 47.4945 19.1644C47.4945 18.4441 46.9413 18.0024 45.8479 17.8416Z" fill="white"/>
<path d="M62.074 17.8416L61.791 17.8009C61.2486 17.7194 60.7983 17.6272 60.7983 17.3313C60.7983 17.0355 61.1542 16.8425 61.7074 16.8425C62.1548 16.8462 62.5953 16.9541 62.9938 17.1577C63.034 17.1801 63.0811 17.1871 63.1261 17.1772C63.1712 17.1673 63.211 17.1413 63.2382 17.1041C63.3154 16.999 63.3861 16.8897 63.4526 16.776L63.5555 16.611C63.5731 16.5872 63.5856 16.5601 63.5922 16.5314C63.5989 16.5026 63.5995 16.4728 63.5941 16.4437C63.5869 16.4174 63.5742 16.3929 63.5568 16.3718C63.5394 16.3507 63.5178 16.3336 63.4933 16.3215C62.933 16.0377 62.3118 15.8949 61.6838 15.9056C61.1801 15.8902 60.6826 16.0189 60.2495 16.2765C60.0576 16.3913 59.899 16.554 59.7892 16.7488C59.6794 16.9435 59.6223 17.1635 59.6234 17.3871C59.6234 18.1396 60.1423 18.5791 61.2057 18.7292L61.5251 18.7742C62.1855 18.8685 62.5457 18.9715 62.5457 19.2502C62.5457 19.5289 62.1705 19.7411 61.6109 19.7411C61.103 19.7408 60.6042 19.6054 60.1659 19.3488C60.1248 19.3177 60.0733 19.3036 60.0222 19.3096C59.971 19.3156 59.9242 19.3412 59.8914 19.381C59.8207 19.4667 59.5377 19.8633 59.5141 19.9127C59.4933 19.9563 59.4894 20.0062 59.5033 20.0525C59.5172 20.0989 59.5478 20.1384 59.5891 20.1635C60.2038 20.5112 60.9006 20.6874 61.6066 20.6738C62.1202 20.6893 62.628 20.5617 63.0731 20.305C63.2716 20.1861 63.4355 20.0172 63.5484 19.8152C63.6612 19.6132 63.7191 19.3851 63.7163 19.1537C63.7227 18.444 63.1674 18.0024 62.074 17.8416Z" fill="white"/>
<path d="M66.5819 16.9002C66.3629 16.8424 66.1373 16.8143 65.9108 16.8165C65.6515 16.7967 65.391 16.8319 65.1463 16.9199C64.9016 17.0079 64.6782 17.1466 64.4909 17.327C64.3036 17.5074 64.1566 17.7254 64.0596 17.9667C63.9625 18.2079 63.9175 18.467 63.9277 18.7268C63.9277 19.9296 64.7124 20.6757 65.9794 20.6757C66.5026 20.6823 67.0139 20.5199 67.4373 20.2126C67.4605 20.1934 67.4793 20.1695 67.4926 20.1425C67.5059 20.1156 67.5133 20.0861 67.5145 20.0561C67.5136 20.0272 67.5068 19.9989 67.4947 19.9727C67.4825 19.9466 67.4652 19.9232 67.4438 19.9038L67.1115 19.5823C67.0901 19.5615 67.0644 19.5457 67.0362 19.5361C67.0081 19.5265 66.9781 19.5232 66.9485 19.5265C66.9014 19.5353 66.8567 19.5543 66.8177 19.5823L66.792 19.5973C66.5466 19.7289 66.2729 19.7988 65.9944 19.8009C65.4156 19.8009 65.0147 19.5351 64.9375 19.102H67.611C67.6622 19.1026 67.7117 19.0833 67.7489 19.048C67.7861 19.0128 67.8082 18.9645 67.8104 18.9133C67.8104 18.8747 67.8104 18.7654 67.8104 18.7461C67.8289 18.3145 67.7135 17.8877 67.4802 17.524C67.2625 17.2179 66.9448 16.9973 66.5819 16.9002ZM66.8563 18.3023H64.9589C65.0918 17.8971 65.4477 17.6591 65.9408 17.6591C66.434 17.6591 66.7877 17.8971 66.8563 18.3023Z" fill="white"/>
<path d="M49.7041 19.6507C49.6548 19.6507 49.6055 19.6507 49.5562 19.6635L49.419 19.6785C49.2958 19.6925 49.1713 19.6925 49.0481 19.6785C49.0194 19.6784 48.9911 19.6713 48.9657 19.6579C48.9403 19.6444 48.9186 19.625 48.9023 19.6014C48.8761 19.5482 48.8642 19.489 48.868 19.4298V17.7511H49.6763C49.7331 17.7511 49.7877 17.7285 49.8279 17.6883C49.8681 17.6481 49.8907 17.5936 49.8907 17.5367V17.05C49.8917 17.0365 49.8917 17.0229 49.8907 17.0093C49.8795 16.9639 49.8537 16.9234 49.8173 16.8939C49.7809 16.8645 49.7359 16.8478 49.6891 16.8464H48.8809V16.141C48.8783 16.0878 48.856 16.0375 48.8183 15.9999C48.7807 15.9622 48.7304 15.9399 48.6772 15.9373C48.642 15.9375 48.6074 15.9463 48.5764 15.963L47.9332 16.3318C47.905 16.3509 47.8818 16.3763 47.8653 16.4062C47.8489 16.436 47.8399 16.4693 47.8389 16.5033V19.5799C47.8228 19.7101 47.835 19.8423 47.8746 19.9674C47.9143 20.0925 47.9804 20.2076 48.0685 20.3048C48.1566 20.4021 48.2646 20.4792 48.3852 20.531C48.5057 20.5827 48.6361 20.6079 48.7672 20.6047C48.8423 20.6047 48.9195 20.6154 48.9988 20.6154C49.0926 20.6156 49.1864 20.6106 49.2796 20.6004C49.4409 20.5906 49.6006 20.5625 49.7556 20.5168C49.7978 20.5061 49.8353 20.4818 49.8624 20.4477C49.8895 20.4137 49.9047 20.3717 49.9057 20.3282V19.8393C49.8997 19.7892 49.8762 19.7428 49.8393 19.7082C49.8024 19.6737 49.7546 19.6533 49.7041 19.6507Z" fill="white"/>
<path d="M53.6947 16.8572H53.0815C53.0246 16.8572 52.9701 16.8798 52.9299 16.92C52.8897 16.9602 52.8671 17.0148 52.8671 17.0716V17.0888C52.6012 16.9119 52.2881 16.8192 51.9688 16.8229H51.9473C51.4427 16.8065 50.9493 16.975 50.5602 17.2968C50.365 17.4851 50.2124 17.713 50.1125 17.9652C50.0127 18.2174 49.9679 18.488 49.9813 18.7589C49.972 19.0238 50.0168 19.2879 50.113 19.5348C50.2093 19.7818 50.3548 20.0066 50.5409 20.1954C50.9179 20.523 51.4052 20.6954 51.9045 20.6778H51.9473C52.2755 20.6684 52.5943 20.5666 52.8671 20.3841V20.4312C52.8671 20.4881 52.8897 20.5426 52.9299 20.5828C52.9701 20.623 53.0246 20.6456 53.0815 20.6456H53.6947C53.7515 20.6456 53.8061 20.623 53.8463 20.5828C53.8865 20.5426 53.9091 20.4881 53.9091 20.4312V17.0631C53.9068 17.0077 53.8833 16.9553 53.8433 16.917C53.8033 16.8786 53.7501 16.8572 53.6947 16.8572ZM52.8757 18.7311V19.3571C52.7457 19.5226 52.5673 19.6435 52.3654 19.7029C52.1635 19.7624 51.9481 19.7573 51.7491 19.6886C51.5502 19.6198 51.3777 19.4907 51.2556 19.3193C51.1334 19.1479 51.0678 18.9426 51.0678 18.7321C51.0678 18.5217 51.1334 18.3164 51.2556 18.145C51.3777 17.9736 51.5502 17.8445 51.7491 17.7757C51.9481 17.707 52.1635 17.7019 52.3654 17.7613C52.5673 17.8207 52.7457 17.9416 52.8757 18.1072V18.7311Z" fill="white"/>
<path d="M59.0467 19.6509C58.9974 19.6509 58.9481 19.6509 58.8987 19.6638L58.7615 19.6788C58.6383 19.6927 58.5139 19.6927 58.3906 19.6788C58.3639 19.6787 58.3376 19.6728 58.3135 19.6613C58.2894 19.6498 58.2681 19.6331 58.2513 19.6123C58.225 19.5592 58.2132 19.5 58.217 19.4408V17.7621H59.0338C59.0888 17.7593 59.1406 17.7355 59.1785 17.6956C59.2164 17.6557 59.2376 17.6028 59.2375 17.5477V17.061C59.2385 17.0475 59.2385 17.0338 59.2375 17.0203C59.2264 16.9752 59.2009 16.9349 59.165 16.9055C59.129 16.8762 59.0845 16.8592 59.0381 16.8573H58.2277C58.2277 16.3621 58.2277 16.152 58.2277 16.152C58.2249 16.097 58.2011 16.0452 58.1612 16.0073C58.1213 15.9693 58.0683 15.9482 58.0133 15.9483C57.9782 15.949 57.9437 15.9578 57.9125 15.974L57.2801 16.3428C57.2518 16.3618 57.2286 16.3873 57.2122 16.4172C57.1958 16.447 57.1867 16.4803 57.1857 16.5143V16.8552H56.5425C56.1831 16.8385 55.8305 16.957 55.5542 17.1875C55.4996 17.236 55.45 17.2899 55.4062 17.3483V17.0589C55.4062 17.002 55.3836 16.9475 55.3434 16.9073C55.3032 16.8671 55.2487 16.8445 55.1918 16.8445H54.5787C54.5218 16.8445 54.4673 16.8671 54.4271 16.9073C54.3868 16.9475 54.3643 17.002 54.3643 17.0589V20.4185C54.3643 20.4753 54.3868 20.5299 54.4271 20.5701C54.4673 20.6103 54.5218 20.6329 54.5787 20.6329H55.1918C55.2487 20.6329 55.3032 20.6103 55.3434 20.5701C55.3836 20.5299 55.4062 20.4753 55.4062 20.4185V19.6123C55.4062 19.4987 55.4062 19.3829 55.4062 19.2693C55.4062 19.0399 55.4062 18.8126 55.4062 18.5832C55.4041 18.4579 55.4313 18.3339 55.4856 18.2209C55.6999 17.7921 56.2981 17.7471 56.5425 17.7471H57.1857V19.5909C57.1676 19.8552 57.2521 20.1163 57.4216 20.3198C57.6073 20.5015 57.8544 20.6071 58.114 20.6157C58.1891 20.6157 58.2663 20.6264 58.3456 20.6264C58.4401 20.6267 58.5346 20.6217 58.6286 20.6114C58.7899 20.6013 58.9495 20.5733 59.1046 20.5278C59.1466 20.5167 59.1839 20.4924 59.2109 20.4584C59.238 20.4244 59.2533 20.3826 59.2546 20.3391V19.8503C59.2509 19.7972 59.2276 19.7473 59.1891 19.7105C59.1507 19.6736 59.0999 19.6524 59.0467 19.6509Z" fill="white"/>
</svg>
