<svg width="28" height="30" viewBox="0 0 28 30" fill="none" xmlns="http://www.w3.org/2000/svg">
<path d="M8.39674 0.393073H8.1415C8.1381 0.366868 8.13112 0.343215 8.12057 0.322115C8.11002 0.301015 8.09607 0.282978 8.07871 0.268004C8.06136 0.25303 8.04077 0.241629 8.01694 0.233802C7.99346 0.225634 7.96743 0.22155 7.93884 0.22155C7.88813 0.22155 7.8444 0.233972 7.80765 0.258815C7.77123 0.283659 7.74315 0.319563 7.72342 0.366527C7.70402 0.413492 7.69432 0.470326 7.69432 0.537029C7.69432 0.606455 7.70419 0.66465 7.72393 0.711615C7.74401 0.758239 7.77208 0.793462 7.80816 0.817285C7.84457 0.840767 7.88762 0.852508 7.93731 0.852508C7.96521 0.852508 7.99057 0.848935 8.01337 0.841788C8.03651 0.834641 8.05676 0.824262 8.07412 0.810649C8.09181 0.796695 8.10628 0.779849 8.11751 0.760111C8.12908 0.740032 8.13708 0.7174 8.1415 0.692216L8.39674 0.693748C8.39232 0.740032 8.37888 0.785635 8.35642 0.830557C8.33429 0.87548 8.30384 0.916489 8.26504 0.953584C8.22624 0.990339 8.17894 1.01961 8.12312 1.04139C8.06765 1.06317 8.00401 1.07406 7.9322 1.07406C7.83759 1.07406 7.75285 1.0533 7.67798 1.01178C7.60345 0.96992 7.54458 0.909002 7.50135 0.829026C7.45813 0.74905 7.43652 0.651718 7.43652 0.537029C7.43652 0.422 7.45847 0.324498 7.50238 0.244522C7.54628 0.164546 7.60566 0.103798 7.68053 0.062279C7.75541 0.0207597 7.8393 0 7.9322 0C7.9955 0 8.05404 0.00884839 8.10781 0.0265452C8.16158 0.0439016 8.20889 0.0694258 8.24972 0.103118C8.29056 0.136469 8.32374 0.177478 8.34927 0.226144C8.37479 0.274811 8.39062 0.330453 8.39674 0.393073Z" fill="white"/>
<path d="M10.2172 0.0142935V1.05976H9.96449V0.0142935H10.2172Z" fill="white"/>
<path d="M12.1854 1.05976H11.799V0.0142935H12.1849C12.2914 0.0142935 12.3831 0.0352234 12.46 0.0770831C12.5373 0.118602 12.5968 0.178499 12.6387 0.256773C12.6806 0.334707 12.7015 0.427956 12.7015 0.536519C12.7015 0.645422 12.6806 0.739011 12.6387 0.817285C12.5972 0.895559 12.5378 0.955626 12.4605 0.997486C12.3833 1.03901 12.2916 1.05976 12.1854 1.05976ZM12.0516 0.844341H12.1757C12.2342 0.844341 12.2837 0.834471 12.3242 0.814732C12.3651 0.794653 12.3959 0.762153 12.4166 0.71723C12.4377 0.671967 12.4483 0.61173 12.4483 0.536519C12.4483 0.461307 12.4377 0.401411 12.4166 0.356828C12.3955 0.311906 12.3644 0.279575 12.3232 0.259836C12.2824 0.239757 12.232 0.229718 12.1721 0.229718H12.0516V0.844341Z" fill="white"/>
<path d="M14.4365 1.05976H14.165L14.5177 0.0142935H14.8541L15.2069 1.05976H14.9353L14.6897 0.277703H14.6816L14.4365 1.05976ZM14.4003 0.648315H14.968V0.840257H14.4003V0.648315Z" fill="white"/>
<path d="M17.129 1.05976H16.7426V0.0142935H17.1285C17.235 0.0142935 17.3267 0.0352234 17.4037 0.0770831C17.4809 0.118602 17.5405 0.178499 17.5823 0.256773C17.6242 0.334707 17.6451 0.427956 17.6451 0.536519C17.6451 0.645422 17.6242 0.739011 17.5823 0.817285C17.5408 0.895559 17.4814 0.955626 17.4042 0.997486C17.3269 1.03901 17.2352 1.05976 17.129 1.05976ZM16.9953 0.844341H17.1193C17.1778 0.844341 17.2274 0.834471 17.2679 0.814732C17.3087 0.794653 17.3395 0.762153 17.3603 0.71723C17.3814 0.671967 17.3919 0.61173 17.3919 0.536519C17.3919 0.461307 17.3814 0.401411 17.3603 0.356828C17.3392 0.311906 17.308 0.279575 17.2668 0.259836C17.226 0.239757 17.1756 0.229718 17.1157 0.229718H16.9953V0.844341Z" fill="white"/>
<path d="M19.2158 1.05976V0.0142935H19.9448V0.219508H19.4685V0.433911H19.9075V0.639636H19.4685V0.85455H19.9448V1.05976H19.2158Z" fill="white"/>
<path d="M4.9834 29.9745V28.929H5.71237V29.1342H5.23609V29.3486H5.6751V29.5544H5.23609V29.7693H5.71237V29.9745H4.9834Z" fill="white"/>
<path d="M7.74387 29.2425C7.74047 29.205 7.72532 29.1759 7.69844 29.1552C7.67189 29.1341 7.63395 29.1235 7.5846 29.1235C7.55193 29.1235 7.5247 29.1278 7.50292 29.1363C7.48114 29.1448 7.46481 29.1565 7.45392 29.1715C7.44303 29.1861 7.43741 29.203 7.43707 29.222C7.43639 29.2377 7.43945 29.2515 7.44626 29.2634C7.45341 29.2753 7.46362 29.2859 7.47689 29.295C7.4905 29.3039 7.50684 29.3117 7.52589 29.3185C7.54495 29.3253 7.56639 29.3313 7.59022 29.3364L7.68006 29.3568C7.73179 29.368 7.77739 29.383 7.81687 29.4017C7.85669 29.4205 7.89004 29.4427 7.91693 29.4686C7.94415 29.4945 7.96474 29.5243 7.97869 29.5579C7.99265 29.5916 7.99979 29.6294 8.00013 29.6713C7.99979 29.7373 7.98312 29.794 7.95011 29.8413C7.9171 29.8886 7.86962 29.9248 7.80768 29.95C7.74608 29.9752 7.67172 29.9878 7.5846 29.9878C7.49714 29.9878 7.42091 29.9747 7.3559 29.9485C7.2909 29.9223 7.24036 29.8824 7.20429 29.829C7.16822 29.7756 7.14967 29.708 7.14865 29.6263H7.39062C7.39266 29.66 7.40168 29.6881 7.41767 29.7106C7.43367 29.733 7.45562 29.7501 7.48352 29.7616C7.51177 29.7732 7.54444 29.779 7.58154 29.779C7.61557 29.779 7.6445 29.7744 7.66832 29.7652C7.69248 29.756 7.71103 29.7432 7.72396 29.7269C7.73689 29.7106 7.74353 29.6919 7.74387 29.6708C7.74353 29.651 7.73741 29.6342 7.72549 29.6202C7.71358 29.6059 7.69521 29.5937 7.67036 29.5835C7.64586 29.5729 7.61455 29.5632 7.57643 29.5544L7.46719 29.5288C7.37666 29.5081 7.30537 29.4746 7.2533 29.4283C7.20123 29.3817 7.17536 29.3187 7.1757 29.2394C7.17536 29.1747 7.19272 29.1181 7.22777 29.0694C7.26283 29.0207 7.31132 28.9828 7.37326 28.9556C7.4352 28.9283 7.50582 28.9147 7.58511 28.9147C7.66611 28.9147 7.73638 28.9285 7.79594 28.9561C7.85584 28.9833 7.90229 29.0216 7.9353 29.0709C7.96831 29.1203 7.98516 29.1775 7.98584 29.2425H7.74387Z" fill="white"/>
<path d="M9.4017 29.1342V28.929H10.2853V29.1342H9.96834V29.9745H9.71922V29.1342H9.4017Z" fill="white"/>
<path d="M11.8082 29.9893C11.7714 29.9893 11.7399 29.9764 11.7137 29.9505C11.6878 29.9246 11.6751 29.8933 11.6754 29.8566C11.6751 29.8205 11.6878 29.7897 11.7137 29.7642C11.7399 29.7383 11.7714 29.7254 11.8082 29.7254C11.8429 29.7254 11.8735 29.7383 11.9 29.7642C11.9269 29.7897 11.9405 29.8205 11.9409 29.8566C11.9405 29.8811 11.9341 29.9034 11.9215 29.9235C11.9092 29.9435 11.8931 29.9595 11.873 29.9714C11.8532 29.9833 11.8316 29.9893 11.8082 29.9893Z" fill="white"/>
<path d="M14.9629 29.9745V29.7928L15.3442 29.4589C15.3728 29.433 15.3971 29.4094 15.4172 29.388C15.4373 29.3662 15.4526 29.3444 15.4632 29.3226C15.4737 29.3005 15.479 29.2765 15.479 29.2506C15.479 29.2217 15.4727 29.197 15.4601 29.1766C15.4475 29.1559 15.4301 29.1399 15.408 29.1286C15.3859 29.1174 15.3605 29.1118 15.332 29.1118C15.303 29.1118 15.2777 29.1177 15.2559 29.1296C15.2341 29.1412 15.2171 29.1581 15.2048 29.1802C15.1929 29.2023 15.187 29.2292 15.187 29.2608H14.9476C14.9476 29.1897 14.9636 29.1283 14.9955 29.0766C15.0275 29.0248 15.0725 28.985 15.1303 28.9571C15.1885 28.9289 15.2561 28.9147 15.333 28.9147C15.4123 28.9147 15.4812 28.928 15.5397 28.9546C15.5983 28.9811 15.6435 29.0182 15.6755 29.0658C15.7078 29.1131 15.724 29.1681 15.724 29.2307C15.724 29.2705 15.716 29.31 15.7 29.3492C15.684 29.3883 15.6553 29.4315 15.6137 29.4788C15.5726 29.5261 15.514 29.5828 15.4381 29.6488L15.3131 29.7642V29.7708H15.7368V29.9745H14.9629Z" fill="white"/>
<path d="M17.6201 30C17.5289 30 17.4503 29.9784 17.3843 29.9352C17.3182 29.8916 17.2674 29.8292 17.2316 29.7478C17.1959 29.6662 17.1782 29.568 17.1785 29.4533C17.1789 29.3386 17.1967 29.2413 17.2321 29.1613C17.2679 29.081 17.3186 29.0199 17.3843 28.978C17.4503 28.9358 17.5289 28.9147 17.6201 28.9147C17.7113 28.9147 17.7899 28.9358 17.8559 28.978C17.9223 29.0199 17.9734 29.081 18.0091 29.1613C18.0448 29.2416 18.0625 29.3389 18.0622 29.4533C18.0622 29.5683 18.0443 29.6667 18.0086 29.7484C17.9728 29.83 17.922 29.8925 17.8559 29.9357C17.7903 29.9786 17.7117 30 17.6201 30ZM17.6201 29.7933C17.6746 29.7933 17.7186 29.7655 17.7523 29.7101C17.786 29.6543 17.8027 29.5687 17.8023 29.4533C17.8023 29.3777 17.7947 29.3155 17.7794 29.2665C17.7641 29.2171 17.7428 29.1804 17.7156 29.1562C17.6883 29.132 17.6565 29.1199 17.6201 29.1199C17.566 29.1199 17.5223 29.1473 17.4889 29.2021C17.4556 29.2566 17.4387 29.3403 17.4384 29.4533C17.438 29.5299 17.4453 29.5933 17.4603 29.6437C17.4756 29.6941 17.4971 29.7317 17.5246 29.7565C17.5522 29.781 17.584 29.7933 17.6201 29.7933Z" fill="white"/>
<path d="M19.5151 29.9745V29.7928L19.8964 29.4589C19.925 29.433 19.9493 29.4094 19.9694 29.388C19.9895 29.3662 20.0048 29.3444 20.0153 29.3226C20.0259 29.3005 20.0312 29.2765 20.0312 29.2506C20.0312 29.2217 20.0249 29.197 20.0123 29.1766C19.9997 29.1559 19.9823 29.1399 19.9602 29.1286C19.9381 29.1174 19.9127 29.1118 19.8841 29.1118C19.8552 29.1118 19.8298 29.1177 19.8081 29.1296C19.7863 29.1412 19.7693 29.1581 19.757 29.1802C19.7451 29.2023 19.7392 29.2292 19.7392 29.2608H19.4997C19.4997 29.1897 19.5157 29.1283 19.5477 29.0766C19.5797 29.0248 19.6246 28.985 19.6825 28.9571C19.7407 28.9289 19.8082 28.9147 19.8852 28.9147C19.9644 28.9147 20.0334 28.928 20.0919 28.9546C20.1504 28.9811 20.1957 29.0182 20.2277 29.0658C20.26 29.1131 20.2762 29.1681 20.2762 29.2307C20.2762 29.2705 20.2682 29.31 20.2522 29.3492C20.2362 29.3883 20.2074 29.4315 20.1659 29.4788C20.1247 29.5261 20.0662 29.5828 19.9903 29.6488L19.8652 29.7642V29.7708H20.2889V29.9745H19.5151Z" fill="white"/>
<path d="M22.1723 30C22.0811 30 22.0025 29.9784 21.9364 29.9352C21.8704 29.8916 21.8195 29.8292 21.7838 29.7478C21.7481 29.6662 21.7304 29.568 21.7307 29.4533C21.7311 29.3386 21.7489 29.2413 21.7843 29.1613C21.82 29.081 21.8708 29.0199 21.9364 28.978C22.0025 28.9358 22.0811 28.9147 22.1723 28.9147C22.2635 28.9147 22.3421 28.9358 22.4081 28.978C22.4745 29.0199 22.5255 29.081 22.5613 29.1613C22.597 29.2416 22.6147 29.3389 22.6144 29.4533C22.6144 29.5683 22.5965 29.6667 22.5608 29.7484C22.525 29.83 22.4741 29.8925 22.4081 29.9357C22.3424 29.9786 22.2638 30 22.1723 30ZM22.1723 29.7933C22.2267 29.7933 22.2708 29.7655 22.3045 29.7101C22.3382 29.6543 22.3549 29.5687 22.3545 29.4533C22.3545 29.3777 22.3469 29.3155 22.3316 29.2665C22.3162 29.2171 22.295 29.1804 22.2677 29.1562C22.2405 29.132 22.2087 29.1199 22.1723 29.1199C22.1182 29.1199 22.0744 29.1473 22.0411 29.2021C22.0077 29.2566 21.9909 29.3403 21.9905 29.4533C21.9902 29.5299 21.9975 29.5933 22.0125 29.6437C22.0278 29.6941 22.0493 29.7317 22.0768 29.7565C22.1044 29.781 22.1362 29.7933 22.1723 29.7933Z" fill="white"/>
<path fill-rule="evenodd" clip-rule="evenodd" d="M1.5573 1.92285L0.767818 2.77583V4.59069L0 5.4557L15.6376 5.52715L14.1421 7.19445C14.1421 7.19445 14.1085 17.4402 14.1085 22.7175L13.3836 23.547L16.8911 23.5791L17.7659 22.7081L17.7824 7.19445L19.4765 5.52715H25.8006L26.6793 4.59069V2.77583L27.4116 1.92285H1.5573ZM1.5573 6.33498L0.767818 7.19445C0.767818 17.0017 0.705304 27.18 0.705304 27.18L0 28.0734H3.52029L4.39235 27.2135V17.2327L5.19033 16.5718V27.1525L4.37688 28.0734H8.19042L8.82344 27.2174L8.83987 7.19445L9.66158 6.33498H1.5573ZM10.4833 6.33498L9.66158 7.19445C9.66158 7.19445 9.64966 27.0978 9.6321 27.1442L8.79541 28.0626C8.82344 28.0734 10.7677 28.0734 12.9401 28.0734H16.8901L17.7363 27.1935L17.7313 24.4193H11.7344L13.2868 22.7381L13.319 7.19445L13.993 6.33498H10.4833ZM19.4093 6.33498L18.5876 7.19445V27.1935L17.7363 28.0734H21.3364L22.229 27.2024V16.512L23.0169 17.2161V27.2024L22.229 28.0734H25.7843L26.6435 27.2192L26.6793 7.19445L27.4116 6.33498H19.4093ZM5.19033 10.0034V12.7187L4.39235 13.4268V10.0034H5.19033ZM23.0169 9.96853V13.4134L22.229 12.6973V9.96853H23.0169Z" fill="white"/>
</svg>
