<svg width="55" height="11" viewBox="0 0 55 11" fill="none" xmlns="http://www.w3.org/2000/svg">
<g clip-path="url(#clip0_950_266)">
<path fill-rule="evenodd" clip-rule="evenodd" d="M0 0.762695H3.23692C4.60178 0.762695 5.577 0.899054 6.1626 1.17178C6.7482 1.4445 7.11477 1.88593 7.26232 2.49609C7.40988 3.10625 7.48365 4.11855 7.48365 5.53301C7.48365 6.94746 7.40988 7.95976 7.26232 8.56992C7.11477 9.18008 6.7482 9.62151 6.1626 9.89423C5.577 10.167 4.60178 10.3033 3.23692 10.3033H0V0.762695ZM3.14009 8.59765C3.9793 8.59765 4.54183 8.55143 4.82772 8.45898C5.1136 8.36653 5.29573 8.13079 5.37412 7.75175C5.45251 7.37272 5.4917 6.63314 5.4917 5.53301C5.4917 4.44211 5.4502 3.70485 5.3672 3.32119C5.2842 2.93753 5.10207 2.69948 4.8208 2.60703C4.53953 2.51458 3.9793 2.46836 3.14009 2.46836H1.96429V8.59765H3.14009ZM9.4756 10.3033V0.762695H11.4399V10.3033H9.4756ZM15.8388 10.3033L12.8094 0.762695H14.829L17.1391 8.08457H17.2221L19.4907 0.762695H21.4826L18.4532 10.3033H15.8388ZM22.8659 10.3033V0.762695H24.8302V10.3033H22.8659ZM30.2389 5.56074C30.2389 6.0877 30.2113 6.45517 30.1559 6.66318C30.1006 6.87119 29.9623 7.01448 29.7409 7.09306C29.5196 7.17164 29.1369 7.21093 28.5928 7.21093C28.0672 7.21093 27.6983 7.17164 27.4862 7.09306C27.2741 7.01448 27.1403 6.87119 27.085 6.66318C27.0297 6.45517 27.002 6.0877 27.002 5.56074C27.002 5.01529 27.0297 4.63626 27.085 4.42363C27.1403 4.211 27.2741 4.0654 27.4862 3.98681C27.6983 3.90823 28.0672 3.86894 28.5928 3.86894C29.1369 3.86894 29.5196 3.90823 29.7409 3.98681C29.9623 4.0654 30.1006 4.211 30.1559 4.42363C30.2113 4.63626 30.2389 5.01529 30.2389 5.56074ZM36.6436 6.55918C36.6436 5.96751 36.6183 5.55612 36.5675 5.325C36.5168 5.09388 36.4131 4.94365 36.2563 4.87431C36.0995 4.80498 35.8229 4.77031 35.4263 4.77031C35.0298 4.77031 34.737 4.8304 34.5479 4.95058C34.3589 5.07077 34.2344 5.26028 34.1744 5.51914C34.1145 5.77799 34.0845 6.1524 34.0845 6.64238V10.3033H32.2447V0H34.0845V4.06308H34.1952C34.3796 3.73952 34.6401 3.50378 34.9767 3.35586C35.3133 3.20794 35.7445 3.13398 36.2701 3.13398C36.888 3.13398 37.3583 3.23567 37.6811 3.43906C38.0039 3.64245 38.2183 3.93597 38.3243 4.31963C38.4304 4.70329 38.4834 5.2233 38.4834 5.87968V10.3033H36.6436V6.55918ZM44.9019 9.42968H44.7912C44.616 9.77174 44.3532 10.0213 44.0028 10.1785C43.6523 10.3357 43.2051 10.4143 42.661 10.4143C42.0431 10.4143 41.5728 10.3126 41.25 10.1092C40.9272 9.90579 40.7105 9.60996 40.5998 9.22167C40.4892 8.83339 40.4339 8.31107 40.4339 7.65468V3.23105H42.2736V6.97519C42.2736 7.55762 42.299 7.96669 42.3497 8.20244C42.4004 8.43818 42.5065 8.59072 42.6679 8.66005C42.8293 8.72939 43.1082 8.76406 43.5048 8.76406C43.8921 8.76406 44.1803 8.70397 44.3693 8.58378C44.5584 8.4636 44.6829 8.2764 44.7428 8.02216C44.8028 7.76793 44.8327 7.39121 44.8327 6.89199V3.23105H46.6725V10.3033H44.9572L44.9019 9.42968ZM52.5931 10.4143C52.1135 10.4143 51.6939 10.3449 51.3343 10.2062C50.9746 10.0676 50.6979 9.80872 50.5043 9.42968H50.4074L50.3521 10.3033H48.623V0H50.4628V4.00762H50.5596C50.7625 3.6748 51.0345 3.44368 51.3758 3.31426C51.717 3.18483 52.1366 3.12012 52.6346 3.12012C53.2248 3.12012 53.6882 3.23105 54.0248 3.45293C54.3614 3.6748 54.6081 4.0469 54.7648 4.56924C54.9216 5.09157 55 5.82421 55 6.76718C55 7.71016 54.9216 8.44511 54.7648 8.97207C54.6081 9.49902 54.3568 9.87112 54.0109 10.0884C53.6651 10.3056 53.1925 10.4143 52.5931 10.4143ZM51.8046 8.77793C52.238 8.77793 52.5423 8.73632 52.7176 8.65312C52.8928 8.56992 53.0104 8.39658 53.0703 8.1331C53.1302 7.86962 53.1602 7.41432 53.1602 6.76718C53.1602 6.12929 53.1302 5.67861 53.0703 5.41513C53.0104 5.15166 52.8928 4.97832 52.7176 4.89511C52.5423 4.81191 52.238 4.77031 51.8046 4.77031C51.5095 4.77031 51.2766 4.80267 51.106 4.86738C50.9354 4.93209 50.804 5.03841 50.7118 5.18633C50.6103 5.33424 50.5435 5.533 50.5112 5.78261C50.4789 6.03222 50.4628 6.36041 50.4628 6.76718C50.4628 7.17396 50.4789 7.50214 50.5112 7.75175C50.5435 8.00136 50.6103 8.20475 50.7118 8.36191C50.804 8.50983 50.9354 8.61614 51.106 8.68085C51.2766 8.74557 51.5095 8.77793 51.8046 8.77793Z" fill="white"/>
</g>
<defs>
<clipPath id="clip0_950_266">
<rect width="55" height="10.5147" fill="white"/>
</clipPath>
</defs>
</svg>
