<svg width="40" height="25" viewBox="0 0 40 25" fill="none" xmlns="http://www.w3.org/2000/svg">
<path d="M0 0.181335V24.6942H12.8589V19.7929H5.09106V14.5531H11.9976V9.65189H5.09106V5.08563H12.8589V0.181335H0Z" fill="white"/>
<path d="M39.9998 0.183777H34.9082V24.6941H39.9998V0.183777Z" fill="white"/>
<path d="M30.6127 21.1755C30.6407 20.9811 30.6554 20.7851 30.6568 20.5889V4.41217C30.659 3.83225 30.542 3.25763 30.3126 2.72143C30.0831 2.18522 29.7457 1.69803 29.3198 1.28791C28.8939 0.877791 28.3879 0.552855 27.831 0.331821C27.2741 0.110788 26.6772 -0.00197567 26.0749 2.80158e-05H20.4736C19.8712 -0.00204249 19.2743 0.110671 18.7173 0.331675C18.1604 0.552679 17.6543 0.877605 17.2283 1.28773C16.8024 1.69785 16.4649 2.18507 16.2354 2.72131C16.0059 3.25755 15.8889 3.83221 15.8912 4.41217V20.5889C15.8887 21.1672 16.0048 21.7402 16.2329 22.2752C16.461 22.8102 16.7966 23.2965 17.2204 23.7064C17.6442 24.1162 18.1479 24.4414 18.7025 24.6634C19.2572 24.8854 19.8519 24.9998 20.4526 25H32.3642V21.175L30.6127 21.1755ZM21.4278 20.4358C21.1098 20.4358 20.9822 20.3135 20.9822 20.0068V4.99426C20.9822 4.68755 21.1098 4.56527 21.4278 4.56527H25.0876C25.4062 4.56527 25.5652 4.68755 25.5652 4.99426V20.0063C25.5652 20.313 25.4078 20.4353 25.0876 20.4353L21.4278 20.4358Z" fill="white"/>
</svg>
