<svg width="55" height="11" viewBox="0 0 55 11" fill="none" xmlns="http://www.w3.org/2000/svg">
<path d="M16.7513 6.40409C16.7513 7.80297 17.4884 8.2242 18.3777 8.2242C18.9305 8.21439 19.4738 8.07878 19.9664 7.82767V0.350952H22.6146V7.74706C22.6146 8.12539 22.8421 8.2567 23.1255 8.2567H23.132C23.3032 8.25076 23.4701 8.3109 23.5981 8.42465C23.7262 8.53841 23.8055 8.69705 23.8198 8.86773L23.851 9.33836C23.8611 9.47791 23.8265 9.61706 23.7522 9.7356C23.6778 9.85413 23.5676 9.94587 23.4376 9.99749C22.9901 10.1808 22.5118 10.277 22.0283 10.2809C21.1585 10.2809 20.4214 9.9793 20.1367 9.29806C19.3224 9.90881 18.3359 10.2465 17.3181 10.2627C15.5591 10.2627 14.103 9.43066 14.103 7.06583V0.350952H16.7513V6.40409Z" fill="white"/>
<path d="M24.9956 0.646307C26.0979 0.432706 27.2179 0.323881 28.3407 0.321289C30.3831 0.321289 32.3709 0.853021 32.3709 3.69498C32.3709 5.30837 31.6455 6.28603 30.5508 6.74496L32.9183 10.3124H30.0425L28.0742 7.01147C27.9348 7.0006 27.7962 6.98062 27.6595 6.95166V10.3124H24.9956V0.646307ZM27.6595 5.21997C27.8818 5.23557 28.1184 5.26417 28.3264 5.26417C29.1259 5.26417 29.7916 5.01326 29.7916 3.75479C29.7916 2.46772 29.0362 2.1856 28.3407 2.1856C28.1132 2.17966 27.8856 2.18965 27.6595 2.2155V5.21997Z" fill="white"/>
<path d="M36.6017 10.3124H33.9365V0.424011H36.6017V10.3124Z" fill="white"/>
<path d="M42.991 2.27389C41.7039 2.27389 40.7704 3.08903 40.7704 5.29396C40.786 7.91361 41.9405 8.47654 43.4798 8.47654C43.9686 8.47654 44.6928 8.40244 45.374 8.32833L45.4923 10.2381C44.648 10.3976 43.7916 10.4846 42.9325 10.4982C39.5419 10.4982 37.9922 8.63385 37.9922 5.29786C37.9922 1.65766 40.2426 0.250977 42.7583 0.250977C43.7607 0.263836 44.7528 0.454436 45.6886 0.813911L45.2739 2.84072C44.4757 2.4819 43.6904 2.27389 42.991 2.27389Z" fill="white"/>
<path d="M55.0001 5.36818C55.0001 7.94363 54.2746 10.4749 50.6188 10.4749C46.9929 10.4749 46.2974 7.95793 46.2974 5.36818C46.2974 2.77844 47.0514 0.247192 50.663 0.247192C54.3019 0.247192 55.0001 2.76284 55.0001 5.36818ZM52.3999 5.36818C52.3999 3.65079 52.1932 2.25971 50.6539 2.25971C49.1146 2.25971 48.8923 3.65079 48.8923 5.36818C48.8923 7.05828 49.1289 8.38696 50.6539 8.38696C52.1789 8.38696 52.3947 7.05568 52.3947 5.36818H52.3999Z" fill="white"/>
<path d="M11.4274 8.08391C10.9645 8.17568 10.4939 8.22314 10.022 8.22562C8.64266 8.22562 7.31529 7.8161 7.14758 6.56542C6.62755 6.43542 5.48608 6.217 4.27441 5.47986C4.27441 5.50586 4.27441 5.53187 4.27441 5.55917C4.27441 8.11251 5.63689 10.2875 9.00408 10.2875C9.96217 10.2929 10.9176 10.1868 11.8512 9.97162C12.0972 9.9116 12.3099 9.7575 12.4436 9.54241C12.5772 9.32733 12.6212 9.06842 12.566 8.82127C12.5109 8.57413 12.361 8.35846 12.1486 8.2206C11.9362 8.08273 11.6782 8.03365 11.43 8.08391H11.4274Z" fill="white"/>
<path d="M9.45527 0.280884C6.35589 0.280884 4.85821 2.02038 4.41748 4.1252C5.18452 4.61793 7.12813 6.35353 7.12813 6.35353C7.57382 6.46456 8.0313 6.52131 8.49061 6.52254C10.4199 6.52254 12.9174 5.67229 12.9174 3.09944C12.9174 1.18963 11.4418 0.280884 9.45527 0.280884ZM7.82887 5.01055C7.53365 5.01111 7.24002 4.96728 6.95782 4.88054C7.03453 3.27235 7.80937 2.2128 9.28496 2.2128C9.53756 2.20817 9.78196 2.30256 9.96587 2.47578C10.1498 2.64901 10.2586 2.88731 10.2691 3.13974C10.2691 4.38521 8.98204 5.01055 7.82887 5.01055Z" fill="white"/>
<path d="M6.95799 4.87399C5.78793 4.68418 4.45535 4.12514 3.67011 3.336C3.2796 2.96856 3.00794 2.4927 2.89006 1.96962C2.79906 1.47299 2.93557 0.986768 3.29569 0.789157C3.354 0.746168 3.42509 0.724072 3.4975 0.726431C3.56991 0.72879 3.63942 0.755461 3.69481 0.802155C3.84605 0.961008 3.93072 1.17175 3.93142 1.39109C3.96522 1.89942 3.69351 2.44675 3.28139 2.85627C2.92256 3.27879 2.31283 3.39841 1.7083 3.3659C1.09351 3.3334 0.50082 3.1259 0 2.76787C0.476108 3.18743 1.06275 3.46135 1.6901 3.55701C2.00976 3.61162 2.33638 3.61162 2.65605 3.55701C2.98669 3.50508 3.29515 3.3583 3.544 3.13449C4.05233 2.72106 4.47875 2.11133 4.51256 1.38069C4.52804 1.18867 4.50534 0.995486 4.44577 0.812288C4.38619 0.629089 4.29091 0.459502 4.16544 0.313326C4.01398 0.15427 3.81514 0.0484651 3.5986 0.011708C3.48908 -0.00390265 3.3779 -0.00390265 3.26838 0.011708C3.16033 0.0309946 3.05479 0.0623985 2.95377 0.105317C2.57833 0.272751 2.28015 0.576035 2.11912 0.954261C1.96454 1.31463 1.90199 1.70779 1.93711 2.09833C2.02143 2.84422 2.3286 3.54736 2.81856 4.11604C4.48265 5.84904 6.45877 6.17406 7.1296 6.35347L6.95799 4.87399Z" fill="white"/>
</svg>
