<svg width="55" height="30" viewBox="0 0 55 30" fill="none" xmlns="http://www.w3.org/2000/svg">
<path d="M38.2718 9.52646C39.2163 16.2277 34.9187 20.4215 29.5681 20.4215C23.901 20.4215 19.3203 16.2846 19.3203 10.287C19.3203 4.28932 23.9908 0.152387 29.5681 0.152387C31.5366 0.119975 33.4735 0.650509 35.1503 1.68214L33.3604 5.46018C32.3274 4.75522 31.1021 4.38618 29.8515 4.40268C26.3851 4.40268 24.0475 6.882 24.0475 10.287C24.0475 13.6919 26.3001 16.1712 29.5681 16.1712C31.9624 16.1712 33.5115 15.4392 34.1018 13.3377H29.7099L31.5376 9.50755L38.2718 9.52646ZM54.8386 12.1192V16.0956H52.6567V20.4215H47.986V16.0956H39.3628V12.1192L47.986 0.109497H52.6567V12.1192H54.8386ZM44.1515 12.1192H47.986V6.34796L44.1515 12.1192Z" fill="white"/>
<path d="M4.15128 27.2831V28.2276H0.123047V23.0328H4.05673V23.9773H1.31775V25.1109H3.73575V26.0554H1.31775V27.2595L4.15128 27.2831Z" fill="white"/>
<path d="M6.57422 23.0461H8.93549C9.45253 23.037 9.96471 23.1467 10.4325 23.3671C10.8494 23.5683 11.2001 23.8849 11.4432 24.2789C11.6904 24.6923 11.8164 25.1666 11.8068 25.6481C11.8171 26.1283 11.691 26.6018 11.4432 27.0132C11.2014 27.4082 10.8503 27.7247 10.4325 27.9246C9.96589 28.1489 9.45314 28.2607 8.93549 28.2506H6.57422V23.0461ZM8.87877 27.2632C9.33583 27.2857 9.78354 27.1282 10.1256 26.8242C10.2835 26.6731 10.4073 26.4901 10.4888 26.2873C10.5702 26.0845 10.6074 25.8665 10.5978 25.6481C10.6068 25.4292 10.5695 25.211 10.4881 25.0075C10.4067 24.8041 10.2831 24.6199 10.1256 24.4675C9.78179 24.167 9.33489 24.0113 8.87877 24.0331H7.77861V27.2632H8.87877Z" fill="white"/>
<path d="M14.7819 27.7226C14.5636 27.4868 14.3958 27.2087 14.2886 26.9058C14.1814 26.6029 14.1372 26.2814 14.1586 25.9608V23.0471H15.363V25.9184C15.363 26.8629 15.7502 27.3352 16.5247 27.3352C16.6842 27.3459 16.8441 27.3211 16.9928 27.2623C17.1415 27.2035 17.2751 27.1122 17.3841 26.9953C17.6065 26.6895 17.712 26.3142 17.6816 25.9373V23.066H18.8717V25.9797C18.8937 26.3 18.8503 26.6214 18.7439 26.9243C18.6375 27.2271 18.4704 27.5053 18.253 27.7415C18.0196 27.9559 17.7456 28.1213 17.4471 28.2276C17.1485 28.3338 16.8316 28.3787 16.5152 28.3599C16.1983 28.3756 15.8814 28.3274 15.5836 28.2179C15.2858 28.1083 15.0131 27.9398 14.7819 27.7226Z" fill="white"/>
<path d="M22.6019 27.9962C22.1853 27.7793 21.836 27.4527 21.5915 27.0517C21.3429 26.6335 21.2152 26.1541 21.223 25.6677C21.2158 25.1798 21.3434 24.6996 21.5915 24.2795C21.8368 23.8791 22.1859 23.5527 22.6019 23.335C23.0471 23.1007 23.5441 22.9819 24.0471 22.99C24.4666 22.9843 24.8831 23.0647 25.2704 23.2261C25.6261 23.3801 25.9412 23.6146 26.1911 23.911L25.4166 24.624C25.2581 24.4309 25.0584 24.2761 24.832 24.1707C24.6056 24.0652 24.3582 24.0118 24.1084 24.0148C23.8068 24.0098 23.5093 24.0831 23.2444 24.2274C22.997 24.366 22.7927 24.5703 22.6541 24.8177C22.5098 25.0826 22.4365 25.3804 22.4414 25.682C22.436 25.9821 22.5094 26.2786 22.6541 26.5416C22.7912 26.7913 22.9957 26.9974 23.2444 27.1365C23.5093 27.2808 23.8068 27.3541 24.1084 27.3491C24.359 27.3513 24.6069 27.2967 24.8334 27.1896C25.0599 27.0824 25.2592 26.9253 25.4166 26.7302L26.1911 27.4437C25.938 27.7479 25.6135 27.9848 25.2466 28.1332C24.8602 28.298 24.4436 28.3799 24.0235 28.3739C23.5259 28.3666 23.0376 28.2369 22.6019 27.9962Z" fill="white"/>
<path d="M31.811 27.136H29.3932L28.921 28.2506H27.6836L30.007 23.0558H31.1923L33.5206 28.2506H32.2597L31.811 27.136ZM31.4333 26.2196L30.6068 24.2268L29.7804 26.2196H31.4333Z" fill="white"/>
<path d="M36.5433 27.9962C36.1267 27.7793 35.7774 27.4527 35.5329 27.0517C35.2843 26.6335 35.1566 26.1541 35.1644 25.6677C35.1572 25.1798 35.2848 24.6996 35.5329 24.2795C35.7782 23.8791 36.1273 23.5527 36.5433 23.335C36.9885 23.1007 37.4855 22.9819 37.9885 22.99C38.408 22.9843 38.8245 23.0647 39.2118 23.2261C39.5682 23.3789 39.8836 23.6136 40.1325 23.911L39.358 24.624C39.1997 24.4307 39.0001 24.2757 38.7736 24.1702C38.5472 24.0647 38.2996 24.0115 38.0498 24.0148C37.7482 24.0098 37.4507 24.0831 37.1858 24.2274C36.9384 24.366 36.7341 24.5703 36.5955 24.8177C36.4512 25.0826 36.3779 25.3804 36.3829 25.682C36.3774 25.9821 36.4508 26.2786 36.5955 26.5416C36.7326 26.7913 36.9371 26.9974 37.1858 27.1365C37.4507 27.2808 37.7482 27.3541 38.0498 27.3491C38.3005 27.352 38.5486 27.2977 38.7753 27.1905C39.0019 27.0833 39.2011 26.9258 39.358 26.7302L40.1325 27.4437C39.8855 27.7443 39.5697 27.9808 39.2118 28.1332C38.8236 28.2975 38.4054 28.3795 37.9839 28.3739C37.4799 28.3691 36.9848 28.2393 36.5433 27.9962ZM37.2047 29.9322C37.0933 29.9137 36.9859 29.8752 36.8881 29.8188L37.0677 29.3465C37.2161 29.4146 37.3768 29.4518 37.54 29.4554C37.795 29.4554 37.9223 29.3751 37.9223 29.2193C37.9223 29.0634 37.8044 29.002 37.5589 29.002H37.3085L37.5022 28.2134H38.116L38.0122 28.6478C38.1889 28.6566 38.3565 28.7286 38.4845 28.8508C38.5371 28.9052 38.5784 28.9698 38.606 29.0403C38.6336 29.1108 38.6468 29.186 38.645 29.2617C38.6481 29.3698 38.6221 29.4769 38.5698 29.5716C38.5175 29.6663 38.4407 29.745 38.3475 29.7999C38.1083 29.9426 37.8322 30.0115 37.554 29.9982C37.4371 29.9882 37.3216 29.9662 37.2093 29.9322H37.2047Z" fill="white"/>
<path d="M45.752 27.1368H43.3483L42.8761 28.2515H41.6436L43.9622 23.0567H45.1523L47.4806 28.2515H46.2148L45.752 27.1368ZM44.7605 22.5655C44.6427 22.502 44.529 22.4309 44.4204 22.3529C44.3588 22.3047 44.294 22.2604 44.2267 22.2206C44.1792 22.1933 44.1255 22.1788 44.0708 22.1781C44.024 22.1762 43.9775 22.1846 43.9343 22.2026C43.891 22.2205 43.8522 22.2474 43.8206 22.2819C43.7498 22.37 43.7128 22.4807 43.7166 22.5937H43.1263C43.1222 22.3092 43.2101 22.0311 43.3767 21.8004C43.4502 21.706 43.5451 21.6304 43.6534 21.5795C43.7617 21.5286 43.8804 21.5039 44 21.5076C44.1193 21.5052 44.2374 21.5312 44.3447 21.5832C44.465 21.6484 44.5803 21.7225 44.6895 21.805C44.7533 21.8524 44.8195 21.8967 44.8878 21.9374C44.9336 21.9651 44.9856 21.9812 45.039 21.9844C45.0861 21.9852 45.1326 21.976 45.1758 21.9572C45.2189 21.9385 45.2576 21.9109 45.2892 21.8761C45.3576 21.7936 45.3959 21.6903 45.3978 21.5832H45.9835C45.9877 21.8604 45.8995 22.1311 45.7331 22.3529C45.6601 22.4467 45.5662 22.5221 45.4587 22.5729C45.3513 22.6238 45.2335 22.6487 45.1147 22.6458C44.9935 22.6464 44.8738 22.6189 44.7651 22.5655H44.7605ZM45.3743 26.2204L44.5479 24.2276L43.7214 26.2204H45.3743Z" fill="white"/>
<path d="M50.4932 27.9907C50.0738 27.7742 49.7213 27.4477 49.4733 27.0462C49.2257 26.6292 49.0981 26.152 49.1048 25.6672C49.0976 25.1823 49.2253 24.705 49.4733 24.2883C49.72 23.8857 50.0728 23.5589 50.4932 23.3438C50.9422 23.1057 51.4444 22.9853 51.9526 22.9942C52.4609 22.9841 52.9632 23.1045 53.4118 23.3438C53.8302 23.5616 54.1826 23.8878 54.4319 24.2883C54.6814 24.7046 54.8103 25.1819 54.8048 25.6672C54.8098 26.1525 54.6809 26.6296 54.4319 27.0462C54.1813 27.4456 53.8293 27.7715 53.4118 27.9907C52.9623 28.2276 52.4606 28.3479 51.9526 28.3402C51.4447 28.3469 50.943 28.2266 50.4932 27.9907ZM52.7885 27.1029C53.0333 26.962 53.2344 26.7561 53.3694 26.508C53.514 26.2449 53.5872 25.9484 53.5817 25.6483C53.5867 25.3467 53.5136 25.0489 53.3694 24.784C53.2329 24.5382 53.0321 24.3341 52.7885 24.1937C52.5336 24.0502 52.2451 23.9772 51.9526 23.9816C51.6616 23.9778 51.3748 24.0508 51.1213 24.1937C50.8767 24.3328 50.6755 24.5372 50.5404 24.784C50.3962 25.0489 50.3229 25.3467 50.3278 25.6483C50.3224 25.9484 50.3958 26.2449 50.5404 26.508C50.674 26.7572 50.8754 26.9634 51.1213 27.1029C51.3748 27.2459 51.6616 27.3193 51.9526 27.3155C52.2467 27.3207 52.5368 27.2473 52.7931 27.1029H52.7885Z" fill="white"/>
<path d="M15.9808 10.3195L16.9631 9.33718L17.3173 8.98298C17.3874 8.90998 17.4266 8.81304 17.4266 8.71181C17.4266 8.61057 17.3874 8.51317 17.3173 8.44017L8.9869 0.109301C8.9139 0.0391695 8.8165 0 8.71527 0C8.61403 0 8.51663 0.0391695 8.44363 0.109301L0.113221 8.44017C0.0773819 8.47573 0.0489278 8.51808 0.0295159 8.56469C0.010104 8.61129 0 8.66132 0 8.71181C0 8.76229 0.010104 8.81232 0.0295159 8.85893C0.0489278 8.90553 0.0773819 8.94743 0.113221 8.98298L1.44951 10.3195L0.467412 11.3018L0.113221 11.656C0.0773819 11.6916 0.0489278 11.7339 0.0295159 11.7805C0.010104 11.8271 0 11.8772 0 11.9277C0 11.9781 0.010104 12.0282 0.0295159 12.0748C0.0489278 12.1214 0.0773819 12.1637 0.113221 12.1993L8.44363 20.5297C8.47919 20.5655 8.52154 20.5942 8.56815 20.6136C8.61475 20.6331 8.66478 20.6427 8.71527 20.6427C8.76575 20.6427 8.81578 20.6331 8.86238 20.6136C8.90899 20.5942 8.95135 20.5655 8.9869 20.5297L17.3173 12.1993C17.3874 12.1263 17.4266 12.0289 17.4266 11.9277C17.4266 11.8264 17.3874 11.729 17.3173 11.656L15.9808 10.3195ZM1.09532 8.71411L8.71296 1.09163L16.335 8.71411L14.7294 10.3195L8.71296 16.3315L2.70117 10.3195L1.09532 8.71411ZM8.71296 19.5474L1.09532 11.93L2.07764 10.943L8.44363 17.3139C8.47919 17.3497 8.52154 17.3779 8.56815 17.3973C8.61475 17.4167 8.66478 17.4268 8.71527 17.4268C8.76575 17.4268 8.81578 17.4167 8.86238 17.3973C8.90899 17.3779 8.95135 17.3497 8.9869 17.3139L9.34109 16.9597L15.3529 10.943L16.335 11.93L8.71296 19.5474Z" fill="white"/>
<path d="M14.0215 8.43907L13.6673 8.08488L9.32733 3.74465L8.97314 3.38585C8.90014 3.31572 8.80274 3.27655 8.7015 3.27655C8.60027 3.27655 8.5031 3.31572 8.4301 3.38585L8.0759 3.74465L3.73107 8.08488L3.37688 8.43907C3.30675 8.51207 3.26758 8.60947 3.26758 8.71071C3.26758 8.81194 3.30675 8.90888 3.37688 8.98188L3.73107 9.33608L8.0759 13.6809L8.4301 14.0351C8.5031 14.1052 8.60027 14.1444 8.7015 14.1444C8.80274 14.1444 8.90014 14.1052 8.97314 14.0351L9.32733 13.6809L13.6673 9.33608L13.71 9.29826L14.0215 8.98188C14.0574 8.94633 14.0858 8.90443 14.1052 8.85783C14.1246 8.81122 14.1347 8.76119 14.1347 8.71071C14.1347 8.66022 14.1246 8.61019 14.1052 8.56359C14.0858 8.51698 14.0574 8.47463 14.0215 8.43907ZM8.6992 13.0528L4.35921 8.71301L8.6992 4.36818L13.044 8.71301L8.6992 13.0528Z" fill="white"/>
<path d="M10.7304 8.43912L8.95455 6.66817C8.9194 6.63247 8.87763 6.60404 8.83142 6.58469C8.7852 6.56534 8.73555 6.55518 8.68545 6.55518C8.63535 6.55518 8.5857 6.56534 8.53949 6.58469C8.49327 6.60404 8.45127 6.63247 8.41612 6.66817L6.64055 8.43912C6.57042 8.51213 6.53125 8.60953 6.53125 8.71076C6.53125 8.81199 6.57042 8.90893 6.64055 8.98194L8.41612 10.7529C8.45127 10.7886 8.49327 10.817 8.53949 10.8364C8.5857 10.8557 8.63535 10.8659 8.68545 10.8659C8.73555 10.8659 8.7852 10.8557 8.83142 10.8364C8.87763 10.817 8.9194 10.7886 8.95455 10.7529L10.7304 8.98194C10.8005 8.90893 10.8397 8.81199 10.8397 8.71076C10.8397 8.60953 10.8005 8.51213 10.7304 8.43912ZM8.68545 9.77564L7.62288 8.71307L8.68545 7.64542L9.74802 8.71307L8.68545 9.77564Z" fill="white"/>
</svg>
