<svg width="60" height="10" viewBox="0 0 60 10" fill="none" xmlns="http://www.w3.org/2000/svg">
<path d="M1.94259 0.227966H0V9.20555H8.91543V7.31115H1.94259V0.227966Z" fill="white"/>
<path d="M19.6453 0C15.8464 0 13.1475 1.87206 13.1475 4.69143C13.1475 7.71395 15.6085 9.42837 19.6667 9.42837C23.8332 9.42837 26.1637 7.53394 26.1637 4.69143C26.1637 1.87463 23.4443 0 19.6453 0ZM19.6667 7.48856C16.7955 7.48856 15.177 6.47357 15.177 4.69143C15.177 3.04473 16.9686 1.93982 19.6453 1.93982C22.3434 1.93982 24.1351 3.04473 24.1351 4.69143C24.1351 6.47614 22.5157 7.49107 19.6667 7.49107V7.48856Z" fill="white"/>
<path d="M40.4447 4.6941C40.4447 6.47624 39.0845 7.49113 36.6457 7.49113C34.142 7.49113 32.7385 6.47624 32.7385 4.6941V0.227966H30.7959V4.6941C30.7959 7.71663 32.9115 9.43105 36.6457 9.43105C40.315 9.43105 42.388 7.71663 42.388 4.6941V0.227966H40.4455L40.4447 4.6941Z" fill="white"/>
<path d="M50.4377 0.227966H48.4951V9.20555H50.4377L60.0003 6.00304V3.61223L50.4377 0.227966ZM57.9708 4.87408L50.4377 7.08481V2.34787L57.9708 4.73868V4.87408Z" fill="white"/>
</svg>
