<svg width="70" height="13" viewBox="0 0 70 13" fill="none" xmlns="http://www.w3.org/2000/svg">
<path d="M0 0H4.83315V1.44995H1.5305V10.794H10.9551V7.57194H12.5662V12.244H0V0Z" fill="white"/>
<path d="M10.9548 6.20258L6.36328 1.61108H10.9548V6.20258Z" fill="white"/>
<path fill-rule="evenodd" clip-rule="evenodd" d="M17.3984 12.244V1.61108H19.1706L22.0705 8.3775L24.9704 1.61108H26.7425V12.244H25.1315V5.63871L22.7955 10.7941H21.4261L19.0095 5.63871V12.244H17.3984ZM28.6758 1.61108H35.7644V3.22213H30.6091V6.04147H34.9589V7.73308H30.6091V10.633H35.7644V12.244H28.6758V1.61108ZM37.6977 12.244V1.61108H39.6309V10.633H44.7863V12.244H37.6977ZM43.4975 1.61108L46.8807 12.244H48.4112L51.9555 1.61108H50.1028L47.7667 9.26357L45.2696 1.61108H43.4975ZM53.1638 12.244V1.61108H60.2524V3.22213H55.097V6.04147H59.4469V7.73308H55.097V10.633H60.2524V12.244H53.1638ZM61.8634 1.61108V12.244H63.7161V7.97473H65.6494L67.8243 12.244H69.9992L67.8243 7.73308L67.9459 7.67058C70.2871 6.46749 70.2516 3.10856 67.8856 1.95513C67.4212 1.72874 66.9114 1.61108 66.3948 1.61108H61.8634ZM64.0383 3.38327V6.28316H66.6966C68.3733 6.04363 68.3733 3.6228 66.6966 3.38327H64.0383Z" fill="white"/>
</svg>
