<svg width="75" height="12" viewBox="0 0 75 12" fill="none" xmlns="http://www.w3.org/2000/svg">
<path d="M15.8963 5.68245H14.0604V9.70392H12.7959V5.68245H10.96V4.52521H15.8953V5.68245H15.8963Z" fill="white"/>
<path d="M20.7927 6.46735C20.7927 7.21409 20.4276 7.84635 19.8717 8.14339L20.9381 9.70495H19.3848L18.6082 8.41775H17.6943V9.70495H16.4453V4.52521H18.9506C20.0016 4.52521 20.7937 5.34002 20.7937 6.46735H20.7927ZM17.6933 5.68245V7.25948H18.767C19.194 7.25948 19.5364 6.90158 19.5364 6.46735C19.5364 6.03313 19.194 5.68245 18.7753 5.68245H17.6933Z" fill="white"/>
<path d="M25.3846 8.89632H22.8865L22.5441 9.70392H21.2188L23.4353 4.52521H24.8287L27.0524 9.70392H25.7198L25.3846 8.89632ZM24.9504 7.87626L24.1428 5.94133L23.3197 7.87626H24.9494H24.9504Z" fill="white"/>
<path d="M32.4675 7.10686C32.4675 8.61478 31.3484 9.70395 29.7333 9.70395H27.4404V4.53246L29.7333 4.52524C31.4392 4.51802 32.4675 5.61441 32.4675 7.10686ZM28.6895 8.54671H29.7333C30.6017 8.54671 31.203 7.97531 31.203 7.10686C31.203 6.17756 30.6161 5.68248 29.7333 5.68248H28.6895V8.54568V8.54671Z" fill="white"/>
<path d="M36.8546 4.52521V5.68245H34.1358V6.57359H36.4059V7.65554H34.1358V8.54668H36.8546V9.70392H32.8867V4.52521H36.8546Z" fill="white"/>
<path d="M40.0059 9.70392H38.7568V4.52521H40.0059V9.70392Z" fill="white"/>
<path d="M46.0698 9.70392H44.8135L42.1938 6.53543V9.70392H40.9375V4.52521H42.1938L44.8135 7.68545V4.52521H46.0698V9.70392Z" fill="white"/>
<path d="M51.019 6.16205H49.7772C49.7772 5.90316 49.4729 5.55248 48.9397 5.55248C48.5663 5.55248 48.1094 5.71957 48.1094 6.01662C48.1094 6.26828 48.4518 6.3673 49.1831 6.55708C49.9979 6.77058 51.1479 7.04493 51.1479 8.18671C51.1479 9.17686 50.2795 9.79364 49.0686 9.79364C47.4462 9.79364 46.7686 8.69725 46.7686 7.88966H48.0104C48.0104 7.88966 48.1094 8.71272 49.1377 8.71272C49.6936 8.71272 49.8989 8.47653 49.8989 8.25581C49.8989 7.92782 49.4647 7.81437 48.9851 7.69988C48.2084 7.51732 46.8449 7.22749 46.8449 6.07747C46.8449 5.1327 47.7742 4.43237 48.9541 4.43237C50.3022 4.43237 51.018 5.35342 51.018 6.16102L51.019 6.16205Z" fill="white"/>
<path d="M53.1592 9.70392H51.9102V4.52521H53.1592V9.70392Z" fill="white"/>
<path d="M59.0465 5.56791L57.9646 6.11662C57.7057 5.78863 57.3024 5.60607 56.7083 5.60607C55.8017 5.60607 55.1695 6.23832 55.1695 7.09852C55.1695 7.95871 55.8172 8.62913 56.7228 8.62913C57.2787 8.62913 57.7201 8.45379 57.9945 8.19491V7.69261H56.4175V6.7334H59.0981V8.65285C59.0599 8.72918 58.2451 9.79566 56.7289 9.79566C55.0158 9.79566 53.9111 8.50846 53.9111 7.11502C53.9111 5.72159 55.0921 4.43439 56.7217 4.43439C57.7191 4.43439 58.5267 4.88408 59.0445 5.56894L59.0465 5.56791Z" fill="white"/>
<path d="M64.6733 9.70392H63.417V7.6937H61.1397V9.70392H59.8906V4.52521H61.1397V6.53543H63.417V4.52521H64.6733V9.70392Z" fill="white"/>
<path d="M70.3094 5.68245H68.4735V9.70392H67.209V5.68245H65.373V4.52521H70.3083V5.68245H70.3094Z" fill="white"/>
<path d="M74.8715 6.16205H73.6297C73.6297 5.90316 73.3254 5.55248 72.7922 5.55248C72.4188 5.55248 71.9619 5.71957 71.9619 6.01662C71.9619 6.26828 72.3044 6.3673 73.0356 6.55708C73.8504 6.77058 75.0005 7.04493 75.0005 8.18671C75.0005 9.17686 74.132 9.79364 72.9211 9.79364C71.2987 9.79364 70.6211 8.69725 70.6211 7.88966H71.8629C71.8629 7.88966 71.9619 8.71272 72.9902 8.71272C73.5462 8.71272 73.7514 8.47653 73.7514 8.25581C73.7514 7.92782 73.3172 7.81437 72.8376 7.69988C72.0609 7.51732 70.6974 7.22749 70.6974 6.07747C70.6974 5.1327 71.6267 4.43237 72.8067 4.43237C74.1547 4.43237 74.8705 5.35342 74.8705 6.16102L74.8715 6.16205Z" fill="white"/>
<path d="M0 0.25V2.86153H4.14111V4.97489L11.1351 0.25722V0.25H0Z" fill="white"/>
<path d="M4.1416 11.9348H6.99448V5.26465L4.1416 7.18926V11.9348Z" fill="white"/>
</svg>
