<svg width="13" height="13" viewBox="0 0 13 13" fill="#2715FF" xmlns="http://www.w3.org/2000/svg">
<path d="M10.5625 7.30725H2.4375C2.22201 7.30725 2.01535 7.22165 1.86298 7.06928C1.7106 6.9169 1.625 6.71024 1.625 6.49475C1.625 6.27926 1.7106 6.0726 1.86298 5.92023C2.01535 5.76785 2.22201 5.68225 2.4375 5.68225H10.5625C10.778 5.68225 10.9847 5.76785 11.137 5.92023C11.2894 6.0726 11.375 6.27926 11.375 6.49475C11.375 6.71024 11.2894 6.9169 11.137 7.06928C10.9847 7.22165 10.778 7.30725 10.5625 7.30725Z" fill="#2715FF"/>
<path d="M6.49983 11.3697C6.33915 11.3697 6.1821 11.322 6.04852 11.2327C5.91493 11.1434 5.81082 11.0166 5.74934 10.8681C5.68786 10.7197 5.67177 10.5563 5.7031 10.3987C5.73444 10.2412 5.81179 10.0964 5.92539 9.98277L9.4134 6.49471L5.92539 3.00664C5.77531 2.85382 5.69166 2.64792 5.69263 2.43373C5.6936 2.21954 5.77911 2.0144 5.93057 1.86295C6.08202 1.71149 6.28716 1.62598 6.50135 1.62501C6.71554 1.62404 6.92144 1.70769 7.07426 1.85777L11.1368 5.92027C11.2122 5.99569 11.2721 6.08525 11.3129 6.18382C11.3538 6.28239 11.3748 6.38804 11.3748 6.49473C11.3748 6.60143 11.3538 6.70708 11.3129 6.80565C11.2721 6.90421 11.2122 6.99377 11.1368 7.06919L7.07426 11.1317C6.99892 11.2073 6.90938 11.2672 6.8108 11.308C6.71222 11.3489 6.60654 11.3698 6.49983 11.3697Z" fill="#2715FF"/>
</svg>
