<svg width="576" height="526" viewBox="0 0 576 526" fill="none" xmlns="http://www.w3.org/2000/svg">
<path d="M3 13.9391C3 8.44987 6.63007 4 11.108 4H503.669C508.147 4 511.777 8.44987 511.777 13.9391V416.472C511.777 421.961 508.147 426.411 503.669 426.411H11.108C6.63007 426.411 3 421.961 3 416.472V13.9391Z" fill="#FAFAFA"/>
<path d="M70.5435 76.8114C69.7502 76.8114 69.0689 76.6761 68.4995 76.4054C67.9302 76.1254 67.4915 75.7007 67.1835 75.1314C66.8755 74.5527 66.7029 73.8294 66.6655 72.9614C66.6562 72.5507 66.6515 72.1587 66.6515 71.7854C66.6515 71.4027 66.6562 71.0061 66.6655 70.5954C66.7029 69.7367 66.8802 69.0227 67.1975 68.4534C67.5242 67.8747 67.9722 67.4454 68.5415 67.1654C69.1202 66.8761 69.7875 66.7314 70.5435 66.7314C71.3089 66.7314 71.9762 66.8761 72.5455 67.1654C73.1242 67.4454 73.5769 67.8747 73.9035 68.4534C74.2302 69.0227 74.4075 69.7367 74.4355 70.5954C74.4542 71.0061 74.4635 71.4027 74.4635 71.7854C74.4635 72.1587 74.4542 72.5507 74.4355 72.9614C74.4075 73.8294 74.2349 74.5527 73.9175 75.1314C73.6095 75.7007 73.1709 76.1254 72.6015 76.4054C72.0322 76.6761 71.3462 76.8114 70.5435 76.8114ZM70.5435 75.6214C71.2622 75.6214 71.8455 75.4067 72.2935 74.9774C72.7509 74.5481 72.9982 73.8527 73.0355 72.8914C73.0542 72.4714 73.0635 72.0981 73.0635 71.7714C73.0635 71.4354 73.0542 71.0621 73.0355 70.6514C73.0169 70.0074 72.8955 69.4847 72.6715 69.0834C72.4569 68.6821 72.1675 68.3881 71.8035 68.2014C71.4395 68.0147 71.0195 67.9214 70.5435 67.9214C70.0862 67.9214 69.6755 68.0147 69.3115 68.2014C68.9475 68.3881 68.6535 68.6821 68.4295 69.0834C68.2149 69.4847 68.0935 70.0074 68.0655 70.6514C68.0562 71.0621 68.0515 71.4354 68.0515 71.7714C68.0515 72.0981 68.0562 72.4714 68.0655 72.8914C68.1029 73.8527 68.3502 74.5481 68.8075 74.9774C69.2649 75.4067 69.8435 75.6214 70.5435 75.6214ZM78.8561 76.6714C78.7161 76.6714 78.6041 76.6387 78.5201 76.5734C78.4455 76.5081 78.3848 76.4241 78.3381 76.3214L75.7481 69.8254C75.7295 69.7787 75.7201 69.7321 75.7201 69.6854C75.7201 69.6014 75.7481 69.5314 75.8041 69.4754C75.8601 69.4194 75.9301 69.3914 76.0141 69.3914H76.6861C76.7888 69.3914 76.8681 69.4194 76.9241 69.4754C76.9801 69.5314 77.0128 69.5827 77.0221 69.6294L79.1641 75.1454L81.2921 69.6294C81.3108 69.5827 81.3435 69.5314 81.3901 69.4754C81.4461 69.4194 81.5255 69.3914 81.6281 69.3914H82.3141C82.3888 69.3914 82.4541 69.4194 82.5101 69.4754C82.5755 69.5314 82.6081 69.6014 82.6081 69.6854C82.6081 69.7321 82.5988 69.7787 82.5801 69.8254L79.9761 76.3214C79.9388 76.4241 79.8781 76.5081 79.7941 76.5734C79.7195 76.6387 79.6075 76.6714 79.4581 76.6714H78.8561ZM86.7123 76.8114C85.751 76.8114 84.9857 76.5174 84.4163 75.9294C83.847 75.3321 83.5343 74.5201 83.4783 73.4934C83.469 73.3721 83.4643 73.2181 83.4643 73.0314C83.4643 72.8354 83.469 72.6767 83.4783 72.5554C83.5157 71.8927 83.6697 71.3141 83.9403 70.8194C84.211 70.3154 84.5797 69.9281 85.0463 69.6574C85.5223 69.3867 86.0777 69.2514 86.7123 69.2514C87.4217 69.2514 88.0143 69.4007 88.4903 69.6994C88.9757 69.9981 89.3443 70.4227 89.5963 70.9734C89.8483 71.5241 89.9743 72.1681 89.9743 72.9054V73.1434C89.9743 73.2461 89.9417 73.3254 89.8763 73.3814C89.8203 73.4374 89.7457 73.4654 89.6523 73.4654H84.8083C84.8083 73.4747 84.8083 73.4934 84.8083 73.5214C84.8083 73.5494 84.8083 73.5727 84.8083 73.5914C84.827 73.9741 84.911 74.3334 85.0603 74.6694C85.2097 74.9961 85.4243 75.2621 85.7043 75.4674C85.9843 75.6727 86.3203 75.7754 86.7123 75.7754C87.0483 75.7754 87.3283 75.7241 87.5523 75.6214C87.7763 75.5187 87.9583 75.4067 88.0983 75.2854C88.2383 75.1547 88.3317 75.0567 88.3783 74.9914C88.4623 74.8701 88.5277 74.8001 88.5743 74.7814C88.621 74.7534 88.6957 74.7394 88.7983 74.7394H89.4703C89.5637 74.7394 89.6383 74.7674 89.6943 74.8234C89.7597 74.8701 89.7877 74.9401 89.7783 75.0334C89.769 75.1734 89.6943 75.3461 89.5543 75.5514C89.4143 75.7474 89.2137 75.9434 88.9523 76.1394C88.691 76.3354 88.3737 76.4987 88.0003 76.6294C87.627 76.7507 87.1977 76.8114 86.7123 76.8114ZM84.8083 72.4994H88.6443V72.4574C88.6443 72.0374 88.565 71.6641 88.4063 71.3374C88.257 71.0107 88.0377 70.7541 87.7483 70.5674C87.459 70.3714 87.1137 70.2734 86.7123 70.2734C86.311 70.2734 85.9657 70.3714 85.6763 70.5674C85.3963 70.7541 85.1817 71.0107 85.0323 71.3374C84.883 71.6641 84.8083 72.0374 84.8083 72.4574V72.4994ZM91.9703 76.6714C91.877 76.6714 91.7976 76.6434 91.7323 76.5874C91.6763 76.5221 91.6483 76.4427 91.6483 76.3494V69.7274C91.6483 69.6341 91.6763 69.5547 91.7323 69.4894C91.7976 69.4241 91.877 69.3914 91.9703 69.3914H92.6143C92.7076 69.3914 92.787 69.4241 92.8523 69.4894C92.9176 69.5547 92.9503 69.6341 92.9503 69.7274V70.3434C93.137 70.0261 93.3936 69.7881 93.7203 69.6294C94.047 69.4707 94.439 69.3914 94.8963 69.3914H95.4563C95.5496 69.3914 95.6243 69.4241 95.6803 69.4894C95.7363 69.5454 95.7643 69.6201 95.7643 69.7134V70.2874C95.7643 70.3807 95.7363 70.4554 95.6803 70.5114C95.6243 70.5674 95.5496 70.5954 95.4563 70.5954H94.6163C94.1123 70.5954 93.7156 70.7447 93.4263 71.0434C93.137 71.3327 92.9923 71.7294 92.9923 72.2334V76.3494C92.9923 76.4427 92.9596 76.5221 92.8943 76.5874C92.829 76.6434 92.7496 76.6714 92.6563 76.6714H91.9703ZM99.5007 76.6714C99.3607 76.6714 99.2487 76.6387 99.1647 76.5734C99.09 76.5081 99.0293 76.4241 98.9827 76.3214L96.3927 69.8254C96.374 69.7787 96.3647 69.7321 96.3647 69.6854C96.3647 69.6014 96.3927 69.5314 96.4487 69.4754C96.5047 69.4194 96.5747 69.3914 96.6587 69.3914H97.3307C97.4333 69.3914 97.5127 69.4194 97.5687 69.4754C97.6247 69.5314 97.6573 69.5827 97.6667 69.6294L99.8087 75.1454L101.937 69.6294C101.955 69.5827 101.988 69.5314 102.035 69.4754C102.091 69.4194 102.17 69.3914 102.273 69.3914H102.959C103.033 69.3914 103.099 69.4194 103.155 69.4754C103.22 69.5314 103.253 69.6014 103.253 69.6854C103.253 69.7321 103.243 69.7787 103.225 69.8254L100.621 76.3214C100.583 76.4241 100.523 76.5081 100.439 76.5734C100.364 76.6387 100.252 76.6714 100.103 76.6714H99.5007ZM105.041 76.6714C104.947 76.6714 104.868 76.6434 104.803 76.5874C104.747 76.5221 104.719 76.4427 104.719 76.3494V69.7134C104.719 69.6201 104.747 69.5454 104.803 69.4894C104.868 69.4241 104.947 69.3914 105.041 69.3914H105.713C105.806 69.3914 105.881 69.4241 105.937 69.4894C105.993 69.5454 106.021 69.6201 106.021 69.7134V76.3494C106.021 76.4427 105.993 76.5221 105.937 76.5874C105.881 76.6434 105.806 76.6714 105.713 76.6714H105.041ZM104.929 68.0334C104.835 68.0334 104.756 68.0054 104.691 67.9494C104.635 67.8841 104.607 67.8047 104.607 67.7114V66.9554C104.607 66.8621 104.635 66.7874 104.691 66.7314C104.756 66.6661 104.835 66.6334 104.929 66.6334H105.811C105.904 66.6334 105.979 66.6661 106.035 66.7314C106.1 66.7874 106.133 66.8621 106.133 66.9554V67.7114C106.133 67.8047 106.1 67.8841 106.035 67.9494C105.979 68.0054 105.904 68.0334 105.811 68.0334H104.929ZM111.035 76.8114C110.073 76.8114 109.308 76.5174 108.739 75.9294C108.169 75.3321 107.857 74.5201 107.801 73.4934C107.791 73.3721 107.787 73.2181 107.787 73.0314C107.787 72.8354 107.791 72.6767 107.801 72.5554C107.838 71.8927 107.992 71.3141 108.263 70.8194C108.533 70.3154 108.902 69.9281 109.369 69.6574C109.845 69.3867 110.4 69.2514 111.035 69.2514C111.744 69.2514 112.337 69.4007 112.813 69.6994C113.298 69.9981 113.667 70.4227 113.919 70.9734C114.171 71.5241 114.297 72.1681 114.297 72.9054V73.1434C114.297 73.2461 114.264 73.3254 114.199 73.3814C114.143 73.4374 114.068 73.4654 113.975 73.4654H109.131C109.131 73.4747 109.131 73.4934 109.131 73.5214C109.131 73.5494 109.131 73.5727 109.131 73.5914C109.149 73.9741 109.233 74.3334 109.383 74.6694C109.532 74.9961 109.747 75.2621 110.027 75.4674C110.307 75.6727 110.643 75.7754 111.035 75.7754C111.371 75.7754 111.651 75.7241 111.875 75.6214C112.099 75.5187 112.281 75.4067 112.421 75.2854C112.561 75.1547 112.654 75.0567 112.701 74.9914C112.785 74.8701 112.85 74.8001 112.897 74.7814C112.943 74.7534 113.018 74.7394 113.121 74.7394H113.793C113.886 74.7394 113.961 74.7674 114.017 74.8234C114.082 74.8701 114.11 74.9401 114.101 75.0334C114.091 75.1734 114.017 75.3461 113.877 75.5514C113.737 75.7474 113.536 75.9434 113.275 76.1394C113.013 76.3354 112.696 76.4987 112.323 76.6294C111.949 76.7507 111.52 76.8114 111.035 76.8114ZM109.131 72.4994H112.967V72.4574C112.967 72.0374 112.887 71.6641 112.729 71.3374C112.579 71.0107 112.36 70.7541 112.071 70.5674C111.781 70.3714 111.436 70.2734 111.035 70.2734C110.633 70.2734 110.288 70.3714 109.999 70.5674C109.719 70.7541 109.504 71.0107 109.355 71.3374C109.205 71.6641 109.131 72.0374 109.131 72.4574V72.4994ZM117.711 76.6714C117.59 76.6714 117.496 76.6434 117.431 76.5874C117.366 76.5221 117.31 76.4334 117.263 76.3214L115.275 69.8254C115.256 69.7787 115.247 69.7321 115.247 69.6854C115.247 69.6014 115.275 69.5314 115.331 69.4754C115.396 69.4194 115.466 69.3914 115.541 69.3914H116.157C116.26 69.3914 116.339 69.4194 116.395 69.4754C116.451 69.5314 116.488 69.5827 116.507 69.6294L118.061 74.9074L119.727 69.6854C119.746 69.6201 119.783 69.5547 119.839 69.4894C119.904 69.4241 119.998 69.3914 120.119 69.3914H120.595C120.716 69.3914 120.81 69.4241 120.875 69.4894C120.94 69.5547 120.978 69.6201 120.987 69.6854L122.653 74.9074L124.207 69.6294C124.216 69.5827 124.249 69.5314 124.305 69.4754C124.361 69.4194 124.44 69.3914 124.543 69.3914H125.159C125.243 69.3914 125.313 69.4194 125.369 69.4754C125.425 69.5314 125.453 69.6014 125.453 69.6854C125.453 69.7321 125.444 69.7787 125.425 69.8254L123.437 76.3214C123.409 76.4334 123.358 76.5221 123.283 76.5874C123.218 76.6434 123.12 76.6714 122.989 76.6714H122.443C122.322 76.6714 122.219 76.6434 122.135 76.5874C122.06 76.5221 122.009 76.4334 121.981 76.3214L120.357 71.3094L118.733 76.3214C118.696 76.4334 118.64 76.5221 118.565 76.5874C118.49 76.6434 118.388 76.6714 118.257 76.6714H117.711Z" fill="#1B1B1B"/>
<g filter="url(#filter0_d_786_6444)">
<rect x="65.8115" y="358.888" width="103.64" height="99.7141" rx="10" fill="white"/>
</g>
<rect x="185.155" y="358.888" width="164.882" height="99.7141" rx="10" fill="white"/>
<rect x="65.8115" y="206.569" width="284.224" height="140.542" rx="10" fill="white"/>
<rect x="366.524" y="206.569" width="133.476" height="252.033" rx="10" fill="white"/>
<rect x="427.766" y="410.708" width="58.8863" height="3.92575" rx="1.96288" fill="#B3BAC5"/>
<rect x="427.766" y="421.7" width="40.0427" height="3.92575" rx="1.96288" fill="#EEF1F3"/>
<path fill-rule="evenodd" clip-rule="evenodd" d="M399.023 434.091C407.865 434.091 415.033 426.923 415.033 418.081C415.033 409.239 407.865 402.071 399.023 402.071C390.181 402.071 383.013 409.239 383.013 418.081C383.013 426.923 390.181 434.091 399.023 434.091Z" fill="#FFC9CC"/>
<g filter="url(#filter1_d_786_6444)">
<path fill-rule="evenodd" clip-rule="evenodd" d="M437.422 369.169C439.307 367.824 438.837 367.021 439.709 365.41C440.586 363.797 439.845 363.127 441.328 361.716C442.809 360.308 441.058 359.368 442.942 358.495C444.829 357.622 444.559 359.302 443.011 361.247C441.463 363.196 441.193 363.731 443.212 362.254C445.231 360.777 445.971 358.695 447.117 356.345C448.26 353.995 449.137 353.258 450.146 353.122C451.153 352.989 451.153 350.505 451.02 348.76C450.885 347.012 450.347 345.402 451.086 344.259C451.826 343.119 451.086 342.047 452.03 342.047C452.973 342.047 454.386 340.634 455.866 339.157C457.348 337.681 458.291 337.547 459.838 337.411C461.386 337.276 460.512 336.738 461.521 336.472C462.53 336.204 463.205 335.263 463.878 334.657C464.551 334.055 467.31 334.726 468.926 334.726C470.543 334.726 471.618 334.86 471.618 333.854C471.618 332.847 472.359 332.04 473.303 332.04C474.243 332.04 474.649 331.774 474.649 330.429C474.649 329.088 475.052 328.281 475.859 327.676C476.668 327.073 476.803 325.73 477.072 324.857C477.342 323.984 478.215 324.518 478.215 323.247C478.215 321.971 478.687 320.562 478.687 319.553C478.687 318.548 479.763 318.679 480.235 317.94C480.707 317.203 479.831 316.265 480.571 314.182C481.312 312.101 480.571 310.154 480.571 308.275C480.571 306.394 480.571 304.446 481.245 303.84C481.92 303.237 481.583 302.902 481.044 302.63C480.505 302.364 481.112 301.625 481.583 301.761C482.053 301.893 482.592 302.902 483.468 302.364C484.343 301.826 485.15 299.543 485.891 297.664C486.632 295.783 487.844 295.852 488.785 295.45C489.729 295.045 491.749 292.763 493.027 289.471C494.305 286.182 492.958 282.961 492.42 280.679C491.88 278.392 491.14 278.863 489.796 278.93C488.449 278.999 485.891 278.663 482.525 275.036C479.16 271.409 475.86 271.678 473.64 272.284C471.417 272.889 469.13 271.209 467.647 270.874C466.166 270.538 464.753 272.417 463.677 272.82C462.598 273.223 464.215 271.209 464.282 269.934C464.35 268.657 460.243 266.845 457.146 265.637C454.05 264.428 452.703 265.033 452.703 266.979C452.703 268.927 451.492 266.374 450.549 268.459C449.605 270.539 447.854 269.195 449.001 268.525C450.145 267.854 451.221 266.307 451.625 265.034C452.03 263.759 447.183 262.747 445.501 263.423C443.816 264.094 444.893 266.511 443.548 265.773C442.2 265.034 443.278 263.218 444.356 263.288C445.433 263.355 446.646 261.14 447.385 259.528C448.125 257.915 446.106 257.645 444.894 256.305C443.697 254.977 443.945 251.103 442.717 250.49C441.398 251.791 439.628 253.824 439.128 255.317C438.489 257.226 437.669 256.133 435.938 256.681C434.207 257.226 433.386 256.495 432.931 255.772C432.476 255.04 430.742 255.772 429.559 255.68C428.374 255.589 429.102 257.134 428.282 257.592C427.462 258.045 425.365 256.683 424.637 257.501C423.908 258.319 423.453 257.501 423.088 258.228C422.723 258.954 421.447 258.501 421.082 258.954C420.716 259.409 419.443 259.681 417.8 257.862C416.161 256.049 416.433 253.046 417.163 252.501C417.891 251.957 417.891 250.41 416.888 249.953C415.886 249.502 416.888 247.59 415.615 247.41C414.338 247.229 414.52 248.864 413.701 249.136C412.881 249.409 410.875 250.775 409.964 250.592C409.052 250.409 407.867 250.775 407.867 251.772C407.867 252.773 406.865 252.5 406.683 251.684C406.501 250.865 404.587 251.318 404.041 250.775C403.494 250.229 400.942 250.5 402.035 251.137C403.128 251.772 403.22 252.408 403.22 253.409C403.22 254.41 404.041 254.135 404.041 255.32C404.041 256.498 404.951 255.682 405.589 255.682C406.227 255.682 406.227 256.776 405.226 256.953C404.224 257.135 403.767 257.679 403.494 258.593C403.22 259.501 402.31 258.862 401.49 259.59C400.669 260.32 399.941 261.045 399.392 260.681C398.846 260.321 398.391 260.593 397.753 260.955C397.115 261.317 396.841 260.955 395.93 260.228C395.248 259.682 394.82 258.368 393.61 257.172C392.889 257.513 391.425 258.041 390.637 258.041C389.574 258.041 386.234 257.798 386.052 258.376C385.87 258.949 386.296 259.919 386.842 260.037C387.389 260.161 388.542 260.493 387.45 261.281C386.357 262.065 385.384 261.009 385.384 262.914C385.384 264.823 387.838 266.061 387.328 267.823C387.065 268.729 386.704 271.059 386.704 271.953C386.704 272.848 386.348 275.891 385.54 276.067C384.732 276.249 384.013 275.355 382.936 276.249C381.858 277.144 380.513 276.606 379.257 277.594C378 278.576 376.654 278.218 376.565 279.383C376.474 280.547 375.309 281.174 375.578 282.248C375.848 283.321 375.038 283.054 374.23 283.859C373.424 284.665 374.32 285.201 373.78 285.829C373.241 286.457 373.961 287.438 374.588 288.424C375.216 289.409 375.936 290.123 375.846 291.021C375.755 291.915 376.473 292.276 377.371 292.182C378.269 292.094 377.549 293.885 378.987 293.885C380.423 293.885 381.858 294.243 382.219 293.438C382.578 292.631 383.565 292.005 383.565 293.169C383.565 294.331 383.295 297.467 384.282 297.109C385.27 296.751 387.245 296.836 388.233 297.196C389.219 297.554 390.206 297.196 390.835 296.57C391.463 295.945 392.181 295.947 393.436 295.23C394.694 294.511 395.86 293.618 397.029 293.618C398.195 293.618 400.17 292.899 399.899 293.794C399.629 294.69 399.452 298.004 400.887 299.704C402.323 301.404 403.129 302.032 404.477 301.853C405.824 301.672 405.644 302.387 406.632 302.302C407.619 302.213 406.991 303.374 407.89 303.374C408.786 303.374 410.401 303.554 410.401 304.537C410.401 305.524 413.095 304.718 413.724 305.255C414.352 305.79 415.069 306.239 414.89 307.313C414.708 308.389 416.236 309.194 415.34 309.641C414.44 310.088 415.608 310.983 415.698 312.147C415.786 313.31 417.044 313.759 419.019 313.668C420.993 313.583 421.533 313.759 421.533 315.193C421.533 316.622 422.878 316.803 423.327 318.147C423.777 319.488 422.789 321.01 422.969 322.086C423.105 322.911 422.606 323.784 422.044 324.145C422.737 325.025 422.794 325.421 422.173 325.763C421.355 326.217 423.176 327.488 422.721 329.486C422.266 331.49 422.175 331.851 424.272 331.941C426.365 332.033 426.184 332.668 426.913 332.213C427.643 331.758 428.735 333.758 429.008 334.763C429.282 335.761 430.101 338.121 430.466 338.121C430.833 338.121 431.925 337.029 433.018 337.578C434.035 338.084 432.768 341.498 432.731 342.995C433.491 342.967 434.421 342.97 434.728 343.124C435.274 343.399 435.547 347.07 435.276 347.752C435.002 348.429 432.749 349.041 431.591 349.79C430.433 350.539 427.636 353.192 426.339 355.301C425.573 356.552 424.451 357.584 423.663 358.485C424.038 358.54 424.354 358.526 424.567 358.431C425.18 358.157 426.136 358.157 427.159 359.381C428.183 360.607 428.115 361.56 428.523 361.493C428.933 361.421 429.411 359.859 430.228 361.017C431.047 362.172 433.16 363.056 433.638 363.601C434.115 364.145 435.684 364.554 435.684 365.982C435.684 367.004 435.2 368.937 436.003 370.575C436.389 370.073 436.829 369.591 437.422 369.169Z" fill="#EEF1F3"/>
</g>
<path d="M478.733 324.796C481.584 324.796 483.895 322.485 483.895 319.635C483.895 316.784 481.584 314.473 478.733 314.473C475.883 314.473 473.572 316.784 473.572 319.635C473.572 322.485 475.883 324.796 478.733 324.796Z" fill="#33C344" fill-opacity="0.25"/>
<path d="M478.905 321.011C479.57 321.011 480.109 320.471 480.109 319.806C480.109 319.141 479.57 318.602 478.905 318.602C478.24 318.602 477.701 319.141 477.701 319.806C477.701 320.471 478.24 321.011 478.905 321.011Z" fill="#33C344"/>
<path d="M475.047 328.943C477.897 328.943 480.208 326.632 480.208 323.782C480.208 320.932 477.897 318.621 475.047 318.621C472.196 318.621 469.886 320.932 469.886 323.782C469.886 326.632 472.196 328.943 475.047 328.943Z" fill="#33C344" fill-opacity="0.25"/>
<path d="M475.219 325.158C475.884 325.158 476.423 324.619 476.423 323.954C476.423 323.289 475.884 322.75 475.219 322.75C474.554 322.75 474.015 323.289 474.015 323.954C474.015 324.619 474.554 325.158 475.219 325.158Z" fill="#33C344"/>
<path d="M475.508 326.178C478.358 326.178 480.669 323.867 480.669 321.017C480.669 318.167 478.358 315.856 475.508 315.856C472.657 315.856 470.347 318.167 470.347 321.017C470.347 323.867 472.657 326.178 475.508 326.178Z" fill="#33C344" fill-opacity="0.25"/>
<path d="M475.68 322.393C476.345 322.393 476.884 321.854 476.884 321.189C476.884 320.524 476.345 319.985 475.68 319.985C475.015 319.985 474.476 320.524 474.476 321.189C474.476 321.854 475.015 322.393 475.68 322.393Z" fill="#33C344"/>
<path d="M472.743 329.404C475.593 329.404 477.904 327.093 477.904 324.243C477.904 321.392 475.593 319.082 472.743 319.082C469.892 319.082 467.582 321.392 467.582 324.243C467.582 327.093 469.892 329.404 472.743 329.404Z" fill="#33C344" fill-opacity="0.25"/>
<path d="M472.915 325.619C473.58 325.619 474.119 325.08 474.119 324.415C474.119 323.75 473.58 323.211 472.915 323.211C472.25 323.211 471.71 323.75 471.71 324.415C471.71 325.08 472.25 325.619 472.915 325.619Z" fill="#33C344"/>
<path d="M473.665 331.708C476.516 331.708 478.826 329.397 478.826 326.547C478.826 323.696 476.516 321.386 473.665 321.386C470.815 321.386 468.504 323.696 468.504 326.547C468.504 329.397 470.815 331.708 473.665 331.708Z" fill="#33C344" fill-opacity="0.25"/>
<path d="M473.837 327.923C474.502 327.923 475.041 327.384 475.041 326.719C475.041 326.054 474.502 325.515 473.837 325.515C473.172 325.515 472.633 326.054 472.633 326.719C472.633 327.384 473.172 327.923 473.837 327.923Z" fill="#33C344"/>
<path d="M471.36 334.934C474.211 334.934 476.522 332.623 476.522 329.773C476.522 326.922 474.211 324.611 471.36 324.611C468.51 324.611 466.199 326.922 466.199 329.773C466.199 332.623 468.51 334.934 471.36 334.934Z" fill="#33C344" fill-opacity="0.25"/>
<path d="M471.532 331.149C472.197 331.149 472.736 330.609 472.736 329.944C472.736 329.279 472.197 328.74 471.532 328.74C470.867 328.74 470.328 329.279 470.328 329.944C470.328 330.609 470.867 331.149 471.532 331.149Z" fill="#33C344"/>
<path d="M452.467 351.063C455.317 351.063 457.628 348.752 457.628 345.901C457.628 343.051 455.317 340.74 452.467 340.74C449.616 340.74 447.306 343.051 447.306 345.901C447.306 348.752 449.616 351.063 452.467 351.063Z" fill="#33C344" fill-opacity="0.25"/>
<path d="M452.639 347.277C453.304 347.277 453.843 346.738 453.843 346.073C453.843 345.408 453.304 344.869 452.639 344.869C451.974 344.869 451.435 345.408 451.435 346.073C451.435 346.738 451.974 347.277 452.639 347.277Z" fill="#33C344"/>
<path d="M447.859 357.514C450.71 357.514 453.021 355.203 453.021 352.353C453.021 349.502 450.71 347.192 447.859 347.192C445.009 347.192 442.698 349.502 442.698 352.353C442.698 355.203 445.009 357.514 447.859 357.514Z" fill="#33C344" fill-opacity="0.25"/>
<path d="M448.031 353.729C448.696 353.729 449.235 353.19 449.235 352.525C449.235 351.86 448.696 351.321 448.031 351.321C447.366 351.321 446.827 351.86 446.827 352.525C446.827 353.19 447.366 353.729 448.031 353.729Z" fill="#33C344"/>
<path d="M450.163 307.285C453.014 307.285 455.324 304.974 455.324 302.124C455.324 299.273 453.014 296.962 450.163 296.962C447.313 296.962 445.002 299.273 445.002 302.124C445.002 304.974 447.313 307.285 450.163 307.285Z" fill="#33C344" fill-opacity="0.25"/>
<path d="M450.335 303.5C451 303.5 451.539 302.96 451.539 302.295C451.539 301.63 451 301.091 450.335 301.091C449.67 301.091 449.131 301.63 449.131 302.295C449.131 302.96 449.67 303.5 450.335 303.5Z" fill="#33C344"/>
<path d="M454.31 307.746C457.161 307.746 459.471 305.435 459.471 302.584C459.471 299.734 457.161 297.423 454.31 297.423C451.46 297.423 449.149 299.734 449.149 302.584C449.149 305.435 451.46 307.746 454.31 307.746Z" fill="#33C344" fill-opacity="0.25"/>
<path d="M454.482 303.96C455.147 303.96 455.686 303.421 455.686 302.756C455.686 302.091 455.147 301.552 454.482 301.552C453.817 301.552 453.278 302.091 453.278 302.756C453.278 303.421 453.817 303.96 454.482 303.96Z" fill="#33C344"/>
<path d="M397.169 298.529C400.019 298.529 402.33 296.218 402.33 293.368C402.33 290.518 400.019 288.207 397.169 288.207C394.319 288.207 392.008 290.518 392.008 293.368C392.008 296.218 394.319 298.529 397.169 298.529Z" fill="#33C344" fill-opacity="0.25"/>
<path d="M397.341 294.744C398.006 294.744 398.545 294.205 398.545 293.54C398.545 292.875 398.006 292.336 397.341 292.336C396.676 292.336 396.137 292.875 396.137 293.54C396.137 294.205 396.676 294.744 397.341 294.744Z" fill="#33C344"/>
<path d="M452.467 319.727C455.317 319.727 457.628 317.416 457.628 314.566C457.628 311.715 455.317 309.404 452.467 309.404C449.616 309.404 447.306 311.715 447.306 314.566C447.306 317.416 449.616 319.727 452.467 319.727Z" fill="#33C344" fill-opacity="0.25"/>
<path d="M452.639 315.942C453.304 315.942 453.843 315.402 453.843 314.737C453.843 314.072 453.304 313.533 452.639 313.533C451.974 313.533 451.435 314.072 451.435 314.737C451.435 315.402 451.974 315.942 452.639 315.942Z" fill="#33C344"/>
<path d="M464.448 315.119C467.299 315.119 469.609 312.808 469.609 309.957C469.609 307.107 467.299 304.796 464.448 304.796C461.598 304.796 459.287 307.107 459.287 309.957C459.287 312.808 461.598 315.119 464.448 315.119Z" fill="#33C344" fill-opacity="0.25"/>
<path d="M464.62 311.333C465.285 311.333 465.824 310.794 465.824 310.129C465.824 309.464 465.285 308.925 464.62 308.925C463.955 308.925 463.416 309.464 463.416 310.129C463.416 310.794 463.955 311.333 464.62 311.333Z" fill="#33C344"/>
<path d="M458.919 326.639C461.769 326.639 464.08 324.328 464.08 321.478C464.08 318.628 461.769 316.317 458.919 316.317C456.069 316.317 453.758 318.628 453.758 321.478C453.758 324.328 456.069 326.639 458.919 326.639Z" fill="#33C344" fill-opacity="0.25"/>
<path d="M459.091 322.854C459.756 322.854 460.295 322.315 460.295 321.65C460.295 320.985 459.756 320.446 459.091 320.446C458.426 320.446 457.887 320.985 457.887 321.65C457.887 322.315 458.426 322.854 459.091 322.854Z" fill="#33C344"/>
<path d="M463.066 338.16C465.916 338.16 468.227 335.849 468.227 332.998C468.227 330.148 465.916 327.837 463.066 327.837C460.216 327.837 457.905 330.148 457.905 332.998C457.905 335.849 460.216 338.16 463.066 338.16Z" fill="#33C344" fill-opacity="0.25"/>
<path d="M463.238 334.374C463.903 334.374 464.442 333.835 464.442 333.17C464.442 332.505 463.903 331.966 463.238 331.966C462.573 331.966 462.034 332.505 462.034 333.17C462.034 333.835 462.573 334.374 463.238 334.374Z" fill="#33C344"/>
<path d="M465.83 332.63C468.681 332.63 470.991 330.319 470.991 327.469C470.991 324.618 468.681 322.307 465.83 322.307C462.98 322.307 460.669 324.618 460.669 327.469C460.669 330.319 462.98 332.63 465.83 332.63Z" fill="#33C344" fill-opacity="0.25"/>
<path d="M466.002 328.845C466.667 328.845 467.206 328.305 467.206 327.64C467.206 326.975 466.667 326.436 466.002 326.436C465.337 326.436 464.798 326.975 464.798 327.64C464.798 328.305 465.337 328.845 466.002 328.845Z" fill="#33C344"/>
<path d="M457.997 341.846C460.847 341.846 463.158 339.535 463.158 336.685C463.158 333.835 460.847 331.524 457.997 331.524C455.146 331.524 452.835 333.835 452.835 336.685C452.835 339.535 455.146 341.846 457.997 341.846Z" fill="#33C344" fill-opacity="0.25"/>
<path d="M458.168 338.061C458.833 338.061 459.373 337.522 459.373 336.857C459.373 336.192 458.833 335.653 458.168 335.653C457.503 335.653 456.964 336.192 456.964 336.857C456.964 337.522 457.503 338.061 458.168 338.061Z" fill="#33C344"/>
<path d="M469.978 329.404C472.828 329.404 475.139 327.093 475.139 324.243C475.139 321.392 472.828 319.082 469.978 319.082C467.127 319.082 464.816 321.392 464.816 324.243C464.816 327.093 467.127 329.404 469.978 329.404Z" fill="#FFC400" fill-opacity="0.25"/>
<path d="M470.149 325.619C470.814 325.619 471.354 325.08 471.354 324.415C471.354 323.75 470.814 323.211 470.149 323.211C469.484 323.211 468.945 323.75 468.945 324.415C468.945 325.08 469.484 325.619 470.149 325.619Z" fill="#FFC400"/>
<path d="M441.868 320.648C444.718 320.648 447.029 318.338 447.029 315.487C447.029 312.637 444.718 310.326 441.868 310.326C439.017 310.326 436.707 312.637 436.707 315.487C436.707 318.338 439.017 320.648 441.868 320.648Z" fill="#FFC400" fill-opacity="0.25"/>
<path d="M442.04 316.863C442.705 316.863 443.244 316.324 443.244 315.659C443.244 314.994 442.705 314.455 442.04 314.455C441.375 314.455 440.835 314.994 440.835 315.659C440.835 316.324 441.375 316.863 442.04 316.863Z" fill="#FFC400"/>
<path d="M433.113 358.896C435.964 358.896 438.275 356.586 438.275 353.735C438.275 350.885 435.964 348.574 433.113 348.574C430.263 348.574 427.952 350.885 427.952 353.735C427.952 356.586 430.263 358.896 433.113 358.896Z" fill="#FF0000" fill-opacity="0.25"/>
<path d="M433.285 355.111C433.95 355.111 434.489 354.572 434.489 353.907C434.489 353.242 433.95 352.703 433.285 352.703C432.62 352.703 432.081 353.242 432.081 353.907C432.081 354.572 432.62 355.111 433.285 355.111Z" fill="#FF0000"/>
<path d="M469.056 337.699C471.907 337.699 474.217 335.388 474.217 332.538C474.217 329.687 471.907 327.376 469.056 327.376C466.206 327.376 463.895 329.687 463.895 332.538C463.895 335.388 466.206 337.699 469.056 337.699Z" fill="#FFC400" fill-opacity="0.25"/>
<path d="M469.228 333.914C469.893 333.914 470.432 333.375 470.432 332.709C470.432 332.044 469.893 331.505 469.228 331.505C468.563 331.505 468.024 332.044 468.024 332.709C468.024 333.375 468.563 333.914 469.228 333.914Z" fill="#FFC400"/>
<path d="M454.31 346.454C457.161 346.454 459.471 344.144 459.471 341.293C459.471 338.443 457.161 336.132 454.31 336.132C451.46 336.132 449.149 338.443 449.149 341.293C449.149 344.144 451.46 346.454 454.31 346.454Z" fill="#FFC400" fill-opacity="0.25"/>
<path d="M454.482 342.669C455.147 342.669 455.686 342.13 455.686 341.465C455.686 340.8 455.147 340.261 454.482 340.261C453.817 340.261 453.278 340.8 453.278 341.465C453.278 342.13 453.817 342.669 454.482 342.669Z" fill="#FFC400"/>
<path d="M445.094 357.975C447.944 357.975 450.255 355.664 450.255 352.814C450.255 349.963 447.944 347.652 445.094 347.652C442.243 347.652 439.933 349.963 439.933 352.814C439.933 355.664 442.243 357.975 445.094 357.975Z" fill="#FFC400" fill-opacity="0.25"/>
<path d="M445.266 354.19C445.931 354.19 446.47 353.651 446.47 352.985C446.47 352.32 445.931 351.781 445.266 351.781C444.601 351.781 444.062 352.32 444.062 352.985C444.062 353.651 444.601 354.19 445.266 354.19Z" fill="#FFC400"/>
<path d="M451.546 356.132C454.396 356.132 456.707 353.821 456.707 350.97C456.707 348.12 454.396 345.809 451.546 345.809C448.696 345.809 446.385 348.12 446.385 350.97C446.385 353.821 448.696 356.132 451.546 356.132Z" fill="#FFC400" fill-opacity="0.25"/>
<path d="M451.718 352.346C452.383 352.346 452.922 351.807 452.922 351.142C452.922 350.477 452.383 349.938 451.718 349.938C451.053 349.938 450.514 350.477 450.514 351.142C450.514 351.807 451.053 352.346 451.718 352.346Z" fill="#FFC400"/>
<path d="M488.872 290.695C491.723 290.695 494.033 288.384 494.033 285.534C494.033 282.684 491.723 280.373 488.872 280.373C486.022 280.373 483.711 282.684 483.711 285.534C483.711 288.384 486.022 290.695 488.872 290.695Z" fill="#FFC400" fill-opacity="0.25"/>
<path d="M489.044 286.91C489.709 286.91 490.248 286.371 490.248 285.706C490.248 285.041 489.709 284.502 489.044 284.502C488.379 284.502 487.84 285.041 487.84 285.706C487.84 286.371 488.379 286.91 489.044 286.91Z" fill="#FFC400"/>
<path d="M392.1 291.156C394.95 291.156 397.261 288.845 397.261 285.995C397.261 283.144 394.95 280.834 392.1 280.834C389.249 280.834 386.938 283.144 386.938 285.995C386.938 288.845 389.249 291.156 392.1 291.156Z" fill="#FFC400" fill-opacity="0.25"/>
<path d="M392.272 287.371C392.937 287.371 393.476 286.832 393.476 286.167C393.476 285.502 392.937 284.963 392.272 284.963C391.606 284.963 391.067 285.502 391.067 286.167C391.067 286.832 391.606 287.371 392.272 287.371Z" fill="#FFC400"/>
<rect x="113.706" y="226.198" width="51.0348" height="3.92575" rx="1.96288" fill="#B3BAC5"/>
<rect x="113.706" y="237.19" width="34.5466" height="3.92575" rx="1.96288" fill="#EEF1F3"/>
<rect x="193.792" y="237.19" width="27.4803" height="3.92575" rx="1.96288" fill="#EEF1F3"/>
<rect x="193.792" y="226.198" width="43.1833" height="3.92575" rx="1.96288" fill="#B3BAC5"/>
<rect x="266.025" y="237.19" width="50.2496" height="3.92575" rx="1.96288" fill="#EEF1F3"/>
<rect x="266.025" y="226.198" width="56.5308" height="3.92575" rx="1.96288" fill="#B3BAC5"/>
<rect x="456.032" y="222.272" width="28.2654" height="3.92575" rx="1.96288" fill="#EEF1F3"/>
<rect x="383.013" y="222.272" width="30.6209" height="3.92575" rx="1.96288" fill="#B3BAC5"/>
<rect x="113.706" y="269.381" width="51.0348" height="3.92575" rx="1.96288" fill="#B3BAC5"/>
<rect x="113.706" y="280.373" width="34.5466" height="3.92575" rx="1.96288" fill="#EEF1F3"/>
<rect x="87.0107" y="381.657" width="60.4566" height="3.92575" rx="1.96288" fill="#B3BAC5"/>
<rect x="87.0107" y="392.649" width="40.8278" height="3.92575" rx="1.96288" fill="#EEF1F3"/>
<rect x="193.792" y="280.373" width="27.4803" height="3.92575" rx="1.96288" fill="#EEF1F3"/>
<rect x="193.792" y="269.381" width="43.1833" height="3.92575" rx="1.96288" fill="#B3BAC5"/>
<rect x="266.025" y="280.373" width="50.2496" height="3.92575" rx="1.96288" fill="#EEF1F3"/>
<rect x="266.025" y="269.381" width="56.5308" height="3.92575" rx="1.96288" fill="#B3BAC5"/>
<rect x="113.706" y="308.638" width="51.0348" height="3.92575" rx="1.96288" fill="#B3BAC5"/>
<rect x="113.706" y="319.63" width="34.5466" height="3.92575" rx="1.96288" fill="#EEF1F3"/>
<rect x="87.0107" y="420.915" width="60.4566" height="3.92575" rx="1.96288" fill="#B3BAC5"/>
<rect x="87.0107" y="431.907" width="40.8278" height="3.92575" rx="1.96288" fill="#EEF1F3"/>
<rect x="207.924" y="386.368" width="105.21" height="3.92575" rx="1.96288" fill="#B3BAC5"/>
<rect x="207.924" y="397.36" width="71.4487" height="3.92575" rx="1.96288" fill="#EEF1F3"/>
<rect x="207.924" y="420.13" width="105.21" height="3.92575" rx="1.96288" fill="#B3BAC5"/>
<rect x="207.924" y="431.122" width="71.4487" height="3.92575" rx="1.96288" fill="#EEF1F3"/>
<rect x="193.792" y="319.63" width="27.4803" height="3.92575" rx="1.96288" fill="#EEF1F3"/>
<rect x="193.792" y="308.638" width="43.1833" height="3.92575" rx="1.96288" fill="#B3BAC5"/>
<rect x="266.025" y="319.63" width="50.2496" height="3.92575" rx="1.96288" fill="#EEF1F3"/>
<rect x="266.025" y="308.638" width="56.5308" height="3.92575" rx="1.96288" fill="#B3BAC5"/>
<path fill-rule="evenodd" clip-rule="evenodd" d="M93.1619 245.259C99.4252 245.259 104.502 240.182 104.502 233.919C104.502 227.655 99.4252 222.578 93.1619 222.578C86.8985 222.578 81.8213 227.655 81.8213 233.919C81.8213 240.182 86.8985 245.259 93.1619 245.259Z" fill="#D7ECC4"/>
<path fill-rule="evenodd" clip-rule="evenodd" d="M93.1619 288.136C99.4252 288.136 104.502 283.058 104.502 276.795C104.502 270.532 99.4252 265.455 93.1619 265.455C86.8985 265.455 81.8213 270.532 81.8213 276.795C81.8213 283.058 86.8985 288.136 93.1619 288.136Z" fill="#FDF7D7"/>
<path fill-rule="evenodd" clip-rule="evenodd" d="M93.1619 327.393C99.4252 327.393 104.502 322.316 104.502 316.053C104.502 309.79 99.4252 304.713 93.1619 304.713C86.8985 304.713 81.8213 309.79 81.8213 316.053C81.8213 322.316 86.8985 327.393 93.1619 327.393Z" fill="#FEDEDB"/>
<g filter="url(#filter2_d_786_6444)">
<path d="M367 74.6665C367 68.7755 370.045 63.9999 373.8 63.9999H530.2C533.957 63.9999 537 68.7755 537 74.6665V181.333C537 187.224 533.957 192 530.2 192H373.8C370.045 192 367 187.224 367 181.333V74.6665Z" fill="white"/>
<path d="M397.54 122.5C397.437 122.5 397.358 122.472 397.302 122.416C397.246 122.351 397.218 122.271 397.218 122.178V113.036C397.218 112.933 397.246 112.854 397.302 112.798C397.358 112.733 397.437 112.7 397.54 112.7H400.956C402.011 112.7 402.846 112.947 403.462 113.442C404.078 113.937 404.386 114.669 404.386 115.64C404.386 116.359 404.204 116.947 403.84 117.404C403.485 117.852 403 118.165 402.384 118.342L404.54 122.066C404.568 122.122 404.582 122.173 404.582 122.22C404.582 122.295 404.549 122.36 404.484 122.416C404.428 122.472 404.363 122.5 404.288 122.5H403.616C403.457 122.5 403.341 122.458 403.266 122.374C403.191 122.29 403.126 122.206 403.07 122.122L401.04 118.566H398.59V122.178C398.59 122.271 398.557 122.351 398.492 122.416C398.436 122.472 398.357 122.5 398.254 122.5H397.54ZM398.59 117.376H400.9C401.6 117.376 402.123 117.231 402.468 116.942C402.813 116.643 402.986 116.205 402.986 115.626C402.986 115.057 402.813 114.623 402.468 114.324C402.132 114.025 401.609 113.876 400.9 113.876H398.59V117.376ZM409.026 122.64C408.064 122.64 407.299 122.346 406.73 121.758C406.16 121.161 405.848 120.349 405.792 119.322C405.782 119.201 405.778 119.047 405.778 118.86C405.778 118.664 405.782 118.505 405.792 118.384C405.829 117.721 405.983 117.143 406.254 116.648C406.524 116.144 406.893 115.757 407.36 115.486C407.836 115.215 408.391 115.08 409.026 115.08C409.735 115.08 410.328 115.229 410.804 115.528C411.289 115.827 411.658 116.251 411.91 116.802C412.162 117.353 412.288 117.997 412.288 118.734V118.972C412.288 119.075 412.255 119.154 412.19 119.21C412.134 119.266 412.059 119.294 411.966 119.294H407.122C407.122 119.303 407.122 119.322 407.122 119.35C407.122 119.378 407.122 119.401 407.122 119.42C407.14 119.803 407.224 120.162 407.374 120.498C407.523 120.825 407.738 121.091 408.018 121.296C408.298 121.501 408.634 121.604 409.026 121.604C409.362 121.604 409.642 121.553 409.866 121.45C410.09 121.347 410.272 121.235 410.412 121.114C410.552 120.983 410.645 120.885 410.692 120.82C410.776 120.699 410.841 120.629 410.888 120.61C410.934 120.582 411.009 120.568 411.112 120.568H411.784C411.877 120.568 411.952 120.596 412.008 120.652C412.073 120.699 412.101 120.769 412.092 120.862C412.082 121.002 412.008 121.175 411.868 121.38C411.728 121.576 411.527 121.772 411.266 121.968C411.004 122.164 410.687 122.327 410.314 122.458C409.94 122.579 409.511 122.64 409.026 122.64ZM407.122 118.328H410.958V118.286C410.958 117.866 410.878 117.493 410.72 117.166C410.57 116.839 410.351 116.583 410.062 116.396C409.772 116.2 409.427 116.102 409.026 116.102C408.624 116.102 408.279 116.2 407.99 116.396C407.71 116.583 407.495 116.839 407.346 117.166C407.196 117.493 407.122 117.866 407.122 118.286V118.328ZM416.25 122.5C416.11 122.5 415.998 122.467 415.914 122.402C415.839 122.337 415.778 122.253 415.732 122.15L413.142 115.654C413.123 115.607 413.114 115.561 413.114 115.514C413.114 115.43 413.142 115.36 413.198 115.304C413.254 115.248 413.324 115.22 413.408 115.22H414.08C414.182 115.22 414.262 115.248 414.318 115.304C414.374 115.36 414.406 115.411 414.416 115.458L416.558 120.974L418.686 115.458C418.704 115.411 418.737 115.36 418.784 115.304C418.84 115.248 418.919 115.22 419.022 115.22H419.708C419.782 115.22 419.848 115.248 419.904 115.304C419.969 115.36 420.002 115.43 420.002 115.514C420.002 115.561 419.992 115.607 419.974 115.654L417.37 122.15C417.332 122.253 417.272 122.337 417.188 122.402C417.113 122.467 417.001 122.5 416.852 122.5H416.25ZM424.106 122.64C423.145 122.64 422.379 122.346 421.81 121.758C421.241 121.161 420.928 120.349 420.872 119.322C420.863 119.201 420.858 119.047 420.858 118.86C420.858 118.664 420.863 118.505 420.872 118.384C420.909 117.721 421.063 117.143 421.334 116.648C421.605 116.144 421.973 115.757 422.44 115.486C422.916 115.215 423.471 115.08 424.106 115.08C424.815 115.08 425.408 115.229 425.884 115.528C426.369 115.827 426.738 116.251 426.99 116.802C427.242 117.353 427.368 117.997 427.368 118.734V118.972C427.368 119.075 427.335 119.154 427.27 119.21C427.214 119.266 427.139 119.294 427.046 119.294H422.202C422.202 119.303 422.202 119.322 422.202 119.35C422.202 119.378 422.202 119.401 422.202 119.42C422.221 119.803 422.305 120.162 422.454 120.498C422.603 120.825 422.818 121.091 423.098 121.296C423.378 121.501 423.714 121.604 424.106 121.604C424.442 121.604 424.722 121.553 424.946 121.45C425.17 121.347 425.352 121.235 425.492 121.114C425.632 120.983 425.725 120.885 425.772 120.82C425.856 120.699 425.921 120.629 425.968 120.61C426.015 120.582 426.089 120.568 426.192 120.568H426.864C426.957 120.568 427.032 120.596 427.088 120.652C427.153 120.699 427.181 120.769 427.172 120.862C427.163 121.002 427.088 121.175 426.948 121.38C426.808 121.576 426.607 121.772 426.346 121.968C426.085 122.164 425.767 122.327 425.394 122.458C425.021 122.579 424.591 122.64 424.106 122.64ZM422.202 118.328H426.038V118.286C426.038 117.866 425.959 117.493 425.8 117.166C425.651 116.839 425.431 116.583 425.142 116.396C424.853 116.2 424.507 116.102 424.106 116.102C423.705 116.102 423.359 116.2 423.07 116.396C422.79 116.583 422.575 116.839 422.426 117.166C422.277 117.493 422.202 117.866 422.202 118.286V118.328ZM429.364 122.5C429.271 122.5 429.191 122.472 429.126 122.416C429.07 122.351 429.042 122.271 429.042 122.178V115.542C429.042 115.449 429.07 115.374 429.126 115.318C429.191 115.253 429.271 115.22 429.364 115.22H430.022C430.115 115.22 430.19 115.253 430.246 115.318C430.311 115.374 430.344 115.449 430.344 115.542V116.158C430.587 115.841 430.89 115.584 431.254 115.388C431.627 115.183 432.103 115.08 432.682 115.08C433.289 115.08 433.802 115.215 434.222 115.486C434.651 115.747 434.973 116.116 435.188 116.592C435.403 117.059 435.51 117.605 435.51 118.23V122.178C435.51 122.271 435.482 122.351 435.426 122.416C435.37 122.472 435.295 122.5 435.202 122.5H434.502C434.409 122.5 434.329 122.472 434.264 122.416C434.208 122.351 434.18 122.271 434.18 122.178V118.3C434.18 117.647 434.021 117.138 433.704 116.774C433.387 116.401 432.92 116.214 432.304 116.214C431.725 116.214 431.259 116.401 430.904 116.774C430.559 117.138 430.386 117.647 430.386 118.3V122.178C430.386 122.271 430.353 122.351 430.288 122.416C430.232 122.472 430.157 122.5 430.064 122.5H429.364ZM440.248 122.64C439.651 122.64 439.142 122.509 438.722 122.248C438.311 121.977 437.999 121.604 437.784 121.128C437.569 120.652 437.462 120.106 437.462 119.49V115.542C437.462 115.449 437.49 115.374 437.546 115.318C437.611 115.253 437.691 115.22 437.784 115.22H438.484C438.577 115.22 438.652 115.253 438.708 115.318C438.773 115.374 438.806 115.449 438.806 115.542V119.42C438.806 120.811 439.413 121.506 440.626 121.506C441.205 121.506 441.667 121.324 442.012 120.96C442.367 120.587 442.544 120.073 442.544 119.42V115.542C442.544 115.449 442.572 115.374 442.628 115.318C442.693 115.253 442.773 115.22 442.866 115.22H443.552C443.655 115.22 443.734 115.253 443.79 115.318C443.846 115.374 443.874 115.449 443.874 115.542V122.178C443.874 122.271 443.846 122.351 443.79 122.416C443.734 122.472 443.655 122.5 443.552 122.5H442.908C442.815 122.5 442.735 122.472 442.67 122.416C442.614 122.351 442.586 122.271 442.586 122.178V121.562C442.334 121.889 442.026 122.15 441.662 122.346C441.307 122.542 440.836 122.64 440.248 122.64ZM448.852 122.64C447.891 122.64 447.125 122.346 446.556 121.758C445.987 121.161 445.674 120.349 445.618 119.322C445.609 119.201 445.604 119.047 445.604 118.86C445.604 118.664 445.609 118.505 445.618 118.384C445.655 117.721 445.809 117.143 446.08 116.648C446.351 116.144 446.719 115.757 447.186 115.486C447.662 115.215 448.217 115.08 448.852 115.08C449.561 115.08 450.154 115.229 450.63 115.528C451.115 115.827 451.484 116.251 451.736 116.802C451.988 117.353 452.114 117.997 452.114 118.734V118.972C452.114 119.075 452.081 119.154 452.016 119.21C451.96 119.266 451.885 119.294 451.792 119.294H446.948C446.948 119.303 446.948 119.322 446.948 119.35C446.948 119.378 446.948 119.401 446.948 119.42C446.967 119.803 447.051 120.162 447.2 120.498C447.349 120.825 447.564 121.091 447.844 121.296C448.124 121.501 448.46 121.604 448.852 121.604C449.188 121.604 449.468 121.553 449.692 121.45C449.916 121.347 450.098 121.235 450.238 121.114C450.378 120.983 450.471 120.885 450.518 120.82C450.602 120.699 450.667 120.629 450.714 120.61C450.761 120.582 450.835 120.568 450.938 120.568H451.61C451.703 120.568 451.778 120.596 451.834 120.652C451.899 120.699 451.927 120.769 451.918 120.862C451.909 121.002 451.834 121.175 451.694 121.38C451.554 121.576 451.353 121.772 451.092 121.968C450.831 122.164 450.513 122.327 450.14 122.458C449.767 122.579 449.337 122.64 448.852 122.64ZM446.948 118.328H450.784V118.286C450.784 117.866 450.705 117.493 450.546 117.166C450.397 116.839 450.177 116.583 449.888 116.396C449.599 116.2 449.253 116.102 448.852 116.102C448.451 116.102 448.105 116.2 447.816 116.396C447.536 116.583 447.321 116.839 447.172 117.166C447.023 117.493 446.948 117.866 446.948 118.286V118.328Z" fill="#5E5E5E"/>
<path d="M397.76 142C397.643 142 397.552 141.968 397.488 141.904C397.424 141.829 397.392 141.739 397.392 141.632V131.184C397.392 131.067 397.424 130.976 397.488 130.912C397.552 130.837 397.643 130.8 397.76 130.8H401.664C402.869 130.8 403.824 131.083 404.528 131.648C405.232 132.213 405.584 133.051 405.584 134.16C405.584 134.981 405.376 135.653 404.96 136.176C404.555 136.688 404 137.045 403.296 137.248L405.76 141.504C405.792 141.568 405.808 141.627 405.808 141.68C405.808 141.765 405.771 141.84 405.696 141.904C405.632 141.968 405.557 142 405.472 142H404.704C404.523 142 404.389 141.952 404.304 141.856C404.219 141.76 404.144 141.664 404.08 141.568L401.76 137.504H398.96V141.632C398.96 141.739 398.923 141.829 398.848 141.904C398.784 141.968 398.693 142 398.576 142H397.76ZM398.96 136.144H401.6C402.4 136.144 402.997 135.979 403.392 135.648C403.787 135.307 403.984 134.805 403.984 134.144C403.984 133.493 403.787 132.997 403.392 132.656C403.008 132.315 402.411 132.144 401.6 132.144H398.96V136.144ZM411.124 143.6C411.007 143.6 410.916 143.563 410.852 143.488C410.788 143.424 410.756 143.339 410.756 143.232V142.112C409.978 142.048 409.322 141.872 408.788 141.584C408.255 141.285 407.85 140.928 407.572 140.512C407.295 140.096 407.146 139.653 407.124 139.184C407.124 139.099 407.156 139.024 407.22 138.96C407.295 138.885 407.38 138.848 407.476 138.848H408.292C408.42 138.848 408.516 138.88 408.58 138.944C408.644 139.008 408.687 139.083 408.708 139.168C408.772 139.424 408.906 139.68 409.108 139.936C409.311 140.181 409.599 140.389 409.972 140.56C410.356 140.72 410.847 140.8 411.444 140.8C412.362 140.8 413.034 140.64 413.46 140.32C413.898 139.989 414.116 139.552 414.116 139.008C414.116 138.635 413.999 138.336 413.764 138.112C413.54 137.877 413.194 137.669 412.724 137.488C412.255 137.307 411.647 137.109 410.9 136.896C410.122 136.672 409.476 136.427 408.964 136.16C408.452 135.893 408.068 135.563 407.812 135.168C407.567 134.773 407.444 134.272 407.444 133.664C407.444 132.885 407.732 132.219 408.308 131.664C408.884 131.099 409.7 130.768 410.756 130.672V129.568C410.756 129.461 410.788 129.376 410.852 129.312C410.916 129.237 411.007 129.2 411.124 129.2H411.732C411.839 129.2 411.924 129.237 411.988 129.312C412.063 129.376 412.1 129.461 412.1 129.568V130.688C412.815 130.773 413.412 130.971 413.892 131.28C414.372 131.589 414.735 131.947 414.98 132.352C415.226 132.757 415.354 133.152 415.364 133.536C415.364 133.611 415.338 133.685 415.284 133.76C415.231 133.824 415.146 133.856 415.028 133.856H414.18C414.106 133.856 414.026 133.835 413.94 133.792C413.866 133.749 413.807 133.669 413.764 133.552C413.7 133.115 413.455 132.747 413.028 132.448C412.602 132.149 412.047 132 411.364 132C410.671 132 410.106 132.133 409.668 132.4C409.242 132.667 409.028 133.083 409.028 133.648C409.028 134.011 409.13 134.315 409.332 134.56C409.535 134.795 409.855 135.003 410.292 135.184C410.73 135.365 411.3 135.557 412.004 135.76C412.858 135.995 413.556 136.245 414.1 136.512C414.644 136.768 415.044 137.093 415.3 137.488C415.567 137.872 415.7 138.368 415.7 138.976C415.7 139.584 415.551 140.112 415.252 140.56C414.964 141.008 414.548 141.365 414.004 141.632C413.471 141.899 412.836 142.064 412.1 142.128V143.232C412.1 143.339 412.063 143.424 411.988 143.488C411.924 143.563 411.839 143.6 411.732 143.6H411.124ZM420.791 142C420.684 142 420.594 141.968 420.519 141.904C420.455 141.829 420.423 141.739 420.423 141.632V132.672L417.767 134.72C417.682 134.784 417.591 134.811 417.495 134.8C417.399 134.789 417.319 134.741 417.255 134.656L416.839 134.128C416.775 134.032 416.748 133.936 416.759 133.84C416.78 133.744 416.834 133.664 416.919 133.6L420.407 130.912C420.482 130.859 420.551 130.827 420.615 130.816C420.679 130.805 420.748 130.8 420.823 130.8H421.639C421.746 130.8 421.831 130.837 421.895 130.912C421.959 130.976 421.991 131.061 421.991 131.168V141.632C421.991 141.739 421.959 141.829 421.895 141.904C421.831 141.968 421.746 142 421.639 142H420.791ZM424.291 143.2C424.205 143.2 424.136 143.168 424.083 143.104C424.04 143.04 424.024 142.96 424.035 142.864L424.403 140.576C424.424 140.448 424.467 140.341 424.531 140.256C424.605 140.16 424.712 140.112 424.851 140.112H425.923C425.997 140.112 426.056 140.139 426.099 140.192C426.152 140.245 426.179 140.309 426.179 140.384C426.179 140.469 426.157 140.555 426.115 140.64L425.283 142.832C425.24 142.939 425.181 143.024 425.107 143.088C425.043 143.163 424.947 143.2 424.819 143.2H424.291ZM433.385 142C433.278 142 433.187 141.968 433.113 141.904C433.049 141.829 433.017 141.739 433.017 141.632V139.328H427.833C427.726 139.328 427.635 139.296 427.561 139.232C427.497 139.157 427.465 139.067 427.465 138.96V138.32C427.465 138.277 427.475 138.213 427.497 138.128C427.529 138.032 427.577 137.936 427.641 137.84L432.441 131.072C432.569 130.891 432.766 130.8 433.033 130.8H434.185C434.291 130.8 434.377 130.837 434.441 130.912C434.515 130.976 434.553 131.061 434.553 131.168V137.936H435.993C436.11 137.936 436.201 137.973 436.265 138.048C436.339 138.112 436.377 138.197 436.377 138.304V138.96C436.377 139.067 436.339 139.157 436.265 139.232C436.201 139.296 436.115 139.328 436.009 139.328H434.553V141.632C434.553 141.739 434.515 141.829 434.441 141.904C434.377 141.968 434.291 142 434.185 142H433.385ZM429.177 137.968H433.033V132.48L429.177 137.968ZM441.578 142.16C440.736 142.16 440.021 142.016 439.434 141.728C438.858 141.429 438.416 141.045 438.106 140.576C437.808 140.107 437.648 139.611 437.626 139.088C437.616 138.992 437.642 138.917 437.706 138.864C437.77 138.811 437.85 138.784 437.946 138.784H438.81C438.906 138.784 438.992 138.805 439.066 138.848C439.141 138.891 439.2 138.981 439.242 139.12C439.349 139.515 439.52 139.84 439.754 140.096C440 140.341 440.277 140.523 440.586 140.64C440.906 140.747 441.237 140.8 441.578 140.8C442.037 140.8 442.453 140.709 442.826 140.528C443.21 140.336 443.514 140.059 443.738 139.696C443.962 139.323 444.074 138.875 444.074 138.352C444.074 137.872 443.962 137.461 443.738 137.12C443.525 136.768 443.226 136.501 442.842 136.32C442.469 136.128 442.048 136.032 441.578 136.032C441.226 136.032 440.938 136.075 440.714 136.16C440.49 136.245 440.298 136.347 440.138 136.464C439.989 136.581 439.85 136.683 439.722 136.768C439.605 136.853 439.472 136.896 439.322 136.896H438.49C438.394 136.896 438.309 136.864 438.234 136.8C438.16 136.725 438.128 136.64 438.138 136.544L438.65 131.2C438.661 131.072 438.698 130.976 438.762 130.912C438.837 130.837 438.933 130.8 439.05 130.8H444.634C444.741 130.8 444.826 130.837 444.89 130.912C444.965 130.976 445.002 131.061 445.002 131.168V131.792C445.002 131.909 444.965 132 444.89 132.064C444.826 132.128 444.741 132.16 444.634 132.16H440.026L439.722 135.312C439.872 135.216 440.112 135.104 440.442 134.976C440.773 134.837 441.226 134.768 441.802 134.768C442.325 134.768 442.816 134.848 443.274 135.008C443.744 135.168 444.16 135.403 444.522 135.712C444.885 136.021 445.168 136.4 445.37 136.848C445.573 137.285 445.674 137.792 445.674 138.368C445.674 139.179 445.493 139.867 445.13 140.432C444.778 140.997 444.293 141.429 443.674 141.728C443.066 142.016 442.368 142.16 441.578 142.16ZM447.558 142C447.452 142 447.361 141.968 447.286 141.904C447.222 141.829 447.19 141.739 447.19 141.632V141.12C447.19 141.024 447.217 140.917 447.27 140.8C447.324 140.683 447.43 140.555 447.59 140.416L450.982 137.024C451.526 136.565 451.953 136.176 452.262 135.856C452.582 135.525 452.806 135.211 452.934 134.912C453.073 134.613 453.142 134.304 453.142 133.984C453.142 133.376 452.972 132.896 452.63 132.544C452.289 132.181 451.782 132 451.11 132C450.684 132 450.316 132.091 450.006 132.272C449.697 132.443 449.452 132.683 449.27 132.992C449.1 133.291 448.988 133.632 448.934 134.016C448.913 134.155 448.854 134.251 448.758 134.304C448.673 134.357 448.593 134.384 448.518 134.384H447.686C447.59 134.384 447.51 134.357 447.446 134.304C447.382 134.24 447.35 134.165 447.35 134.08C447.361 133.675 447.446 133.269 447.606 132.864C447.766 132.448 448.001 132.075 448.31 131.744C448.63 131.413 449.02 131.147 449.478 130.944C449.948 130.731 450.492 130.624 451.11 130.624C451.953 130.624 452.641 130.779 453.174 131.088C453.718 131.387 454.118 131.787 454.374 132.288C454.63 132.789 454.758 133.339 454.758 133.936C454.758 134.405 454.678 134.837 454.518 135.232C454.358 135.616 454.124 135.995 453.814 136.368C453.516 136.731 453.142 137.104 452.694 137.488L449.622 140.608H454.614C454.732 140.608 454.822 140.64 454.886 140.704C454.961 140.768 454.998 140.859 454.998 140.976V141.632C454.998 141.739 454.961 141.829 454.886 141.904C454.822 141.968 454.732 142 454.614 142H447.558ZM456.869 143.2C456.784 143.2 456.714 143.168 456.661 143.104C456.618 143.04 456.602 142.96 456.613 142.864L456.981 140.576C457.002 140.448 457.045 140.341 457.109 140.256C457.184 140.16 457.29 140.112 457.429 140.112H458.501C458.576 140.112 458.634 140.139 458.677 140.192C458.73 140.245 458.757 140.309 458.757 140.384C458.757 140.469 458.736 140.555 458.693 140.64L457.861 142.832C457.818 142.939 457.76 143.024 457.685 143.088C457.621 143.163 457.525 143.2 457.397 143.2H456.869ZM462.151 142C462.055 142 461.975 141.968 461.911 141.904C461.857 141.829 461.831 141.744 461.831 141.648C461.831 141.595 461.836 141.552 461.847 141.52C461.868 141.488 461.884 141.461 461.895 141.44L464.343 138.032C464.076 138.096 463.788 138.128 463.479 138.128C462.881 138.117 462.348 138.011 461.879 137.808C461.409 137.605 461.009 137.333 460.679 136.992C460.348 136.64 460.097 136.245 459.927 135.808C459.756 135.371 459.671 134.912 459.671 134.432C459.671 133.963 459.751 133.504 459.911 133.056C460.081 132.608 460.332 132.203 460.663 131.84C461.004 131.477 461.425 131.189 461.927 130.976C462.428 130.752 463.02 130.64 463.703 130.64C464.375 130.64 464.961 130.747 465.463 130.96C465.975 131.163 466.401 131.445 466.743 131.808C467.095 132.16 467.351 132.56 467.51 133.008C467.681 133.456 467.767 133.92 467.767 134.4C467.767 134.837 467.703 135.237 467.575 135.6C467.447 135.963 467.292 136.288 467.111 136.576C466.94 136.864 466.769 137.131 466.599 137.376L463.527 141.68C463.484 141.733 463.425 141.803 463.351 141.888C463.276 141.963 463.164 142 463.015 142H462.151ZM463.703 136.832C464.151 136.832 464.561 136.736 464.935 136.544C465.319 136.341 465.623 136.064 465.847 135.712C466.071 135.349 466.183 134.917 466.183 134.416C466.183 133.915 466.071 133.488 465.847 133.136C465.623 132.773 465.319 132.496 464.935 132.304C464.561 132.101 464.151 132 463.703 132C463.265 132 462.86 132.101 462.487 132.304C462.113 132.496 461.815 132.773 461.591 133.136C461.367 133.488 461.255 133.915 461.255 134.416C461.255 134.917 461.367 135.349 461.591 135.712C461.815 136.064 462.113 136.341 462.487 136.544C462.86 136.736 463.265 136.832 463.703 136.832ZM473.081 142.16C472.409 142.16 471.822 142.08 471.321 141.92C470.819 141.749 470.398 141.525 470.057 141.248C469.715 140.971 469.454 140.667 469.273 140.336C469.102 140.005 469.011 139.664 469.001 139.312C469.001 139.216 469.033 139.141 469.097 139.088C469.161 139.035 469.241 139.008 469.337 139.008H470.121C470.217 139.008 470.302 139.029 470.377 139.072C470.451 139.115 470.515 139.205 470.569 139.344C470.675 139.728 470.857 140.027 471.113 140.24C471.379 140.453 471.683 140.603 472.025 140.688C472.377 140.763 472.729 140.8 473.081 140.8C473.817 140.8 474.414 140.624 474.873 140.272C475.331 139.92 475.561 139.403 475.561 138.72C475.561 138.027 475.353 137.531 474.937 137.232C474.521 136.933 473.945 136.784 473.209 136.784H471.689C471.582 136.784 471.491 136.752 471.417 136.688C471.353 136.624 471.321 136.533 471.321 136.416V135.984C471.321 135.888 471.337 135.808 471.369 135.744C471.411 135.669 471.454 135.605 471.497 135.552L474.601 132.16H469.881C469.774 132.16 469.683 132.128 469.609 132.064C469.545 132 469.513 131.909 469.513 131.792V131.184C469.513 131.067 469.545 130.976 469.609 130.912C469.683 130.837 469.774 130.8 469.881 130.8H476.265C476.382 130.8 476.473 130.837 476.536 130.912C476.611 130.976 476.649 131.067 476.649 131.184V131.76C476.649 131.835 476.627 131.904 476.585 131.968C476.553 132.021 476.515 132.075 476.473 132.128L473.385 135.568L473.641 135.584C474.345 135.605 474.958 135.733 475.481 135.968C476.014 136.203 476.425 136.555 476.713 137.024C477.011 137.483 477.161 138.064 477.161 138.768C477.161 139.483 476.985 140.096 476.633 140.608C476.281 141.109 475.795 141.493 475.177 141.76C474.558 142.027 473.859 142.16 473.081 142.16ZM480.306 142C480.21 142 480.13 141.968 480.066 141.904C480.013 141.829 479.986 141.744 479.986 141.648C479.986 141.616 479.997 141.568 480.018 141.504L484.002 132.192H478.754C478.647 132.192 478.557 132.16 478.482 132.096C478.418 132.021 478.386 131.931 478.386 131.824V131.184C478.386 131.067 478.418 130.976 478.482 130.912C478.557 130.837 478.647 130.8 478.754 130.8H485.314C485.431 130.8 485.522 130.837 485.586 130.912C485.661 130.976 485.698 131.067 485.698 131.184V131.776C485.698 131.915 485.687 132.027 485.666 132.112C485.645 132.197 485.613 132.293 485.57 132.4L481.618 141.6C481.586 141.685 481.533 141.776 481.458 141.872C481.394 141.957 481.298 142 481.17 142H480.306ZM486.518 142C486.411 142 486.321 141.968 486.246 141.904C486.182 141.829 486.15 141.739 486.15 141.632V140.48C486.15 140.373 486.182 140.288 486.246 140.224C486.321 140.149 486.411 140.112 486.518 140.112H487.67C487.777 140.112 487.862 140.149 487.926 140.224C488.001 140.288 488.038 140.373 488.038 140.48V141.632C488.038 141.739 488.001 141.829 487.926 141.904C487.862 141.968 487.777 142 487.67 142H486.518ZM490.261 142C490.155 142 490.064 141.968 489.989 141.904C489.925 141.829 489.893 141.739 489.893 141.632V141.12C489.893 141.024 489.92 140.917 489.973 140.8C490.027 140.683 490.133 140.555 490.293 140.416L493.685 137.024C494.229 136.565 494.656 136.176 494.965 135.856C495.285 135.525 495.509 135.211 495.637 134.912C495.776 134.613 495.845 134.304 495.845 133.984C495.845 133.376 495.675 132.896 495.333 132.544C494.992 132.181 494.485 132 493.813 132C493.387 132 493.019 132.091 492.709 132.272C492.4 132.443 492.155 132.683 491.973 132.992C491.803 133.291 491.691 133.632 491.637 134.016C491.616 134.155 491.557 134.251 491.461 134.304C491.376 134.357 491.296 134.384 491.221 134.384H490.389C490.293 134.384 490.213 134.357 490.149 134.304C490.085 134.24 490.053 134.165 490.053 134.08C490.064 133.675 490.149 133.269 490.309 132.864C490.469 132.448 490.704 132.075 491.013 131.744C491.333 131.413 491.723 131.147 492.181 130.944C492.651 130.731 493.195 130.624 493.813 130.624C494.656 130.624 495.344 130.779 495.877 131.088C496.421 131.387 496.821 131.787 497.077 132.288C497.333 132.789 497.461 133.339 497.461 133.936C497.461 134.405 497.381 134.837 497.221 135.232C497.061 135.616 496.827 135.995 496.517 136.368C496.219 136.731 495.845 137.104 495.397 137.488L492.325 140.608H497.317C497.435 140.608 497.525 140.64 497.589 140.704C497.664 140.768 497.701 140.859 497.701 140.976V141.632C497.701 141.739 497.664 141.829 497.589 141.904C497.525 141.968 497.435 142 497.317 142H490.261ZM503.172 142.16C502.329 142.16 501.615 142.016 501.028 141.728C500.452 141.429 500.009 141.045 499.7 140.576C499.401 140.107 499.241 139.611 499.22 139.088C499.209 138.992 499.236 138.917 499.3 138.864C499.364 138.811 499.444 138.784 499.54 138.784H500.404C500.5 138.784 500.585 138.805 500.66 138.848C500.735 138.891 500.793 138.981 500.836 139.12C500.943 139.515 501.113 139.84 501.348 140.096C501.593 140.341 501.871 140.523 502.18 140.64C502.5 140.747 502.831 140.8 503.172 140.8C503.631 140.8 504.047 140.709 504.42 140.528C504.804 140.336 505.108 140.059 505.332 139.696C505.556 139.323 505.668 138.875 505.668 138.352C505.668 137.872 505.556 137.461 505.332 137.12C505.119 136.768 504.82 136.501 504.436 136.32C504.063 136.128 503.641 136.032 503.172 136.032C502.82 136.032 502.532 136.075 502.308 136.16C502.084 136.245 501.892 136.347 501.732 136.464C501.583 136.581 501.444 136.683 501.316 136.768C501.199 136.853 501.065 136.896 500.916 136.896H500.084C499.988 136.896 499.903 136.864 499.828 136.8C499.753 136.725 499.721 136.64 499.732 136.544L500.244 131.2C500.255 131.072 500.292 130.976 500.356 130.912C500.431 130.837 500.527 130.8 500.644 130.8H506.228C506.335 130.8 506.42 130.837 506.484 130.912C506.559 130.976 506.596 131.061 506.596 131.168V131.792C506.596 131.909 506.559 132 506.484 132.064C506.42 132.128 506.335 132.16 506.228 132.16H501.62L501.316 135.312C501.465 135.216 501.705 135.104 502.036 134.976C502.367 134.837 502.82 134.768 503.396 134.768C503.919 134.768 504.409 134.848 504.868 135.008C505.337 135.168 505.753 135.403 506.116 135.712C506.479 136.021 506.761 136.4 506.964 136.848C507.167 137.285 507.268 137.792 507.268 138.368C507.268 139.179 507.087 139.867 506.724 140.432C506.372 140.997 505.887 141.429 505.268 141.728C504.66 142.016 503.961 142.16 503.172 142.16Z" fill="#1B1B1B"/>
<path d="M465.994 113L465.994 123C465.994 123.265 465.888 123.519 465.701 123.707C465.513 123.895 465.259 124 464.994 124C464.728 124 464.474 123.895 464.287 123.707C464.099 123.519 463.994 123.265 463.994 123L463.994 113C463.994 112.735 464.099 112.48 464.287 112.293C464.474 112.105 464.728 112 464.994 112C465.259 112 465.513 112.105 465.701 112.293C465.888 112.48 465.994 112.735 465.994 113Z" fill="#33C344"/>
<path d="M470.993 118C470.993 118.198 470.935 118.391 470.825 118.555C470.715 118.72 470.559 118.848 470.376 118.924C470.193 118.999 469.992 119.019 469.798 118.98C469.605 118.942 469.426 118.847 469.286 118.707L464.993 114.414L460.7 118.707C460.512 118.892 460.259 118.995 459.995 118.993C459.732 118.992 459.479 118.887 459.293 118.7C459.106 118.514 459.001 118.262 459 117.998C458.999 117.734 459.102 117.481 459.286 117.293L464.286 112.293C464.379 112.2 464.49 112.126 464.611 112.076C464.732 112.026 464.862 112 464.994 112C465.125 112 465.255 112.026 465.376 112.076C465.497 112.126 465.608 112.2 465.701 112.293L470.701 117.293C470.794 117.386 470.867 117.496 470.918 117.617C470.968 117.738 470.994 117.869 470.993 118Z" fill="#33C344"/>
</g>
<rect x="65.8115" y="91.9368" width="284.224" height="99.7141" rx="10" fill="white"/>
<rect x="81.5146" y="107.64" width="32.1912" height="3.92575" rx="1.96288" fill="#B3BAC5"/>
<path opacity="0.1" d="M313.134 109.281C313.134 108.544 313.731 107.947 314.468 107.947H337.15C337.887 107.947 338.484 108.544 338.484 109.281V110.615C338.484 111.352 337.887 111.949 337.15 111.949H314.468C313.731 111.949 313.134 111.352 313.134 110.615V109.281Z" fill="#5A7184"/>
<path fill-rule="evenodd" clip-rule="evenodd" d="M95.9702 128.779H94.626V128.112H95.9702V128.779ZM101.348 128.779H98.6592V128.112H101.348V128.779ZM106.725 128.779H104.037V128.112H106.725V128.779ZM112.102 128.779H109.414V128.112H112.102V128.779ZM117.48 128.779H114.792V128.112H117.48V128.779ZM122.857 128.779H120.169V128.112H122.857V128.779ZM128.235 128.779H125.546V128.112H128.235V128.779ZM133.612 128.779H130.924V128.112H133.612V128.779ZM138.99 128.779H136.301V128.112H138.99V128.779ZM144.367 128.779H141.679V128.112H144.367V128.779ZM149.745 128.779H147.056V128.112H149.745V128.779ZM155.122 128.779H152.434V128.112H155.122V128.779ZM160.499 128.779H157.811V128.112H160.499V128.779ZM165.877 128.779H163.188V128.112H165.877V128.779ZM171.254 128.779H168.566V128.112H171.254V128.779ZM176.632 128.779H173.943V128.112H176.632V128.779ZM182.009 128.779H179.321V128.112H182.009V128.779ZM187.387 128.779H184.698V128.112H187.387V128.779ZM192.764 128.779H190.076V128.112H192.764V128.779ZM198.141 128.779H195.453V128.112H198.141V128.779ZM203.519 128.779H200.831V128.112H203.519V128.779ZM208.896 128.779H206.208V128.112H208.896V128.779ZM214.274 128.779H211.585V128.112H214.274V128.779ZM219.651 128.779H216.963V128.112H219.651V128.779ZM225.029 128.779H222.34V128.112H225.029V128.779ZM230.406 128.779H227.718V128.112H230.406V128.779ZM235.784 128.779H233.095V128.112H235.784V128.779ZM241.161 128.779H238.473V128.112H241.161V128.779ZM246.538 128.779H243.85V128.112H246.538V128.779ZM251.916 128.779H249.227V128.112H251.916V128.779ZM257.293 128.779H254.605V128.112H257.293V128.779ZM262.671 128.779H259.982V128.112H262.671V128.779ZM268.048 128.779H265.36V128.112H268.048V128.779ZM273.426 128.779H270.737V128.112H273.426V128.779ZM278.803 128.779H276.115V128.112H278.803V128.779ZM284.181 128.779H281.492V128.112H284.181V128.779ZM289.559 128.779H286.87V128.112H289.559V128.779ZM294.936 128.779H292.247V128.112H294.936V128.779ZM300.313 128.779H297.624V128.112H300.313V128.779ZM305.691 128.779H303.002V128.112H305.691V128.779ZM311.068 128.779H308.379V128.112H311.068V128.779ZM315.101 128.779H313.757V128.112H315.101V128.779Z" fill="#EEF0F2"/>
<path fill-rule="evenodd" clip-rule="evenodd" d="M95.9702 155.462H94.626V154.795H95.9702V155.462ZM101.348 155.462H98.6592V154.795H101.348V155.462ZM106.725 155.462H104.037V154.795H106.725V155.462ZM112.102 155.462H109.414V154.795H112.102V155.462ZM117.48 155.462H114.792V154.795H117.48V155.462ZM122.857 155.462H120.169V154.795H122.857V155.462ZM128.235 155.462H125.546V154.795H128.235V155.462ZM133.612 155.462H130.924V154.795H133.612V155.462ZM138.99 155.462H136.301V154.795H138.99V155.462ZM144.367 155.462H141.679V154.795H144.367V155.462ZM149.745 155.462H147.056V154.795H149.745V155.462ZM155.122 155.462H152.434V154.795H155.122V155.462ZM160.499 155.462H157.811V154.795H160.499V155.462ZM165.877 155.462H163.188V154.795H165.877V155.462ZM171.254 155.462H168.566V154.795H171.254V155.462ZM176.632 155.462H173.943V154.795H176.632V155.462ZM182.009 155.462H179.321V154.795H182.009V155.462ZM187.387 155.462H184.698V154.795H187.387V155.462ZM192.764 155.462H190.076V154.795H192.764V155.462ZM198.141 155.462H195.453V154.795H198.141V155.462ZM203.519 155.462H200.831V154.795H203.519V155.462ZM208.896 155.462H206.208V154.795H208.896V155.462ZM214.274 155.462H211.585V154.795H214.274V155.462ZM219.651 155.462H216.963V154.795H219.651V155.462ZM225.029 155.462H222.34V154.795H225.029V155.462ZM230.406 155.462H227.718V154.795H230.406V155.462ZM235.784 155.462H233.095V154.795H235.784V155.462ZM241.161 155.462H238.473V154.795H241.161V155.462ZM246.538 155.462H243.85V154.795H246.538V155.462ZM251.916 155.462H249.227V154.795H251.916V155.462ZM257.293 155.462H254.605V154.795H257.293V155.462ZM262.671 155.462H259.982V154.795H262.671V155.462ZM268.048 155.462H265.36V154.795H268.048V155.462ZM273.426 155.462H270.737V154.795H273.426V155.462ZM278.803 155.462H276.115V154.795H278.803V155.462ZM284.181 155.462H281.492V154.795H284.181V155.462ZM289.559 155.462H286.87V154.795H289.559V155.462ZM294.936 155.462H292.247V154.795H294.936V155.462ZM300.313 155.462H297.624V154.795H300.313V155.462ZM305.691 155.462H303.002V154.795H305.691V155.462ZM311.068 155.462H308.379V154.795H311.068V155.462ZM315.101 155.462H313.757V154.795H315.101V155.462Z" fill="#EEF0F2"/>
<path fill-rule="evenodd" clip-rule="evenodd" d="M95.9702 182.145H94.626V181.478H95.9702V182.145ZM101.348 182.145H98.6592V181.478H101.348V182.145ZM106.725 182.145H104.037V181.478H106.725V182.145ZM112.102 182.145H109.414V181.478H112.102V182.145ZM117.48 182.145H114.792V181.478H117.48V182.145ZM122.857 182.145H120.169V181.478H122.857V182.145ZM128.235 182.145H125.546V181.478H128.235V182.145ZM133.612 182.145H130.924V181.478H133.612V182.145ZM138.99 182.145H136.301V181.478H138.99V182.145ZM144.367 182.145H141.679V181.478H144.367V182.145ZM149.745 182.145H147.056V181.478H149.745V182.145ZM155.122 182.145H152.434V181.478H155.122V182.145ZM160.499 182.145H157.811V181.478H160.499V182.145ZM165.877 182.145H163.188V181.478H165.877V182.145ZM171.254 182.145H168.566V181.478H171.254V182.145ZM176.632 182.145H173.943V181.478H176.632V182.145ZM182.009 182.145H179.321V181.478H182.009V182.145ZM187.387 182.145H184.698V181.478H187.387V182.145ZM192.764 182.145H190.076V181.478H192.764V182.145ZM198.141 182.145H195.453V181.478H198.141V182.145ZM203.519 182.145H200.831V181.478H203.519V182.145ZM208.896 182.145H206.208V181.478H208.896V182.145ZM214.274 182.145H211.585V181.478H214.274V182.145ZM219.651 182.145H216.963V181.478H219.651V182.145ZM225.029 182.145H222.34V181.478H225.029V182.145ZM230.406 182.145H227.718V181.478H230.406V182.145ZM235.784 182.145H233.095V181.478H235.784V182.145ZM241.161 182.145H238.473V181.478H241.161V182.145ZM246.538 182.145H243.85V181.478H246.538V182.145ZM251.916 182.145H249.227V181.478H251.916V182.145ZM257.293 182.145H254.605V181.478H257.293V182.145ZM262.671 182.145H259.982V181.478H262.671V182.145ZM268.048 182.145H265.36V181.478H268.048V182.145ZM273.426 182.145H270.737V181.478H273.426V182.145ZM278.803 182.145H276.115V181.478H278.803V182.145ZM284.181 182.145H281.492V181.478H284.181V182.145ZM289.559 182.145H286.87V181.478H289.559V182.145ZM294.936 182.145H292.247V181.478H294.936V182.145ZM300.313 182.145H297.624V181.478H300.313V182.145ZM305.691 182.145H303.002V181.478H305.691V182.145ZM311.068 182.145H308.379V181.478H311.068V182.145ZM315.101 182.145H313.757V181.478H315.101V182.145Z" fill="#EEF0F2"/>
<path fill-rule="evenodd" clip-rule="evenodd" d="M173.972 126.628L197.8 137.521L229.706 145.414L261.235 137.278L284.055 165.802H300.949L315.257 154.096C315.827 153.63 316.667 153.714 317.134 154.284C317.6 154.855 317.516 155.695 316.946 156.161L301.901 168.47H282.772L260.23 140.293L229.719 148.166L196.917 140.051L174.048 129.596L142.538 146.008L115.804 156.239L95.6875 182.621C95.2405 183.207 94.4033 183.319 93.817 182.873C93.2313 182.426 93.1185 181.589 93.5655 181.003L114.141 154.018L141.441 143.57L173.972 126.628Z" fill="#D8D8D8"/>
<path fill-rule="evenodd" clip-rule="evenodd" d="M116.64 158.798C119.587 158.798 121.977 156.408 121.977 153.461C121.977 150.514 119.587 148.125 116.64 148.125C113.693 148.125 111.303 150.514 111.303 153.461C111.303 156.408 113.693 158.798 116.64 158.798Z" fill="#D8D8D8"/>
<path fill-rule="evenodd" clip-rule="evenodd" d="M116.64 157.464C118.851 157.464 120.643 155.672 120.643 153.461C120.643 151.25 118.851 149.459 116.64 149.459C114.429 149.459 112.637 151.25 112.637 153.461C112.637 155.672 114.429 157.464 116.64 157.464ZM121.977 153.461C121.977 156.408 119.587 158.798 116.64 158.798C113.693 158.798 111.303 156.408 111.303 153.461C111.303 150.514 113.693 148.125 116.64 148.125C119.587 148.125 121.977 150.514 121.977 153.461Z" fill="white"/>
<path fill-rule="evenodd" clip-rule="evenodd" d="M174.678 133.449C177.625 133.449 180.015 131.059 180.015 128.112C180.015 125.165 177.625 122.775 174.678 122.775C171.731 122.775 169.341 125.165 169.341 128.112C169.341 131.059 171.731 133.449 174.678 133.449Z" fill="#D8D8D8"/>
<path fill-rule="evenodd" clip-rule="evenodd" d="M174.678 132.114C176.889 132.114 178.681 130.323 178.681 128.112C178.681 125.901 176.889 124.11 174.678 124.11C172.467 124.11 170.675 125.901 170.675 128.112C170.675 130.323 172.467 132.114 174.678 132.114ZM180.015 128.112C180.015 131.059 177.625 133.449 174.678 133.449C171.731 133.449 169.341 131.059 169.341 128.112C169.341 125.165 171.731 122.775 174.678 122.775C177.625 122.775 180.015 125.165 180.015 128.112Z" fill="white"/>
<path fill-rule="evenodd" clip-rule="evenodd" d="M229.38 151.46C232.327 151.46 234.716 149.07 234.716 146.123C234.716 143.176 232.327 140.786 229.38 140.786C226.432 140.786 224.043 143.176 224.043 146.123C224.043 149.07 226.432 151.46 229.38 151.46Z" fill="#D8D8D8"/>
<path fill-rule="evenodd" clip-rule="evenodd" d="M229.38 150.125C231.59 150.125 233.382 148.334 233.382 146.123C233.382 143.912 231.59 142.121 229.38 142.121C227.169 142.121 225.377 143.912 225.377 146.123C225.377 148.334 227.169 150.125 229.38 150.125ZM234.716 146.123C234.716 149.07 232.327 151.46 229.38 151.46C226.432 151.46 224.043 149.07 224.043 146.123C224.043 143.176 226.432 140.786 229.38 140.786C232.327 140.786 234.716 143.176 234.716 146.123Z" fill="white"/>
<path fill-rule="evenodd" clip-rule="evenodd" d="M260.066 144.122C263.013 144.122 265.403 141.732 265.403 138.785C265.403 135.838 263.013 133.448 260.066 133.448C257.119 133.448 254.729 135.838 254.729 138.785C254.729 141.732 257.119 144.122 260.066 144.122Z" fill="#D8D8D8"/>
<path fill-rule="evenodd" clip-rule="evenodd" d="M260.066 142.788C262.277 142.788 264.069 140.996 264.069 138.785C264.069 136.574 262.277 134.783 260.066 134.783C257.855 134.783 256.064 136.574 256.064 138.785C256.064 140.996 257.855 142.788 260.066 142.788ZM265.403 138.785C265.403 141.732 263.013 144.122 260.066 144.122C257.119 144.122 254.729 141.732 254.729 138.785C254.729 135.838 257.119 133.448 260.066 133.448C263.013 133.448 265.403 135.838 265.403 138.785Z" fill="white"/>
<path fill-rule="evenodd" clip-rule="evenodd" d="M284.081 172.139C287.028 172.139 289.418 169.75 289.418 166.803C289.418 163.855 287.028 161.466 284.081 161.466C281.134 161.466 278.744 163.855 278.744 166.803C278.744 169.75 281.134 172.139 284.081 172.139Z" fill="#D8D8D8"/>
<path fill-rule="evenodd" clip-rule="evenodd" d="M284.081 170.805C286.292 170.805 288.083 169.013 288.083 166.803C288.083 164.592 286.292 162.8 284.081 162.8C281.87 162.8 280.078 164.592 280.078 166.803C280.078 169.013 281.87 170.805 284.081 170.805ZM289.418 166.803C289.418 169.75 287.028 172.139 284.081 172.139C281.134 172.139 278.744 169.75 278.744 166.803C278.744 163.855 281.134 161.466 284.081 161.466C287.028 161.466 289.418 163.855 289.418 166.803Z" fill="white"/>
<path fill-rule="evenodd" clip-rule="evenodd" d="M301.425 172.139C304.372 172.139 306.761 169.75 306.761 166.803C306.761 163.855 304.372 161.466 301.425 161.466C298.477 161.466 296.088 163.855 296.088 166.803C296.088 169.75 298.477 172.139 301.425 172.139Z" fill="#D8D8D8"/>
<path fill-rule="evenodd" clip-rule="evenodd" d="M301.425 170.805C303.635 170.805 305.427 169.013 305.427 166.803C305.427 164.592 303.635 162.8 301.425 162.8C299.214 162.8 297.422 164.592 297.422 166.803C297.422 169.013 299.214 170.805 301.425 170.805ZM306.761 166.803C306.761 169.75 304.372 172.139 301.425 172.139C298.477 172.139 296.088 169.75 296.088 166.803C296.088 163.855 298.477 161.466 301.425 161.466C304.372 161.466 306.761 163.855 306.761 166.803Z" fill="white"/>
<path fill-rule="evenodd" clip-rule="evenodd" d="M317.436 158.798C320.383 158.798 322.773 156.408 322.773 153.461C322.773 150.514 320.383 148.125 317.436 148.125C314.489 148.125 312.099 150.514 312.099 153.461C312.099 156.408 314.489 158.798 317.436 158.798Z" fill="#D8D8D8"/>
<path fill-rule="evenodd" clip-rule="evenodd" d="M317.436 157.464C319.647 157.464 321.438 155.672 321.438 153.461C321.438 151.25 319.647 149.459 317.436 149.459C315.225 149.459 313.433 151.25 313.433 153.461C313.433 155.672 315.225 157.464 317.436 157.464ZM322.773 153.461C322.773 156.408 320.383 158.798 317.436 158.798C314.489 158.798 312.099 156.408 312.099 153.461C312.099 150.514 314.489 148.125 317.436 148.125C320.383 148.125 322.773 150.514 322.773 153.461Z" fill="white"/>
<path d="M3 14.7678C3 8.82089 6.63007 4 11.108 4H503.669C508.147 4 511.777 8.82089 511.777 14.7678V41.6872H3V14.7678Z" fill="white"/>
<g filter="url(#filter3_d_786_6444)">
<path d="M3 13.9391C3 8.44987 7.82089 4 13.7678 4H40.6872V426.411H13.7678C7.82089 426.411 3 421.961 3 416.472V13.9391Z" fill="white"/>
<path d="M26.2106 14.0457C22.6166 14.4535 15.0365 15.6484 13.7949 17.1655L27.2725 16.6761L26.2106 14.0457Z" fill="#FB505A"/>
<path d="M13.8448 26.4626L13.2959 17.9143C13.8702 19.6115 22.853 23.7379 27.2726 25.589L26.5125 27.0241L13.8448 26.4626Z" fill="#FB505A"/>
<path d="M12.4219 15.9176C12.4219 14.5392 13.5393 13.4218 14.9177 13.4218H24.0899C28.0529 13.4218 31.2655 16.6344 31.2655 20.5973C31.2655 24.5602 28.0529 27.7728 24.0899 27.7728H14.9177C13.5393 27.7728 12.4219 26.6554 12.4219 25.277V15.9176Z" fill="#FFC9CC"/>
<path d="M24.3395 31.6414V23.0932C24.3395 23.0932 24.3238 22.5582 24.1523 22.282C23.9595 21.9715 23.4036 21.7205 23.4036 21.7205L12.7963 16.2296C12.546 16.0804 12.484 16.0872 12.4219 15.8552V26.8993C12.5106 27.336 12.651 27.4976 12.9834 27.7105L22.53 32.6398C22.53 32.6398 23.154 32.9517 23.778 32.6398C24.3663 32.3456 24.3395 31.6414 24.3395 31.6414Z" fill="#FB505A"/>
<path d="M21.2826 22.1876C21.052 22.1073 20.938 22.1848 20.9082 22.4371V23.8099C20.9211 23.9469 20.9776 23.9914 21.0954 24.0594L22.5929 24.7458C22.8067 24.7998 22.8806 24.7792 22.9049 24.621V23.2483C22.8979 23.0977 22.8624 23.0267 22.7177 22.9363L21.2826 22.1876Z" fill="#FFC9CC"/>
<path d="M22.6548 28.6464C22.6548 28.6464 12.9834 23.6236 12.7963 23.53C12.6091 23.4364 12.4219 22.906 12.4219 22.906V23.9043V25.0899C12.4348 25.2269 12.4912 25.4586 12.6091 25.5266L22.53 30.7055C22.7439 30.7595 22.8177 30.7389 22.842 30.5807V28.9584C22.8351 28.8078 22.7996 28.7368 22.6548 28.6464Z" fill="#FFC9CC"/>
</g>
<defs>
<filter id="filter0_d_786_6444" x="18.8115" y="331.888" width="197.64" height="193.714" filterUnits="userSpaceOnUse" color-interpolation-filters="sRGB">
<feFlood flood-opacity="0" result="BackgroundImageFix"/>
<feColorMatrix in="SourceAlpha" type="matrix" values="0 0 0 0 0 0 0 0 0 0 0 0 0 0 0 0 0 0 127 0" result="hardAlpha"/>
<feOffset dy="20"/>
<feGaussianBlur stdDeviation="23.5"/>
<feComposite in2="hardAlpha" operator="out"/>
<feColorMatrix type="matrix" values="0 0 0 0 0 0 0 0 0 0 0 0 0 0 0 0 0 0 0.05 0"/>
<feBlend mode="normal" in2="BackgroundImageFix" result="effect1_dropShadow_786_6444"/>
<feBlend mode="normal" in="SourceGraphic" in2="effect1_dropShadow_786_6444" result="shape"/>
</filter>
<filter id="filter1_d_786_6444" x="369.591" y="245.396" width="127.971" height="131.178" filterUnits="userSpaceOnUse" color-interpolation-filters="sRGB">
<feFlood flood-opacity="0" result="BackgroundImageFix"/>
<feColorMatrix in="SourceAlpha" type="matrix" values="0 0 0 0 0 0 0 0 0 0 0 0 0 0 0 0 0 0 127 0" result="hardAlpha"/>
<feOffset dy="2"/>
<feGaussianBlur stdDeviation="2"/>
<feColorMatrix type="matrix" values="0 0 0 0 0 0 0 0 0 0 0 0 0 0 0 0 0 0 0.01 0"/>
<feBlend mode="normal" in2="BackgroundImageFix" result="effect1_dropShadow_786_6444"/>
<feBlend mode="normal" in="SourceGraphic" in2="effect1_dropShadow_786_6444" result="shape"/>
</filter>
<filter id="filter2_d_786_6444" x="328" y="41.9999" width="248" height="206" filterUnits="userSpaceOnUse" color-interpolation-filters="sRGB">
<feFlood flood-opacity="0" result="BackgroundImageFix"/>
<feColorMatrix in="SourceAlpha" type="matrix" values="0 0 0 0 0 0 0 0 0 0 0 0 0 0 0 0 0 0 127 0" result="hardAlpha"/>
<feOffset dy="17"/>
<feGaussianBlur stdDeviation="19.5"/>
<feColorMatrix type="matrix" values="0 0 0 0 0 0 0 0 0 0 0 0 0 0 0 0 0 0 0.08 0"/>
<feBlend mode="normal" in2="BackgroundImageFix" result="effect1_dropShadow_786_6444"/>
<feBlend mode="normal" in="SourceGraphic" in2="effect1_dropShadow_786_6444" result="shape"/>
</filter>
<filter id="filter3_d_786_6444" x="0" y="0" width="45.6875" height="430.411" filterUnits="userSpaceOnUse" color-interpolation-filters="sRGB">
<feFlood flood-opacity="0" result="BackgroundImageFix"/>
<feColorMatrix in="SourceAlpha" type="matrix" values="0 0 0 0 0 0 0 0 0 0 0 0 0 0 0 0 0 0 127 0" result="hardAlpha"/>
<feOffset dx="1"/>
<feGaussianBlur stdDeviation="2"/>
<feColorMatrix type="matrix" values="0 0 0 0 0.956012 0 0 0 0 0.956012 0 0 0 0 0.956012 0 0 0 1 0"/>
<feBlend mode="normal" in2="BackgroundImageFix" result="effect1_dropShadow_786_6444"/>
<feBlend mode="normal" in="SourceGraphic" in2="effect1_dropShadow_786_6444" result="shape"/>
</filter>
</defs>
</svg>
