<svg width="75" height="75" viewBox="0 0 75 75" fill="none" xmlns="http://www.w3.org/2000/svg">
<path d="M9.94259 33.228H8V42.2056H16.9154V40.3112H9.94259V33.228Z" fill="black"/>
<path d="M27.6449 33C23.8459 33 21.147 34.8721 21.147 37.6914C21.147 40.714 23.608 42.4284 27.6662 42.4284C31.8327 42.4284 34.1632 40.5339 34.1632 37.6914C34.1632 34.8746 31.4438 33 27.6449 33ZM27.6662 40.4886C24.795 40.4886 23.1765 39.4736 23.1765 37.6914C23.1765 36.0447 24.9681 34.9398 27.6449 34.9398C30.3429 34.9398 32.1346 36.0447 32.1346 37.6914C32.1346 39.4761 30.5152 40.4911 27.6662 40.4911V40.4886Z" fill="black"/>
<path d="M48.4447 37.6942C48.4447 39.4763 47.0845 40.4912 44.6457 40.4912C42.142 40.4912 40.7385 39.4763 40.7385 37.6942V33.228H38.7959V37.6942C38.7959 40.7167 40.9115 42.4311 44.6457 42.4311C48.315 42.4311 50.388 40.7167 50.388 37.6942V33.228H48.4455L48.4447 37.6942Z" fill="black"/>
<path d="M58.4372 33.228H56.4946V42.2056H58.4372L67.9998 39.0031V36.6123L58.4372 33.228ZM65.9703 37.8741L58.4372 40.0849V35.3479L65.9703 37.7387V37.8741Z" fill="black"/>
</svg>
