<svg width="75" height="75" viewBox="0 0 75 75" fill="none" xmlns="http://www.w3.org/2000/svg">
<path d="M42.4226 37.8472H41.2613L40.5889 35.2801C40.5889 35.219 40.5278 34.9745 40.4667 34.73C40.4056 34.4855 40.3445 34.2411 40.3445 34.1799C40.3445 34.3022 40.2833 34.4855 40.2222 34.73C40.1611 34.9745 40.1 35.1579 40.1 35.2801L39.4276 37.786H38.2664L37.0439 32.9575H38.0219L38.6331 35.5857C38.7553 36.0747 38.8164 36.5025 38.8776 36.8692C38.8776 36.747 38.9387 36.5636 38.9998 36.258C39.0609 35.9524 39.0609 35.7691 39.122 35.6468L39.7944 32.9575H40.7112L41.4446 35.6468C41.4446 35.7691 41.5057 35.9524 41.5669 36.1969C41.628 36.4414 41.628 36.6859 41.6891 36.8081C41.6891 36.6248 41.7502 36.4414 41.8114 36.1969C41.8725 35.9524 41.9336 35.7079 41.9336 35.5857L42.5448 32.9575H43.5227L42.4226 37.8472Z" fill="black"/>
<path d="M47.4953 35.9525C47.5565 36.4415 47.3731 36.9916 47.0064 37.3583C46.6396 37.725 46.2118 37.9084 45.6617 37.8473C45.3561 37.8473 44.9894 37.7862 44.7449 37.6028C44.5004 37.4194 44.2559 37.2361 44.1337 36.9305C44.0115 36.6249 43.8892 36.2582 43.9503 35.8914C43.8892 35.4025 44.0726 34.9135 44.4393 34.4857C44.806 34.1189 45.295 33.9356 45.784 33.9967C46.0896 33.9967 46.4563 34.0578 46.7008 34.2412C46.9452 34.3634 47.1897 34.6079 47.312 34.9135C47.4342 35.2802 47.4953 35.6469 47.4953 35.9525ZM44.9283 35.9525C44.9283 36.2582 44.9894 36.5026 45.1116 36.7471C45.2339 36.9305 45.4784 37.0527 45.7228 37.0527C45.9673 37.0527 46.2118 36.9916 46.334 36.7471C46.4563 36.5026 46.5174 36.197 46.5174 35.8914C46.5174 35.5858 46.4563 35.3413 46.334 35.0969C46.0896 34.7913 45.6006 34.7301 45.295 34.9746C45.2339 34.9746 45.2339 35.0357 45.1728 35.0969C44.9894 35.4025 44.9283 35.7081 44.9283 35.9525Z" fill="black"/>
<path d="M50.428 34.058C50.5503 34.058 50.6725 34.058 50.7947 34.058L50.7336 34.9748C50.6114 34.9748 50.5503 34.9748 50.428 34.9748C50.1835 34.9748 49.8779 35.0359 49.6946 35.2193C49.5112 35.4026 49.389 35.6471 49.4501 35.8916V37.7252H48.4722V34.058H49.2056L49.3279 34.6692H49.389C49.5112 34.4858 49.6335 34.3025 49.8779 34.1802C50.0002 34.1191 50.1835 34.058 50.428 34.058Z" fill="black"/>
<path d="M52.5077 37.8473H51.5298V32.7131H52.5077V37.8473Z" fill="black"/>
<path d="M54.8302 37.9084C54.4024 37.9084 54.0356 37.7251 53.7912 37.4195C53.5467 36.9916 53.4244 36.5026 53.4244 36.0137C53.3633 35.5247 53.5467 35.0358 53.7912 34.6079C54.0356 34.3023 54.4024 34.1189 54.8302 34.1189C55.2581 34.1189 55.6248 34.3023 55.8693 34.669C55.8081 34.4245 55.8081 34.1801 55.8081 33.9356V32.7743H56.8472V37.9084H56.1137L55.9304 37.4195H55.8693C55.6248 37.7251 55.2581 37.9084 54.8302 37.9084ZM55.1358 37.1139C55.3192 37.1139 55.5637 37.0527 55.6859 36.8694C55.8081 36.6249 55.8693 36.3804 55.8693 36.1359V36.0137C55.8693 35.7081 55.8081 35.4025 55.6859 35.158C55.5637 34.9746 55.3192 34.8524 55.0747 34.9135C54.8913 34.9135 54.6469 35.0358 54.5857 35.2191C54.4635 35.4636 54.4024 35.7692 54.4024 36.0137C54.4024 36.3193 54.4635 36.5638 54.5857 36.8082C54.708 36.9916 54.9525 37.1139 55.1358 37.1139Z" fill="black"/>
<path d="M60.6967 37.8474H59.7188V33.0189H62.4692V33.8746H60.6967V35.097H62.3469V35.8916H60.6967V37.8474Z" fill="black"/>
<path d="M66.5642 35.9525C66.5642 36.4415 66.4419 36.9916 66.0752 37.3583C65.7085 37.725 65.2195 37.9084 64.7306 37.8473C64.425 37.8473 64.0582 37.7862 63.8138 37.6028C63.5693 37.4194 63.3248 37.2361 63.2026 36.9305C63.0803 36.6249 62.9581 36.2582 63.0192 35.8914C62.9581 35.4025 63.1414 34.9135 63.447 34.4857C63.8138 34.1189 64.3027 33.9356 64.7917 33.9967C65.0973 33.9967 65.464 34.0578 65.7085 34.2412C65.953 34.4245 66.1975 34.6079 66.3197 34.9135C66.5031 35.2802 66.5642 35.6469 66.5642 35.9525ZM63.9971 35.9525C63.9971 36.2582 64.0582 36.5026 64.1805 36.7471C64.425 37.0527 64.9139 37.1138 65.2195 36.8694C65.2806 36.8082 65.2807 36.8082 65.3418 36.7471C65.464 36.5026 65.5251 36.197 65.5251 35.8914C65.5251 35.5858 65.464 35.3413 65.3418 35.0969C65.0973 34.7913 64.6083 34.7301 64.3027 34.9746C64.2416 34.9746 64.2416 35.0357 64.1805 35.0969C64.0582 35.4025 63.9971 35.7081 63.9971 35.9525Z" fill="black"/>
<path d="M70.6602 35.9525C70.6602 36.4415 70.5379 36.9916 70.1712 37.3583C69.8045 37.725 69.3155 37.9084 68.8266 37.8473C68.521 37.8473 68.1542 37.7862 67.9098 37.6028C67.6653 37.4194 67.4208 37.2361 67.2985 36.9305C67.1763 36.6249 67.0541 36.2582 67.0541 35.8914C66.9929 35.4025 67.1763 34.8524 67.543 34.4857C67.9098 34.1189 68.3987 33.9356 68.8877 33.9967C69.1933 33.9967 69.56 34.0578 69.8045 34.2412C70.049 34.4245 70.2935 34.6079 70.4157 34.9135C70.5991 35.2802 70.6602 35.6469 70.6602 35.9525ZM68.0931 35.9525C68.0931 36.2582 68.1542 36.5026 68.2765 36.7471C68.521 37.0527 69.0099 37.1138 69.3155 36.8694C69.3766 36.8082 69.3766 36.8082 69.4378 36.7471C69.56 36.5026 69.6211 36.197 69.6211 35.8914C69.6211 35.5858 69.56 35.3413 69.4378 35.0969C69.1933 34.7913 68.7043 34.7301 68.3987 34.9746C68.3376 34.9746 68.3376 35.0357 68.2765 35.0969C68.1542 35.4025 68.0931 35.7081 68.0931 35.9525Z" fill="black"/>
<path d="M72.6164 37.9084C72.1885 37.9084 71.8218 37.7251 71.5773 37.4195C71.3328 36.9916 71.1495 36.5026 71.2106 36.0137C71.2106 35.5247 71.3328 35.0358 71.5773 34.6079C71.8218 34.3023 72.1885 34.1189 72.6164 34.1189C73.0442 34.1189 73.472 34.3023 73.6554 34.669H73.7165C73.6554 34.4245 73.6554 34.1801 73.6554 33.9356V32.7743H74.6333V37.9084H73.8388L73.6554 37.4195H73.5943C73.4109 37.6639 73.0442 37.9084 72.6164 37.9084ZM72.9831 37.1139C73.1664 37.1139 73.4109 37.0527 73.5332 36.8694C73.6554 36.6249 73.7165 36.3804 73.7165 36.1359V36.0137C73.7165 35.7081 73.6554 35.4025 73.5332 35.158C73.4109 34.9746 73.1664 34.8524 72.922 34.9135C72.7386 34.9135 72.4941 35.0358 72.3719 35.2191C72.2496 35.4636 72.1885 35.7692 72.1885 36.0137C72.1885 36.3193 72.2496 36.5638 72.3719 36.8082C72.5552 36.9916 72.7386 37.1139 72.9831 37.1139Z" fill="black"/>
<path d="M41.0159 41.6978C41.0159 42.1257 40.8937 42.5535 40.527 42.8591C40.1602 43.1647 39.6102 43.287 39.1212 43.287H38.6933V44.9983H37.6543V40.1698H39.1823C39.6713 40.1087 40.0991 40.292 40.527 40.5365C40.8326 40.8421 41.0159 41.27 41.0159 41.6978ZM38.6933 42.4313H39.0601C39.3046 42.4313 39.549 42.3701 39.7324 42.2479C39.9158 42.1257 39.9769 41.9423 39.9769 41.6978C39.9769 41.5145 39.9158 41.3311 39.7935 41.1477C39.6102 41.0255 39.4268 40.9644 39.1823 40.9644H38.6933V42.4313Z" fill="black"/>
<path d="M43.6443 41.27C43.7666 41.27 43.8888 41.27 44.0111 41.27L43.9499 42.1868C43.8277 42.1868 43.7666 42.1868 43.6443 42.1868C43.3999 42.1868 43.0943 42.2479 42.9109 42.4313C42.7275 42.6147 42.6053 42.8592 42.6664 43.1036V44.9373H41.6885V41.27H42.4219L42.5442 41.8812H42.6053C42.7275 41.6979 42.8498 41.5145 43.0943 41.3923C43.2165 41.3311 43.461 41.27 43.6443 41.27Z" fill="black"/>
<path d="M47.8004 43.1646C47.8616 43.6536 47.6782 44.2036 47.3115 44.5704C46.9448 44.9371 46.5169 45.1204 45.9668 45.0593C45.6612 45.0593 45.2945 44.9982 45.05 44.8148C44.8055 44.6315 44.5611 44.4481 44.4388 44.1425C44.3166 43.8369 44.1943 43.4702 44.1943 43.1035C44.1943 42.6145 44.3166 42.0644 44.6833 41.6977C45.05 41.331 45.539 41.1476 46.028 41.2087C46.3336 41.2087 46.7003 41.2698 46.9448 41.4532C47.1892 41.6366 47.4337 41.8199 47.556 42.1255C47.7393 42.4311 47.8616 42.7979 47.8004 43.1646ZM45.2945 43.1646C45.2945 43.4702 45.3556 43.7147 45.4779 43.9592C45.6001 44.1425 45.8446 44.2648 46.0891 44.2648C46.3336 44.2648 46.5169 44.2036 46.6392 43.9592C46.8836 43.4091 46.8836 42.859 46.6392 42.3089C46.3947 42.0033 45.9057 41.9422 45.539 42.2478L45.4779 42.3089C45.3556 42.5534 45.2945 42.859 45.2945 43.1646Z" fill="black"/>
<path d="M51.7118 41.3311V41.8201L51.1006 42.0035C51.2229 42.1868 51.284 42.3702 51.2229 42.5535C51.2229 42.9203 51.1006 43.2259 50.795 43.4703C50.4894 43.7148 50.0616 43.8371 49.6337 43.7759H49.4504H49.3281C49.267 43.8371 49.2059 43.9593 49.2059 44.0204C49.2059 44.1427 49.3893 44.2038 49.756 44.2038H50.3672C50.6728 44.2038 51.0395 44.2649 51.284 44.4483C51.5285 44.6316 51.5896 44.9372 51.5896 45.1817C51.5896 45.6096 51.4062 45.9763 51.0395 46.1596C50.5505 46.4041 50.0616 46.5264 49.5115 46.5264C49.0837 46.5264 48.7169 46.4653 48.3502 46.2819C48.1057 46.0985 47.9224 45.854 47.9224 45.5484C47.9224 45.3651 47.9835 45.1206 48.1057 44.9984C48.2891 44.815 48.4724 44.7539 48.7169 44.6928C48.5947 44.6316 48.5336 44.5705 48.4724 44.5094C48.3502 44.326 48.3502 44.0204 48.4724 43.8371C48.5947 43.7148 48.7169 43.6537 48.8392 43.5315C48.6558 43.4703 48.4724 43.287 48.3502 43.1036C48.2891 42.9814 48.2891 42.7369 48.2891 42.5535C48.2891 42.1868 48.4113 41.8812 48.6558 41.6367C48.9614 41.3922 49.3893 41.27 49.756 41.3311C49.8782 41.3311 50.0005 41.3311 50.1227 41.3311C50.1838 41.3311 50.3061 41.3311 50.3672 41.3922L51.7118 41.3311ZM48.8392 45.4873C48.8392 45.6096 48.9003 45.7318 49.0225 45.7929C49.2059 45.854 49.3893 45.9152 49.5726 45.9152C49.8782 45.9152 50.1227 45.854 50.4283 45.7929C50.6117 45.7318 50.7339 45.5484 50.7339 45.3651C50.7339 45.2428 50.6728 45.1206 50.5505 45.0595C50.3672 44.9984 50.1838 44.9984 50.0005 44.9984H49.5115C49.3281 44.9984 49.2059 45.0595 49.0225 45.1206C48.9614 45.2428 48.8392 45.3651 48.8392 45.4873ZM49.2059 42.4924C49.2059 42.6758 49.267 42.8591 49.3281 42.9814C49.5726 43.2259 49.9393 43.2259 50.1838 42.9814C50.3061 42.8591 50.3061 42.6758 50.3061 42.4924C50.3061 42.0646 50.1227 41.8201 49.756 41.8201C49.3893 41.8201 49.2059 42.0646 49.2059 42.4924Z" fill="black"/>
<path d="M54.2181 41.27C54.3403 41.27 54.4626 41.27 54.5848 41.27L54.5237 42.1868C54.4014 42.1868 54.3403 42.1868 54.2181 42.1868C53.9736 42.1868 53.668 42.2479 53.4846 42.4313C53.3013 42.6147 53.179 42.8592 53.2401 43.1036V44.9373H52.2622V41.27H52.9957L53.1179 41.8812H53.179C53.3013 41.6979 53.4235 41.5145 53.668 41.3923C53.7291 41.3311 53.9736 41.27 54.2181 41.27Z" fill="black"/>
<path d="M57.335 44.9982L57.1517 44.5092C57.0294 44.6926 56.8461 44.876 56.6627 44.9371C56.4182 44.9982 56.1738 45.0593 55.9904 45.0593C55.6848 45.0593 55.3792 44.9982 55.1347 44.7537C54.8902 44.5092 54.8291 44.2036 54.8291 43.898C54.8291 43.5313 54.9513 43.2257 55.2569 43.0423C55.6237 42.859 56.0515 42.7367 56.4794 42.7367H57.0906V42.5534C57.1517 42.3089 56.9072 42.0033 56.6627 42.0033C56.6016 42.0033 56.5405 42.0033 56.5405 42.0033C56.1738 42.0033 55.807 42.1255 55.5014 42.2478L55.1958 41.5755C55.6237 41.331 56.1126 41.2087 56.6016 41.2698C57.0294 41.2698 57.3962 41.331 57.7018 41.5755C57.9462 41.8199 58.1296 42.1867 58.0685 42.5534V44.9982H57.335ZM57.0294 43.2868H56.6627C56.4182 43.2868 56.2349 43.3479 55.9904 43.4702C55.8682 43.5924 55.7459 43.7147 55.807 43.898C55.807 44.2036 55.9904 44.3259 56.296 44.3259C56.4794 44.3259 56.7238 44.2648 56.8461 44.1425C56.9683 44.0203 57.0906 43.8369 57.0294 43.5924V43.2868Z" fill="black"/>
<path d="M62.1022 44.9983H61.1243V42.8591C61.1243 42.6758 61.1243 42.4313 61.002 42.2479C60.8798 42.1257 60.7575 42.0645 60.5742 42.0645C60.3297 42.0645 60.1463 42.1868 60.0241 42.3702C59.9018 42.6758 59.8407 42.9814 59.8407 43.287V44.9983H58.8628V41.3311H59.5962L59.7185 41.8201H59.7796C59.9018 41.6367 60.0241 41.5145 60.2074 41.3922C60.3908 41.27 60.6353 41.27 60.8186 41.27C61.2465 41.2089 61.6743 41.4533 61.9188 41.8201H62.0411C62.1633 41.6367 62.2855 41.5145 62.4689 41.3922C62.6523 41.27 62.8968 41.27 63.1412 41.27C63.508 41.27 63.8136 41.3311 64.058 41.5756C64.3025 41.8812 64.4248 42.2479 64.3636 42.6146V44.9983H63.3246V42.8591C63.3246 42.6758 63.3246 42.4313 63.2024 42.2479C63.0801 42.1257 62.9579 42.0645 62.7745 42.0645C62.53 42.0645 62.3467 42.1257 62.2244 42.309C62.1022 42.5535 62.0411 42.8591 62.0411 43.1647L62.1022 44.9983Z" fill="black"/>
<path d="M68.5202 44.9983H67.5422V42.8591C67.5422 42.6758 67.4811 42.4313 67.42 42.2479C67.2977 42.1257 67.1755 42.0645 66.9921 42.0645C66.7477 42.0645 66.5643 42.1868 66.442 42.3702C66.3198 42.6758 66.2587 42.9814 66.2587 43.287V44.9983H65.2808V41.3311H66.0142L66.1364 41.8201H66.1976C66.3198 41.6367 66.4421 41.5145 66.6254 41.3922C66.8088 41.27 67.0533 41.27 67.2977 41.27C67.7256 41.2089 68.1534 41.4533 68.3979 41.8201H68.459C68.5813 41.6367 68.7035 41.5145 68.8869 41.3922C69.0702 41.27 69.3147 41.27 69.5592 41.27C69.9259 41.27 70.2315 41.3311 70.5371 41.5756C70.7816 41.8812 70.9039 42.2479 70.8427 42.6146V44.9983H69.8648V42.8591C69.8648 42.6758 69.8037 42.4313 69.7426 42.2479C69.6203 42.1257 69.4981 42.0645 69.3147 42.0645C69.0702 42.0645 68.8869 42.1257 68.7646 42.309C68.6424 42.5535 68.5813 42.8591 68.5813 43.1647L68.5202 44.9983Z" fill="black"/>
<path d="M73.3487 45.0596C72.8597 45.0596 72.3097 44.9374 71.9429 44.5707C71.5762 44.2039 71.3928 43.715 71.454 43.1649C71.3928 42.6759 71.5762 42.1258 71.9429 41.7591C72.6153 41.0868 73.7154 41.0868 74.4489 41.698C74.7545 42.0036 74.9378 42.4926 74.8767 42.9204V43.4094H72.493C72.493 43.6538 72.5541 43.8983 72.7375 44.0817C72.9209 44.265 73.1653 44.3262 73.4098 44.3262C73.5932 44.3262 73.8377 44.3262 74.021 44.265C74.2044 44.2039 74.4489 44.1428 74.6322 44.0206V44.8151C74.4489 44.8763 74.2655 44.9985 74.0822 44.9985C73.8377 44.9985 73.5932 45.0596 73.3487 45.0596ZM73.2265 42.0036C73.0431 42.0036 72.8597 42.0647 72.7375 42.1869C72.6153 42.3703 72.5541 42.5537 72.5541 42.737H73.9599C73.9599 42.5537 73.8988 42.3092 73.7765 42.1869C73.5932 42.0647 73.4098 41.9425 73.2265 42.0036Z" fill="black"/>
<path d="M40.7118 25.501V28.068C40.7118 28.4348 40.5896 28.8626 40.284 29.1071C39.9784 29.3516 39.5505 29.5349 39.1838 29.4738C38.756 29.4738 38.3893 29.3516 38.0836 29.1071C37.8392 28.8015 37.6558 28.4348 37.7169 28.068V25.501H38.1448V28.068C38.1448 28.3736 38.2059 28.6181 38.3893 28.8015C38.6337 28.9848 38.8782 29.1071 39.1838 29.046C39.4894 29.046 39.7339 28.9848 39.9173 28.8015C40.1006 28.6181 40.2229 28.3125 40.1617 28.068V25.501H40.7118Z" fill="black"/>
<path d="M43.7069 29.3514V27.4566C43.7069 27.2733 43.6458 27.0899 43.5236 26.9065C43.4013 26.7843 43.218 26.7232 43.0346 26.7232C42.7901 26.7232 42.5456 26.7843 42.3623 26.9677C42.1789 27.2121 42.1178 27.5177 42.1178 27.8233V29.3514H41.6899V26.4176H42.0567L42.1178 26.8454C42.24 26.7232 42.3623 26.6009 42.4845 26.4787C42.6679 26.4176 42.8512 26.3564 43.0346 26.3564C43.3402 26.3564 43.5847 26.4176 43.8292 26.6009C44.0125 26.8454 44.1348 27.151 44.0736 27.3955V29.2902L43.7069 29.3514Z" fill="black"/>
<path d="M44.9902 25.623C44.9902 25.5619 44.9902 25.4396 45.0514 25.3785C45.1125 25.3174 45.1736 25.3174 45.2347 25.3174C45.2958 25.3174 45.357 25.3174 45.4181 25.3785C45.4792 25.4396 45.4792 25.5007 45.4792 25.623C45.4792 25.6841 45.4792 25.8063 45.4181 25.8675C45.357 25.9286 45.2958 25.9286 45.2347 25.9286C45.1736 25.9286 45.1125 25.9286 45.0514 25.8675C44.9902 25.8063 44.9902 25.6841 44.9902 25.623ZM45.4792 29.3513H45.0514V26.4176H45.4792V29.3513Z" fill="black"/>
<path d="M47.3734 29.0457C47.4345 29.0457 47.5567 29.0457 47.6179 29.0457L47.8012 28.9846V29.3513C47.7401 29.3513 47.679 29.4124 47.6179 29.4124C47.5567 29.4124 47.4345 29.4124 47.3734 29.4124C46.8233 29.4124 46.5177 29.1068 46.5177 28.4956V26.7231H46.0898V26.4786L46.5177 26.2953L46.7011 25.6841H46.9455V26.3564H47.8012V26.7231H46.9455V28.5567C46.9455 28.679 47.0067 28.8624 47.0678 28.9846C47.1289 29.0457 47.2511 29.0457 47.3734 29.0457Z" fill="black"/>
<path d="M49.5737 29.4125C49.207 29.4125 48.8403 29.2902 48.5347 29.0458C48.2902 28.7401 48.168 28.3123 48.168 27.9456C48.168 27.5177 48.2902 27.151 48.5347 26.7843C48.7792 26.4787 49.0848 26.3564 49.4515 26.3564C49.7571 26.3564 50.1238 26.4787 50.3072 26.7232C50.5517 26.9677 50.6739 27.3344 50.6128 27.7011V28.0067H48.5958C48.5958 28.3123 48.6569 28.5568 48.8403 28.8013C49.0237 28.9846 49.2681 29.1069 49.5737 29.0458C49.8793 29.0458 50.2461 28.9846 50.4905 28.8624V29.2291C50.3683 29.2902 50.1849 29.3514 50.0627 29.3514C49.8793 29.4125 49.7571 29.4125 49.5737 29.4125ZM49.4515 26.7232C49.2681 26.7232 49.0237 26.7843 48.9014 26.9677C48.7792 27.151 48.6569 27.3344 48.6569 27.5789H50.1849C50.1849 27.3344 50.1238 27.151 50.0016 26.9677C49.8182 26.7843 49.6349 26.7232 49.4515 26.7232Z" fill="black"/>
<path d="M53.4259 28.9847C53.2426 29.2903 52.8758 29.4736 52.5091 29.4125C52.1424 29.4125 51.8368 29.2903 51.5923 29.0458C51.3478 28.7402 51.2256 28.3123 51.2256 27.9456C51.2256 27.5178 51.2867 27.151 51.5312 26.7843C51.959 26.2954 52.7536 26.2342 53.2426 26.7232C53.3037 26.7843 53.3037 26.7843 53.3648 26.8454V26.601V25.1952H53.7926V29.3514H53.4259V28.9847ZM52.5091 29.0458C52.7536 29.0458 52.9981 28.9847 53.1814 28.8013C53.3648 28.5568 53.4259 28.3123 53.3648 28.0067V27.9456C53.3648 27.64 53.3037 27.3344 53.1814 27.0288C52.9981 26.8454 52.7536 26.7232 52.5091 26.7843C52.2646 26.7843 52.0202 26.9066 51.8979 27.0899C51.7145 27.3344 51.6534 27.64 51.7145 27.9456C51.7145 28.2512 51.7757 28.5568 51.8979 28.8013C52.0202 28.9847 52.2646 29.0458 52.5091 29.0458Z" fill="black"/>
<path d="M59.1708 29.3516H58.6818L56.4815 26.1122C56.4815 26.4789 56.5426 26.8456 56.5426 27.1512V29.3516H56.1147V25.501H56.6037L58.7429 28.8015C58.7429 28.7404 58.7429 28.6181 58.7429 28.3125C58.7429 28.0069 58.7429 27.8847 58.7429 27.7624V25.501H59.1708V29.3516Z" fill="black"/>
<path d="M61.9207 29.3513L61.8596 28.9234C61.7373 29.1068 61.6151 29.229 61.4317 29.2901C61.2484 29.3513 61.065 29.4124 60.8817 29.4124C60.6372 29.4124 60.3927 29.3513 60.2093 29.1679C60.026 28.9845 59.9648 28.7401 59.9648 28.5567C59.9648 27.9455 60.4538 27.6399 61.3706 27.6399H61.8596V27.4565C61.8596 27.2732 61.7985 27.0898 61.7373 26.9676C61.6151 26.8453 61.4317 26.7842 61.2484 26.7842C60.9428 26.7842 60.6983 26.8453 60.3927 27.0287L60.2704 26.662C60.3927 26.6008 60.5761 26.5397 60.7594 26.4786C60.9428 26.4175 61.1261 26.4175 61.2484 26.4175C61.554 26.4175 61.7985 26.4786 62.043 26.662C62.2263 26.8453 62.3486 27.1509 62.2874 27.3954V29.4124L61.9207 29.3513ZM60.9428 29.0457C61.1873 29.0457 61.4317 28.9845 61.6151 28.8012C61.7985 28.6178 61.8596 28.4345 61.8596 28.19V27.9455H61.4317C61.1873 27.9455 60.8817 28.0066 60.6372 28.1289C60.4538 28.2511 60.3927 28.3733 60.3927 28.5567C60.3927 28.6789 60.4538 28.8012 60.5149 28.9234C60.6372 28.9845 60.7594 29.0457 60.9428 29.0457Z" fill="black"/>
<path d="M64.1204 29.0457C64.1816 29.0457 64.2427 29.0457 64.3649 29.0457L64.5483 28.9846V29.3513C64.4872 29.3513 64.426 29.4124 64.3649 29.4124C64.3038 29.4124 64.1816 29.4124 64.1204 29.4124C63.5704 29.4124 63.2648 29.1068 63.2648 28.4956V26.7231H62.8369V26.4786L63.2648 26.2953L63.4481 25.6841H63.6926V26.3564H64.5483V26.7231H63.6926V28.5567C63.6926 28.679 63.7537 28.8624 63.8148 28.9846C63.876 29.0457 63.9982 29.0457 64.1204 29.0457Z" fill="black"/>
<path d="M65.0981 25.623C65.0981 25.5619 65.0981 25.4396 65.1593 25.3785C65.2204 25.3174 65.2815 25.3174 65.3426 25.3174C65.4037 25.3174 65.4649 25.3174 65.526 25.3785C65.5871 25.4396 65.5871 25.5007 65.5871 25.623C65.5871 25.6841 65.5871 25.8063 65.526 25.8675C65.4649 25.9286 65.4037 25.9286 65.3426 25.9286C65.2815 25.9286 65.2204 25.9286 65.1593 25.8675C65.0981 25.8063 65.0981 25.6841 65.0981 25.623ZM65.5871 29.3513H65.1593V26.4176H65.5871V29.3513Z" fill="black"/>
<path d="M69.0106 27.9455C69.0106 28.3733 68.8884 28.7401 68.6439 29.0457C68.3994 29.3513 68.0327 29.4735 67.6659 29.4735C67.4215 29.4735 67.177 29.4124 66.9936 29.2901C66.8103 29.1679 66.6269 28.9845 66.5047 28.7401C66.3824 28.4956 66.3213 28.19 66.3213 27.9455C66.3213 27.5177 66.4435 27.1509 66.688 26.8453C66.9325 26.5397 67.2992 26.4175 67.6659 26.4175C68.0327 26.4175 68.3994 26.5397 68.6439 26.8453C68.8884 27.1509 69.0106 27.5177 69.0106 27.9455ZM66.7491 27.9455C66.7491 28.2511 66.8103 28.5567 66.9936 28.8012C67.3603 29.1679 67.9104 29.1679 68.2771 28.8623L68.3383 28.8012C68.5216 28.5567 68.5827 28.2511 68.5827 27.9455C68.5827 27.6399 68.5216 27.3343 68.3383 27.0898C68.1549 26.9064 67.9104 26.7842 67.6659 26.7842C67.4215 26.7842 67.177 26.8453 66.9936 27.0898C66.8103 27.3343 66.7491 27.6399 66.7491 27.9455Z" fill="black"/>
<path d="M71.7606 29.3514V27.4566C71.7606 27.2733 71.6995 27.0899 71.5773 26.9065C71.455 26.7843 71.2717 26.7232 71.0883 26.7232C70.8438 26.7232 70.5993 26.7843 70.416 26.9677C70.2326 27.2121 70.1715 27.5177 70.1715 27.8233V29.3514H69.7437V26.4176H70.1104L70.1715 26.8454C70.2937 26.7232 70.416 26.6009 70.5382 26.4787C70.7216 26.4176 70.9049 26.3564 71.0883 26.3564C71.3939 26.3564 71.6384 26.4176 71.8829 26.6009C72.0662 26.8454 72.1885 27.151 72.1274 27.3955V29.2902L71.7606 29.3514Z" fill="black"/>
<path d="M75 28.5567C75 28.8012 74.8777 29.0457 74.6944 29.1679C74.4499 29.3513 74.1443 29.4124 73.8387 29.4124C73.5331 29.4124 73.2275 29.3513 72.9219 29.229V28.8012C73.0441 28.8623 73.2275 28.9234 73.3497 28.9845C73.5331 29.0457 73.6553 29.0457 73.8387 29.0457C74.022 29.0457 74.2054 29.0457 74.3888 28.9234C74.511 28.8623 74.5721 28.74 74.5721 28.5567C74.5721 28.4344 74.511 28.3122 74.4499 28.2511C74.2665 28.1288 74.0832 28.0066 73.8387 27.9455C73.6553 27.8844 73.4108 27.7621 73.2275 27.701C73.1052 27.6399 73.0441 27.5788 72.983 27.4565C72.9219 27.3343 72.9219 27.212 72.9219 27.0898C72.9219 26.8453 73.0441 26.6619 73.2275 26.5397C73.472 26.4175 73.7776 26.2952 74.022 26.3563C74.3276 26.3563 74.6332 26.4175 74.9389 26.5397L74.7555 26.9064C74.511 26.7842 74.2054 26.7231 73.9609 26.7231C73.7776 26.7231 73.6553 26.7231 73.472 26.8453C73.2886 26.9676 73.2886 27.1509 73.3497 27.3343C73.4108 27.3954 73.472 27.4565 73.5331 27.5176C73.7164 27.5788 73.8998 27.701 74.022 27.7621C74.2665 27.8232 74.511 27.9455 74.7555 28.1288C74.8777 28.19 75 28.3733 75 28.5567Z" fill="black"/>
<path d="M26.164 25.4396C26.1029 25.4396 26.1029 25.5007 26.164 25.4396C27.5698 26.4175 27.4475 27.2121 30.0146 29.1679C29.4645 27.0898 28.0587 25.5007 26.164 25.4396Z" fill="black"/>
<path d="M29.7705 26.4179C29.7705 26.3568 29.7094 26.4179 29.7705 26.4179C30.1983 27.2125 30.3817 28.007 30.5651 28.8627L30.9929 30.8797C30.6262 30.2685 28.9148 29.4128 27.7535 28.496H27.6924C28.3036 30.3907 30.3817 31.1853 31.6652 32.53H31.7263C31.6041 30.5741 31.9097 28.1293 29.7705 26.4179Z" fill="black"/>
<path d="M33.4361 32.8966C33.375 31.613 33.1305 30.3906 32.2748 29.3516H32.2137C32.7638 31.4297 32.1526 33.2022 32.3971 34.7302C31.847 33.3244 30.2579 32.6521 29.5855 31.7353H29.5244C30.1356 34.4857 32.2137 35.3414 32.5804 36.7472H32.6416C32.9472 35.7081 33.4973 34.4857 33.4361 32.8966Z" fill="black"/>
<path d="M34.1705 34.3632C34.1705 34.3632 34.1093 34.3632 34.1705 34.3632C34.0482 36.3801 32.8869 37.9082 32.6424 39.3139C32.5813 37.5414 31.2978 36.4413 30.5644 35.0966H30.5032C30.381 37.6637 32.2757 39.3139 32.2146 41.4531C32.2146 41.4531 32.2757 41.5143 32.2757 41.4531C33.7426 39.4362 35.1484 36.9913 34.1705 34.3632Z" fill="black"/>
<path d="M34.6595 39.7418C34.6595 39.7418 34.5984 39.6807 34.6595 39.7418C33.6816 41.5754 32.6425 42.0032 31.2367 43.9591C31.7868 42.37 30.87 40.2308 30.87 38.7639C30.87 38.7639 30.8089 38.7027 30.8089 38.7639C29.7087 41.392 30.87 44.0813 29.8921 45.8538V45.915C31.2367 45.2426 32.5203 44.2036 33.4982 42.9812C34.1705 42.0032 34.7206 40.9642 34.6595 39.7418Z" fill="black"/>
<path d="M33.3152 44.6315C32.3984 45.9761 30.2592 46.4651 28.1811 48.0542C29.2201 46.6485 29.0979 44.7537 29.5257 43.1035C29.5257 43.1035 29.5257 43.0423 29.4646 43.1035C27.4476 45.3649 27.6921 47.8709 26.8364 49.0322V49.0933C29.8313 48.971 33.1318 46.3428 33.3152 44.6315C33.3152 44.6315 33.3152 44.5704 33.3152 44.6315Z" fill="black"/>
<path d="M30.443 49.1541C27.7537 50.3765 26.7147 49.7042 24.1476 50.1932C25.9201 49.2152 26.2868 47.6872 26.898 46.6482V46.587C24.9422 47.565 24.331 49.7042 21.9473 50.3154V50.3765C22.9252 50.621 23.6586 51.0488 24.6977 51.11C27.5092 51.3544 29.5873 50.4988 30.443 49.1541Z" fill="black"/>
<path d="M8.5001 25.4396C6.60536 25.5007 5.19958 27.0898 4.58838 29.1068C7.27768 27.2121 7.09432 26.4175 8.5001 25.4396C8.56122 25.5007 8.56122 25.4396 8.5001 25.4396Z" fill="black"/>
<path d="M6.91189 28.5566C5.81172 29.4123 4.03922 30.268 3.6725 30.9403L4.10034 28.9233C4.2837 28.0676 4.46706 27.273 4.89491 26.4785C4.89491 26.4785 4.89491 26.4174 4.83379 26.4174C2.69457 28.1287 3.00017 30.5736 2.87793 32.5905C2.87793 32.5905 2.87793 32.6517 2.93905 32.5905C4.22258 31.2459 6.30068 30.4513 6.91189 28.5566C6.97301 28.5566 6.91189 28.4955 6.91189 28.5566Z" fill="black"/>
<path d="M5.07755 31.7355C4.40522 32.7134 2.81609 33.3857 2.266 34.7304C2.266 34.7304 2.20488 34.7304 2.266 34.7304C2.44936 33.2023 1.83816 31.4298 2.38824 29.3517C2.38824 29.3517 2.38824 29.2906 2.32712 29.3517C1.53255 30.3908 1.22695 31.5521 1.16583 32.8967C1.10471 34.4859 1.65479 35.7083 1.9604 36.8085H2.02152C2.44936 35.3416 4.46634 34.4859 5.07755 31.7355Z" fill="black"/>
<path d="M4.0994 35.0967C3.30483 36.4413 2.0213 37.5415 1.96018 39.314C1.7157 37.9082 0.554407 36.3802 0.493286 34.3632C0.493286 34.3021 0.432166 34.3021 0.432166 34.3632C-0.545763 36.9914 0.86001 39.4362 2.3269 41.5143H2.38802C2.38802 39.314 4.22164 37.7249 4.0994 35.0967Z" fill="black"/>
<path d="M4.77206 45.8541C3.79413 44.0816 4.95542 41.3923 3.85525 38.7642H3.79413C3.73301 40.1699 2.87732 42.3092 3.42741 43.9594C2.08275 41.9424 0.982585 41.5146 0.0657758 39.7421H0.00465524C-0.0564653 40.9645 0.49362 42.0036 1.10483 42.9204C2.14388 44.2039 3.36629 45.2429 4.77206 45.8541C4.77206 45.9153 4.77206 45.9153 4.77206 45.8541Z" fill="black"/>
<path d="M7.88902 48.9711C6.97221 47.8098 7.27782 45.3038 5.26084 43.0424H5.19972C5.56644 44.6926 5.4442 46.6485 6.54437 47.9931C4.46627 46.3429 2.32705 45.8539 1.41024 44.5704H1.34912C1.53248 46.3429 4.83299 48.9711 7.88902 48.9711C7.88902 49.0322 7.88902 48.9711 7.88902 48.9711Z" fill="black"/>
<path d="M12.7781 50.3154C10.4555 49.7653 9.78316 47.565 7.82731 46.587C7.82731 46.587 7.76618 46.587 7.82731 46.6482C8.43851 47.6872 8.80523 49.2152 10.5777 50.1932C10.5777 50.1932 10.5777 50.2543 10.5777 50.1932C8.01067 49.7042 6.97162 50.3765 4.28231 49.1541C4.28231 49.1541 4.22119 49.1541 4.22119 49.2152C5.07688 50.4988 7.15498 51.3544 10.0276 51.11C11.0667 50.9877 11.8001 50.5599 12.7781 50.3154C12.7781 50.3765 12.7781 50.3154 12.7781 50.3154Z" fill="black"/>
<path d="M27.5088 51.8436C26.592 52.2104 25.3696 52.2104 24.3917 51.9659C22.1302 51.2935 19.6854 49.9489 17.3017 51.0491C14.918 49.9489 12.412 51.2935 10.2117 51.9659C9.23377 52.2104 8.01136 52.2104 7.09455 51.8436C7.09455 51.8436 7.03343 51.8436 7.09455 51.9047C8.4392 52.9438 10.2728 53.3716 11.9231 52.8216C13.5122 52.3326 14.8569 50.6212 16.7516 51.3547C15.2236 51.9659 13.8789 53.0049 12.7788 54.044L13.5733 54.7163C14.5513 53.555 15.6514 52.4548 16.935 51.7214C17.1183 51.5991 17.1794 51.5991 17.3017 51.5991C17.4239 51.5991 17.5462 51.6603 17.6684 51.7214C18.9519 52.3937 20.0521 53.555 21.03 54.7163L21.8246 54.044C20.7244 53.0049 19.3187 51.9659 17.8518 51.3547C19.7465 50.6212 21.0912 52.3326 22.6803 52.8216C24.3917 53.3716 26.2253 52.9438 27.5088 51.8436C27.5699 51.9047 27.5699 51.8436 27.5088 51.8436Z" fill="black"/>
<path d="M18.402 45.6098H14.7959C14.5514 45.6098 14.3069 45.6098 14.1235 45.5487C14.7347 46.4655 15.6515 47.1378 16.6295 47.5657C16.7517 48.3603 16.9351 49.0937 16.9962 49.1548C17.0573 49.2159 17.9741 48.9715 18.0353 48.8492C18.0353 48.7881 17.6685 47.3823 17.6685 47.3823C18.0964 46.5878 18.2186 46.0988 18.402 45.6098Z" fill="black"/>
<path d="M24.6986 26.784C24.6375 26.7229 24.3319 27.4563 23.9652 27.6397C23.9041 27.7008 23.8429 27.7619 23.7818 27.8231C23.7207 27.8842 23.7207 28.0064 23.7207 28.0675C23.7207 28.1287 23.7818 28.1898 23.8429 28.2509C23.9041 28.312 23.9652 28.312 24.0263 28.2509C24.0874 28.1898 24.1485 28.1287 24.2097 28.0675C24.2708 28.0064 24.2708 27.8842 24.2708 27.8231C24.2708 27.3952 24.7598 26.8451 24.6986 26.784Z" fill="black"/>
<path d="M25.0035 27.8234C24.9424 27.7623 24.5146 28.4957 24.0867 28.4346C24.0256 28.4346 23.9034 28.4346 23.8422 28.4346C23.7811 28.4346 23.7811 28.4957 23.72 28.4957V28.4346C23.72 28.3123 23.6589 28.2512 23.5978 28.1901C23.3533 27.8845 23.72 27.0899 23.6589 27.0288C23.5978 27.0288 23.4755 27.8234 23.231 28.1901C23.1699 28.2512 23.1699 28.3735 23.1699 28.4346C23.1699 28.5568 23.231 28.6179 23.2922 28.6791C23.3533 28.7402 23.4144 28.8013 23.4755 28.7402C23.5366 28.7402 23.5978 28.6791 23.5978 28.6791C23.5978 28.7402 23.5978 28.7402 23.5978 28.8013C23.6589 28.8624 23.72 28.9235 23.7811 28.9235C23.8422 28.9235 23.9645 28.9235 24.0256 28.9235C24.0867 28.8624 24.1479 28.8013 24.209 28.7402C24.4535 28.4346 25.0647 27.8845 25.0035 27.8234Z" fill="black"/>
<path d="M24.8193 28.7406C24.7582 28.6795 24.147 29.4129 23.7192 29.2296C23.658 29.1684 23.5358 29.1684 23.4136 29.2296C23.3524 29.2296 23.2913 29.2907 23.2913 29.2907V29.2296C23.2913 29.1073 23.2302 29.0462 23.108 28.9851C22.7412 28.6795 23.0468 27.7627 22.9246 27.7015C22.8635 27.7015 22.8635 28.6183 22.6801 29.0462C22.619 29.1073 22.619 29.2296 22.6801 29.3518C22.6801 29.474 22.7412 29.5352 22.8635 29.5963C22.9246 29.6574 23.0468 29.6574 23.108 29.6574C23.1691 29.6574 23.1691 29.6574 23.2302 29.5963C23.2302 29.6574 23.2913 29.7796 23.4136 29.7796C23.4747 29.8408 23.5969 29.8408 23.658 29.7796C23.7803 29.7796 23.8414 29.7185 23.9025 29.5963C24.147 29.2907 24.8805 28.8017 24.8193 28.7406Z" fill="black"/>
<path d="M23.353 30.0235C23.2919 29.9624 23.1697 29.9624 23.0474 30.0235C22.9863 30.0235 22.9252 30.0846 22.8641 30.1458C22.8641 30.0846 22.8641 30.0235 22.8641 29.9624C22.8641 29.8401 22.803 29.779 22.6807 29.7179C22.314 29.3512 22.5585 28.3121 22.4974 28.3121C22.4362 28.3121 22.4362 29.3512 22.2529 29.8401C22.1918 29.9013 22.1918 30.0235 22.2529 30.1458C22.2529 30.268 22.314 30.3291 22.4362 30.4514C22.4974 30.5125 22.5585 30.5125 22.6807 30.5125H22.7418C22.7418 30.5125 22.7418 30.5125 22.7418 30.5736C22.7418 30.6347 22.803 30.6958 22.9252 30.757C22.9863 30.8181 23.1086 30.8181 23.2308 30.757C23.353 30.757 23.4142 30.6958 23.4753 30.5736C23.7809 30.2069 24.5755 29.6568 24.5143 29.5957C24.4532 29.4123 23.7809 30.2069 23.353 30.0235Z" fill="black"/>
<path d="M19.2565 32.1629C19.6844 31.4906 20.2345 31.0016 20.7234 30.3904V30.3293H20.6623C20.5401 30.4515 20.4178 30.5738 20.2956 30.696C20.2345 30.696 20.1122 30.696 19.99 30.8182C19.8677 30.8794 19.8066 31.0016 19.8066 31.0627C19.7455 31.0627 19.6233 31.1238 19.501 31.3072C19.3788 31.4294 19.3788 31.5517 19.3788 31.6739C19.3177 31.6739 19.1954 31.7962 19.1343 31.9184C19.0732 32.0407 19.012 32.1018 19.012 32.1629C18.9509 32.224 18.8898 32.2851 18.8287 32.4074C18.7676 32.5296 18.7064 32.6519 18.7064 32.7741C18.7064 32.8352 18.6453 32.8352 18.6453 32.8963V32.8352C18.7676 31.9184 18.9509 31.0016 19.1954 30.0848C19.4399 29.2291 19.7455 28.3123 20.2956 27.5788C20.2956 27.5177 20.2956 27.4566 20.2956 27.4566C20.2345 27.3955 20.2345 27.3955 20.1733 27.4566C19.99 27.64 19.8066 27.8845 19.6844 28.0678C19.6233 28.0067 19.501 28.1289 19.3788 28.3734C19.3177 28.5568 19.2565 28.679 19.3177 28.7401C19.2565 28.7401 19.1343 28.8624 19.0732 29.0457C19.012 29.2291 19.012 29.4125 19.012 29.4736C18.9509 29.4736 18.8287 29.5958 18.7676 29.8403C18.7064 30.0237 18.7064 30.207 18.7676 30.2682C18.7064 30.2682 18.5842 30.3904 18.5231 30.6349C18.462 30.8794 18.462 31.0627 18.5231 31.0627C18.462 31.0627 18.3397 31.2461 18.2786 31.4294C18.2175 31.6128 18.2175 31.7962 18.2786 31.8573C18.2175 31.8573 18.1564 32.0407 18.0952 32.2851C18.0341 32.4685 18.0952 32.6519 18.1564 32.713C18.0952 32.7741 18.0341 32.8963 17.973 33.1408C17.973 33.3242 17.973 33.5075 18.0341 33.5687C17.973 33.6298 17.9119 33.752 17.9119 33.9354C17.9119 34.1187 17.9119 34.241 17.9119 34.3021C17.8508 34.3632 17.7896 34.5466 17.7896 34.73C17.7896 34.9133 17.7896 35.0356 17.8508 35.0967C17.7896 35.28 17.7285 35.4023 17.7285 35.5245C17.7285 35.7079 17.7285 35.8301 17.7896 35.8912C17.7896 36.5025 17.7896 37.1137 17.7896 37.7249H19.0732C19.0732 37.2359 19.1343 36.7469 19.1343 36.258C19.1954 35.4634 19.3788 34.6077 19.7455 33.8743V33.8131H19.6844C19.1343 34.4855 18.8898 35.3412 18.7064 36.1968C18.7064 36.3802 18.6453 36.5025 18.6453 36.6858C18.7064 36.0135 18.7676 35.3412 18.8898 34.6688C19.0732 33.8743 19.4399 33.1408 20.1122 32.713C20.1122 32.713 20.1733 32.6519 20.1122 32.6519C20.1122 32.5907 20.0511 32.5907 20.0511 32.5907C19.99 32.5907 19.99 32.6519 19.9289 32.6519C19.8677 32.5907 19.7455 32.6519 19.5621 32.7741C19.3788 32.8963 19.3177 33.0186 19.3177 33.0797C19.2565 33.0186 19.0732 33.1408 18.9509 33.3242C18.8287 33.5075 18.7676 33.6909 18.8287 33.752C18.7676 33.752 18.6453 33.8743 18.5842 34.1188C18.5231 34.3021 18.5231 34.4244 18.5231 34.4855C18.462 34.6688 18.4008 34.8522 18.4008 35.0356C18.4008 34.7911 18.462 34.4855 18.462 34.241C18.6453 33.5687 18.8287 32.8352 19.2565 32.1629Z" fill="black"/>
<path d="M22.5576 35.8917C22.5576 35.8305 22.4354 35.8305 22.4354 35.8917C21.7019 36.6251 21.2741 37.4808 21.1519 37.7864H21.5797C21.8242 37.2974 22.252 36.3806 22.6188 36.075C22.5576 36.0139 22.5576 35.9528 22.5576 35.8917Z" fill="black"/>
<path d="M21.9462 48.6657C21.8239 48.299 21.6405 47.9322 21.4572 47.6266C21.2738 47.2599 21.1516 46.8932 21.0293 46.5265C20.9071 46.282 20.7849 45.9153 20.7237 45.6708H20.2959C20.4181 45.9764 20.5404 46.3431 20.6626 46.7098C20.9682 47.4433 21.3349 48.1767 21.7628 48.7879C21.7628 48.7879 21.8239 48.849 21.8239 48.7879C21.9462 48.7268 21.9462 48.6657 21.9462 48.6657Z" fill="black"/>
<path d="M21.8252 47.0764C21.703 46.6485 21.5808 46.0985 21.5196 45.6095H21.0918C21.2752 46.0985 21.4585 46.6485 21.6419 47.1375C21.6419 47.1986 21.703 47.1986 21.7641 47.1986C21.7641 47.1986 21.8252 47.1375 21.8252 47.0764Z" fill="black"/>
<path d="M20.7246 48.2988L20.1134 45.6095H19.0132C19.1965 46.2818 19.441 46.9541 19.7466 47.5654C19.7466 47.6265 19.8078 47.6265 19.8689 47.6265C19.93 47.6265 19.93 47.5654 19.93 47.5042C19.8689 46.9541 19.7466 46.4041 19.6855 45.854C19.93 46.7097 20.2356 47.5654 20.6634 48.2988C20.6634 48.2988 20.7246 48.3599 20.7246 48.2988C20.7246 48.3599 20.7246 48.3599 20.7246 48.2988Z" fill="black"/>
<path d="M26.3475 31.0627C25.9196 30.9405 23.4137 30.5126 20.541 35.769C20.9688 33.8132 22.1913 31.4295 22.558 30.7571C22.558 30.696 22.558 30.696 22.558 30.6349C22.4969 30.6349 22.4969 30.6349 22.4357 30.6349C20.541 33.752 19.8687 35.5857 19.502 37.7249H20.6632C20.8466 35.6468 23.4748 30.7571 26.2863 31.0627C26.3475 31.1239 26.4086 31.1239 26.3475 31.0627C26.4086 31.0627 26.4086 31.0627 26.3475 31.0627Z" fill="black"/>
<path d="M16.0784 28.3738L16.0173 28.3127C15.9562 28.3127 15.9562 28.3738 15.9562 28.4349C16.6896 30.3908 15.7728 31.3687 15.345 32.7745C14.856 31.6743 16.4452 30.5742 15.6506 28.5572L15.5895 28.4961C15.5284 28.4961 15.5284 28.4961 15.5284 28.5572C15.5284 28.6794 15.4061 29.8407 14.4893 30.513C14.3671 30.2686 14.2448 30.0852 14.0615 29.9018C14.0003 29.5351 13.7559 28.985 13.2058 28.8628C13.1447 28.6794 12.9613 28.3738 12.6557 28.2516C12.3501 28.1293 12.0445 28.1293 11.6778 28.3127C11.2499 28.3738 10.9443 28.5572 10.761 28.8017C10.6387 29.0461 10.6387 29.3517 10.6998 29.5962C10.3331 30.0241 10.3331 30.5742 10.3331 30.8186C10.0886 31.3687 10.2109 31.9799 10.3331 32.2244C10.0886 32.9579 10.3331 33.6302 10.4553 33.8747C10.4553 33.9358 10.4553 33.9969 10.4553 34.058C9.59966 33.0801 7.58268 31.9188 6.84923 31.491C6.78811 31.491 6.78811 31.491 6.72699 31.491C6.66587 31.5521 6.66587 31.6132 6.72699 31.6132C8.43837 33.2635 9.90526 35.2804 11.3722 39.4978C12.1056 38.7643 13.3891 37.7864 15.2839 37.7864H17.4842C15.9562 32.5911 17.9732 30.7575 16.0784 28.3738ZM14.856 32.4689C15.0394 32.7134 14.9783 33.0801 14.6727 33.1412C14.4893 33.1412 14.3059 33.1412 14.1837 33.019C14.0003 32.7745 14.0615 32.4078 14.3671 32.3467C14.4893 32.2855 14.7338 32.3467 14.856 32.4689ZM14.3671 31.2465C14.6727 31.3687 14.7338 31.7354 14.5504 31.9188C14.4282 32.0411 14.2448 31.9799 14.1226 31.9799C13.8781 31.9188 13.6947 31.491 13.9392 31.3076C14.0003 31.1854 14.2448 31.1854 14.3671 31.2465ZM13.1447 32.3467C13.3891 32.3467 13.6336 32.2855 13.7559 32.53C13.8781 32.7745 13.817 33.1412 13.5114 33.2023C13.328 33.2635 13.0835 33.2635 12.9002 33.0801C12.7168 32.8356 12.839 32.4078 13.1447 32.3467ZM12.6557 31.7355C12.5334 31.2465 13.3891 31.002 13.5114 31.491C13.6336 31.9799 12.7168 32.2244 12.6557 31.7355ZM13.817 30.2686C14.0615 30.2686 14.1837 30.6353 14.0615 30.8186C14.0003 30.9409 13.817 30.9409 13.6947 30.9409C13.4503 30.8798 13.328 30.6353 13.4503 30.3908C13.5114 30.2074 13.6336 30.2686 13.817 30.2686ZM13.1447 29.2906C13.2669 29.2295 13.3891 29.2906 13.5114 29.3517C13.6947 29.5351 13.6336 29.7796 13.3891 29.8407C13.2669 29.8407 13.1447 29.8407 13.0224 29.7796C12.9002 29.7185 12.9002 29.3517 13.1447 29.2906ZM13.1447 30.513C13.2669 30.9409 12.5334 31.1854 12.4112 30.7575C12.2278 30.2686 12.9613 30.0852 13.1447 30.513ZM12.0445 29.7796C11.9222 29.4129 12.5946 29.1684 12.6557 29.5962C12.8391 29.963 12.1667 30.1463 12.0445 29.7796ZM12.0445 31.7966C11.8611 31.8577 11.6778 31.9188 11.5555 31.7355C11.3722 31.5521 11.4333 31.1854 11.6778 31.1242C11.8611 31.0631 12.0445 31.002 12.1667 31.1854C12.3501 31.3076 12.3501 31.7354 12.0445 31.7966ZM12.1667 28.4961C12.289 28.4349 12.4723 28.3738 12.5946 28.4961C12.7779 28.6183 12.7168 28.9239 12.5334 29.0461C12.4112 29.1073 12.2278 29.1684 12.1056 29.0461C11.9834 28.8628 11.9222 28.6183 12.1667 28.4961ZM12.1056 30.3908C12.2278 30.7575 11.5555 31.002 11.4333 30.6353C11.311 30.2686 11.9834 30.0241 12.1056 30.3908ZM11.0666 29.7796C10.9443 29.4129 11.5555 29.2295 11.6778 29.5962C11.8 29.963 11.1888 30.1463 11.0666 29.7796ZM11.1888 28.6794C11.311 28.6183 11.4944 28.5572 11.6166 28.6794C11.7389 28.8017 11.6778 29.0461 11.5555 29.1073C11.4333 29.1684 11.2499 29.1684 11.1277 29.0461C11.0054 28.985 11.0054 28.8017 11.1888 28.6794ZM10.6387 30.1463C10.761 30.0852 10.8832 30.0241 11.0054 30.0852C11.1888 30.1463 11.1888 30.4519 11.0666 30.5742C11.0054 30.6353 10.8832 30.6964 10.761 30.6964C10.5165 30.5742 10.4553 30.2686 10.6387 30.1463ZM10.6387 31.1242C10.761 31.002 10.8832 30.9409 11.0666 31.002C11.311 31.1242 11.311 31.4298 11.1277 31.6132C11.0666 31.6743 10.8832 31.7355 10.761 31.7355C10.4553 31.6743 10.3942 31.3076 10.6387 31.1242ZM11.311 32.2855C11.5555 32.7745 10.761 33.2635 10.5165 32.7745C10.3331 32.2855 11.0054 31.7966 11.311 32.2855ZM10.5776 33.8747C10.3331 33.3857 11.1888 32.7745 11.4333 33.3857C11.6778 33.8747 10.8221 34.4248 10.5776 33.8747ZM11.4944 35.036C11.4333 35.036 11.4333 35.0971 11.4333 35.0971L10.9443 34.6081C10.9443 34.6081 11.0666 34.4859 11.1277 34.4859C11.4944 34.1803 11.8611 34.8526 11.4944 35.036ZM11.5555 32.6523C11.3722 32.1022 12.3501 31.7966 12.5334 32.4078C12.7168 33.019 11.7389 33.2635 11.5555 32.6523ZM11.7389 33.9358C11.5555 33.3246 12.5946 33.019 12.7779 33.6302C12.9002 34.2414 11.8611 34.547 11.7389 33.9358ZM11.8611 35.1582C11.6778 34.547 12.7168 34.2414 12.9002 34.8526C13.0835 35.5249 12.0445 35.7694 11.8611 35.1582ZM13.0835 36.3195C13.0224 36.564 12.8391 36.564 12.6557 36.6251C12.5334 36.4417 12.1667 36.075 12.1667 36.0139V35.9528C12.1667 35.8916 12.2278 35.8305 12.289 35.8305C12.4112 35.7694 12.6557 35.7083 12.7779 35.7083C13.0224 35.7694 13.1447 36.075 13.0835 36.3195ZM13.328 33.5691C13.5725 33.5079 13.817 33.4468 14.0003 33.6302C14.1837 33.8747 14.1226 34.3025 13.817 34.4248C13.6336 34.4859 13.328 34.547 13.1447 34.3636C12.9613 34.1803 12.9613 33.6913 13.328 33.5691ZM13.5725 34.8526C13.817 34.7915 14.0615 34.7304 14.2448 34.9137C14.4282 35.1582 14.3671 35.5249 14.0615 35.6472C13.8781 35.7083 13.6336 35.7694 13.4503 35.586C13.2058 35.4027 13.2058 34.9137 13.5725 34.8526ZM14.4893 36.7473C14.4893 36.8696 14.3059 36.8696 14.1837 36.9307C13.8781 36.9918 13.5725 36.9918 13.5114 36.6251C13.3891 36.2584 13.6947 36.075 14.0003 36.0139C14.1837 35.9528 14.3059 36.0139 14.4282 36.1361C14.4282 36.1973 14.4893 36.1973 14.4893 36.2584C14.6115 36.1973 14.5504 36.6862 14.4893 36.7473ZM14.7338 35.0971C14.7338 35.1582 14.7338 35.2193 14.7338 35.2193C14.5504 35.0971 14.4893 34.9137 14.5504 34.7304C14.6115 34.6081 14.7338 34.547 14.856 34.547C14.7949 34.7304 14.7949 34.9137 14.7338 35.0971ZM15.0394 33.7524C15.0394 33.8135 14.9171 34.2414 14.9171 34.2414C14.856 34.2414 14.7338 34.2414 14.7338 34.2414C14.4893 34.2414 14.2448 33.9969 14.3671 33.7524C14.4282 33.5079 14.6115 33.5079 14.7949 33.5079C14.856 33.5079 15.0394 33.5079 15.1005 33.5691C15.1005 33.5691 15.1005 33.6913 15.0394 33.7524Z" fill="black"/>
<path d="M25.8588 33.0186C25.7977 32.8963 25.2476 33.5075 24.8809 33.5686C24.8198 33.5686 24.7586 33.6298 24.6364 33.6909C24.5753 33.752 24.5142 33.8131 24.5142 33.9354C24.5142 33.9965 24.5142 34.0576 24.5753 34.1187C24.6364 34.1799 24.6975 34.1799 24.7586 34.1799C24.8198 34.1799 24.8809 34.1187 25.0031 34.0576C25.0642 33.9965 25.1254 33.9354 25.1254 33.8131C25.2476 33.3853 25.9199 33.0797 25.8588 33.0186Z" fill="black"/>
<path d="M24.6965 34.3016C24.6354 34.2405 24.5743 34.2405 24.452 34.2405C24.3909 34.2405 24.3909 34.2405 24.3298 34.3016V34.2405C24.3298 34.1183 24.3298 34.0571 24.3298 33.996C24.2075 33.5682 24.8187 33.0181 24.7576 32.957C24.6965 32.8959 24.2687 33.6293 23.9631 33.8738C23.9019 33.8738 23.8408 33.996 23.8408 34.0571C23.8408 34.1183 23.8408 34.2405 23.8408 34.3016C23.9019 34.3627 23.9019 34.4239 24.0242 34.485C24.0853 34.485 24.1464 34.485 24.2075 34.485C24.2075 34.5461 24.2075 34.5461 24.2075 34.6072C24.2075 34.6683 24.2687 34.7295 24.3298 34.7906C24.3909 34.8517 24.452 34.8517 24.5743 34.8517C24.6354 34.8517 24.7576 34.7906 24.8187 34.7295C25.1244 34.4239 25.8578 34.1183 25.8578 34.0571C25.7356 33.996 25.0632 34.5461 24.6965 34.3016Z" fill="black"/>
<path d="M24.0863 34.9132C24.0252 34.852 23.9641 34.7909 23.8418 34.7909C23.7807 34.7909 23.7196 34.7909 23.6585 34.7909V34.7298C23.6585 34.6076 23.6585 34.5464 23.5974 34.4242C23.3529 33.9963 23.9641 33.2018 23.903 33.2018C23.8418 33.2018 23.5362 34.0575 23.2306 34.4242C23.1695 34.4853 23.1084 34.5464 23.1084 34.6687C23.1084 34.7909 23.1084 34.852 23.1695 34.9743C23.2306 35.0354 23.2918 35.0965 23.3529 35.0965C23.414 35.0965 23.414 35.0965 23.4751 35.0965C23.4751 35.1576 23.4751 35.2799 23.5362 35.341C23.5974 35.4021 23.6585 35.4632 23.7807 35.4632C23.903 35.4632 23.9641 35.4632 24.0252 35.4021C24.3919 35.1576 25.2476 34.9743 25.2476 34.852C25.2476 34.7909 24.4531 35.2188 24.0863 34.9132Z" fill="black"/>
<path d="M23.4131 35.586C23.352 35.5249 23.2297 35.4637 23.1686 35.4637C23.1075 35.4637 22.9852 35.4637 22.9241 35.4637C22.9241 35.4026 22.9852 35.3415 22.9852 35.2804C22.9852 35.1581 22.9852 35.0359 22.9241 34.9748C22.7407 34.5469 23.2908 33.6301 23.2297 33.569C23.1686 33.5079 22.8019 34.5469 22.4963 34.9136C22.4351 34.9748 22.374 35.097 22.374 35.2192C22.374 35.3415 22.374 35.4637 22.4351 35.5248C22.4963 35.586 22.5574 35.6471 22.6185 35.6471H22.6796C22.6796 35.6471 22.6796 35.6471 22.6796 35.7082C22.6796 35.7693 22.6796 35.8916 22.7407 35.9527C22.8019 36.0138 22.9241 36.0749 22.9852 36.0749C23.1075 36.0749 23.2297 36.0749 23.2908 36.0138C23.7187 35.7693 24.6355 35.5248 24.6355 35.4637C24.6966 35.3415 23.7798 35.8916 23.4131 35.586Z" fill="black"/>
<path d="M14.3073 39.6199C12.657 39.6199 11.2512 40.3533 10.9456 40.5367C10.9456 40.5367 10.8845 40.5367 10.9456 40.5367C11.1901 40.17 12.657 38.2141 15.1629 38.2141C15.7741 38.2141 21.5195 38.2141 21.5195 38.2141C21.8862 38.2141 22.1307 38.5197 22.1307 38.9476C22.1307 39.3754 21.8251 39.681 21.5195 39.681C21.5195 39.6199 15.8964 39.6199 14.3073 39.6199Z" fill="black"/>
<path d="M14.7344 45.2427C12.6563 45.2427 12.5341 43.7147 9.47803 43.3479V43.2868C11.984 42.6756 12.9008 43.7147 14.3677 43.7147C14.9789 43.7147 21.5188 43.7147 21.5188 43.7147C21.8855 43.7147 22.13 44.0203 22.13 44.4481C22.13 44.876 21.8244 45.1816 21.5188 45.1816C21.5188 45.2427 16.3235 45.2427 14.7344 45.2427Z" fill="black"/>
<path d="M14.6117 43.4091C12.5947 43.4091 12.0446 42.2478 8.98859 43.0423C8.98859 43.0423 8.92747 43.0423 8.98859 42.9812C10.7 41.8199 12.5336 41.9422 13.267 41.9422C13.8782 41.9422 21.5183 41.9422 21.5183 41.9422C21.885 41.9422 22.1295 42.2478 22.1295 42.6756C22.1295 43.1035 21.8239 43.4091 21.5183 43.4091C21.5183 43.3479 16.2008 43.4091 14.6117 43.4091Z" fill="black"/>
<path d="M13.0846 41.5148C11.1899 41.5148 10.0286 41.9426 9.72297 42.0649C9.72297 42.0649 9.66184 42.0649 9.72297 42.0037C11.8011 39.8645 14.1848 39.9868 14.7349 39.9868C15.3461 39.9868 21.5804 39.9868 21.5804 39.9868C21.9471 39.9868 22.1916 40.2924 22.1916 40.7202C22.1916 41.1481 21.886 41.4537 21.5804 41.4537C21.5192 41.5148 14.6737 41.5148 13.0846 41.5148Z" fill="black"/>
<path d="M15.5891 24.8285H14.4278L13.7554 22.3226C13.7554 22.2615 13.6943 22.017 13.6332 21.7725C13.5721 21.4669 13.5721 21.2835 13.511 21.2224C13.511 21.3447 13.4498 21.528 13.3887 21.7725C13.3276 22.017 13.2665 22.2003 13.2665 22.3226L12.5942 24.8285H11.4329L10.2104 20H11.1884L11.7996 22.6282C11.9218 23.1171 11.9829 23.545 12.0441 23.9117C12.0441 23.7895 12.1052 23.6061 12.1052 23.3616C12.1663 23.1171 12.1663 22.8727 12.2274 22.7504L13.0831 20H14.061L14.7334 22.6893C14.7334 22.8115 14.7945 22.9949 14.8556 23.2394C14.9167 23.4839 14.9167 23.7284 14.9779 23.8506C14.9779 23.6672 15.039 23.4839 15.1001 23.2394C15.1612 22.9949 15.2223 22.7504 15.2223 22.6282L15.8335 20H16.8115L15.5891 24.8285Z" fill="black"/>
<path d="M18.3408 24.8285H17.3018V20H20.0522V20.8557H18.3408V22.0781H19.9299V22.8727H18.3408V24.8285Z" fill="black"/>
<path d="M24.1478 21.4669C24.1478 21.9559 23.9644 22.3837 23.6588 22.6282C23.3532 22.8727 22.8642 23.056 22.253 23.056H21.8252V24.7674H20.7861V20H22.3141C22.9254 20 23.3532 20.1222 23.6588 20.3667C24.0255 20.6112 24.1478 20.9779 24.1478 21.4669ZM21.8863 22.2615H22.1919C22.4975 22.2615 22.742 22.2003 22.8642 22.0781C23.0476 21.9559 23.1087 21.7725 23.1087 21.528C23.1087 21.2835 23.0476 21.1002 22.9254 20.9779C22.8031 20.8557 22.6198 20.7946 22.3141 20.7946H21.8252V22.2615H21.8863Z" fill="black"/>
</svg>
