<svg width="75" height="75" viewBox="0 0 75 75" fill="none" xmlns="http://www.w3.org/2000/svg">
<path d="M58.5417 35.9776C57.8745 35.9776 57.9958 35.7466 56.5576 35.7466C55.3549 35.7466 54.1793 36.2737 53.4653 36.8786C53.4622 34.7519 55.3674 32.2039 58.5417 32.2039C59.8013 32.2039 60.5259 33.1977 60.5259 34.0908C60.5259 34.5912 60.3168 35.0711 59.9445 35.425C59.5727 35.7788 59.0677 35.9776 58.5417 35.9776ZM61.0322 31.6523C61.0322 32.6391 61.7159 32.7378 61.7159 34.0908C61.7204 34.605 61.585 35.1115 61.3222 35.5611C61.06 36.0107 60.6795 36.3881 60.2186 36.6565C62.0863 36.6565 65 35.0204 65 31.6542C65 31.1538 64.7909 30.6739 64.4191 30.3201C64.0468 29.9662 63.5422 29.7674 63.0159 29.7674C62.49 29.7674 61.9854 29.9662 61.6131 30.3201C61.2409 30.6739 61.0322 31.1538 61.0322 31.6542V31.6523ZM60.2145 25C59.7104 24.9999 59.2249 25.1818 58.8563 25.509C58.4877 25.8361 58.2636 26.2842 58.2295 26.7625C58.2295 26.8059 58.224 26.8493 58.224 26.8928C58.224 26.9362 58.224 26.9806 58.2295 27.024C58.1972 28.2345 57.6858 29.3889 56.7985 30.2569C56.7195 30.326 56.6426 30.3961 56.569 30.4691C56.3949 30.6389 56.234 30.821 56.0885 31.0138C55.9208 31.2355 55.7731 31.4702 55.6467 31.7154C56.2817 31.4037 56.9681 31.1971 57.6763 31.1046C57.7517 31.0976 57.8267 31.0898 57.9022 31.0799C58.9136 30.9426 59.8577 30.5188 60.6118 29.8638C61.3659 29.2088 61.8954 28.353 62.1309 27.4079C62.1559 27.3227 62.175 27.236 62.1868 27.1483C62.1995 27.0637 62.2059 26.9783 62.2054 26.8928C62.2054 26.3907 61.9954 25.9092 61.6222 25.5543C61.2486 25.1994 60.7422 25 60.2145 25Z" fill="black"/>
<path d="M13.8394 41.0786C14.7733 39.7493 16.1222 39.0063 17.7825 38.9895V42.2816C15.4996 42.0911 14.0469 43.0829 13.8394 44.6865V50.3115H10V38.8641H13.8394V41.0786Z" fill="black"/>
<path d="M22.4434 35.9706C22.4434 37.1104 21.5997 37.9117 20.4241 37.9117C19.2484 37.9117 18.4048 37.1104 18.4048 35.9706C18.4048 34.8525 19.2484 34.0511 20.4241 34.0511C21.5997 34.0511 22.4434 34.8525 22.4434 35.9706Z" fill="black"/>
<path d="M22.4517 38.8679H18.6123V50.3153H22.4517V38.8679Z" fill="black"/>
<path d="M36.5265 44.7288C36.5265 48.1886 34.3972 50.488 31.0476 50.488C29.4911 50.488 28.3663 49.8959 27.4324 48.8419V50.3153H23.4893V34.0325H27.4324V40.4873C28.3663 39.4542 29.4507 38.863 30.9605 38.863C34.3308 38.863 36.5265 41.2048 36.5265 44.7288ZM32.6664 44.6232C32.6664 42.8933 31.5789 41.6696 29.982 41.6696C28.4254 41.6696 27.3422 42.8933 27.3422 44.6232C27.3422 46.3995 28.4286 47.5975 29.982 47.5975C31.5831 47.5985 32.6664 46.3739 32.6664 44.6232Z" fill="black"/>
<path d="M47.39 44.6646C47.39 48.1669 44.7731 50.487 40.8683 50.487C36.9418 50.487 34.3237 48.1659 34.3237 44.6646C34.3237 41.1633 36.9418 38.863 40.8683 38.863C44.7731 38.863 47.39 41.1623 47.39 44.6646ZM38.1839 44.7071C38.1839 46.4834 39.2713 47.6607 40.8683 47.6607C42.4435 47.6607 43.5299 46.4765 43.5299 44.7071C43.5299 42.9564 42.4435 41.7535 40.8683 41.7535C39.2713 41.7535 38.1839 42.9603 38.1839 44.7071Z" fill="black"/>
<path d="M60.3268 43.1883V50.3153H56.695V44.1969C56.695 42.8676 55.865 42.0456 54.5781 42.0456C53.1804 42.0456 52.2329 42.9949 52.1292 44.3449V50.3114H48.186V38.864H52.1292V40.8426C52.9593 39.513 54.2626 38.8377 56.0391 38.8167C58.6791 38.8206 60.3268 40.5298 60.3268 43.1883Z" fill="black"/>
</svg>
