<svg width="75" height="75" viewBox="0 0 75 75" fill="none" xmlns="http://www.w3.org/2000/svg">
<path d="M32.3967 23.3931H32.1415C32.1381 23.3669 32.1311 23.3432 32.1206 23.3221C32.11 23.301 32.0961 23.283 32.0787 23.268C32.0614 23.253 32.0408 23.2416 32.0169 23.2338C31.9935 23.2256 31.9674 23.2216 31.9388 23.2216C31.8881 23.2216 31.8444 23.234 31.8076 23.2588C31.7712 23.2837 31.7432 23.3196 31.7234 23.3665C31.704 23.4135 31.6943 23.4703 31.6943 23.537C31.6943 23.6065 31.7042 23.6647 31.7239 23.7116C31.744 23.7582 31.7721 23.7935 31.8082 23.8173C31.8446 23.8408 31.8876 23.8525 31.9373 23.8525C31.9652 23.8525 31.9906 23.8489 32.0134 23.8418C32.0365 23.8346 32.0568 23.8243 32.0741 23.8106C32.0918 23.7967 32.1063 23.7798 32.1175 23.7601C32.1291 23.74 32.1371 23.7174 32.1415 23.6922L32.3967 23.6937C32.3923 23.74 32.3789 23.7856 32.3564 23.8306C32.3343 23.8755 32.3038 23.9165 32.265 23.9536C32.2262 23.9903 32.1789 24.0196 32.1231 24.0414C32.0677 24.0632 32.004 24.0741 31.9322 24.0741C31.8376 24.0741 31.7529 24.0533 31.678 24.0118C31.6035 23.9699 31.5446 23.909 31.5014 23.829C31.4581 23.7491 31.4365 23.6517 31.4365 23.537C31.4365 23.422 31.4585 23.3245 31.5024 23.2445C31.5463 23.1645 31.6057 23.1038 31.6805 23.0623C31.7554 23.0208 31.8393 23 31.9322 23C31.9955 23 32.054 23.0088 32.1078 23.0265C32.1616 23.0439 32.2089 23.0694 32.2497 23.1031C32.2906 23.1365 32.3237 23.1775 32.3493 23.2261C32.3748 23.2748 32.3906 23.3305 32.3967 23.3931Z" fill="black"/>
<path d="M34.2172 23.0143V24.0598H33.9645V23.0143H34.2172Z" fill="black"/>
<path d="M36.1854 24.0598H35.799V23.0143H36.1849C36.2914 23.0143 36.3831 23.0352 36.46 23.0771C36.5373 23.1186 36.5968 23.1785 36.6387 23.2568C36.6806 23.3347 36.7015 23.428 36.7015 23.5365C36.7015 23.6454 36.6806 23.739 36.6387 23.8173C36.5972 23.8956 36.5378 23.9556 36.4605 23.9975C36.3833 24.039 36.2916 24.0598 36.1854 24.0598ZM36.0516 23.8443H36.1757C36.2342 23.8443 36.2837 23.8345 36.3242 23.8147C36.3651 23.7947 36.3959 23.7622 36.4166 23.7172C36.4377 23.672 36.4483 23.6117 36.4483 23.5365C36.4483 23.4613 36.4377 23.4014 36.4166 23.3568C36.3955 23.3119 36.3644 23.2796 36.3232 23.2598C36.2824 23.2398 36.232 23.2297 36.1721 23.2297H36.0516V23.8443Z" fill="black"/>
<path d="M38.4365 24.0598H38.165L38.5177 23.0143H38.8541L39.2069 24.0598H38.9353L38.6897 23.2777H38.6816L38.4365 24.0598ZM38.4003 23.6483H38.968V23.8403H38.4003V23.6483Z" fill="black"/>
<path d="M41.129 24.0598H40.7426V23.0143H41.1285C41.235 23.0143 41.3267 23.0352 41.4037 23.0771C41.4809 23.1186 41.5405 23.1785 41.5823 23.2568C41.6242 23.3347 41.6451 23.428 41.6451 23.5365C41.6451 23.6454 41.6242 23.739 41.5823 23.8173C41.5408 23.8956 41.4814 23.9556 41.4042 23.9975C41.3269 24.039 41.2352 24.0598 41.129 24.0598ZM40.9953 23.8443H41.1193C41.1778 23.8443 41.2274 23.8345 41.2679 23.8147C41.3087 23.7947 41.3395 23.7622 41.3603 23.7172C41.3814 23.672 41.3919 23.6117 41.3919 23.5365C41.3919 23.4613 41.3814 23.4014 41.3603 23.3568C41.3392 23.3119 41.308 23.2796 41.2668 23.2598C41.226 23.2398 41.1756 23.2297 41.1157 23.2297H40.9953V23.8443Z" fill="black"/>
<path d="M43.2158 24.0598V23.0143H43.9448V23.2195H43.4685V23.4339H43.9075V23.6396H43.4685V23.8546H43.9448V24.0598H43.2158Z" fill="black"/>
<path d="M28.9829 52.9744V51.929H29.7119V52.1342H29.2356V52.3486H29.6746V52.5543H29.2356V52.7692H29.7119V52.9744H28.9829Z" fill="black"/>
<path d="M31.7434 52.2424C31.74 52.205 31.7248 52.1759 31.698 52.1551C31.6714 52.134 31.6335 52.1235 31.5841 52.1235C31.5514 52.1235 31.5242 52.1277 31.5024 52.1362C31.4807 52.1447 31.4643 52.1565 31.4534 52.1714C31.4425 52.1861 31.4369 52.2029 31.4366 52.222C31.4359 52.2376 31.439 52.2514 31.4458 52.2633C31.4529 52.2752 31.4631 52.2858 31.4764 52.295C31.49 52.3038 31.5063 52.3117 31.5254 52.3185C31.5445 52.3253 31.5659 52.3312 31.5897 52.3363L31.6796 52.3568C31.7313 52.368 31.7769 52.383 31.8164 52.4017C31.8562 52.4204 31.8896 52.4427 31.9164 52.4685C31.9437 52.4944 31.9643 52.5242 31.9782 52.5579C31.9922 52.5916 31.9993 52.6294 31.9996 52.6712C31.9993 52.7372 31.9826 52.7939 31.9496 52.8412C31.9166 52.8885 31.8691 52.9248 31.8072 52.9499C31.7456 52.9751 31.6712 52.9877 31.5841 52.9877C31.4966 52.9877 31.4204 52.9746 31.3554 52.9484C31.2904 52.9222 31.2399 52.8824 31.2038 52.8289C31.1677 52.7755 31.1492 52.708 31.1482 52.6263H31.3901C31.3922 52.66 31.4012 52.6881 31.4172 52.7105C31.4332 52.733 31.4551 52.75 31.483 52.7616C31.5113 52.7731 31.544 52.7789 31.581 52.7789C31.6151 52.7789 31.644 52.7743 31.6678 52.7651C31.692 52.756 31.7105 52.7432 31.7235 52.7269C31.7364 52.7105 31.743 52.6918 31.7434 52.6707C31.743 52.651 31.7369 52.6341 31.725 52.6202C31.7131 52.6059 31.6947 52.5936 31.6699 52.5834C31.6454 52.5729 31.6141 52.5632 31.5759 52.5543L31.4667 52.5288C31.3762 52.508 31.3049 52.4745 31.2528 52.4282C31.2007 52.3816 31.1749 52.3186 31.1752 52.2393C31.1749 52.1747 31.1922 52.118 31.2273 52.0693C31.2623 52.0207 31.3108 51.9827 31.3728 51.9555C31.4347 51.9283 31.5053 51.9147 31.5846 51.9147C31.6656 51.9147 31.7359 51.9285 31.7955 51.956C31.8553 51.9832 31.9018 52.0215 31.9348 52.0709C31.9678 52.1202 31.9847 52.1774 31.9854 52.2424H31.7434Z" fill="black"/>
<path d="M33.4012 52.1342V51.929H34.2849V52.1342H33.9678V52.9744H33.7187V52.1342H33.4012Z" fill="black"/>
<path d="M35.8077 52.9892C35.7709 52.9892 35.7394 52.9763 35.7132 52.9504C35.6874 52.9246 35.6746 52.8933 35.6749 52.8565C35.6746 52.8204 35.6874 52.7896 35.7132 52.7641C35.7394 52.7383 35.7709 52.7253 35.8077 52.7253C35.8424 52.7253 35.873 52.7383 35.8995 52.7641C35.9264 52.7896 35.94 52.8204 35.9404 52.8565C35.94 52.881 35.9336 52.9033 35.921 52.9234C35.9087 52.9435 35.8926 52.9595 35.8725 52.9714C35.8528 52.9833 35.8311 52.9892 35.8077 52.9892Z" fill="black"/>
<path d="M38.9624 52.9744V52.7927L39.3437 52.4588C39.3723 52.433 39.3966 52.4093 39.4167 52.3879C39.4368 52.3661 39.4521 52.3443 39.4627 52.3225C39.4732 52.3004 39.4785 52.2764 39.4785 52.2506C39.4785 52.2216 39.4722 52.197 39.4596 52.1766C39.447 52.1558 39.4297 52.1398 39.4075 52.1286C39.3854 52.1173 39.3601 52.1117 39.3315 52.1117C39.3025 52.1117 39.2772 52.1177 39.2554 52.1296C39.2336 52.1412 39.2166 52.158 39.2044 52.1801C39.1924 52.2022 39.1865 52.2291 39.1865 52.2608H38.9471C38.9471 52.1897 38.9631 52.1282 38.9951 52.0765C39.027 52.0248 39.072 51.9849 39.1298 51.957C39.188 51.9288 39.2556 51.9147 39.3325 51.9147C39.4118 51.9147 39.4807 51.9279 39.5392 51.9545C39.5978 51.981 39.643 52.0181 39.675 52.0658C39.7074 52.1131 39.7235 52.168 39.7235 52.2307C39.7235 52.2705 39.7155 52.31 39.6995 52.3491C39.6835 52.3882 39.6548 52.4315 39.6133 52.4788C39.5721 52.5261 39.5135 52.5827 39.4376 52.6487L39.3126 52.7641V52.7708H39.7363V52.9744H38.9624Z" fill="black"/>
<path d="M41.6196 53C41.5284 53 41.4498 52.9784 41.3838 52.9351C41.3177 52.8916 41.2669 52.8291 41.2311 52.7478C41.1954 52.6661 41.1777 52.5679 41.178 52.4532C41.1784 52.3385 41.1963 52.2412 41.2316 52.1612C41.2674 52.0809 41.3181 52.0198 41.3838 51.978C41.4498 51.9358 41.5284 51.9147 41.6196 51.9147C41.7108 51.9147 41.7894 51.9358 41.8555 51.978C41.9218 52.0198 41.9729 52.0809 42.0086 52.1612C42.0443 52.2416 42.062 52.3389 42.0617 52.4532C42.0617 52.5683 42.0438 52.6666 42.0081 52.7483C41.9724 52.83 41.9215 52.8924 41.8555 52.9356C41.7898 52.9785 41.7112 53 41.6196 53ZM41.6196 52.7932C41.6741 52.7932 41.7181 52.7655 41.7518 52.71C41.7855 52.6542 41.8022 52.5686 41.8019 52.4532C41.8019 52.3777 41.7942 52.3154 41.7789 52.2664C41.7636 52.217 41.7423 52.1803 41.7151 52.1561C41.6879 52.132 41.656 52.1199 41.6196 52.1199C41.5655 52.1199 41.5218 52.1473 41.4884 52.2021C41.4551 52.2565 41.4382 52.3402 41.4379 52.4532C41.4375 52.5298 41.4449 52.5933 41.4598 52.6436C41.4751 52.694 41.4966 52.7316 41.5242 52.7565C41.5517 52.781 41.5835 52.7932 41.6196 52.7932Z" fill="black"/>
<path d="M43.5146 52.9744V52.7927L43.8959 52.4588C43.9245 52.433 43.9488 52.4093 43.9689 52.3879C43.989 52.3661 44.0043 52.3443 44.0148 52.3225C44.0254 52.3004 44.0307 52.2764 44.0307 52.2506C44.0307 52.2216 44.0244 52.197 44.0118 52.1766C43.9992 52.1558 43.9818 52.1398 43.9597 52.1286C43.9376 52.1173 43.9122 52.1117 43.8836 52.1117C43.8547 52.1117 43.8294 52.1177 43.8076 52.1296C43.7858 52.1412 43.7688 52.158 43.7565 52.1801C43.7446 52.2022 43.7387 52.2291 43.7387 52.2608H43.4992C43.4992 52.1897 43.5152 52.1282 43.5472 52.0765C43.5792 52.0248 43.6241 51.9849 43.682 51.957C43.7402 51.9288 43.8078 51.9147 43.8847 51.9147C43.964 51.9147 44.0329 51.9279 44.0914 51.9545C44.1499 51.981 44.1952 52.0181 44.2272 52.0658C44.2595 52.1131 44.2757 52.168 44.2757 52.2307C44.2757 52.2705 44.2677 52.31 44.2517 52.3491C44.2357 52.3882 44.2069 52.4315 44.1654 52.4788C44.1243 52.5261 44.0657 52.5827 43.9898 52.6487L43.8648 52.7641V52.7708H44.2885V52.9744H43.5146Z" fill="black"/>
<path d="M46.1718 53C46.0806 53 46.002 52.9784 45.9359 52.9351C45.8699 52.8916 45.819 52.8291 45.7833 52.7478C45.7476 52.6661 45.7299 52.5679 45.7302 52.4532C45.7306 52.3385 45.7484 52.2412 45.7838 52.1612C45.8196 52.0809 45.8703 52.0198 45.9359 51.978C46.002 51.9358 46.0806 51.9147 46.1718 51.9147C46.263 51.9147 46.3416 51.9358 46.4076 51.978C46.474 52.0198 46.525 52.0809 46.5608 52.1612C46.5965 52.2416 46.6142 52.3389 46.6139 52.4532C46.6139 52.5683 46.596 52.6666 46.5603 52.7483C46.5245 52.83 46.4737 52.8924 46.4076 52.9356C46.342 52.9785 46.2633 53 46.1718 53ZM46.1718 52.7932C46.2262 52.7932 46.2703 52.7655 46.304 52.71C46.3377 52.6542 46.3544 52.5686 46.354 52.4532C46.354 52.3777 46.3464 52.3154 46.3311 52.2664C46.3157 52.217 46.2945 52.1803 46.2673 52.1561C46.24 52.132 46.2082 52.1199 46.1718 52.1199C46.1177 52.1199 46.0739 52.1473 46.0406 52.2021C46.0072 52.2565 45.9904 52.3402 45.9901 52.4532C45.9897 52.5298 45.997 52.5933 46.012 52.6436C46.0273 52.694 46.0488 52.7316 46.0763 52.7565C46.1039 52.781 46.1357 52.7932 46.1718 52.7932Z" fill="black"/>
<path fill-rule="evenodd" clip-rule="evenodd" d="M25.5573 24.9229L24.7678 25.7758V27.5907L24 28.4557L39.6376 28.5272L38.1421 30.1944C38.1421 30.1944 38.1085 40.4402 38.1085 45.7175L37.3836 46.547L40.8911 46.5791L41.7659 45.7081L41.7824 30.1944L43.4765 28.5272H49.8006L50.6793 27.5907V25.7758L51.4116 24.9229H25.5573ZM25.5573 29.335L24.7678 30.1944C24.7678 40.0017 24.7053 50.18 24.7053 50.18L24 51.0734H27.5203L28.3923 50.2135V40.2327L29.1903 39.5718V50.1525L28.3769 51.0734H32.1904L32.8234 50.2174L32.8399 30.1944L33.6616 29.335H25.5573ZM34.4833 29.335L33.6616 30.1944C33.6616 30.1944 33.6497 50.0978 33.6321 50.1442L32.7954 51.0626C32.8234 51.0734 34.7677 51.0734 36.9401 51.0734H40.8901L41.7363 50.1935L41.7313 47.4193H35.7344L37.2868 45.7381L37.319 30.1944L37.993 29.335H34.4833ZM43.4093 29.335L42.5876 30.1944V50.1935L41.7363 51.0734H45.3364L46.229 50.2024V39.512L47.0169 40.2161V50.2024L46.229 51.0734H49.7843L50.6435 50.2192L50.6793 30.1944L51.4116 29.335H43.4093ZM29.1903 33.0034V35.7187L28.3923 36.4268V33.0034H29.1903ZM47.0169 32.9685V36.4134L46.229 35.6973V32.9685H47.0169Z" fill="black"/>
</svg>
