<svg width="75" height="75" viewBox="0 0 75 75" fill="none" xmlns="http://www.w3.org/2000/svg">
<g clip-path="url(#clip0_622_7248)">
<path d="M20.5944 32.9425C20.8168 32.9423 21.0366 32.9903 21.2387 33.0832C21.4408 33.1761 21.6203 33.3117 21.765 33.4806L23.0514 32.0034C22.5282 31.4653 21.5206 31.1029 20.5665 31.1029C18.4826 31.1029 16.8296 32.4858 16.8296 34.6641C16.8296 36.8809 18.4697 38.2252 20.5794 38.2252C21.5613 38.2252 22.509 37.9036 23.0514 37.3676L21.8293 35.8668C21.6758 36.0288 21.49 36.1568 21.2839 36.2425C21.0778 36.3281 20.8561 36.3696 20.633 36.3642C19.6661 36.3642 19.0615 35.5838 19.0615 34.6491C19.0615 33.7143 19.6596 32.9425 20.5944 32.9425ZM26.8119 31.1029C25.7114 31.0904 24.6465 31.4931 23.8296 32.2307L24.9445 33.427C25.3938 33.005 25.9814 32.7612 26.5975 32.7409C27.2836 32.7409 27.8067 33.0518 27.8067 33.71V33.8172C25.8578 33.8172 23.5059 34.1388 23.5059 36.0748C23.5059 37.6485 24.878 38.1716 25.9393 38.1716C26.7326 38.1716 27.498 37.85 27.8346 37.299H27.8753V38.0108H29.8906V34.6362C29.8842 32.2049 29.0502 31.1029 26.8055 31.1029H26.8119ZM27.8839 35.3223C27.8839 36.1563 27.3865 36.6944 26.4989 36.6944C26.0551 36.6944 25.5448 36.5186 25.5448 36.0083C25.5448 35.2151 26.6339 35.095 27.6009 35.095H27.8839V35.3223ZM35.2505 31.1287C34.8396 31.1196 34.4322 31.2059 34.0602 31.3807C33.6882 31.5556 33.3618 31.8142 33.1066 32.1363H33.0658V31.3173H30.969V41.2375H33.1666V37.2711H33.1945C33.6104 37.85 34.4037 38.1995 35.2227 38.1995C37.2401 38.1995 38.4086 36.5057 38.4086 34.6362C38.4086 32.7667 37.1844 31.1287 35.2355 31.1287H35.2505ZM34.7124 36.3707C33.7176 36.3707 33.1001 35.5131 33.1001 34.6555C33.1001 33.7979 33.7176 32.9403 34.7124 32.9403C35.7608 32.9403 36.2839 33.7872 36.2839 34.6555C36.2839 35.5238 35.7394 36.3707 34.6974 36.3707H34.7124Z" fill="black"/>
<path d="M46.3671 29.5573H44.2038V31.3174H43.1318V32.9704H44.2038V35.794C44.2038 37.2176 44.7955 38.1717 46.5836 38.1717C47.0167 38.1711 47.4471 38.1031 47.8593 37.9702L47.8335 36.3579C47.6268 36.4299 47.4093 36.4661 47.1904 36.4651C46.5579 36.4651 46.3564 36.1435 46.3564 35.5239V32.9704H47.93V31.3174H46.3564L46.3671 29.5573Z" fill="black"/>
<path d="M52.1346 31.103C51.0335 31.091 49.9682 31.4936 49.1502 32.2308L50.2651 33.4271C50.7155 33.0055 51.3036 32.7617 51.9202 32.741C52.6041 32.741 53.1294 33.0519 53.1294 33.7101V33.8173C51.1805 33.8173 48.8286 34.1389 48.8286 36.0749C48.8286 37.6486 50.1986 38.1717 51.2599 38.1717C52.0531 38.1717 52.8207 37.8501 53.1551 37.2991H53.1959V38.0109H55.2133V34.6363C55.2133 32.205 54.3793 31.103 52.1346 31.103ZM53.1959 35.3224C53.1959 36.1564 52.6985 36.6945 51.8109 36.6945C51.3692 36.6945 50.8568 36.5187 50.8568 36.0084C50.8568 35.2152 51.9459 35.0951 52.915 35.0951H53.1959V35.3224Z" fill="black"/>
<path d="M60.9801 31.1285C60.5941 31.1207 60.2111 31.1977 59.8581 31.354C59.505 31.5103 59.1906 31.7422 58.9369 32.0333H58.9091V27.8483H56.7051V38.0107H58.7354V37.1359H58.7611C59.1899 37.8091 60.0647 38.2079 60.9523 38.2079C62.9676 38.2079 64.1382 36.5142 64.1382 34.6446C64.1382 32.7751 62.929 31.1285 60.9801 31.1285ZM60.4291 36.3705C59.4343 36.3705 58.8147 35.5129 58.8147 34.6554C58.8147 33.7978 59.4343 32.9402 60.4291 32.9402C61.4775 32.9402 62.0135 33.787 62.0135 34.6554C62.0135 35.5237 61.4775 36.3705 60.4291 36.3705Z" fill="black"/>
<path d="M67.1635 27.8483H64.9316V38.0085H67.1635V27.8483Z" fill="black"/>
<path d="M74.9989 34.7434C74.9989 32.46 73.6139 31.0986 71.6393 31.0986C69.609 31.0986 68.0225 32.4965 68.0225 34.6855C68.0225 36.9452 69.6905 38.2209 71.7058 38.2209C73.0629 38.2209 74.1113 37.7106 74.7438 36.7973L73.2109 35.8282C73.0412 36.0579 72.8178 36.2424 72.5603 36.3658C72.3028 36.4891 72.019 36.5475 71.7337 36.5357C70.9404 36.5357 70.2007 36.0126 70.1343 35.2729H74.9861C74.9989 35.1078 74.9989 34.9192 74.9989 34.7434ZM70.1343 33.8986C70.1773 33.5318 70.3579 33.195 70.6397 32.9563C70.9214 32.7175 71.2833 32.5945 71.6522 32.6123C72.5269 32.6123 72.9686 33.1911 72.9686 33.8986H70.1343Z" fill="black"/>
<path d="M8.18737 35.5538C7.80324 35.8662 7.33825 36.0631 6.84656 36.1215C6.35486 36.1799 5.85669 36.0974 5.41006 35.8837C4.96343 35.6699 4.5867 35.3337 4.32376 34.9141C4.06082 34.4945 3.92248 34.0089 3.92484 33.5138C3.92721 33.0186 4.07018 32.5343 4.33712 32.1173C4.60406 31.7003 4.98398 31.3677 5.43263 31.1582C5.88129 30.9487 6.38022 30.871 6.87134 30.9341C7.36245 30.9972 7.82554 31.1985 8.20667 31.5146L10.9724 28.7489C10.0428 27.8838 8.8811 27.3086 7.62955 27.0939C6.37801 26.8793 5.09102 27.0344 3.92631 27.5402C2.7616 28.0461 1.76976 28.8808 1.07236 29.942C0.374961 31.0031 0.00228615 32.2447 1.04845e-05 33.5145C-0.00226519 34.7844 0.365957 36.0273 1.05955 37.0909C1.75314 38.1546 2.74198 38.9928 3.90487 39.5029C5.06776 40.0129 6.35418 40.1726 7.60649 39.9624C8.8588 39.7522 10.0226 39.1813 10.9552 38.3195L8.18737 35.5538Z" fill="black"/>
<path d="M41.1354 36.0406C41.8328 36.0406 42.3981 35.4992 42.3981 34.8314C42.3981 34.1636 41.8328 33.6222 41.1354 33.6222C40.4379 33.6222 39.8726 34.1636 39.8726 34.8314C39.8726 35.4992 40.4379 36.0406 41.1354 36.0406Z" fill="black"/>
<path d="M11.3332 33.3499V33.2898C11.2876 32.6034 11.0961 31.9347 10.7715 31.3281C10.831 31.2242 10.8551 31.1038 10.8403 30.9849C10.8255 30.8661 10.7725 30.7553 10.6894 30.6692C10.6062 30.583 10.4973 30.5262 10.3791 30.5072C10.2609 30.4883 10.1397 30.5082 10.0337 30.5639C9.92777 30.6197 9.84278 30.7084 9.79152 30.8166C9.74027 30.9248 9.72551 31.0467 9.74947 31.1641C9.77343 31.2814 9.8348 31.3878 9.92439 31.4672C10.014 31.5467 10.1269 31.5949 10.2462 31.6047C10.5823 32.2248 10.7584 32.919 10.7587 33.6243C10.7587 33.7143 10.7587 33.8022 10.7587 33.8923H12.3516V33.9588C12.2961 34.9561 11.9853 35.9225 11.449 36.7652C11.3397 36.7677 11.2335 36.8025 11.1439 36.8651C11.0542 36.9278 10.9851 37.0155 10.9451 37.1173C10.9051 37.219 10.896 37.3304 10.919 37.4373C10.9421 37.5442 10.9962 37.6419 11.0745 37.7182C11.1529 37.7945 11.252 37.8459 11.3595 37.8661C11.467 37.8863 11.578 37.8742 11.6787 37.8315C11.7794 37.7888 11.8652 37.7173 11.9254 37.626C11.9856 37.5348 12.0176 37.4277 12.0172 37.3183C12.017 37.23 11.9949 37.1431 11.9528 37.0654C12.532 36.152 12.8705 35.1068 12.9369 34.0274V33.963C12.9369 33.8494 12.9369 33.7336 12.9369 33.6157C12.9369 33.4978 12.9369 33.4356 12.9369 33.3456L11.3332 33.3499Z" fill="black"/>
<path d="M11.4449 34.8656C11.4439 34.7782 11.4222 34.6922 11.3817 34.6148C11.3412 34.5373 11.2829 34.4705 11.2117 34.4198C11.1405 34.3691 11.0583 34.3359 10.9718 34.323C10.8853 34.3101 10.797 34.3177 10.7141 34.3454C10.6311 34.373 10.5559 34.4199 10.4945 34.4821C10.4331 34.5443 10.3872 34.6202 10.3606 34.7035C10.3341 34.7868 10.3276 34.8752 10.3416 34.9615C10.3557 35.0478 10.3899 35.1295 10.4416 35.2001C10.3923 35.3223 10.3387 35.4445 10.2765 35.5667L10.2357 35.6439L9.47464 34.8828L9.49179 34.842C9.7952 34.1017 9.80898 33.2744 9.53038 32.5244C9.61564 32.4254 9.66278 32.2992 9.66331 32.1685C9.66359 32.0642 9.63451 31.962 9.5794 31.8735C9.52428 31.785 9.44535 31.7137 9.35165 31.668C9.25795 31.6222 9.15326 31.6038 9.04957 31.6148C8.94587 31.6258 8.84736 31.6657 8.76532 31.7301C8.68327 31.7944 8.621 31.8806 8.58564 31.9787C8.55028 32.0768 8.54325 32.1828 8.56536 32.2847C8.58748 32.3866 8.63784 32.4803 8.71068 32.5549C8.78352 32.6295 8.8759 32.6821 8.97724 32.7066C9.11444 33.0723 9.16831 33.4639 9.13493 33.853C9.10155 34.242 8.98175 34.6188 8.78428 34.9557L10.373 36.5358C10.6291 36.1901 10.8375 35.8115 10.9926 35.4102C11.1197 35.3866 11.2346 35.3192 11.3173 35.2198C11.3999 35.1203 11.4451 34.995 11.4449 34.8656Z" fill="black"/>
<path d="M12.6587 31.7589C12.4865 31.1838 12.2338 30.636 11.9083 30.1316C11.9376 30.0639 11.9529 29.991 11.9533 29.9172C11.9533 29.8074 11.9208 29.7 11.8598 29.6087C11.7987 29.5174 11.712 29.4462 11.6106 29.4042C11.5091 29.3622 11.3974 29.3512 11.2897 29.3726C11.182 29.394 11.0831 29.4469 11.0054 29.5246C10.9278 29.6022 10.8749 29.7012 10.8534 29.8089C10.832 29.9166 10.843 30.0283 10.885 30.1297C10.9271 30.2312 10.9982 30.3179 11.0896 30.3789C11.1809 30.4399 11.2882 30.4725 11.3981 30.4725H11.4238C11.722 30.938 11.953 31.4432 12.1099 31.9733C12.0339 32.0699 11.9924 32.1891 11.9919 32.312C11.9916 32.4177 12.0212 32.5213 12.0774 32.6107C12.1337 32.7002 12.2141 32.7718 12.3095 32.8173C12.4049 32.8627 12.5112 32.8801 12.6161 32.8675C12.721 32.8548 12.8201 32.8126 12.902 32.7458C12.9838 32.679 13.045 32.5903 13.0783 32.49C13.1116 32.3898 13.1158 32.2821 13.0903 32.1796C13.0648 32.077 13.0107 31.9839 12.9343 31.9109C12.8579 31.8379 12.7623 31.7882 12.6587 31.7675V31.7589Z" fill="black"/>
<path d="M17.3187 44.2733L17.1043 44.7407H16.7334L17.6403 42.6825H18.0133L18.9202 44.7407H18.5493L18.3349 44.2733H17.3187ZM18.2063 43.9517L17.8333 43.0941L17.4581 43.9517H18.2063Z" fill="black"/>
<path d="M20.6635 43.1498C20.7633 43.1477 20.8625 43.1656 20.9553 43.2024C21.0481 43.2392 21.1326 43.2943 21.2038 43.3642C21.2774 43.4412 21.3344 43.5325 21.3712 43.6325C21.4081 43.7324 21.4241 43.8389 21.4182 43.9452C21.4235 44.0525 21.4072 44.1598 21.3704 44.2607C21.3336 44.3616 21.2769 44.4541 21.2038 44.5327C21.1367 44.6067 21.0543 44.6653 20.9623 44.7044C20.8703 44.7436 20.771 44.7622 20.6711 44.7592C20.5712 44.7561 20.4731 44.7314 20.3837 44.6867C20.2943 44.6421 20.2157 44.5785 20.1532 44.5005V45.3088H19.8252V43.182H20.1532V43.4564C20.2036 43.3648 20.2774 43.2881 20.367 43.2343C20.4566 43.1804 20.5589 43.1513 20.6635 43.1498ZM20.1489 43.9602C20.1461 44.0272 20.1566 44.0941 20.1798 44.1571C20.203 44.22 20.2384 44.2777 20.284 44.3269C20.3253 44.3733 20.3763 44.4102 20.4333 44.435C20.4903 44.4598 20.552 44.4719 20.6142 44.4705C20.6772 44.4709 20.7397 44.4585 20.7979 44.4342C20.8561 44.4099 20.9089 44.3741 20.9529 44.329C21.001 44.2812 21.0386 44.2239 21.0633 44.1608C21.088 44.0977 21.0993 44.0301 21.0966 43.9624C21.1006 43.8236 21.0498 43.6888 20.9551 43.5872C20.9121 43.5402 20.8598 43.5027 20.8014 43.4772C20.7431 43.4518 20.68 43.4388 20.6163 43.4393C20.5535 43.4381 20.4911 43.4507 20.4337 43.4762C20.3763 43.5018 20.3252 43.5397 20.284 43.5872C20.1933 43.6899 20.145 43.8233 20.1489 43.9602Z" fill="black"/>
<path d="M22.0592 44.7407H21.729V42.556H22.0592V44.7407Z" fill="black"/>
<path d="M23.7336 44.7406H23.4313V44.5262C23.3681 44.6022 23.2882 44.6627 23.1979 44.7028C23.1075 44.743 23.0091 44.7618 22.9103 44.7577C22.7629 44.7635 22.6186 44.7147 22.5051 44.6205C22.4524 44.5747 22.4107 44.5175 22.3833 44.4533C22.3558 44.389 22.3432 44.3194 22.3465 44.2496C22.3423 44.1823 22.3557 44.1151 22.3854 44.0546C22.4151 43.9941 22.46 43.9423 22.5158 43.9044C22.6551 43.8204 22.8164 43.78 22.9789 43.7887H23.4077V43.7308C23.4077 43.5164 23.2919 43.4178 23.0604 43.4178C22.8965 43.4244 22.7383 43.4797 22.6059 43.5764L22.4601 43.362C22.642 43.2146 22.8691 43.1343 23.1033 43.1348C23.2659 43.128 23.4259 43.178 23.5556 43.2763C23.6154 43.3298 23.6623 43.3962 23.6927 43.4705C23.7232 43.5448 23.7364 43.625 23.7315 43.7051L23.7336 44.7406ZM23.4034 44.1574V44.0245H23.0325C22.7945 44.0245 22.6745 44.0995 22.6745 44.2389C22.6729 44.2735 22.6804 44.3079 22.6962 44.3387C22.712 44.3696 22.7355 44.3958 22.7645 44.4147C22.8382 44.4587 22.9233 44.4796 23.0089 44.4747C23.1082 44.4763 23.2053 44.4454 23.2855 44.3868C23.3216 44.3603 23.351 44.3258 23.3714 44.286C23.3919 44.2462 23.4028 44.2022 23.4034 44.1574Z" fill="black"/>
<path d="M24.5074 43.4392V44.2346C24.5037 44.2991 24.5243 44.3626 24.5653 44.4125C24.5864 44.4348 24.6121 44.4522 24.6406 44.4637C24.6691 44.4752 24.6997 44.4804 24.7304 44.479C24.7696 44.477 24.808 44.4669 24.8431 44.4491C24.8782 44.4314 24.9092 44.4065 24.934 44.3761L25.0691 44.6076C24.9659 44.707 24.8286 44.763 24.6853 44.7641C24.6185 44.7656 24.5521 44.7535 24.4902 44.7284C24.4283 44.7033 24.3721 44.6659 24.3252 44.6183C24.2748 44.5667 24.2356 44.5052 24.2102 44.4376C24.1847 44.3701 24.1735 44.2981 24.1772 44.226V43.4392H23.98V43.1819H24.1772V42.6909H24.5074V43.1819H24.919V43.4477L24.5074 43.4392Z" fill="black"/>
<path d="M26.5201 44.7406H26.22V44.5262C26.1568 44.6022 26.0769 44.6627 25.9865 44.7028C25.8962 44.743 25.7978 44.7618 25.699 44.7577C25.5516 44.7635 25.4073 44.7147 25.2938 44.6205C25.2408 44.5748 25.1988 44.5177 25.171 44.4535C25.1432 44.3892 25.1302 44.3196 25.133 44.2496C25.129 44.1821 25.1428 44.1148 25.1729 44.0542C25.2029 43.9937 25.2483 43.9421 25.3045 43.9044C25.4438 43.8204 25.6051 43.78 25.7676 43.7887H26.1964V43.7308C26.1964 43.5164 26.0806 43.4178 25.8491 43.4178C25.6851 43.4241 25.5268 43.4793 25.3946 43.5764L25.2466 43.362C25.4288 43.215 25.6558 43.1348 25.8898 43.1348C26.0525 43.128 26.2124 43.178 26.3422 43.2763C26.4017 43.3299 26.4482 43.3964 26.4783 43.4707C26.5084 43.545 26.5212 43.6251 26.5158 43.7051L26.5201 44.7406ZM26.19 44.1574V44.0245H25.8191C25.5811 44.0245 25.4632 44.0995 25.4632 44.2389C25.4616 44.2733 25.4688 44.3075 25.4842 44.3383C25.4996 44.369 25.5226 44.3953 25.5511 44.4147C25.632 44.4585 25.7235 44.4791 25.8155 44.4742C25.9074 44.4693 25.9962 44.439 26.072 44.3868C26.1095 44.3613 26.1404 44.3271 26.162 44.2872C26.1836 44.2473 26.1954 44.2028 26.1964 44.1574H26.19Z" fill="black"/>
<path d="M27.3077 43.0448V43.1734H27.7215V43.4393H27.3077V44.7407H26.9775V43.4393H26.7803V43.182H26.9775V43.0619C26.9742 42.9897 26.9858 42.9176 27.0116 42.8501C27.0375 42.7826 27.0769 42.7211 27.1276 42.6696C27.1742 42.6221 27.2299 42.5847 27.2915 42.5596C27.3531 42.5345 27.4192 42.5224 27.4856 42.5238C27.6292 42.5247 27.767 42.5798 27.8716 42.6782L27.7365 42.9119C27.7114 42.8816 27.6804 42.8568 27.6454 42.8391C27.6103 42.8214 27.572 42.8111 27.5328 42.8089C27.5021 42.8076 27.4715 42.8128 27.443 42.8242C27.4146 42.8357 27.3889 42.8532 27.3677 42.8754C27.3277 42.9226 27.3063 42.9829 27.3077 43.0448Z" fill="black"/>
<path d="M29.2361 44.5305C29.077 44.6807 28.8664 44.7643 28.6476 44.7643C28.4288 44.7643 28.2183 44.6807 28.0591 44.5305C27.908 44.3783 27.8232 44.1726 27.8232 43.9581C27.8232 43.7436 27.908 43.5379 28.0591 43.3857C28.2183 43.2355 28.4288 43.1519 28.6476 43.1519C28.8664 43.1519 29.077 43.2355 29.2361 43.3857C29.3872 43.5379 29.472 43.7436 29.472 43.9581C29.472 44.1726 29.3872 44.3783 29.2361 44.5305ZM28.2928 44.3161C28.3384 44.3635 28.3935 44.4008 28.4544 44.4255C28.5154 44.4503 28.5808 44.462 28.6466 44.4598C28.7126 44.4619 28.7784 44.4502 28.8396 44.4254C28.9009 44.4007 28.9564 44.3635 29.0025 44.3161C29.0491 44.2671 29.0854 44.2092 29.1094 44.1458C29.1333 44.0825 29.1443 44.015 29.1418 43.9474C29.1444 43.8794 29.1334 43.8116 29.1094 43.7479C29.0855 43.6842 29.0491 43.626 29.0025 43.5765C28.9559 43.5298 28.9004 43.4932 28.8392 43.4689C28.7779 43.4446 28.7124 43.433 28.6466 43.435C28.581 43.4329 28.5158 43.4444 28.4549 43.4688C28.394 43.4931 28.3388 43.5298 28.2928 43.5765C28.2457 43.6257 28.2091 43.6839 28.1851 43.7477C28.1612 43.8114 28.1504 43.8793 28.1534 43.9474C28.149 44.0169 28.159 44.0865 28.183 44.1518C28.207 44.2172 28.2444 44.2768 28.2928 44.3269V44.3161Z" fill="black"/>
<path d="M30.5941 43.4843C30.5247 43.479 30.455 43.4907 30.3912 43.5184C30.3273 43.546 30.2711 43.5888 30.2275 43.643C30.1381 43.7675 30.0942 43.9188 30.1031 44.0718V44.7428H29.7729V43.182H30.1031V43.4972C30.1545 43.4012 30.228 43.3189 30.3175 43.2571C30.4018 43.1957 30.5027 43.1614 30.607 43.1584V43.4929L30.5941 43.4843Z" fill="black"/>
<path d="M31.1988 43.8939V44.7515H30.8687V43.1821H31.1988V43.4694C31.2454 43.3735 31.3202 43.2942 31.4132 43.2422C31.5059 43.1869 31.6119 43.158 31.7198 43.1585C31.8255 43.1492 31.9314 43.1739 32.0221 43.2291C32.1127 43.2843 32.1833 43.367 32.2236 43.4651C32.2883 43.3707 32.3751 43.2935 32.4763 43.2401C32.5775 43.1866 32.6902 43.1587 32.8047 43.1585C32.8834 43.1557 32.9619 43.1686 33.0355 43.1966C33.1092 43.2246 33.1765 43.267 33.2334 43.3215C33.2901 43.3848 33.3337 43.4586 33.3617 43.5389C33.3896 43.6191 33.4014 43.7041 33.3964 43.7889V44.7494H33.0662V43.8918C33.0662 43.6023 32.9462 43.463 32.706 43.463C32.5989 43.461 32.4948 43.4993 32.4145 43.5702C32.371 43.61 32.3369 43.6589 32.3143 43.7133C32.2917 43.7678 32.2812 43.8265 32.2837 43.8853V44.7558H31.9535V43.8982C31.9617 43.7833 31.934 43.6686 31.8742 43.5702C31.8439 43.5337 31.8053 43.5052 31.7616 43.4869C31.718 43.4686 31.6705 43.4611 31.6233 43.4651C31.5131 43.4633 31.4063 43.504 31.3253 43.5788C31.2839 43.6199 31.2513 43.6691 31.2295 43.7233C31.2078 43.7775 31.1973 43.8355 31.1988 43.8939Z" fill="black"/>
<path d="M35.0505 44.7407H34.7504V44.5263C34.6872 44.6023 34.6073 44.6628 34.517 44.7029C34.4266 44.7431 34.3282 44.7619 34.2294 44.7578C34.082 44.7636 33.9377 44.7147 33.8242 44.6206C33.7712 44.5748 33.7293 44.5177 33.7014 44.4535C33.6736 44.3893 33.6606 44.3196 33.6634 44.2497C33.659 44.1821 33.6726 44.1146 33.7027 44.054C33.7328 43.9934 33.7784 43.9418 33.8349 43.9045C33.9735 43.8207 34.1341 43.7804 34.2959 43.7887H34.7247V43.7308C34.7247 43.5165 34.6089 43.4178 34.3773 43.4178C34.2141 43.4245 34.0566 43.4798 33.925 43.5765L33.777 43.3621C33.9591 43.215 34.1861 43.1347 34.4202 43.1348C34.5829 43.1277 34.743 43.1777 34.8726 43.2763C34.9327 43.3296 34.9799 43.396 35.0103 43.4703C35.0408 43.5446 35.0538 43.625 35.0484 43.7051L35.0505 44.7407ZM34.7204 44.1575V44.0246H34.3495C34.1115 44.0246 33.9936 44.0996 33.9936 44.239C33.9916 44.2734 33.9986 44.3078 34.0141 44.3386C34.0295 44.3694 34.0527 44.3957 34.0815 44.4148C34.1561 44.4582 34.2418 44.4791 34.328 44.4748C34.4267 44.4764 34.5231 44.4455 34.6025 44.3869C34.6388 44.3606 34.6684 44.3262 34.6888 44.2863C34.7093 44.2464 34.7201 44.2023 34.7204 44.1575Z" fill="black"/>
<path d="M36.2901 44.5411C36.2169 44.462 36.1603 44.3692 36.1235 44.2679C36.0867 44.1667 36.0704 44.0591 36.0757 43.9515C36.0706 43.8438 36.0882 43.7363 36.1273 43.6358C36.1665 43.5354 36.2263 43.4443 36.3029 43.3684C36.3741 43.2984 36.4586 43.2434 36.5514 43.2066C36.6442 43.1698 36.7434 43.1519 36.8432 43.154C36.943 43.1526 37.0416 43.1761 37.13 43.2226C37.2184 43.269 37.2937 43.3368 37.3492 43.4198V42.5623H37.6686V44.747H37.3406V44.5111C37.281 44.5962 37.2007 44.6646 37.1073 44.71C37.0139 44.7554 36.9105 44.7762 36.8068 44.7705C36.7095 44.7697 36.6135 44.749 36.5246 44.7095C36.4357 44.67 36.3559 44.6127 36.2901 44.5411ZM36.3994 43.9644C36.3966 44.0321 36.408 44.0997 36.4327 44.1628C36.4574 44.2259 36.495 44.2832 36.543 44.331C36.5871 44.3762 36.6398 44.4119 36.698 44.4363C36.7562 44.4606 36.8187 44.4729 36.8818 44.4725C36.9438 44.4742 37.0054 44.4624 37.0624 44.438C37.1194 44.4136 37.1704 44.3771 37.212 44.331C37.3032 44.2312 37.3517 44.0996 37.347 43.9644C37.3515 43.8267 37.3032 43.6925 37.212 43.5892C37.171 43.5413 37.12 43.503 37.0626 43.4771C37.0051 43.4512 36.9427 43.4382 36.8797 43.4391C36.8158 43.4386 36.7525 43.4516 36.694 43.4775C36.6356 43.5034 36.5834 43.5415 36.5409 43.5892C36.4462 43.6908 36.3953 43.8256 36.3994 43.9644Z" fill="black"/>
<path d="M39.535 44.1017H38.313C38.3158 44.1567 38.3315 44.2104 38.3586 44.2584C38.3858 44.3064 38.4237 44.3474 38.4695 44.3782C38.5657 44.447 38.6814 44.483 38.7997 44.4812C38.8831 44.4866 38.9668 44.4728 39.0441 44.4408C39.1214 44.4089 39.1903 44.3596 39.2456 44.2968L39.4343 44.5112C39.349 44.5985 39.2464 44.6669 39.133 44.7119C39.0196 44.757 38.898 44.7777 38.7761 44.7727C38.5678 44.7784 38.3658 44.7013 38.2143 44.5583C38.1364 44.482 38.0754 44.3899 38.0355 44.2883C37.9956 44.1867 37.9776 44.0778 37.9828 43.9687C37.9778 43.8597 37.9963 43.7508 38.0369 43.6494C38.0776 43.5481 38.1396 43.4566 38.2186 43.3813C38.3685 43.2399 38.5679 43.1629 38.7739 43.1669C38.9724 43.1617 39.1658 43.2304 39.3163 43.3599C39.3895 43.4269 39.4467 43.5094 39.4838 43.6014C39.5209 43.6934 39.537 43.7926 39.5307 43.8916L39.535 44.1017ZM38.313 43.8423H39.2113C39.2149 43.7857 39.2055 43.7291 39.184 43.6768C39.1624 43.6244 39.1293 43.5776 39.0869 43.54C39.0022 43.4678 38.8937 43.4296 38.7825 43.4328C38.6645 43.4326 38.5498 43.4718 38.4566 43.5442C38.4102 43.5784 38.3728 43.6235 38.3478 43.6754C38.3228 43.7274 38.3108 43.7846 38.313 43.8423Z" fill="black"/>
<path d="M3.41322 45.7266C3.37521 45.6868 3.354 45.6338 3.354 45.5787C3.354 45.5236 3.37521 45.4706 3.41322 45.4308C3.45298 45.3934 3.5055 45.3726 3.56008 45.3726C3.61466 45.3726 3.66718 45.3934 3.70694 45.4308C3.73345 45.4607 3.75104 45.4975 3.75772 45.537C3.76439 45.5765 3.75989 45.617 3.74472 45.654C3.72955 45.6911 3.70432 45.7231 3.67187 45.7466C3.63943 45.77 3.60108 45.7839 3.56115 45.7867C3.53371 45.7873 3.50643 45.7822 3.48099 45.7719C3.45555 45.7616 3.43249 45.7462 3.41322 45.7266ZM3.72195 47.6047H3.39178V46.0375H3.72195V47.6047Z" fill="black"/>
<path d="M4.45419 46.758V47.6049H4.12402V46.0376H4.45419V46.3249C4.49977 46.2445 4.56294 46.1754 4.63898 46.1228C4.71502 46.0703 4.80197 46.0356 4.89332 46.0213C4.98466 46.0071 5.07804 46.0137 5.16647 46.0407C5.2549 46.0676 5.33609 46.1142 5.40397 46.177C5.46175 46.2396 5.50618 46.3134 5.53456 46.3937C5.56294 46.4741 5.57468 46.5594 5.56905 46.6444V47.6049H5.23888V46.7473C5.23888 46.4579 5.11882 46.3185 4.8787 46.3185C4.76845 46.3167 4.66172 46.3574 4.58069 46.4321C4.5379 46.4745 4.50452 46.5255 4.48272 46.5816C4.46093 46.6378 4.45121 46.6979 4.45419 46.758Z" fill="black"/>
<path d="M6.35133 47.605L5.72314 46.0377H6.06403L6.54214 47.2233L7.00952 46.0377H7.35041L6.72009 47.605H6.35133Z" fill="black"/>
<path d="M9.007 46.9663H7.77851C7.78171 47.021 7.7975 47.0742 7.82465 47.1218C7.8518 47.1694 7.88957 47.2101 7.93502 47.2407C8.03063 47.3109 8.14661 47.3478 8.26519 47.3457C8.34868 47.3512 8.4323 47.3374 8.50961 47.3054C8.58692 47.2734 8.65587 47.2242 8.71114 47.1614L8.89981 47.3758C8.81439 47.4628 8.71172 47.5311 8.59836 47.5761C8.48501 47.6212 8.36349 47.642 8.24161 47.6373C8.03337 47.643 7.83137 47.5659 7.67989 47.4229C7.59952 47.3466 7.53648 47.2538 7.49505 47.151C7.45362 47.0482 7.43477 46.9377 7.43977 46.8269C7.43476 46.7178 7.45323 46.6089 7.49391 46.5076C7.5346 46.4062 7.59656 46.3148 7.6756 46.2395C7.82561 46.0982 8.0249 46.0213 8.23089 46.0251C8.42938 46.0198 8.62273 46.0886 8.77331 46.218C8.84646 46.285 8.90369 46.3676 8.94079 46.4596C8.97789 46.5516 8.99392 46.6507 8.98771 46.7497L9.007 46.9663ZM7.77851 46.7068H8.67683C8.68041 46.6503 8.67108 46.5937 8.64953 46.5413C8.62799 46.489 8.5948 46.4422 8.55248 46.4045C8.46774 46.3324 8.35928 46.2942 8.24804 46.2973C8.12986 46.2961 8.01484 46.3355 7.92216 46.4088C7.87574 46.443 7.83839 46.4881 7.81335 46.54C7.78832 46.5919 7.77636 46.6492 7.77851 46.7068Z" fill="black"/>
<path d="M10.4111 47.1377C10.4134 47.2057 10.4001 47.2733 10.3723 47.3354C10.3444 47.3974 10.3027 47.4523 10.2504 47.4957C10.1314 47.5872 9.98432 47.6342 9.83442 47.6287C9.71314 47.628 9.59284 47.607 9.47852 47.5665C9.36099 47.5287 9.2513 47.4698 9.15479 47.3928L9.31344 47.1377C9.46142 47.2657 9.64764 47.3411 9.843 47.3521C9.90578 47.3558 9.9679 47.3376 10.0188 47.3006C10.0396 47.2858 10.0565 47.2662 10.0681 47.2434C10.0796 47.2206 10.0855 47.1954 10.0853 47.1699C10.0853 47.0905 9.98021 47.0198 9.77225 46.9555L9.73794 46.9426C9.40992 46.8547 9.24698 46.7068 9.24698 46.5009C9.24572 46.4335 9.2604 46.3667 9.28983 46.3059C9.31926 46.2452 9.36261 46.1923 9.41635 46.1515C9.54515 46.0604 9.7004 46.0145 9.858 46.0207C10.0411 46.0215 10.2197 46.0775 10.3704 46.1815L10.2461 46.4259C10.1238 46.3415 9.97866 46.2966 9.83013 46.2973C9.7639 46.2949 9.69819 46.3097 9.63932 46.3402C9.61649 46.3528 9.5976 46.3715 9.58474 46.3942C9.57187 46.4169 9.56553 46.4427 9.56643 46.4688C9.56594 46.4931 9.57313 46.517 9.58699 46.537C9.60084 46.557 9.62066 46.5722 9.64361 46.5803C9.69076 46.6031 9.74041 46.6204 9.79154 46.6317C9.84878 46.6445 9.90532 46.6602 9.96092 46.6789C10.0102 46.6939 10.0574 46.7111 10.1046 46.7304C10.156 46.7543 10.2054 46.7823 10.2525 46.814C10.3043 46.85 10.346 46.8986 10.3738 46.9553C10.4016 47.0119 10.4144 47.0747 10.4111 47.1377Z" fill="black"/>
<path d="M11.1177 46.3034V47.0988C11.1144 47.1632 11.1351 47.2266 11.1756 47.2768C11.1968 47.299 11.2225 47.3165 11.251 47.3279C11.2794 47.3394 11.31 47.3446 11.3407 47.3432C11.3818 47.3428 11.4223 47.3334 11.4593 47.3156C11.4964 47.2978 11.5291 47.2721 11.5551 47.2403L11.6902 47.4719C11.587 47.5712 11.4497 47.6273 11.3064 47.6284C11.2397 47.6294 11.1734 47.617 11.1116 47.5919C11.0497 47.5669 10.9935 47.5297 10.9462 47.4826C10.8958 47.4309 10.8567 47.3694 10.8312 47.3019C10.8058 47.2344 10.7946 47.1623 10.7983 47.0902V46.3034H10.5903V46.0376H10.7876V45.5402H11.1177V46.0311H11.5294V46.297L11.1177 46.3034Z" fill="black"/>
<path d="M11.8898 45.7266C11.8518 45.6868 11.8306 45.6338 11.8306 45.5787C11.8306 45.5236 11.8518 45.4706 11.8898 45.4308C11.9295 45.3934 11.9821 45.3726 12.0366 45.3726C12.0912 45.3726 12.1437 45.3934 12.1835 45.4308C12.2215 45.4706 12.2427 45.5236 12.2427 45.5787C12.2427 45.6338 12.2215 45.6868 12.1835 45.7266C12.1437 45.764 12.0912 45.7848 12.0366 45.7848C11.9821 45.7848 11.9295 45.764 11.8898 45.7266ZM12.1985 47.6047H11.8683V46.0375H12.1985V47.6047Z" fill="black"/>
<path d="M12.9322 46.7581V47.605H12.6021V46.0377H12.9322V46.325C12.9782 46.2287 13.0531 46.1492 13.1466 46.0977C13.2393 46.0425 13.3453 46.0136 13.4532 46.0141C13.5589 46.0048 13.6648 46.0295 13.7555 46.0847C13.8461 46.1399 13.9167 46.2226 13.957 46.3207C14.0217 46.2263 14.1084 46.1491 14.2097 46.0957C14.3109 46.0422 14.4236 46.0143 14.538 46.0141C14.6168 46.0113 14.6953 46.0242 14.7689 46.0522C14.8426 46.0802 14.9099 46.1226 14.9668 46.1771C15.0235 46.2404 15.0671 46.3142 15.0951 46.3945C15.123 46.4747 15.1348 46.5596 15.1298 46.6445V47.605H14.7996V46.7474C14.7996 46.4579 14.6796 46.3186 14.4394 46.3186C14.3323 46.3166 14.2282 46.3548 14.1478 46.4258C14.1043 46.4655 14.0701 46.5144 14.0475 46.5688C14.0249 46.6233 14.0145 46.682 14.0171 46.7409V47.6114H13.6869V46.7538C13.6954 46.6388 13.6677 46.5241 13.6076 46.4258C13.5773 46.3893 13.5387 46.3608 13.495 46.3425C13.4514 46.3242 13.4039 46.3167 13.3567 46.3207C13.2465 46.3189 13.1397 46.3596 13.0587 46.4343C13.0162 46.4765 12.983 46.5271 12.9612 46.5828C12.9394 46.6386 12.9295 46.6983 12.9322 46.7581Z" fill="black"/>
<path d="M16.9744 46.9663H15.7459C15.7491 47.021 15.7649 47.0742 15.792 47.1218C15.8192 47.1694 15.857 47.2101 15.9024 47.2407C15.998 47.3109 16.114 47.3478 16.2326 47.3457C16.3161 47.3512 16.3997 47.3374 16.477 47.3054C16.5543 47.2734 16.6233 47.2242 16.6785 47.1614L16.8672 47.3758C16.7818 47.4628 16.6791 47.5311 16.5658 47.5761C16.4524 47.6212 16.3309 47.642 16.209 47.6373C16.0008 47.643 15.7988 47.5659 15.6473 47.4229C15.5685 47.3458 15.507 47.2527 15.4671 47.1499C15.4271 47.0472 15.4096 46.937 15.4157 46.8269C15.4107 46.7178 15.4292 46.6089 15.4699 46.5076C15.5106 46.4062 15.5725 46.3148 15.6516 46.2395C15.8016 46.0982 16.0009 46.0213 16.2069 46.0251C16.4053 46.0198 16.5987 46.0886 16.7493 46.218C16.8224 46.285 16.8797 46.3676 16.9168 46.4596C16.9539 46.5516 16.9699 46.6507 16.9637 46.7497L16.9744 46.9663ZM15.7459 46.7068H16.6442C16.6478 46.6503 16.6385 46.5937 16.6169 46.5413C16.5954 46.489 16.5622 46.4422 16.5199 46.4045C16.4351 46.3324 16.3267 46.2942 16.2154 46.2973C16.0973 46.2961 15.9822 46.3355 15.8896 46.4088C15.8431 46.443 15.8058 46.4881 15.7807 46.54C15.7557 46.5919 15.7437 46.6492 15.7459 46.7068Z" fill="black"/>
<path d="M17.5914 46.7582V47.6051H17.2612V46.0378H17.5914V46.3251C17.6406 46.2311 17.7148 46.1524 17.8058 46.0979C17.8962 46.0428 18.0001 46.0138 18.106 46.0143C18.1847 46.0111 18.2633 46.024 18.337 46.052C18.4107 46.08 18.4779 46.1226 18.5347 46.1772C18.5925 46.2398 18.637 46.3136 18.6653 46.3939C18.6937 46.4743 18.7055 46.5595 18.6998 46.6446V47.6051H18.3739V46.7475C18.3739 46.4581 18.2539 46.3187 18.0138 46.3187C17.9035 46.3168 17.7968 46.3575 17.7157 46.4323C17.6733 46.4749 17.6404 46.5259 17.6189 46.582C17.5975 46.6382 17.5881 46.6982 17.5914 46.7582Z" fill="black"/>
<path d="M19.4781 46.3034V47.0988C19.4748 47.1632 19.4954 47.2266 19.536 47.2768C19.5571 47.299 19.5828 47.3165 19.6113 47.3279C19.6398 47.3394 19.6704 47.3446 19.7011 47.3432C19.7403 47.3413 19.7787 47.3311 19.8138 47.3134C19.8489 47.2957 19.8799 47.2708 19.9047 47.2403L20.0398 47.4719C19.9366 47.5712 19.7993 47.6273 19.656 47.6284C19.5893 47.6295 19.523 47.6172 19.4611 47.5921C19.3992 47.5671 19.343 47.5298 19.2959 47.4826C19.2455 47.4309 19.2063 47.3694 19.1809 47.3019C19.1554 47.2344 19.1442 47.1623 19.1479 47.0902V46.3034H18.9507V46.0376H19.1479V45.5402H19.4781V46.0311H19.8897V46.297L19.4781 46.3034Z" fill="black"/>
<path d="M21.5274 47.3948C21.3681 47.5456 21.1571 47.6297 20.9378 47.6297C20.7184 47.6297 20.5074 47.5456 20.3482 47.3948C20.1971 47.2426 20.1123 47.0369 20.1123 46.8224C20.1123 46.6079 20.1971 46.4022 20.3482 46.25C20.5074 46.0992 20.7184 46.0151 20.9378 46.0151C21.1571 46.0151 21.3681 46.0992 21.5274 46.25C21.6784 46.4022 21.7632 46.6079 21.7632 46.8224C21.7632 47.0369 21.6784 47.2426 21.5274 47.3948ZM20.5819 47.1804C20.628 47.2278 20.6834 47.265 20.7447 47.2897C20.806 47.3145 20.8717 47.3262 20.9378 47.3241C21.0035 47.3264 21.069 47.3148 21.13 47.29C21.1909 47.2653 21.246 47.2279 21.2915 47.1804C21.3828 47.0789 21.4333 46.9472 21.4333 46.8106C21.4333 46.674 21.3828 46.5423 21.2915 46.4408C21.2456 46.394 21.1904 46.3573 21.1295 46.3329C21.0686 46.3085 21.0033 46.2971 20.9378 46.2993C20.8719 46.2973 20.8064 46.3088 20.7452 46.3332C20.684 46.3575 20.6284 46.3941 20.5819 46.4408C20.5352 46.4902 20.4988 46.5485 20.4749 46.6122C20.451 46.6759 20.44 46.7437 20.4425 46.8117C20.4385 46.8811 20.4489 46.9506 20.4728 47.0159C20.4968 47.0811 20.5339 47.1408 20.5819 47.1912V47.1804Z" fill="black"/>
<path d="M24.2544 46.9659H23.0259C23.0286 47.0208 23.0441 47.0742 23.0713 47.1218C23.0985 47.1695 23.1366 47.2101 23.1824 47.2404C23.278 47.3105 23.394 47.3474 23.5125 47.3454C23.596 47.3509 23.6796 47.3371 23.757 47.3051C23.8343 47.2731 23.9032 47.2238 23.9585 47.161L24.1472 47.3754C24.0616 47.4623 23.9589 47.5304 23.8456 47.5754C23.7323 47.6205 23.6108 47.6414 23.489 47.637C23.2807 47.6427 23.0787 47.5656 22.9272 47.4226C22.8492 47.3462 22.7883 47.2542 22.7484 47.1526C22.7085 47.051 22.6905 46.9421 22.6957 46.833C22.6907 46.7239 22.7092 46.615 22.7498 46.5137C22.7905 46.4123 22.8525 46.3209 22.9315 46.2456C23.0814 46.1041 23.2808 46.0272 23.4868 46.0312C23.6853 46.0259 23.8787 46.0947 24.0292 46.2241C24.1043 46.2901 24.1636 46.3722 24.2025 46.4643C24.2415 46.5563 24.2592 46.656 24.2544 46.7558V46.9659ZM23.0259 46.7065H23.9242C23.9278 46.65 23.9184 46.5934 23.8969 46.541C23.8753 46.4886 23.8421 46.4419 23.7998 46.4042C23.7151 46.3321 23.6066 46.2939 23.4954 46.297C23.3772 46.2958 23.2622 46.3352 23.1695 46.4085C23.1231 46.4427 23.0857 46.4877 23.0607 46.5397C23.0357 46.5916 23.0237 46.6489 23.0259 46.7065Z" fill="black"/>
<path d="M24.8722 46.7581V47.605H24.542V46.0377H24.8722V46.325C24.9181 46.2287 24.9931 46.1492 25.0866 46.0977C25.1793 46.0425 25.2853 46.0136 25.3931 46.0141C25.4988 46.0048 25.6048 46.0295 25.6954 46.0847C25.786 46.1399 25.8567 46.2226 25.897 46.3207C25.9618 46.2264 26.0485 46.1493 26.1497 46.0959C26.2509 46.0425 26.3636 46.0144 26.478 46.0141C26.5567 46.0113 26.6352 46.0242 26.7089 46.0522C26.7825 46.0802 26.8498 46.1226 26.9068 46.1771C26.9643 46.2398 27.0084 46.3136 27.0364 46.394C27.0644 46.4743 27.0758 46.5596 27.0697 46.6445V47.605H26.7353V46.7474C26.7353 46.4579 26.6152 46.3186 26.3772 46.3186C26.2693 46.3161 26.1644 46.3543 26.0835 46.4258C26.0403 46.4658 26.0063 46.5147 25.9837 46.5691C25.9612 46.6235 25.9506 46.6821 25.9527 46.7409V47.6114H25.6225V46.7538C25.6321 46.6388 25.6043 46.5237 25.5432 46.4258C25.513 46.3893 25.4744 46.3608 25.4307 46.3425C25.387 46.3242 25.3396 46.3167 25.2924 46.3207C25.1821 46.3189 25.0754 46.3596 24.9944 46.4343C24.9526 46.4769 24.9202 46.5276 24.8992 46.5833C24.8781 46.6391 24.8689 46.6986 24.8722 46.7581Z" fill="black"/>
<path d="M29.3078 47.1377C29.3102 47.2059 29.2967 47.2737 29.2684 47.3359C29.2401 47.398 29.1979 47.4527 29.1449 47.4957C29.026 47.5872 28.8789 47.6342 28.729 47.6287C28.4831 47.6242 28.2451 47.5416 28.0493 47.3928L28.208 47.1377C28.3568 47.2657 28.5437 47.3411 28.7397 47.3521C28.8024 47.3554 28.8644 47.3373 28.9155 47.3006C28.9356 47.2853 28.9519 47.2655 28.9631 47.2428C28.9742 47.2202 28.98 47.1952 28.9798 47.1699C28.9798 47.0905 28.8769 47.0198 28.6689 46.9555L28.6325 46.9426C28.3066 46.8547 28.1437 46.7068 28.1437 46.5009C28.1424 46.4335 28.1571 46.3667 28.1865 46.3059C28.2159 46.2452 28.2593 46.1923 28.313 46.1515C28.441 46.0605 28.5956 46.0145 28.7525 46.0207C28.9357 46.0212 29.1144 46.0773 29.2649 46.1815L29.1427 46.4259C29.0203 46.3419 28.8753 46.2971 28.7268 46.2973C28.6606 46.2947 28.5948 46.3095 28.536 46.3402C28.5129 46.3527 28.4937 46.3713 28.4805 46.394C28.4673 46.4167 28.4605 46.4425 28.461 46.4688C28.4605 46.4931 28.4677 46.517 28.4815 46.537C28.4954 46.557 28.5152 46.5722 28.5381 46.5803C28.5862 46.6027 28.6365 46.6199 28.6882 46.6317C28.7504 46.6467 28.8083 46.6617 28.8576 46.6789C28.9069 46.696 28.9541 46.7111 28.9991 46.7304C29.0515 46.7538 29.1017 46.7818 29.1492 46.814C29.201 46.85 29.2427 46.8986 29.2705 46.9553C29.2982 47.0119 29.3111 47.0747 29.3078 47.1377Z" fill="black"/>
<path d="M30.0111 46.3034V47.0988C30.0084 47.1635 30.0298 47.2269 30.0711 47.2768C30.0923 47.299 30.118 47.3165 30.1465 47.3279C30.1749 47.3394 30.2056 47.3446 30.2362 47.3432C30.2754 47.341 30.3138 47.3308 30.3488 47.313C30.3839 47.2953 30.4149 47.2706 30.4399 47.2403L30.575 47.4719C30.4718 47.5712 30.3344 47.6273 30.1912 47.6284C30.1245 47.6295 30.0582 47.6172 29.9963 47.5921C29.9344 47.5671 29.8782 47.5298 29.831 47.4826C29.7806 47.4309 29.7415 47.3694 29.716 47.3019C29.6906 47.2344 29.6793 47.1623 29.6831 47.0902V46.3034H29.4858V46.0376H29.6831V45.5402H30.0111V46.0311H30.4249V46.297L30.0111 46.3034Z" fill="black"/>
<path d="M32.0325 47.605H31.7323V47.3906C31.6691 47.4666 31.5893 47.5271 31.4989 47.5672C31.4086 47.6074 31.3102 47.6262 31.2114 47.6221C31.064 47.6279 30.9197 47.579 30.8062 47.4849C30.7532 47.4392 30.7112 47.3821 30.6834 47.3178C30.6555 47.2536 30.6425 47.1839 30.6454 47.114C30.641 47.0467 30.6543 46.9794 30.684 46.9188C30.7137 46.8583 30.7588 46.8065 30.8147 46.7688C30.9542 46.6851 31.1154 46.6448 31.2778 46.6531H31.7066V46.6123C31.7066 46.3979 31.5908 46.2993 31.3593 46.2993C31.196 46.3056 31.0384 46.3609 30.9069 46.458L30.759 46.2436C30.9411 46.0964 31.1681 46.0162 31.4022 46.0163C31.5649 46.0092 31.7249 46.0592 31.8545 46.1578C31.9147 46.2111 31.9618 46.2774 31.9923 46.3518C32.0228 46.4261 32.0358 46.5064 32.0304 46.5866L32.0325 47.605ZM31.7023 47.0218V46.8889H31.3314C31.0934 46.8889 30.9755 46.9639 30.9755 47.114C30.9735 47.1481 30.9805 47.1822 30.996 47.2127C31.0114 47.2432 31.0347 47.2691 31.0634 47.2877C31.1374 47.3328 31.2234 47.3545 31.31 47.3498C31.4091 47.3525 31.5061 47.3206 31.5844 47.2598C31.6223 47.2331 31.6529 47.1973 31.6735 47.1558C31.6941 47.1142 31.704 47.0682 31.7023 47.0218Z" fill="black"/>
<path d="M33.2401 46.3486C33.1703 46.3429 33.1003 46.3544 33.036 46.3821C32.9717 46.4097 32.9152 46.4527 32.8713 46.5072C32.7837 46.6324 32.7406 46.7834 32.7491 46.936V47.6071H32.4189V46.0398H32.7491V46.355C32.7998 46.2586 32.8735 46.1761 32.9635 46.1149C33.0475 46.0529 33.1486 46.0185 33.2529 46.0162V46.3507L33.2401 46.3486Z" fill="black"/>
<path d="M33.919 46.3034V47.0988C33.9163 47.1635 33.9377 47.2269 33.979 47.2768C34.0002 47.299 34.0259 47.3165 34.0544 47.3279C34.0828 47.3394 34.1135 47.3446 34.1441 47.3432C34.1833 47.341 34.2217 47.3308 34.2567 47.313C34.2918 47.2953 34.3228 47.2706 34.3478 47.2403L34.4829 47.4719C34.3792 47.5717 34.2409 47.6278 34.097 47.6284C34.0306 47.6293 33.9646 47.6169 33.9031 47.5919C33.8416 47.5668 33.7858 47.5297 33.7389 47.4826C33.6885 47.4309 33.6494 47.3694 33.6239 47.3019C33.5985 47.2344 33.5873 47.1623 33.591 47.0902V46.3034H33.3916V46.0376H33.5953V45.5402H33.9233V46.0311H34.3371V46.297L33.919 46.3034Z" fill="black"/>
<path d="M35.7674 46.8869V46.0293H36.0975V47.5965H35.7674V47.32C35.7162 47.4134 35.6408 47.4914 35.5492 47.5457C35.4575 47.6 35.3529 47.6287 35.2464 47.6287C35.1677 47.6323 35.0892 47.62 35.0155 47.5923C34.9418 47.5647 34.8744 47.5224 34.8176 47.4679C34.7603 47.4045 34.7161 47.3304 34.6878 47.2497C34.6594 47.1691 34.6474 47.0837 34.6525 46.9984V46.0379H34.9827V46.8955C34.9827 47.1849 35.1027 47.3243 35.3428 47.3243C35.4531 47.3261 35.5598 47.2854 35.6409 47.2106C35.6834 47.1685 35.7166 47.1179 35.7384 47.0621C35.7602 47.0064 35.77 46.9467 35.7674 46.8869Z" fill="black"/>
<path d="M37.3393 46.0142C37.4391 46.0121 37.5383 46.03 37.6311 46.0668C37.7239 46.1036 37.8083 46.1586 37.8795 46.2286C37.9531 46.3056 38.0101 46.3969 38.047 46.4969C38.0839 46.5968 38.0999 46.7033 38.0939 46.8096C38.0997 46.9169 38.0837 47.0243 38.0469 47.1253C38.01 47.2263 37.9531 47.3187 37.8795 47.3971C37.8126 47.4711 37.7304 47.5297 37.6386 47.5687C37.5468 47.6078 37.4476 47.6265 37.3479 47.6234C37.2482 47.6204 37.1503 47.5957 37.0611 47.551C36.9718 47.5064 36.8934 47.4429 36.8311 47.3649V48.1732H36.501V46.0292H36.8311V46.3036C36.883 46.2151 36.9573 46.1417 37.0465 46.0909C37.1357 46.0401 37.2366 46.0137 37.3393 46.0142ZM36.8247 46.8246C36.8219 46.8916 36.8324 46.9585 36.8556 47.0214C36.8788 47.0844 36.9142 47.1421 36.9598 47.1912C37.0011 47.2377 37.052 47.2746 37.1091 47.2994C37.1661 47.3242 37.2278 47.3363 37.29 47.3349C37.353 47.3353 37.4155 47.3229 37.4737 47.2986C37.5319 47.2743 37.5846 47.2385 37.6287 47.1934C37.6768 47.1456 37.7143 47.0883 37.7391 47.0252C37.7638 46.9621 37.7751 46.8945 37.7723 46.8268C37.7764 46.6879 37.7256 46.5531 37.6308 46.4516C37.5881 46.4043 37.5357 46.3667 37.4774 46.3412C37.419 46.3157 37.3558 46.3029 37.2921 46.3036C37.2293 46.3024 37.1669 46.3151 37.1095 46.3406C37.0521 46.3662 37.0009 46.4041 36.9598 46.4516C36.8686 46.5548 36.8202 46.6891 36.8247 46.8268V46.8246Z" fill="black"/>
<path d="M39.5205 47.1375C39.5228 47.2055 39.5095 47.2731 39.4816 47.3352C39.4538 47.3972 39.4121 47.4521 39.3597 47.4956C39.2408 47.587 39.0937 47.634 38.9438 47.6285C38.8225 47.6278 38.7022 47.6068 38.5879 47.5663C38.4706 47.528 38.361 47.4692 38.2642 47.3927L38.4228 47.1375C38.5708 47.2655 38.757 47.3409 38.9524 47.3519C39.0158 47.3552 39.0785 47.3371 39.1303 47.3005C39.1505 47.2852 39.1668 47.2654 39.1779 47.2427C39.1891 47.22 39.1948 47.195 39.1946 47.1697C39.1946 47.0904 39.0896 47.0196 38.8816 46.9553L38.8473 46.9424C38.5214 46.8545 38.3585 46.7066 38.3585 46.5008C38.3572 46.4333 38.3719 46.3665 38.4014 46.3058C38.4308 46.245 38.4741 46.1921 38.5279 46.1513C38.6557 46.06 38.8104 46.0139 38.9674 46.0205C39.1505 46.0213 39.3291 46.0773 39.4798 46.1813L39.3554 46.4257C39.2339 46.3416 39.0895 46.2968 38.9417 46.2971C38.8747 46.2946 38.8083 46.3093 38.7487 46.34C38.7259 46.3526 38.707 46.3713 38.6941 46.394C38.6812 46.4167 38.6749 46.4425 38.6758 46.4686C38.6753 46.4929 38.6825 46.5168 38.6964 46.5368C38.7102 46.5568 38.73 46.572 38.753 46.5801C38.8001 46.6029 38.8498 46.6202 38.9009 46.6315C38.9582 46.6443 39.0147 46.6601 39.0703 46.6787C39.1196 46.6937 39.1668 46.7109 39.2139 46.7302C39.2654 46.7541 39.3148 46.7821 39.3619 46.8138C39.4141 46.8494 39.4562 46.8979 39.484 46.9547C39.5118 47.0114 39.5244 47.0744 39.5205 47.1375Z" fill="black"/>
<path d="M69.2504 43.3751C69.383 43.3751 69.4905 43.2676 69.4905 43.135C69.4905 43.0024 69.383 42.8949 69.2504 42.8949C69.1178 42.8949 69.0103 43.0024 69.0103 43.135C69.0103 43.2676 69.1178 43.3751 69.2504 43.3751Z" fill="black"/>
<path d="M69.7299 47.6885C69.8625 47.6885 69.97 47.581 69.97 47.4484C69.97 47.3158 69.8625 47.2083 69.7299 47.2083C69.5973 47.2083 69.4897 47.3158 69.4897 47.4484C69.4897 47.581 69.5973 47.6885 69.7299 47.6885Z" fill="black"/>
<path d="M70.4481 43.3751C70.5808 43.3751 70.6883 43.2676 70.6883 43.135C70.6883 43.0024 70.5808 42.8949 70.4481 42.8949C70.3155 42.8949 70.208 43.0024 70.208 43.135C70.208 43.2676 70.3155 43.3751 70.4481 43.3751Z" fill="black"/>
<path d="M70.4481 44.0932C70.5808 44.0932 70.6883 43.9857 70.6883 43.853C70.6883 43.7204 70.5808 43.6129 70.4481 43.6129C70.3155 43.6129 70.208 43.7204 70.208 43.853C70.208 43.9857 70.3155 44.0932 70.4481 44.0932Z" fill="black"/>
<path d="M70.4481 46.9683C70.5808 46.9683 70.6883 46.8608 70.6883 46.7282C70.6883 46.5955 70.5808 46.488 70.4481 46.488C70.3155 46.488 70.208 46.5955 70.208 46.7282C70.208 46.8608 70.3155 46.9683 70.4481 46.9683Z" fill="black"/>
<path d="M70.4481 47.6885C70.5808 47.6885 70.6883 47.581 70.6883 47.4484C70.6883 47.3158 70.5808 47.2083 70.4481 47.2083C70.3155 47.2083 70.208 47.3158 70.208 47.4484C70.208 47.581 70.3155 47.6885 70.4481 47.6885Z" fill="black"/>
<path d="M71.1664 43.3751C71.299 43.3751 71.4065 43.2676 71.4065 43.135C71.4065 43.0024 71.299 42.8949 71.1664 42.8949C71.0338 42.8949 70.9263 43.0024 70.9263 43.135C70.9263 43.2676 71.0338 43.3751 71.1664 43.3751Z" fill="black"/>
<path d="M71.1664 44.0932C71.299 44.0932 71.4065 43.9857 71.4065 43.853C71.4065 43.7204 71.299 43.6129 71.1664 43.6129C71.0338 43.6129 70.9263 43.7204 70.9263 43.853C70.9263 43.9857 71.0338 44.0932 71.1664 44.0932Z" fill="black"/>
<path d="M71.1664 44.8134C71.299 44.8134 71.4065 44.7059 71.4065 44.5733C71.4065 44.4406 71.299 44.3331 71.1664 44.3331C71.0338 44.3331 70.9263 44.4406 70.9263 44.5733C70.9263 44.7059 71.0338 44.8134 71.1664 44.8134Z" fill="black"/>
<path d="M71.1664 46.2499C71.299 46.2499 71.4065 46.1424 71.4065 46.0098C71.4065 45.8772 71.299 45.7697 71.1664 45.7697C71.0338 45.7697 70.9263 45.8772 70.9263 46.0098C70.9263 46.1424 71.0338 46.2499 71.1664 46.2499Z" fill="black"/>
<path d="M71.1664 46.9683C71.299 46.9683 71.4065 46.8608 71.4065 46.7282C71.4065 46.5955 71.299 46.488 71.1664 46.488C71.0338 46.488 70.9263 46.5955 70.9263 46.7282C70.9263 46.8608 71.0338 46.9683 71.1664 46.9683Z" fill="black"/>
<path d="M71.1664 47.6885C71.299 47.6885 71.4065 47.581 71.4065 47.4484C71.4065 47.3158 71.299 47.2083 71.1664 47.2083C71.0338 47.2083 70.9263 47.3158 70.9263 47.4484C70.9263 47.581 71.0338 47.6885 71.1664 47.6885Z" fill="black"/>
<path d="M71.8847 43.3751C72.0173 43.3751 72.1248 43.2676 72.1248 43.135C72.1248 43.0024 72.0173 42.8949 71.8847 42.8949C71.752 42.8949 71.6445 43.0024 71.6445 43.135C71.6445 43.2676 71.752 43.3751 71.8847 43.3751Z" fill="black"/>
<path d="M71.8847 44.0932C72.0173 44.0932 72.1248 43.9857 72.1248 43.853C72.1248 43.7204 72.0173 43.6129 71.8847 43.6129C71.752 43.6129 71.6445 43.7204 71.6445 43.853C71.6445 43.9857 71.752 44.0932 71.8847 44.0932Z" fill="black"/>
<path d="M71.8847 44.8134C72.0173 44.8134 72.1248 44.7059 72.1248 44.5733C72.1248 44.4406 72.0173 44.3331 71.8847 44.3331C71.752 44.3331 71.6445 44.4406 71.6445 44.5733C71.6445 44.7059 71.752 44.8134 71.8847 44.8134Z" fill="black"/>
<path d="M71.8847 45.5318C72.0173 45.5318 72.1248 45.4243 72.1248 45.2916C72.1248 45.159 72.0173 45.0515 71.8847 45.0515C71.752 45.0515 71.6445 45.159 71.6445 45.2916C71.6445 45.4243 71.752 45.5318 71.8847 45.5318Z" fill="black"/>
<path d="M71.8847 46.2499C72.0173 46.2499 72.1248 46.1424 72.1248 46.0098C72.1248 45.8772 72.0173 45.7697 71.8847 45.7697C71.752 45.7697 71.6445 45.8772 71.6445 46.0098C71.6445 46.1424 71.752 46.2499 71.8847 46.2499Z" fill="black"/>
<path d="M71.8847 46.9683C72.0173 46.9683 72.1248 46.8608 72.1248 46.7282C72.1248 46.5955 72.0173 46.488 71.8847 46.488C71.752 46.488 71.6445 46.5955 71.6445 46.7282C71.6445 46.8608 71.752 46.9683 71.8847 46.9683Z" fill="black"/>
<path d="M71.8847 47.6885C72.0173 47.6885 72.1248 47.581 72.1248 47.4484C72.1248 47.3158 72.0173 47.2083 71.8847 47.2083C71.752 47.2083 71.6445 47.3158 71.6445 47.4484C71.6445 47.581 71.752 47.6885 71.8847 47.6885Z" fill="black"/>
<path d="M72.6044 43.3751C72.737 43.3751 72.8445 43.2676 72.8445 43.135C72.8445 43.0024 72.737 42.8949 72.6044 42.8949C72.4718 42.8949 72.3643 43.0024 72.3643 43.135C72.3643 43.2676 72.4718 43.3751 72.6044 43.3751Z" fill="black"/>
<path d="M72.6044 44.0932C72.737 44.0932 72.8445 43.9857 72.8445 43.853C72.8445 43.7204 72.737 43.6129 72.6044 43.6129C72.4718 43.6129 72.3643 43.7204 72.3643 43.853C72.3643 43.9857 72.4718 44.0932 72.6044 44.0932Z" fill="black"/>
<path d="M72.6044 44.8134C72.737 44.8134 72.8445 44.7059 72.8445 44.5733C72.8445 44.4406 72.737 44.3331 72.6044 44.3331C72.4718 44.3331 72.3643 44.4406 72.3643 44.5733C72.3643 44.7059 72.4718 44.8134 72.6044 44.8134Z" fill="black"/>
<path d="M72.6044 45.5318C72.737 45.5318 72.8445 45.4243 72.8445 45.2916C72.8445 45.159 72.737 45.0515 72.6044 45.0515C72.4718 45.0515 72.3643 45.159 72.3643 45.2916C72.3643 45.4243 72.4718 45.5318 72.6044 45.5318Z" fill="black"/>
<path d="M72.6044 46.2499C72.737 46.2499 72.8445 46.1424 72.8445 46.0098C72.8445 45.8772 72.737 45.7697 72.6044 45.7697C72.4718 45.7697 72.3643 45.8772 72.3643 46.0098C72.3643 46.1424 72.4718 46.2499 72.6044 46.2499Z" fill="black"/>
<path d="M72.6044 46.9683C72.737 46.9683 72.8445 46.8608 72.8445 46.7282C72.8445 46.5955 72.737 46.488 72.6044 46.488C72.4718 46.488 72.3643 46.5955 72.3643 46.7282C72.3643 46.8608 72.4718 46.9683 72.6044 46.9683Z" fill="black"/>
<path d="M72.6044 47.6885C72.737 47.6885 72.8445 47.581 72.8445 47.4484C72.8445 47.3158 72.737 47.2083 72.6044 47.2083C72.4718 47.2083 72.3643 47.3158 72.3643 47.4484C72.3643 47.581 72.4718 47.6885 72.6044 47.6885Z" fill="black"/>
<path d="M73.3236 44.0932C73.4562 44.0932 73.5637 43.9857 73.5637 43.853C73.5637 43.7204 73.4562 43.6129 73.3236 43.6129C73.191 43.6129 73.0835 43.7204 73.0835 43.853C73.0835 43.9857 73.191 44.0932 73.3236 44.0932Z" fill="black"/>
<path d="M73.3236 44.8134C73.4562 44.8134 73.5637 44.7059 73.5637 44.5733C73.5637 44.4406 73.4562 44.3331 73.3236 44.3331C73.191 44.3331 73.0835 44.4406 73.0835 44.5733C73.0835 44.7059 73.191 44.8134 73.3236 44.8134Z" fill="black"/>
<path d="M73.3236 45.5318C73.4562 45.5318 73.5637 45.4243 73.5637 45.2916C73.5637 45.159 73.4562 45.0515 73.3236 45.0515C73.191 45.0515 73.0835 45.159 73.0835 45.2916C73.0835 45.4243 73.191 45.5318 73.3236 45.5318Z" fill="black"/>
<path d="M73.3236 46.2499C73.4562 46.2499 73.5637 46.1424 73.5637 46.0098C73.5637 45.8772 73.4562 45.7697 73.3236 45.7697C73.191 45.7697 73.0835 45.8772 73.0835 46.0098C73.0835 46.1424 73.191 46.2499 73.3236 46.2499Z" fill="black"/>
<path d="M73.3236 46.9683C73.4562 46.9683 73.5637 46.8608 73.5637 46.7282C73.5637 46.5955 73.4562 46.488 73.3236 46.488C73.191 46.488 73.0835 46.5955 73.0835 46.7282C73.0835 46.8608 73.191 46.9683 73.3236 46.9683Z" fill="black"/>
<path d="M74.0414 44.8134C74.174 44.8134 74.2815 44.7059 74.2815 44.5733C74.2815 44.4406 74.174 44.3331 74.0414 44.3331C73.9088 44.3331 73.8013 44.4406 73.8013 44.5733C73.8013 44.7059 73.9088 44.8134 74.0414 44.8134Z" fill="black"/>
<path d="M74.0414 45.5318C74.174 45.5318 74.2815 45.4243 74.2815 45.2916C74.2815 45.159 74.174 45.0515 74.0414 45.0515C73.9088 45.0515 73.8013 45.159 73.8013 45.2916C73.8013 45.4243 73.9088 45.5318 74.0414 45.5318Z" fill="black"/>
<path d="M74.0414 46.2499C74.174 46.2499 74.2815 46.1424 74.2815 46.0098C74.2815 45.8772 74.174 45.7697 74.0414 45.7697C73.9088 45.7697 73.8013 45.8772 73.8013 46.0098C73.8013 46.1424 73.9088 46.2499 74.0414 46.2499Z" fill="black"/>
<path d="M74.7601 45.5318C74.8928 45.5318 75.0003 45.4243 75.0003 45.2916C75.0003 45.159 74.8928 45.0515 74.7601 45.0515C74.6275 45.0515 74.52 45.159 74.52 45.2916C74.52 45.4243 74.6275 45.5318 74.7601 45.5318Z" fill="black"/>
<path d="M41.4783 47.6864C41.8075 47.6864 42.0744 47.4196 42.0744 47.0904C42.0744 46.7612 41.8075 46.4944 41.4783 46.4944C41.1492 46.4944 40.8823 46.7612 40.8823 47.0904C40.8823 47.4196 41.1492 47.6864 41.4783 47.6864Z" fill="black"/>
<path d="M45.8479 44.8415L45.5628 44.8008C45.0204 44.7193 44.5723 44.6271 44.5723 44.3313C44.5723 44.0354 44.9282 43.8425 45.4792 43.8425C45.9266 43.8462 46.367 43.9541 46.7655 44.1576C46.8061 44.1802 46.8536 44.1872 46.8989 44.1774C46.9443 44.1675 46.9846 44.1414 47.0121 44.104C47.0893 43.999 47.1579 43.8896 47.2265 43.776L47.3294 43.6109C47.347 43.5872 47.3595 43.5601 47.3662 43.5313C47.3728 43.5025 47.3734 43.4727 47.368 43.4437C47.3608 43.4173 47.3481 43.3928 47.3307 43.3718C47.3134 43.3507 47.2917 43.3335 47.2672 43.3215C46.7063 43.0373 46.0843 42.8945 45.4556 42.9055C44.9526 42.8901 44.4557 43.0188 44.0234 43.2764C43.8316 43.3912 43.6729 43.554 43.5631 43.7487C43.4534 43.9435 43.3962 44.1635 43.3974 44.387C43.3974 45.1395 43.9141 45.5791 44.9775 45.7291L45.2969 45.7742C45.9594 45.8685 46.3175 45.9714 46.3175 46.2501C46.3175 46.5288 45.9423 46.7411 45.3848 46.7411C44.8769 46.7407 44.3782 46.6053 43.9398 46.3487C43.8974 46.3203 43.8463 46.3079 43.7956 46.3138C43.7449 46.3197 43.698 46.3435 43.6632 46.3809C43.5946 46.4667 43.3095 46.8633 43.288 46.9126C43.267 46.956 43.2628 47.0057 43.2763 47.052C43.2898 47.0984 43.3199 47.1381 43.3609 47.1635C43.9772 47.516 44.6771 47.6959 45.387 47.6844C45.8999 47.7001 46.407 47.5724 46.8513 47.3157C47.0501 47.1971 47.2143 47.0283 47.3272 46.8262C47.4401 46.6241 47.4978 46.3958 47.4945 46.1644C47.4945 45.444 46.9413 45.0023 45.8479 44.8415Z" fill="black"/>
<path d="M62.074 44.8415L61.791 44.8008C61.2486 44.7193 60.7983 44.6271 60.7983 44.3313C60.7983 44.0354 61.1542 43.8424 61.7074 43.8424C62.1548 43.8461 62.5953 43.954 62.9938 44.1576C63.034 44.1801 63.0811 44.187 63.1261 44.1772C63.1712 44.1673 63.211 44.1413 63.2382 44.104C63.3154 43.999 63.3861 43.8896 63.4526 43.776L63.5555 43.6109C63.5731 43.5872 63.5856 43.5601 63.5922 43.5313C63.5989 43.5025 63.5995 43.4727 63.5941 43.4437C63.5869 43.4173 63.5742 43.3928 63.5568 43.3717C63.5394 43.3507 63.5178 43.3335 63.4933 43.3215C62.933 43.0376 62.3118 42.8948 61.6838 42.9055C61.1801 42.8902 60.6826 43.0188 60.2495 43.2764C60.0576 43.3912 59.899 43.554 59.7892 43.7487C59.6794 43.9435 59.6223 44.1635 59.6234 44.387C59.6234 45.1395 60.1423 45.5791 61.2057 45.7291L61.5251 45.7742C62.1855 45.8685 62.5457 45.9714 62.5457 46.2501C62.5457 46.5288 62.1705 46.7411 61.6109 46.7411C61.103 46.7407 60.6042 46.6053 60.1659 46.3487C60.1248 46.3176 60.0733 46.3036 60.0222 46.3096C59.971 46.3156 59.9242 46.3411 59.8914 46.3809C59.8207 46.4667 59.5377 46.8633 59.5141 46.9126C59.4933 46.9563 59.4894 47.0061 59.5033 47.0525C59.5172 47.0988 59.5478 47.1384 59.5891 47.1634C60.2038 47.5111 60.9006 47.6874 61.6066 47.6737C62.1202 47.6893 62.628 47.5616 63.0731 47.3049C63.2716 47.1861 63.4355 47.0172 63.5484 46.8152C63.6612 46.6131 63.7191 46.385 63.7163 46.1536C63.7227 45.444 63.1674 45.0023 62.074 44.8415Z" fill="black"/>
<path d="M66.5819 43.9002C66.3629 43.8424 66.1373 43.8143 65.9108 43.8165C65.6515 43.7967 65.391 43.8319 65.1463 43.9199C64.9016 44.0079 64.6782 44.1466 64.4909 44.327C64.3036 44.5074 64.1566 44.7254 64.0596 44.9667C63.9625 45.2079 63.9175 45.467 63.9277 45.7268C63.9277 46.9296 64.7124 47.6757 65.9794 47.6757C66.5026 47.6823 67.0139 47.5199 67.4373 47.2126C67.4605 47.1934 67.4793 47.1695 67.4926 47.1425C67.5059 47.1156 67.5133 47.0861 67.5145 47.0561C67.5136 47.0272 67.5068 46.9989 67.4947 46.9727C67.4825 46.9466 67.4652 46.9232 67.4438 46.9038L67.1115 46.5823C67.0901 46.5615 67.0644 46.5457 67.0362 46.5361C67.0081 46.5265 66.9781 46.5232 66.9485 46.5265C66.9014 46.5353 66.8567 46.5543 66.8177 46.5823L66.792 46.5973C66.5466 46.7289 66.2729 46.7988 65.9944 46.8009C65.4156 46.8009 65.0147 46.5351 64.9375 46.102H67.611C67.6622 46.1026 67.7117 46.0833 67.7489 46.048C67.7861 46.0128 67.8082 45.9645 67.8104 45.9133C67.8104 45.8747 67.8104 45.7654 67.8104 45.7461C67.8289 45.3145 67.7135 44.8877 67.4802 44.524C67.2625 44.2179 66.9448 43.9973 66.5819 43.9002ZM66.8563 45.3023H64.9589C65.0918 44.8971 65.4477 44.6591 65.9408 44.6591C66.434 44.6591 66.7877 44.8971 66.8563 45.3023Z" fill="black"/>
<path d="M49.7041 46.6506C49.6548 46.6506 49.6055 46.6506 49.5562 46.6635L49.419 46.6785C49.2958 46.6924 49.1713 46.6924 49.0481 46.6785C49.0194 46.6783 48.9911 46.6712 48.9657 46.6578C48.9403 46.6444 48.9186 46.625 48.9023 46.6013C48.8761 46.5481 48.8642 46.489 48.868 46.4298V44.751H49.6763C49.7331 44.751 49.7877 44.7285 49.8279 44.6883C49.8681 44.648 49.8907 44.5935 49.8907 44.5367V44.05C49.8917 44.0364 49.8917 44.0228 49.8907 44.0092C49.8795 43.9638 49.8537 43.9233 49.8173 43.8939C49.7809 43.8644 49.7359 43.8477 49.6891 43.8463H48.8809V43.1409C48.8783 43.0878 48.856 43.0374 48.8183 42.9998C48.7807 42.9621 48.7304 42.9399 48.6772 42.9373C48.642 42.9374 48.6074 42.9463 48.5764 42.963L47.9332 43.3317C47.905 43.3508 47.8818 43.3763 47.8653 43.4061C47.8489 43.4359 47.8399 43.4692 47.8389 43.5033V46.5799C47.8228 46.7101 47.835 46.8422 47.8746 46.9673C47.9143 47.0924 47.9804 47.2075 48.0685 47.3048C48.1566 47.402 48.2646 47.4791 48.3852 47.5309C48.5057 47.5826 48.6361 47.6078 48.7672 47.6047C48.8423 47.6047 48.9195 47.6154 48.9988 47.6154C49.0926 47.6156 49.1864 47.6105 49.2796 47.6004C49.4409 47.5905 49.6006 47.5625 49.7556 47.5168C49.7978 47.506 49.8353 47.4817 49.8624 47.4477C49.8895 47.4136 49.9047 47.3716 49.9057 47.3281V46.8393C49.8997 46.7891 49.8762 46.7427 49.8393 46.7082C49.8024 46.6737 49.7546 46.6533 49.7041 46.6506Z" fill="black"/>
<path d="M53.6947 43.8573H53.0815C53.0246 43.8573 52.9701 43.8799 52.9299 43.9201C52.8897 43.9603 52.8671 44.0148 52.8671 44.0717V44.0889C52.6012 43.912 52.2881 43.8193 51.9688 43.823H51.9473C51.4427 43.8066 50.9493 43.9751 50.5602 44.2968C50.365 44.4852 50.2124 44.7131 50.1125 44.9653C50.0127 45.2175 49.9679 45.4881 49.9813 45.759C49.972 46.0239 50.0168 46.2879 50.113 46.5349C50.2093 46.7819 50.3548 47.0067 50.5409 47.1955C50.9179 47.5231 51.4052 47.6955 51.9045 47.6778H51.9473C52.2755 47.6685 52.5943 47.5667 52.8671 47.3841V47.4313C52.8671 47.4882 52.8897 47.5427 52.9299 47.5829C52.9701 47.6231 53.0246 47.6457 53.0815 47.6457H53.6947C53.7515 47.6457 53.8061 47.6231 53.8463 47.5829C53.8865 47.5427 53.9091 47.4882 53.9091 47.4313V44.0631C53.9068 44.0078 53.8833 43.9554 53.8433 43.917C53.8033 43.8787 53.7501 43.8573 53.6947 43.8573ZM52.8757 45.7311V46.3572C52.7457 46.5227 52.5673 46.6436 52.3654 46.703C52.1635 46.7624 51.9481 46.7574 51.7491 46.6886C51.5502 46.6198 51.3777 46.4908 51.2556 46.3193C51.1334 46.1479 51.0678 45.9427 51.0678 45.7322C51.0678 45.5217 51.1334 45.3165 51.2556 45.1451C51.3777 44.9736 51.5502 44.8446 51.7491 44.7758C51.9481 44.707 52.1635 44.702 52.3654 44.7614C52.5673 44.8208 52.7457 44.9417 52.8757 45.1072V45.7311Z" fill="black"/>
<path d="M59.0467 46.6509C58.9974 46.6509 58.9481 46.6509 58.8987 46.6637L58.7615 46.6787C58.6383 46.6927 58.5139 46.6927 58.3906 46.6787C58.3639 46.6787 58.3376 46.6727 58.3135 46.6612C58.2894 46.6497 58.2681 46.633 58.2513 46.6123C58.225 46.5591 58.2132 46.4999 58.217 46.4408V44.762H59.0338C59.0888 44.7593 59.1406 44.7355 59.1785 44.6956C59.2164 44.6557 59.2376 44.6027 59.2375 44.5476V44.061C59.2385 44.0474 59.2385 44.0338 59.2375 44.0202C59.2264 43.9751 59.2009 43.9349 59.165 43.9055C59.129 43.8761 59.0845 43.8592 59.0381 43.8573H58.2277C58.2277 43.362 58.2277 43.1519 58.2277 43.1519C58.2249 43.0969 58.2011 43.0451 58.1612 43.0072C58.1213 42.9693 58.0683 42.9482 58.0133 42.9482C57.9782 42.9489 57.9437 42.9577 57.9125 42.974L57.2801 43.3427C57.2518 43.3618 57.2286 43.3873 57.2122 43.4171C57.1958 43.4469 57.1867 43.4802 57.1857 43.5142V43.8551H56.5425C56.1831 43.8384 55.8305 43.957 55.5542 44.1875C55.4996 44.2359 55.45 44.2898 55.4062 44.3483V44.0588C55.4062 44.002 55.3836 43.9474 55.3434 43.9072C55.3032 43.867 55.2487 43.8444 55.1918 43.8444H54.5787C54.5218 43.8444 54.4673 43.867 54.4271 43.9072C54.3868 43.9474 54.3643 44.002 54.3643 44.0588V47.4184C54.3643 47.4753 54.3868 47.5298 54.4271 47.57C54.4673 47.6102 54.5218 47.6328 54.5787 47.6328H55.1918C55.2487 47.6328 55.3032 47.6102 55.3434 47.57C55.3836 47.5298 55.4062 47.4753 55.4062 47.4184V46.6123C55.4062 46.4986 55.4062 46.3829 55.4062 46.2692C55.4062 46.0398 55.4062 45.8126 55.4062 45.5832C55.4041 45.4579 55.4313 45.3338 55.4856 45.2208C55.6999 44.7921 56.2981 44.747 56.5425 44.747H57.1857V46.5908C57.1676 46.8551 57.2521 47.1162 57.4216 47.3198C57.6073 47.5015 57.8544 47.607 58.114 47.6156C58.1891 47.6156 58.2663 47.6264 58.3456 47.6264C58.4401 47.6266 58.5346 47.6216 58.6286 47.6114C58.7899 47.6013 58.9495 47.5732 59.1046 47.5277C59.1466 47.5167 59.1839 47.4923 59.2109 47.4583C59.238 47.4243 59.2533 47.3825 59.2546 47.3391V46.8503C59.2509 46.7971 59.2276 46.7473 59.1891 46.7104C59.1507 46.6736 59.0999 46.6523 59.0467 46.6509Z" fill="black"/>
</g>
<defs>
<clipPath id="clip0_622_7248">
<rect width="75" height="75" fill="white"/>
</clipPath>
</defs>
</svg>
