<svg width="75" height="75" viewBox="0 0 75 75" fill="none" xmlns="http://www.w3.org/2000/svg">
<path d="M48.2718 32.5265C49.2163 39.2277 44.9187 43.4215 39.5681 43.4215C33.901 43.4215 29.3203 39.2846 29.3203 33.287C29.3203 27.2893 33.9908 23.1524 39.5681 23.1524C41.5366 23.12 43.4735 23.6505 45.1503 24.6821L43.3604 28.4602C42.3274 27.7552 41.1021 27.3862 39.8515 27.4027C36.3851 27.4027 34.0475 29.882 34.0475 33.287C34.0475 36.6919 36.3001 39.1712 39.5681 39.1712C41.9624 39.1712 43.5115 38.4392 44.1018 36.3377H39.7099L41.5376 32.5075L48.2718 32.5265ZM64.8386 35.1192V39.0956H62.6567V43.4215H57.986V39.0956H49.3628V35.1192L57.986 23.1095H62.6567V35.1192H64.8386ZM54.1515 35.1192H57.986V29.348L54.1515 35.1192Z" fill="black"/>
<path d="M14.1508 50.2831V51.2276H10.1226V46.0328H14.0562V46.9773H11.3173V48.1109H13.7353V49.0555H11.3173V50.2596L14.1508 50.2831Z" fill="black"/>
<path d="M16.5737 46.0462H18.935C19.452 46.037 19.9642 46.1467 20.432 46.3672C20.8489 46.5684 21.1996 46.885 21.4427 47.2789C21.6899 47.6923 21.8159 48.1666 21.8063 48.6482C21.8166 49.1284 21.6905 49.6019 21.4427 50.0133C21.2009 50.4083 20.8498 50.7247 20.432 50.9246C19.9654 51.149 19.4527 51.2608 18.935 51.2507H16.5737V46.0462ZM18.8783 50.2633C19.3353 50.2858 19.7831 50.1282 20.1251 49.8242C20.283 49.6731 20.4068 49.4902 20.4883 49.2874C20.5697 49.0846 20.6069 48.8665 20.5973 48.6482C20.6063 48.4292 20.569 48.2111 20.4876 48.0076C20.4062 47.8041 20.2826 47.6199 20.1251 47.4676C19.7813 47.167 19.3344 47.0113 18.8783 47.0331H17.7781V50.2633H18.8783Z" fill="black"/>
<path d="M24.7814 50.7226C24.5631 50.4869 24.3953 50.2088 24.2881 49.9059C24.1809 49.603 24.1367 49.2815 24.1581 48.9609V46.0471H25.3625V48.9185C25.3625 49.863 25.7497 50.3352 26.5242 50.3352C26.6837 50.3459 26.8436 50.3212 26.9923 50.2624C27.141 50.2035 27.2746 50.1123 27.3836 49.9953C27.606 49.6896 27.7115 49.3142 27.6811 48.9374V46.066H28.8712V48.9798C28.8932 49.3001 28.8498 49.6214 28.7434 49.9243C28.637 50.2272 28.4699 50.5054 28.2525 50.7415C28.0191 50.956 27.7451 51.1213 27.4466 51.2276C27.148 51.3339 26.8311 51.3788 26.5147 51.36C26.1978 51.3756 25.8809 51.3275 25.5831 51.2179C25.2854 51.1084 25.0126 50.9399 24.7814 50.7226Z" fill="black"/>
<path d="M32.6019 50.9962C32.1853 50.7793 31.836 50.4527 31.5915 50.0517C31.3429 49.6335 31.2152 49.1541 31.223 48.6677C31.2158 48.1798 31.3434 47.6996 31.5915 47.2795C31.8368 46.8791 32.1859 46.5527 32.6019 46.335C33.0471 46.1007 33.5441 45.9819 34.0471 45.99C34.4666 45.9843 34.8831 46.0647 35.2704 46.2261C35.6261 46.3801 35.9412 46.6146 36.1911 46.911L35.4166 47.624C35.2581 47.4309 35.0584 47.2761 34.832 47.1707C34.6056 47.0652 34.3582 47.0118 34.1084 47.0148C33.8068 47.0098 33.5093 47.0831 33.2444 47.2274C32.997 47.366 32.7927 47.5703 32.6541 47.8177C32.5098 48.0826 32.4365 48.3804 32.4414 48.682C32.436 48.9821 32.5094 49.2786 32.6541 49.5416C32.7912 49.7913 32.9957 49.9974 33.2444 50.1365C33.5093 50.2808 33.8068 50.3541 34.1084 50.3491C34.359 50.3513 34.6069 50.2967 34.8334 50.1896C35.0599 50.0824 35.2592 49.9253 35.4166 49.7302L36.1911 50.4437C35.938 50.7479 35.6135 50.9848 35.2466 51.1332C34.8602 51.298 34.4436 51.3799 34.0235 51.3739C33.5259 51.3666 33.0376 51.2369 32.6019 50.9962Z" fill="black"/>
<path d="M41.8105 50.136H39.3927L38.9205 51.2507H37.6831L40.0066 46.0559H41.1918L43.5201 51.2507H42.2592L41.8105 50.136ZM41.4328 49.2196L40.6063 47.2269L39.7799 49.2196H41.4328Z" fill="black"/>
<path d="M46.5433 50.9962C46.1267 50.7793 45.7774 50.4527 45.5329 50.0517C45.2843 49.6335 45.1566 49.1541 45.1644 48.6677C45.1572 48.1798 45.2848 47.6996 45.5329 47.2795C45.7782 46.8791 46.1273 46.5527 46.5433 46.335C46.9885 46.1007 47.4855 45.9819 47.9885 45.99C48.408 45.9843 48.8245 46.0647 49.2118 46.2261C49.5682 46.3789 49.8836 46.6136 50.1325 46.911L49.358 47.624C49.1997 47.4307 49.0001 47.2757 48.7736 47.1702C48.5472 47.0647 48.2996 47.0115 48.0498 47.0148C47.7482 47.0098 47.4507 47.0831 47.1858 47.2274C46.9384 47.366 46.7341 47.5703 46.5955 47.8177C46.4512 48.0826 46.3779 48.3804 46.3829 48.682C46.3774 48.9821 46.4508 49.2786 46.5955 49.5416C46.7326 49.7913 46.9371 49.9974 47.1858 50.1365C47.4507 50.2808 47.7482 50.3541 48.0498 50.3491C48.3005 50.352 48.5486 50.2977 48.7753 50.1905C49.0019 50.0833 49.2011 49.9258 49.358 49.7302L50.1325 50.4437C49.8855 50.7443 49.5697 50.9808 49.2118 51.1332C48.8236 51.2975 48.4054 51.3795 47.9839 51.3739C47.4799 51.3691 46.9848 51.2393 46.5433 50.9962ZM47.2047 52.9322C47.0933 52.9137 46.9859 52.8752 46.8881 52.8188L47.0677 52.3465C47.2161 52.4146 47.3768 52.4518 47.54 52.4554C47.795 52.4554 47.9223 52.3751 47.9223 52.2193C47.9223 52.0634 47.8044 52.002 47.5589 52.002H47.3085L47.5022 51.2134H48.116L48.0122 51.6478C48.1889 51.6566 48.3565 51.7286 48.4845 51.8508C48.5371 51.9052 48.5784 51.9698 48.606 52.0403C48.6336 52.1108 48.6468 52.186 48.645 52.2617C48.6481 52.3698 48.6221 52.4769 48.5698 52.5716C48.5175 52.6663 48.4407 52.745 48.3475 52.7999C48.1083 52.9426 47.8322 53.0115 47.554 52.9982C47.4371 52.9882 47.3216 52.9662 47.2093 52.9322H47.2047Z" fill="black"/>
<path d="M55.752 50.1368H53.3483L52.8761 51.2515H51.6436L53.9622 46.0567H55.1523L57.4806 51.2515H56.2148L55.752 50.1368ZM54.7605 45.5655C54.6427 45.502 54.529 45.4309 54.4204 45.3529C54.3588 45.3047 54.294 45.2604 54.2267 45.2206C54.1792 45.1933 54.1255 45.1788 54.0708 45.1781C54.024 45.1762 53.9775 45.1846 53.9343 45.2026C53.891 45.2205 53.8522 45.2474 53.8206 45.2819C53.7498 45.37 53.7128 45.4807 53.7166 45.5937H53.1263C53.1222 45.3092 53.2101 45.0311 53.3767 44.8004C53.4502 44.706 53.5451 44.6304 53.6534 44.5795C53.7617 44.5286 53.8804 44.5039 54 44.5076C54.1193 44.5052 54.2374 44.5312 54.3447 44.5832C54.465 44.6484 54.5803 44.7225 54.6895 44.805C54.7533 44.8524 54.8195 44.8967 54.8878 44.9374C54.9336 44.9651 54.9856 44.9812 55.039 44.9844C55.0861 44.9852 55.1326 44.976 55.1758 44.9572C55.2189 44.9385 55.2576 44.9109 55.2892 44.8761C55.3576 44.7936 55.3959 44.6903 55.3978 44.5832H55.9835C55.9877 44.8604 55.8995 45.1311 55.7331 45.3529C55.6601 45.4467 55.5662 45.5221 55.4587 45.5729C55.3513 45.6238 55.2335 45.6487 55.1147 45.6458C54.9935 45.6464 54.8738 45.6189 54.7651 45.5655H54.7605ZM55.3743 49.2204L54.5479 47.2276L53.7214 49.2204H55.3743Z" fill="black"/>
<path d="M60.4927 50.9907C60.0733 50.7742 59.7208 50.4477 59.4728 50.0462C59.2252 49.6293 59.0976 49.1521 59.1043 48.6673C59.0971 48.1824 59.2248 47.7051 59.4728 47.2883C59.7195 46.8857 60.0723 46.5589 60.4927 46.3438C60.9417 46.1057 61.444 45.9854 61.9521 45.9942C62.4604 45.9841 62.9627 46.1046 63.4113 46.3438C63.8297 46.5617 64.1821 46.8879 64.4315 47.2883C64.6809 47.7047 64.8098 48.182 64.8043 48.6673C64.8093 49.1525 64.6804 49.6297 64.4315 50.0462C64.1809 50.4457 63.8288 50.7716 63.4113 50.9907C62.9618 51.2277 62.4601 51.3479 61.9521 51.3403C61.4442 51.3469 60.9425 51.2267 60.4927 50.9907ZM62.788 50.1029C63.0329 49.962 63.2339 49.7562 63.3689 49.508C63.5135 49.245 63.5867 48.9485 63.5813 48.6484C63.5862 48.3468 63.5131 48.049 63.3689 47.7841C63.2324 47.5383 63.0316 47.3342 62.788 47.1938C62.5331 47.0502 62.2446 46.9773 61.9521 46.9816C61.6612 46.9779 61.3743 47.0508 61.1208 47.1938C60.8762 47.3328 60.675 47.5372 60.54 47.7841C60.3957 48.049 60.3224 48.3468 60.3274 48.6484C60.3219 48.9485 60.3953 49.245 60.54 49.508C60.6735 49.7572 60.8749 49.9634 61.1208 50.1029C61.3743 50.2459 61.6612 50.3193 61.9521 50.3156C62.2462 50.3208 62.5363 50.2473 62.7926 50.1029H62.788Z" fill="black"/>
<path d="M25.9808 33.3195L26.9631 32.3372L27.3173 31.983C27.3874 31.91 27.4266 31.813 27.4266 31.7118C27.4266 31.6106 27.3874 31.5132 27.3173 31.4402L18.9869 23.1093C18.9139 23.0392 18.8165 23 18.7153 23C18.614 23 18.5166 23.0392 18.4436 23.1093L10.1132 31.4402C10.0774 31.4757 10.0489 31.5181 10.0295 31.5647C10.0101 31.6113 10 31.6613 10 31.7118C10 31.7623 10.0101 31.8123 10.0295 31.8589C10.0489 31.9055 10.0774 31.9474 10.1132 31.983L11.4495 33.3195L10.4674 34.3018L10.1132 34.656C10.0774 34.6916 10.0489 34.7339 10.0295 34.7805C10.0101 34.8271 10 34.8772 10 34.9277C10 34.9781 10.0101 35.0282 10.0295 35.0748C10.0489 35.1214 10.0774 35.1637 10.1132 35.1993L18.4436 43.5297C18.4792 43.5655 18.5215 43.5942 18.5681 43.6136C18.6148 43.6331 18.6648 43.6427 18.7153 43.6427C18.7658 43.6427 18.8158 43.6331 18.8624 43.6136C18.909 43.5942 18.9513 43.5655 18.9869 43.5297L27.3173 35.1993C27.3874 35.1263 27.4266 35.0289 27.4266 34.9277C27.4266 34.8264 27.3874 34.729 27.3173 34.656L25.9808 33.3195ZM11.0953 31.7141L18.713 24.0916L26.335 31.7141L24.7294 33.3195L18.713 39.3315L12.7012 33.3195L11.0953 31.7141ZM18.713 42.5474L11.0953 34.93L12.0776 33.943L18.4436 40.3139C18.4792 40.3497 18.5215 40.3779 18.5681 40.3973C18.6148 40.4167 18.6648 40.4268 18.7153 40.4268C18.7658 40.4268 18.8158 40.4167 18.8624 40.3973C18.909 40.3779 18.9513 40.3497 18.9869 40.3139L19.3411 39.9597L25.3529 33.943L26.335 34.93L18.713 42.5474Z" fill="black"/>
<path d="M24.021 31.439L23.6668 31.0848L19.3268 26.7446L18.9727 26.3858C18.8996 26.3157 18.8022 26.2765 18.701 26.2765C18.5998 26.2765 18.5026 26.3157 18.4296 26.3858L18.0754 26.7446L13.7306 31.0848L13.3764 31.439C13.3063 31.512 13.2671 31.6094 13.2671 31.7106C13.2671 31.8119 13.3063 31.9088 13.3764 31.9818L13.7306 32.336L18.0754 36.6808L18.4296 37.035C18.5026 37.1052 18.5998 37.1443 18.701 37.1443C18.8022 37.1443 18.8996 37.1052 18.9727 37.035L19.3268 36.6808L23.6668 32.336L23.7095 32.2982L24.021 31.9818C24.0569 31.9463 24.0853 31.9044 24.1047 31.8578C24.1241 31.8112 24.1342 31.7611 24.1342 31.7106C24.1342 31.6602 24.1241 31.6101 24.1047 31.5635C24.0853 31.5169 24.0569 31.4746 24.021 31.439ZM18.6987 36.0527L14.3587 31.713L18.6987 27.3681L23.0435 31.713L18.6987 36.0527Z" fill="black"/>
<path d="M20.7299 31.4391L18.9541 29.6682C18.9189 29.6325 18.8771 29.604 18.8309 29.5847C18.7847 29.5653 18.7351 29.5552 18.685 29.5552C18.6349 29.5552 18.5852 29.5653 18.539 29.5847C18.4928 29.604 18.4508 29.6325 18.4156 29.6682L16.6401 31.4391C16.5699 31.5121 16.5308 31.6095 16.5308 31.7108C16.5308 31.812 16.5699 31.9089 16.6401 31.9819L18.4156 33.7529C18.4508 33.7886 18.4928 33.817 18.539 33.8364C18.5852 33.8557 18.6349 33.8659 18.685 33.8659C18.7351 33.8659 18.7847 33.8557 18.8309 33.8364C18.8771 33.817 18.9189 33.7886 18.9541 33.7529L20.7299 31.9819C20.8 31.9089 20.8392 31.812 20.8392 31.7108C20.8392 31.6095 20.8 31.5121 20.7299 31.4391ZM18.685 32.7756L17.6224 31.7131L18.685 30.6454L19.7475 31.7131L18.685 32.7756Z" fill="black"/>
</svg>
