<svg width="461" height="323" viewBox="0 0 461 323" fill="none" xmlns="http://www.w3.org/2000/svg">
<mask id="mask0_1149_7520" style="mask-type:alpha" maskUnits="userSpaceOnUse" x="0" y="0" width="461" height="323">
<rect width="461" height="323" fill="#D9D9D9"/>
</mask>
<g mask="url(#mask0_1149_7520)">
<path fill-rule="evenodd" clip-rule="evenodd" d="M462 416.288C462 641.899 275.75 824.793 46 824.793C-183.75 824.793 -370 641.899 -370 416.288C-370 190.678 -183.75 7.78381 46 7.78381C275.75 7.78381 462 190.678 462 416.288ZM334 416.288C334 572.48 205.058 699.099 46 699.099C-113.058 699.099 -242 572.48 -242 416.288C-242 260.096 -113.058 133.478 46 133.478C205.058 133.478 334 260.096 334 416.288Z" fill="white" fill-opacity="0.08"/>
<path fill-rule="evenodd" clip-rule="evenodd" d="M264.352 416.288C264.352 534.708 166.592 630.706 45.9995 630.706C-74.5936 630.706 -172.354 534.708 -172.354 416.288C-172.354 297.868 -74.5936 201.869 45.9995 201.869C166.592 201.869 264.352 297.868 264.352 416.288ZM197.167 416.288C197.167 498.271 129.487 564.732 45.9995 564.732C-37.488 564.732 -105.168 498.271 -105.168 416.288C-105.168 334.305 -37.488 267.844 45.9995 267.844C129.487 267.844 197.167 334.305 197.167 416.288Z" fill="white" fill-opacity="0.08"/>
</g>
</svg>
