<svg width="552" height="400" viewBox="0 0 552 400" fill="none" xmlns="http://www.w3.org/2000/svg">
<mask id="mask0_786_6722" style="mask-type:alpha" maskUnits="userSpaceOnUse" x="0" y="0" width="552" height="400">
<rect width="552" height="400" rx="19" fill="#FFC9CC"/>
</mask>
<g mask="url(#mask0_786_6722)">
<rect width="552" height="400" rx="19" fill="#FFF3F4"/>
<path d="M147.818 35H74.1818C69.6631 35 66 38.7776 66 43.4375V94.0625C66 98.7224 69.6631 102.5 74.1818 102.5H147.818C152.337 102.5 156 98.7224 156 94.0625V43.4375C156 38.7776 152.337 35 147.818 35Z" fill="#32BCAD"/>
<path d="M124.854 81.8677C122.912 81.8677 121.085 81.1115 119.712 79.7389L112.288 72.3142C111.766 71.7916 110.858 71.7932 110.337 72.3142L102.885 79.766C101.512 81.1386 99.6854 81.8948 97.7434 81.8948H96.2803L105.684 91.2979C108.62 94.2345 113.382 94.2345 116.318 91.2979L125.748 81.8677H124.854Z" fill="white"/>
<path d="M97.743 55.6054C99.685 55.6054 101.512 56.3616 102.885 57.7342L110.336 65.1871C110.873 65.724 111.749 65.726 112.287 65.1865L119.712 57.7614C121.085 56.3887 122.912 55.6326 124.854 55.6326H125.748L116.318 46.2026C113.381 43.2658 108.62 43.2658 105.683 46.2026L96.2803 55.6055L97.743 55.6054Z" fill="white"/>
<path d="M133.547 63.4322L127.849 57.7336C127.723 57.7839 127.587 57.8152 127.444 57.8152H124.853C123.514 57.8152 122.202 58.3586 121.256 59.3058L113.832 66.7302C113.137 67.4249 112.224 67.7726 111.312 67.7726C110.399 67.7726 109.487 67.4249 108.792 66.7308L101.34 59.2786C100.393 58.3312 99.082 57.7881 97.7425 57.7881H94.5566C94.4207 57.7881 94.2937 57.7561 94.1738 57.7109L88.4526 63.4322C85.5158 66.369 85.5158 71.1301 88.4526 74.0669L94.1736 79.7879C94.2937 79.7428 94.4207 79.7108 94.5566 79.7108H97.7425C99.082 79.7108 100.393 79.1677 101.34 78.2205L108.791 70.769C110.138 69.4232 112.486 69.4228 113.832 70.7696L121.256 78.1933C122.202 79.1405 123.514 79.6838 124.853 79.6838H127.444C127.587 79.6838 127.723 79.7152 127.849 79.7655L133.547 74.0669C136.484 71.1301 136.484 66.369 133.547 63.4322" fill="white"/>
<path d="M477.818 297.5H404.182C399.663 297.5 396 301.278 396 305.938V356.562C396 361.222 399.663 365 404.182 365H477.818C482.337 365 486 361.222 486 356.562V305.938C486 301.278 482.337 297.5 477.818 297.5Z" fill="#FF6000"/>
<path d="M406.838 336.367C405.851 337.158 404.594 337.532 403.335 337.41H402.65V328.733H403.335C403.96 328.669 404.592 328.73 405.193 328.912C405.794 329.094 406.354 329.394 406.838 329.794C407.288 330.21 407.647 330.716 407.891 331.278C408.135 331.841 408.26 332.448 408.257 333.061C408.26 333.68 408.136 334.293 407.892 334.861C407.648 335.43 407.289 335.943 406.838 336.367ZM403.851 326.509H400.092V339.632H403.829C405.522 339.724 407.189 339.183 408.506 338.115C409.247 337.5 409.844 336.731 410.256 335.86C410.667 334.99 410.883 334.04 410.888 333.077C410.888 329.204 407.992 326.506 403.844 326.506" fill="white"/>
<path d="M412.072 339.632H414.632V326.511H412.072V339.632Z" fill="white"/>
<path d="M420.889 331.545C419.353 330.977 418.903 330.6 418.903 329.893C418.903 329.071 419.706 328.439 420.81 328.439C421.212 328.447 421.607 328.547 421.965 328.731C422.322 328.916 422.633 329.179 422.874 329.501L424.212 327.743C423.151 326.798 421.777 326.279 420.356 326.288C419.839 326.256 419.32 326.329 418.831 326.502C418.342 326.676 417.893 326.946 417.511 327.297C417.128 327.648 416.821 328.072 416.607 328.545C416.393 329.018 416.276 329.529 416.265 330.047C416.265 331.856 417.086 332.785 419.493 333.646C420.105 333.839 420.698 334.09 421.263 334.394C421.497 334.534 421.691 334.733 421.826 334.971C421.96 335.21 422.03 335.479 422.028 335.752C422.026 336.006 421.972 336.257 421.87 336.49C421.767 336.722 421.618 336.931 421.433 337.105C421.247 337.278 421.027 337.412 420.788 337.497C420.548 337.583 420.294 337.619 420.04 337.603C419.455 337.612 418.881 337.452 418.385 337.141C417.889 336.831 417.494 336.384 417.248 335.853L415.594 337.445C416.058 338.23 416.724 338.875 417.522 339.315C418.32 339.755 419.221 339.973 420.132 339.947C420.718 339.988 421.307 339.906 421.86 339.707C422.414 339.508 422.919 339.196 423.345 338.791C423.771 338.385 424.108 337.896 424.334 337.353C424.56 336.81 424.67 336.226 424.658 335.638C424.658 333.553 423.795 332.61 420.884 331.545" fill="white"/>
<path d="M425.469 333.08C425.462 333.988 425.637 334.888 425.983 335.728C426.33 336.567 426.841 337.328 427.487 337.966C428.133 338.605 428.9 339.107 429.743 339.444C430.586 339.781 431.488 339.946 432.396 339.928C433.511 339.929 434.611 339.667 435.605 339.163V336.151C435.224 336.599 434.75 336.959 434.217 337.207C433.684 337.455 433.103 337.585 432.515 337.589C431.922 337.606 431.331 337.5 430.781 337.277C430.23 337.054 429.732 336.719 429.318 336.293C428.904 335.868 428.582 335.361 428.374 334.805C428.166 334.249 428.075 333.655 428.108 333.063C428.089 332.484 428.185 331.907 428.391 331.366C428.597 330.824 428.909 330.33 429.308 329.91C429.707 329.491 430.186 329.155 430.717 328.922C431.247 328.69 431.818 328.565 432.397 328.556C433.006 328.56 433.608 328.694 434.161 328.948C434.714 329.203 435.207 329.572 435.606 330.032V327.02C434.641 326.49 433.558 326.213 432.458 326.213C431.546 326.201 430.641 326.37 429.796 326.71C428.95 327.049 428.179 327.553 427.529 328.192C426.88 328.83 426.363 329.591 426.008 330.43C425.654 331.269 425.469 332.17 425.465 333.08" fill="white"/>
<path d="M455.899 335.323L452.403 326.51H449.607L455.175 339.968H456.552L462.221 326.51H459.446L455.901 335.323" fill="white"/>
<path d="M463.375 339.628H470.631V337.41H465.93V333.868H470.457V331.646H465.93V328.735H470.631V326.511H463.375V339.628Z" fill="white"/>
<path d="M475.635 332.552H474.886V328.582H475.676C477.269 328.582 478.14 329.25 478.14 330.527C478.136 331.841 477.269 332.552 475.635 332.552ZM480.77 330.385C480.77 327.929 479.078 326.512 476.126 326.512H472.33V339.632H474.886V334.36H475.22L478.763 339.631H481.912L477.783 334.103C478.66 333.978 479.457 333.525 480.012 332.834C480.568 332.143 480.839 331.267 480.771 330.383" fill="white"/>
<path d="M443.417 340.045C447.258 340.045 450.372 336.932 450.372 333.091C450.372 329.25 447.258 326.136 443.417 326.136C439.577 326.136 436.463 329.25 436.463 333.091C436.463 336.932 439.577 340.045 443.417 340.045Z" fill="white"/>
<path d="M367.818 298H294.182C289.663 298 286 301.778 286 306.437V357.062C286 361.722 289.663 365.5 294.182 365.5H367.818C372.337 365.5 376 361.722 376 357.062V306.437C376 301.778 372.337 298 367.818 298Z" fill="#B3131B"/>
<path d="M294.906 322.545H371.911L367.098 343H290.093L294.906 322.545Z" fill="white"/>
<path d="M323.593 351.261L286 351.274V351.184C286 351.134 286.06 350.811 286.129 350.467C286.197 350.122 286.316 349.574 286.386 349.249C286.455 348.924 286.564 348.371 286.636 348.021L286.901 346.724C286.976 346.361 287.092 345.788 287.158 345.45C287.225 345.112 287.34 344.559 287.416 344.222C287.491 343.885 287.606 343.3 287.683 342.925C287.76 342.549 287.876 341.976 287.94 341.65C288.004 341.325 288.11 340.824 288.172 340.536C288.233 340.248 288.312 339.859 288.346 339.672C288.381 339.484 288.493 338.931 288.595 338.444C288.696 337.957 288.809 337.404 288.844 337.216C288.879 337.028 288.993 336.475 289.101 335.988C289.209 335.501 289.316 334.948 289.352 334.76C289.388 334.573 289.5 334.02 289.609 333.532C289.718 333.045 289.824 332.504 289.857 332.326C289.891 332.149 289.986 331.7 290.058 331.325C290.13 330.949 290.281 330.244 290.383 329.755C290.485 329.266 290.658 328.418 290.769 327.866C290.879 327.315 291.012 326.66 291.063 326.411L291.268 325.409C291.329 325.108 291.441 324.566 291.517 324.203C291.593 323.841 291.715 323.247 291.79 322.884C291.864 322.522 291.979 321.958 292.047 321.633C292.115 321.308 292.224 320.765 292.296 320.427C292.368 320.089 292.49 319.495 292.569 319.108C292.647 318.721 292.78 318.127 292.862 317.789C292.944 317.451 293.061 317.042 293.119 316.879C293.228 316.611 293.351 316.35 293.487 316.096L293.744 315.608L293.979 315.3C294.108 315.13 294.34 314.863 294.493 314.704C294.646 314.546 294.905 314.308 295.068 314.176C295.231 314.044 295.467 313.865 295.591 313.779C295.716 313.693 295.962 313.542 296.138 313.443C296.314 313.344 296.558 313.217 296.684 313.158C296.81 313.099 297.07 312.992 297.253 312.919C297.435 312.845 297.799 312.724 298.048 312.649C298.298 312.573 298.768 312.458 299.092 312.391C299.416 312.325 299.928 312.242 300.23 312.201L300.779 312.128L338.38 312.114L376 312.1V312.19C376 312.24 375.939 312.562 375.871 312.907C375.803 313.252 375.675 313.84 375.597 314.216C375.52 314.591 375.408 315.134 375.348 315.422C375.288 315.71 375.173 316.263 375.091 316.65C375.009 317.037 374.89 317.631 374.82 317.969C374.749 318.307 374.637 318.86 374.562 319.197C374.488 319.534 374.381 320.088 374.305 320.425C374.229 320.761 374.125 321.295 374.062 321.607C373.999 321.92 373.885 322.483 373.805 322.858C373.725 323.234 373.606 323.828 373.531 324.178C373.457 324.527 373.345 325.07 373.282 325.384L373.025 326.635C372.949 327.01 372.825 327.604 372.752 327.954C372.679 328.303 372.568 328.837 372.508 329.137L372.251 330.388C372.172 330.773 372.058 331.339 371.994 331.639C371.929 331.938 371.823 332.472 371.749 332.821C371.676 333.171 371.553 333.775 371.473 334.164C371.393 334.552 371.28 335.105 371.216 335.392C371.151 335.678 371.045 336.222 370.969 336.598C370.893 336.973 370.771 337.567 370.699 337.917C370.627 338.266 370.514 338.817 370.442 339.145C370.37 339.472 370.26 340.033 370.185 340.396L369.915 341.715L369.668 342.921C369.606 343.222 369.493 343.774 369.411 344.149C369.328 344.523 369.21 345.115 369.135 345.463L368.998 346.095L368.835 346.532C368.745 346.773 368.61 347.093 368.535 347.242C368.46 347.391 368.306 347.657 368.194 347.831C368.082 348.004 367.927 348.227 367.847 348.326C367.767 348.425 367.531 348.678 367.32 348.89L366.934 349.276L366.565 349.533C366.362 349.677 366.144 349.824 366.079 349.86C366.015 349.896 365.771 350.019 365.535 350.137C365.3 350.256 364.968 350.405 364.799 350.47C364.629 350.536 364.284 350.647 364.048 350.717C363.811 350.788 363.546 350.857 363.471 350.872L362.892 350.991C362.649 351.043 362.157 351.12 361.8 351.162L361.151 351.239L323.558 351.252L323.593 351.261ZM310.222 341.537H311.2L311.227 341.465C311.245 341.399 311.253 341.33 311.251 341.261C311.251 341.186 311.284 340.918 311.323 340.662C311.363 340.406 311.452 339.818 311.529 339.355C311.606 338.893 311.713 338.198 311.775 337.813C311.836 337.427 311.911 336.928 311.941 336.709C311.951 336.574 311.978 336.44 312.022 336.311C312.08 336.374 312.127 336.447 312.162 336.526L312.275 336.74L312.532 336.997L312.789 337.255L313.099 337.383L313.409 337.512L313.779 337.559L314.149 337.607L314.619 337.579L315.088 337.55L315.602 337.422L316.117 337.293L316.389 337.165C316.593 337.066 316.79 336.955 316.981 336.833L317.299 336.626L317.596 336.329C317.779 336.145 317.951 335.951 318.111 335.748C318.19 335.65 318.261 335.546 318.325 335.438C318.361 335.362 318.404 335.29 318.454 335.222C318.577 335.015 318.684 334.801 318.777 334.579C318.883 334.328 319.049 333.878 319.147 333.577L319.323 333.031L319.414 332.558C319.465 332.301 319.529 331.867 319.557 331.603L319.61 331.12L319.58 330.712L319.551 330.303L319.456 329.894L319.36 329.485L319.206 329.179L319.052 328.873L318.734 328.532L318.437 328.217L318.086 328.036L317.735 327.855L317.35 327.762L316.964 327.67L316.578 327.641L316.192 327.613L315.762 327.663L315.331 327.713L314.98 327.803L314.629 327.893L314.323 328.035C314.136 328.122 313.955 328.22 313.779 328.328C313.675 328.392 313.575 328.464 313.48 328.541C313.423 328.593 313.362 328.64 313.298 328.681L313.179 328.76L313.262 328.36C313.309 328.14 313.347 327.934 313.347 327.904V327.847H311.676L311.529 328.769C311.448 329.275 311.322 330.055 311.246 330.51C311.17 330.965 311.059 331.636 310.996 332.011C310.933 332.387 310.819 333.052 310.746 333.49C310.673 333.928 310.548 334.624 310.472 335.033L310.227 336.375L309.97 337.741C309.891 338.166 309.766 338.841 309.691 339.242C309.615 339.643 309.493 340.277 309.418 340.657C309.343 341.036 309.271 341.386 309.257 341.441L309.233 341.544H310.211L310.222 341.537ZM314.434 336.277L314.048 336.301L313.8 336.257L313.552 336.213L313.294 336.097L313.037 335.982L312.861 335.813L312.685 335.645L312.583 335.417C312.518 335.264 312.465 335.107 312.424 334.945L312.366 334.701L312.389 334.315L312.412 333.93L312.529 333.315C312.594 332.977 312.709 332.343 312.787 331.901C312.864 331.459 312.981 330.821 313.044 330.475L313.163 329.845L313.42 329.628C313.58 329.497 313.749 329.378 313.926 329.272L314.17 329.133L314.489 329.034L314.808 328.935L315.217 328.91L315.625 328.886L315.958 328.957L316.291 329.027L316.527 329.135L316.762 329.243L316.959 329.441L317.155 329.639L317.262 329.849C317.338 330.011 317.399 330.179 317.445 330.352L317.521 330.643L317.497 331.507L317.474 332.371L317.357 332.886C317.293 333.167 317.171 333.597 317.086 333.841L316.93 334.286L316.74 334.646C316.632 334.85 316.513 335.049 316.383 335.24C316.286 335.374 316.177 335.498 316.056 335.611C315.969 335.687 315.822 335.804 315.73 335.869L315.562 335.997L315.177 336.126L314.791 336.254L314.405 336.277H314.434ZM323.881 337.528H324.381L324.881 337.482C325.156 337.456 325.606 337.405 325.883 337.366C326.159 337.328 326.634 337.238 326.94 337.174L327.496 337.045L327.525 336.841C327.54 336.727 327.602 336.392 327.664 336.095L327.774 335.554L327.75 335.529L327.725 335.505L327.556 335.587C327.462 335.632 327.17 335.74 326.913 335.826L326.436 335.983L325.934 336.079L325.433 336.176H323.832L323.56 336.088C323.392 336.033 323.228 335.968 323.068 335.893L322.851 335.785L322.671 335.623L322.491 335.461L322.351 335.215L322.211 334.97L322.123 334.663L322.036 334.355V333.217L322.114 332.71L322.193 332.202L322.878 332.17L323.563 332.137L326.094 332.154L328.624 332.171L328.7 331.847C328.742 331.668 328.807 331.3 328.843 331.028L328.909 330.533V329.701L328.837 329.39L328.765 329.079L328.646 328.873C328.57 328.745 328.484 328.624 328.389 328.509C328.298 328.408 328.198 328.316 328.089 328.235C327.965 328.15 327.836 328.072 327.703 328L327.476 327.879L327.079 327.783L326.681 327.686L326.191 327.64L325.702 327.594L325.246 327.623L324.791 327.653L324.245 327.758L323.698 327.864L323.358 328C323.138 328.089 322.923 328.191 322.715 328.305C322.541 328.404 322.374 328.516 322.215 328.638C322.102 328.729 321.907 328.906 321.781 329.032C321.631 329.188 321.493 329.356 321.369 329.534C321.243 329.725 321.128 329.922 321.023 330.125C320.934 330.3 320.818 330.546 320.766 330.672C320.713 330.798 320.618 331.057 320.554 331.24C320.489 331.423 320.389 331.786 320.33 332.036C320.271 332.285 320.19 332.698 320.15 332.951L320.078 333.412V334.781L320.147 335.077C320.192 335.261 320.246 335.444 320.309 335.623C320.369 335.779 320.439 335.931 320.519 336.078C320.606 336.222 320.708 336.357 320.822 336.481C320.952 336.613 321.091 336.736 321.238 336.848C321.394 336.959 321.559 337.057 321.733 337.139L322 337.261L322.373 337.351C322.579 337.401 322.887 337.459 323.061 337.48C323.234 337.5 323.601 337.522 323.876 337.526L323.881 337.528ZM324.739 331.119C323.479 331.119 322.449 331.11 322.449 331.099C322.449 331.087 322.503 330.929 322.568 330.746C322.634 330.564 322.75 330.291 322.825 330.141L322.963 329.868L323.264 329.569L323.565 329.269L323.86 329.128C324.015 329.053 324.175 328.99 324.339 328.94C324.551 328.9 324.766 328.875 324.982 328.864L325.437 328.834L325.786 328.879L326.136 328.924L326.393 329.04L326.65 329.156L326.789 329.306C326.866 329.389 326.934 329.479 326.992 329.576L327.055 329.696L327.098 329.962L327.14 330.228L327.093 330.672L327.045 331.115L324.739 331.119ZM338.345 337.532H338.845L339.414 337.465C339.726 337.428 340.143 337.366 340.338 337.329C340.534 337.292 340.852 337.216 341.044 337.162C341.176 337.13 341.305 337.087 341.43 337.033C341.486 336.885 341.527 336.731 341.551 336.574C341.597 336.339 341.655 336.024 341.679 335.874C341.7 335.778 341.709 335.681 341.707 335.583C341.698 335.573 341.665 335.583 341.633 335.611C341.472 335.692 341.306 335.762 341.137 335.82L340.698 335.983L340.075 336.104L339.451 336.225L338.92 336.207L338.389 336.189L338.088 336.085L337.787 335.98L337.555 335.777L337.322 335.574L337.168 335.293L337.013 335.011L336.94 334.634L336.867 334.258V333.282L336.957 332.69L337.047 332.099L337.142 331.78C337.193 331.605 337.252 331.394 337.27 331.325C337.324 331.162 337.386 331.003 337.456 330.847C337.538 330.659 337.684 330.368 337.781 330.204L337.957 329.9L338.173 329.677L338.389 329.453L338.618 329.31L338.847 329.169L339.141 329.079C339.35 329.018 339.562 328.97 339.776 328.935L340.117 328.882L340.617 328.908L341.117 328.933L341.709 329.052L342.3 329.17L342.541 329.26C342.669 329.309 342.787 329.35 342.798 329.35C342.829 329.227 342.853 329.101 342.868 328.975C342.901 328.768 342.957 328.428 342.997 328.22C343.027 328.089 343.043 327.955 343.045 327.82C342.915 327.789 342.783 327.768 342.65 327.757C342.444 327.734 341.878 327.691 341.404 327.664L340.534 327.614L339.919 327.662L339.304 327.709L338.849 327.805L338.394 327.9L338.101 328.017C337.92 328.09 337.745 328.176 337.576 328.274C337.448 328.351 337.287 328.456 337.216 328.507C337.05 328.643 336.891 328.787 336.739 328.94L336.391 329.283L336.197 329.569C336.046 329.803 335.909 330.045 335.785 330.295L335.568 330.736L335.402 331.214C335.311 331.471 335.184 331.907 335.118 332.17L335.001 332.648L334.959 333.08L334.916 333.512V334.65L334.959 334.98L335.001 335.311L335.137 335.651L335.274 335.992L335.431 336.238L335.587 336.483L335.838 336.73L336.089 336.977L336.354 337.117L336.619 337.257L336.967 337.354C337.169 337.409 337.374 337.454 337.582 337.489C337.838 337.517 338.095 337.532 338.353 337.534L338.345 337.532ZM345.829 337.516L346.444 337.498L346.83 337.399L347.215 337.3L347.466 337.181C347.64 337.094 347.809 336.997 347.971 336.889C348.139 336.774 348.297 336.645 348.445 336.504C348.588 336.358 348.724 336.204 348.85 336.042C348.905 335.959 348.97 335.883 349.044 335.816C349.036 335.973 349.019 336.129 348.992 336.284C348.957 336.529 348.935 336.775 348.927 337.022V337.306H350.598L350.624 336.663L350.65 336.02L350.769 335.178C350.835 334.715 350.94 334.029 351.004 333.655C351.069 333.28 351.179 332.644 351.251 332.24C351.323 331.837 351.436 331.212 351.508 330.853L351.637 330.193V329.624V329.054L351.508 328.797L351.38 328.54L351.205 328.373L351.03 328.206L350.743 328.06L350.457 327.915L350.029 327.82L349.6 327.725L349 327.658L348.411 327.613L347.653 327.659C347.236 327.685 346.648 327.736 346.349 327.772L345.802 327.839H345.058L345.004 328.096C344.974 328.24 344.891 328.582 344.82 328.856C344.771 329.025 344.733 329.197 344.706 329.371C344.855 329.348 345.003 329.315 345.148 329.27C345.383 329.207 345.882 329.103 346.258 329.039L346.94 328.923L347.555 328.897L348.169 328.872L348.565 328.941L348.961 329.011L349.225 329.139L349.489 329.268L349.636 329.488L349.784 329.707V330.055V330.402L349.706 330.787L349.627 331.173H347.991H346.354L345.818 331.32C345.571 331.384 345.329 331.463 345.093 331.558C345.019 331.597 344.942 331.627 344.861 331.649C344.727 331.71 344.598 331.782 344.476 331.865L344.128 332.081L343.855 332.353C343.7 332.509 343.557 332.676 343.428 332.854C343.311 333.039 343.21 333.234 343.123 333.435L342.971 333.788L342.902 334.186L342.832 334.583V335.416L342.899 335.763L342.966 336.11L343.095 336.337C343.175 336.479 343.267 336.615 343.371 336.742L343.524 336.92L343.797 337.086L344.069 337.252L344.38 337.341C344.551 337.39 344.812 337.447 344.96 337.469L345.228 337.512L345.842 337.494L345.829 337.516ZM346.398 336.243L346.034 336.262L345.793 336.2C345.639 336.159 345.49 336.103 345.346 336.033L345.14 335.928L345.028 335.799C344.949 335.699 344.879 335.591 344.819 335.478L344.721 335.29L344.702 334.853L344.683 334.416L344.76 334.151C344.82 333.958 344.894 333.77 344.981 333.588L345.125 333.291L345.401 333.017L345.678 332.743L345.971 332.602L346.264 332.46L346.628 332.374L346.992 332.288H349.266L349.338 332.317L349.41 332.347L349.35 332.704C349.316 332.901 349.237 333.256 349.174 333.494C349.111 333.732 348.997 334.081 348.923 334.265C348.848 334.449 348.794 334.623 348.794 334.637C348.746 334.743 348.691 334.846 348.628 334.944L348.463 335.223L348.19 335.493C348.097 335.594 347.993 335.685 347.88 335.763C347.807 335.792 347.738 335.83 347.676 335.878L347.509 335.992L347.14 336.109L346.771 336.226L346.407 336.245L346.398 336.243ZM361.214 337.532H361.646L362.055 337.465C362.28 337.429 362.569 337.37 362.698 337.337C362.87 337.282 363.037 337.214 363.198 337.132L363.471 336.992L363.706 336.785L363.941 336.578L364.171 336.247C364.271 336.12 364.362 335.986 364.445 335.848L364.472 335.78L364.449 336.007C364.436 336.136 364.408 336.338 364.386 336.463C364.364 336.587 364.332 336.828 364.317 336.997L364.287 337.305H366.072V336.69L366.208 335.533C366.282 334.89 366.393 334.045 366.453 333.644C366.514 333.243 366.606 332.671 366.66 332.37C366.714 332.069 366.808 331.527 366.871 331.164C366.934 330.802 367.046 330.166 367.122 329.75C367.198 329.333 367.317 328.681 367.389 328.294L367.643 326.955C367.707 326.605 367.824 325.99 367.9 325.589C367.976 325.188 368.089 324.626 368.151 324.338C368.212 324.05 368.261 323.8 368.26 323.782V323.747H366.312L366.284 324.031C366.268 324.188 366.194 324.705 366.118 325.18C366.042 325.656 365.92 326.413 365.845 326.863C365.771 327.313 365.699 327.751 365.685 327.834L365.66 327.986L365.583 327.954C365.541 327.936 365.312 327.873 365.069 327.812L364.637 327.704L364.045 327.658L363.454 327.612L362.954 327.658L362.454 327.704L361.998 327.819L361.543 327.933L361.111 328.144L360.679 328.355L360.36 328.59L360.042 328.825L359.766 329.12C359.593 329.309 359.431 329.508 359.281 329.716L359.07 330.017L358.823 330.532C358.687 330.814 358.521 331.19 358.455 331.365C358.389 331.54 358.271 331.928 358.198 332.227L358.059 332.771L357.991 333.478L357.923 334.186L357.974 334.754L358.026 335.322L358.086 335.527C358.119 335.64 358.19 335.84 358.243 335.973L358.339 336.214L358.514 336.451L358.689 336.688L358.89 336.851L359.09 337.014L359.363 337.149C359.543 337.236 359.73 337.307 359.922 337.364C360.109 337.413 360.299 337.452 360.49 337.48C360.646 337.5 360.967 337.518 361.205 337.522L361.214 337.532ZM361.986 336.247L361.642 336.265L361.411 336.223C361.256 336.192 361.104 336.147 360.957 336.087L360.736 335.992L360.549 335.839L360.363 335.686L360.224 335.421L360.085 335.156L360.022 334.861L359.959 334.565V333.973V333.382L360.033 332.859L360.106 332.335L360.22 331.972C360.267 331.834 360.305 331.694 360.335 331.552C360.37 331.427 360.416 331.306 360.472 331.189C360.548 331.019 360.673 330.758 360.751 330.607C360.849 330.429 360.957 330.257 361.077 330.093C361.199 329.933 361.332 329.78 361.475 329.638C361.605 329.515 361.745 329.403 361.894 329.305L362.097 329.176L362.455 329.048L362.812 328.919H364.314L364.746 329.039C364.984 329.104 365.236 329.182 365.307 329.209L365.435 329.259L365.409 329.387C365.395 329.455 365.341 329.758 365.29 330.058C365.238 330.359 365.134 330.931 365.061 331.333C364.988 331.734 364.875 332.337 364.804 332.675C364.733 333.013 364.646 333.446 364.596 333.63C364.545 333.814 364.476 334.078 364.44 334.207C364.389 334.378 364.325 334.546 364.25 334.708C364.171 334.87 364.082 335.027 363.982 335.177C363.894 335.301 363.796 335.417 363.688 335.524C363.561 335.636 363.426 335.739 363.285 335.833L363.035 335.998L362.674 336.113L362.312 336.227L361.969 336.245L361.986 336.247ZM295.024 337.316H296.13L296.21 336.828C296.254 336.559 296.338 336.042 296.399 335.678L296.65 334.177C296.727 333.714 296.842 333.027 296.907 332.653C296.971 332.279 297.073 331.695 297.133 331.36C297.165 331.143 297.211 330.928 297.268 330.717L297.294 330.691H303.239L303.272 330.724L303.306 330.758L303.254 331.015C303.226 331.159 303.142 331.605 303.068 332.006C302.993 332.407 302.869 333.082 302.791 333.508C302.714 333.934 302.6 334.537 302.534 334.85C302.469 335.164 302.353 335.818 302.264 336.306C302.176 336.793 302.104 337.219 302.104 337.249V337.306H304.324L304.373 337.022C304.4 336.865 304.444 336.583 304.469 336.396C304.495 336.208 304.558 335.809 304.609 335.509C304.661 335.208 304.761 334.609 304.834 334.189C304.908 333.77 305.03 333.032 305.107 332.575C305.184 332.117 305.297 331.435 305.364 331.073C305.431 330.71 305.538 330.096 305.611 329.707C305.684 329.319 305.806 328.665 305.882 328.252C305.958 327.839 306.073 327.214 306.139 326.865C306.206 326.515 306.318 325.88 306.397 325.45C306.475 325.021 306.573 324.529 306.614 324.347L306.691 324.017H304.437L304.406 324.233C304.39 324.351 304.336 324.684 304.285 324.972C304.235 325.26 304.145 325.772 304.085 326.11C304.024 326.448 303.914 327.092 303.839 327.544C303.765 327.995 303.67 328.59 303.627 328.869L303.551 329.376L301.902 329.409L300.252 329.443L298.87 329.409C298.11 329.391 297.484 329.373 297.479 329.368C297.491 329.236 297.511 329.105 297.537 328.975C297.574 328.762 297.643 328.395 297.691 328.157C297.739 327.919 297.831 327.448 297.894 327.11C297.957 326.772 298.029 326.353 298.054 326.178C298.078 326.003 298.129 325.711 298.168 325.535C298.207 325.359 298.279 324.972 298.329 324.685C298.379 324.399 298.433 324.134 298.448 324.094L298.477 324.022H296.247L296.175 324.421C296.135 324.639 296.084 324.952 296.058 325.115C296.032 325.278 295.95 325.8 295.873 326.272C295.796 326.744 295.683 327.454 295.616 327.842L295.366 329.412C295.291 329.887 295.166 330.624 295.089 331.05C295.012 331.475 294.901 332.078 294.841 332.392L294.583 333.711C294.505 334.124 294.391 334.708 294.326 335.008C294.262 335.309 294.198 335.651 294.175 335.78C294.151 335.908 294.082 336.266 294.018 336.582C293.953 336.898 293.901 337.19 293.901 337.225V337.298H295.006L295.024 337.316ZM307.262 337.316H308.243L308.27 337.244C308.289 337.169 308.298 337.092 308.297 337.014C308.297 336.927 308.359 336.473 308.433 336.006C308.508 335.539 308.632 334.777 308.71 334.314C308.787 333.851 308.9 333.175 308.967 332.812C309.034 332.45 309.138 331.846 309.211 331.47C309.284 331.095 309.395 330.511 309.458 330.173C309.521 329.835 309.646 329.192 309.736 328.744C309.826 328.297 309.909 327.913 309.922 327.891L309.946 327.851L308.956 327.864L307.966 327.877L307.884 328.468C307.839 328.793 307.74 329.439 307.664 329.902C307.588 330.364 307.474 331.07 307.407 331.471C307.34 331.873 307.231 332.517 307.158 332.905L306.91 334.224C306.847 334.562 306.732 335.156 306.652 335.543C306.573 335.93 306.475 336.443 306.426 336.681C306.377 336.919 306.326 337.159 306.31 337.216L306.283 337.319L307.262 337.316ZM330.148 337.316H331.12L331.149 336.905C331.165 336.679 331.22 336.223 331.278 335.893C331.336 335.563 331.433 334.903 331.51 334.427C331.588 333.952 331.73 333.161 331.828 332.668C331.926 332.176 332.036 331.687 332.074 331.582C332.105 331.499 332.128 331.413 332.142 331.325C332.183 331.182 332.237 331.043 332.304 330.91C332.412 330.681 332.536 330.46 332.674 330.249L332.881 329.941L333.159 329.684L333.436 329.427L333.778 329.264L334.12 329.101H334.644H335.167L335.424 329.178C335.566 329.22 335.694 329.255 335.708 329.255C335.722 329.255 335.735 329.206 335.735 329.147C335.735 329.088 335.787 328.788 335.848 328.481C335.91 328.174 335.962 327.91 335.962 327.893C335.858 327.834 335.747 327.791 335.631 327.765C335.449 327.709 335.263 327.666 335.074 327.636L334.847 327.608L334.551 327.661C334.369 327.695 334.189 327.742 334.014 327.802C333.844 327.87 333.681 327.952 333.526 328.049C333.36 328.16 333.203 328.286 333.058 328.424C332.895 328.593 332.742 328.772 332.602 328.96L332.302 329.369L332.237 329.461L332.277 329.278C332.299 329.178 332.359 328.85 332.405 328.55C332.452 328.251 332.511 327.968 332.525 327.924L332.549 327.844H330.816V327.954C330.816 328.014 330.765 328.378 330.702 328.761C330.639 329.144 330.536 329.79 330.473 330.187C330.41 330.584 330.297 331.284 330.222 331.73C330.148 332.176 330.034 332.825 329.971 333.163C329.908 333.502 329.795 334.096 329.714 334.483C329.633 334.87 329.516 335.511 329.439 335.897C329.362 336.283 329.271 336.743 329.236 336.915C329.201 337.087 329.172 337.246 329.172 337.267V337.307H330.144L330.148 337.316ZM353.207 337.316H354.201V336.708L354.315 335.955C354.378 335.541 354.482 334.884 354.547 334.495C354.611 334.107 354.691 333.616 354.724 333.404C354.757 333.192 354.853 332.73 354.921 332.375C354.989 332.02 355.089 331.646 355.129 331.533C355.161 331.45 355.185 331.364 355.201 331.276C355.251 331.12 355.314 330.968 355.389 330.822L355.576 330.426L355.823 330.097L356.071 329.758L356.343 329.554C356.511 329.43 356.689 329.32 356.875 329.224L357.132 329.095H357.7H358.269L358.492 329.167L358.716 329.239L358.753 329.216L358.791 329.193V329.048C358.814 328.826 358.85 328.605 358.899 328.387L359.005 327.873L358.886 327.826C358.82 327.801 358.663 327.748 358.539 327.708L358.311 327.636H357.492L357.158 327.753L356.824 327.87L356.573 328.022L356.322 328.174L355.997 328.514L355.672 328.855L355.497 329.12C355.445 329.211 355.382 329.295 355.309 329.371C355.301 329.363 355.354 329.059 355.425 328.697C355.495 328.334 355.553 327.991 355.553 327.934V327.832H353.886V327.861C353.886 327.877 353.843 328.168 353.792 328.504C353.74 328.84 353.638 329.502 353.563 329.965C353.488 330.427 353.366 331.174 353.292 331.626C353.217 332.077 353.104 332.721 353.035 333.059C352.965 333.397 352.86 333.991 352.785 334.378C352.711 334.765 352.59 335.39 352.515 335.766L352.295 336.869L352.214 337.306H353.208L353.207 337.316ZM309.184 326.204H309.46L309.68 326.129L309.9 326.055L310.094 325.858L310.288 325.661L310.391 325.404L310.494 325.147V324.761V324.376L310.403 324.225L310.312 324.075L310.153 323.977L309.995 323.879H309.311L309.079 323.983L308.846 324.088L308.711 324.233L308.576 324.378L308.469 324.629L308.362 324.88L308.342 325.265L308.321 325.651L308.42 325.845L308.519 326.039L308.71 326.125L308.9 326.212H309.176L309.184 326.204Z" fill="#B3131B"/>
<path d="M257.818 297.5H184.182C179.663 297.5 176 301.278 176 305.938V356.562C176 361.222 179.663 365 184.182 365H257.818C262.337 365 266 361.222 266 356.562V305.938C266 301.278 262.337 297.5 257.818 297.5Z" fill="#F36218"/>
<path d="M187.25 318.563V338.781H191.839V330.321H199.368V338.781H203.929V318.563H199.369V326.333H191.839V318.563H187.25Z" fill="white"/>
<path d="M243.418 332.902C243.518 332.307 243.568 331.705 243.568 331.102C243.568 327.472 241.768 323.788 237.028 323.788C231.929 323.788 229.619 327.898 229.619 331.618C229.619 336.207 232.469 339.088 237.449 339.088C239.259 339.122 241.06 338.817 242.758 338.188L242.158 335.094C240.848 335.508 239.482 335.71 238.109 335.694C235.979 335.694 234.118 334.794 233.969 332.904L243.418 332.902ZM233.938 329.783C233.943 329.023 234.236 328.294 234.758 327.742C235.281 327.191 235.993 326.858 236.751 326.812C237.122 326.819 237.487 326.904 237.823 327.061C238.159 327.218 238.459 327.444 238.702 327.724C238.945 328.004 239.127 328.332 239.235 328.687C239.343 329.041 239.376 329.415 239.331 329.783H233.931" fill="white"/>
<path d="M245.028 338.781H249.588V331.341C249.586 330.999 249.616 330.657 249.678 330.321C249.827 329.622 250.226 329.001 250.801 328.576C251.375 328.151 252.086 327.95 252.798 328.012C253.21 328.012 253.622 328.052 254.027 328.131V323.841C253.71 323.788 253.389 323.768 253.068 323.781C252.175 323.813 251.314 324.122 250.605 324.665C249.895 325.207 249.372 325.957 249.107 326.81H248.982L248.832 324.11H244.903C244.964 325.376 245.023 326.782 245.023 328.94V338.785" fill="white"/>
<path fill-rule="evenodd" clip-rule="evenodd" d="M208.568 317.749C209.19 317.749 209.786 317.996 210.226 318.436C210.666 318.876 210.913 319.472 210.913 320.094C210.913 320.716 210.666 321.312 210.226 321.752C209.786 322.192 209.19 322.439 208.568 322.439C207.946 322.439 207.35 322.192 206.91 321.752C206.471 321.312 206.224 320.716 206.224 320.094C206.224 319.472 206.471 318.876 206.91 318.436C207.35 317.996 207.946 317.749 208.568 317.749Z" fill="#FEEA01"/>
<path fill-rule="evenodd" clip-rule="evenodd" d="M218.197 335.364H220.485C220.907 335.413 221.335 335.372 221.74 335.243C222.145 335.113 222.517 334.9 222.833 334.615C223.149 334.331 223.401 333.983 223.571 333.593C223.742 333.204 223.828 332.783 223.823 332.358C223.823 330.824 223.713 327.353 220.869 327.353C217.606 327.353 218.136 331.661 218.149 333.916C218.155 334.399 218.183 334.881 218.197 335.364ZM206.224 324.091H210.911V332.357C210.872 332.738 210.913 333.124 211.033 333.488C211.152 333.852 211.347 334.187 211.605 334.471C211.863 334.755 212.178 334.981 212.53 335.134C212.881 335.288 213.261 335.366 213.644 335.362C213.657 331.641 213.644 327.81 213.518 324.09H217.435C217.521 324.806 217.599 325.524 217.668 326.244C219.519 322.544 225.35 323.358 227.312 326.482C229.339 329.708 230.029 338.947 220.487 338.947H218.264C218.285 340.824 218.29 342.701 218.29 344.58H213.602C213.602 342.777 213.615 340.888 213.626 338.946C208.563 338.928 206.224 335.711 206.224 332.355V324.09" fill="white"/>
<g filter="url(#filter0_d_786_6722)">
<path d="M147.818 297.5H74.1818C69.6631 297.5 66 301.278 66 305.937V356.562C66 361.222 69.6631 365 74.1818 365H147.818C152.337 365 156 361.222 156 356.562V305.937C156 301.278 152.337 297.5 147.818 297.5Z" fill="#00AA13"/>
</g>
<mask id="mask1_786_6722" style="mask-type:alpha" maskUnits="userSpaceOnUse" x="66" y="297" width="90" height="68">
<path d="M147.818 297.5H74.1818C69.6631 297.5 66 301.278 66 305.937V356.562C66 361.222 69.6631 365 74.1818 365H147.818C152.337 365 156 361.222 156 356.562V305.937C156 301.278 152.337 297.5 147.818 297.5Z" fill="#00AA13"/>
</mask>
<g mask="url(#mask1_786_6722)">
<rect x="63.751" y="348.125" width="94.4999" height="18" fill="#F7941D"/>
<path d="M126.107 311.011C133.94 311.011 137.999 315.133 137.999 321.615C138.03 323.51 137.513 325.371 136.517 326.954C135.521 328.537 134.091 329.769 132.415 330.488C134.056 335.296 135.698 339.945 137.808 344.75H125.149L119.545 325.63C120.055 325.752 120.574 325.82 121.096 325.833C123.319 325.833 126.408 325.596 126.408 322.827C126.408 320.446 124.681 319.735 122.161 319.735H119.369C115.83 328.067 112.475 336.419 109.143 344.739H95.6348C91.7686 334.015 90.8421 330.91 86.25 319.68H98.287L102.588 334.167H102.691L110.175 311L126.107 311.011Z" fill="white"/>
<path d="M90.749 359.718V352.744H94.2879C94.9993 352.744 95.5402 352.808 95.9104 352.934C96.2806 353.058 96.5764 353.279 96.7978 353.596C97.0192 353.913 97.1299 354.263 97.1299 354.647C97.1299 355.142 96.9466 355.559 96.58 355.898C96.2135 356.237 95.6472 356.453 94.8814 356.545C95.1609 356.662 95.3732 356.778 95.5184 356.892C95.8269 357.14 96.1191 357.449 96.3949 357.82L97.7833 359.718H96.4548L95.3986 358.267C95.0901 357.848 94.836 357.528 94.6364 357.306C94.4367 357.084 94.2571 356.929 94.0974 356.84C93.9413 356.751 93.7816 356.689 93.6183 356.654C93.4985 356.632 93.3025 356.621 93.0303 356.621H91.8052V359.718H90.749ZM91.8052 355.822H94.0756C94.5583 355.822 94.9358 355.779 95.208 355.693C95.4803 355.605 95.6872 355.465 95.8287 355.275C95.9703 355.081 96.041 354.872 96.041 354.647C96.041 354.317 95.9031 354.046 95.6273 353.833C95.355 353.621 94.9231 353.515 94.3315 353.515H91.8052V355.822Z" fill="white"/>
<path d="M102.623 358.091L103.636 358.2C103.476 358.717 103.181 359.118 102.749 359.404C102.317 359.689 101.765 359.832 101.094 359.832C100.248 359.832 99.5763 359.605 99.0791 359.152C98.5854 358.695 98.3386 358.056 98.3386 357.235C98.3386 356.385 98.5891 355.725 99.0899 355.256C99.5908 354.786 100.241 354.552 101.039 354.552C101.812 354.552 102.444 354.782 102.934 355.242C103.424 355.701 103.669 356.348 103.669 357.182C103.669 357.233 103.667 357.309 103.663 357.411H99.3513C99.3876 357.966 99.5672 358.391 99.8903 358.685C100.213 358.98 100.616 359.128 101.099 359.128C101.458 359.128 101.765 359.045 102.019 358.881C102.273 358.716 102.475 358.452 102.623 358.091ZM99.4057 356.707H102.634C102.591 356.282 102.467 355.963 102.264 355.751C101.952 355.421 101.547 355.256 101.05 355.256C100.6 355.256 100.221 355.387 99.9121 355.651C99.6072 355.914 99.4384 356.266 99.4057 356.707Z" fill="white"/>
<path d="M105.106 359.718V355.332H104.24V354.666H105.106V354.128C105.106 353.789 105.141 353.537 105.21 353.372C105.304 353.15 105.469 352.971 105.705 352.835C105.945 352.695 106.278 352.625 106.707 352.625C106.983 352.625 107.287 352.654 107.621 352.711L107.474 353.458C107.271 353.426 107.079 353.41 106.897 353.41C106.6 353.41 106.389 353.466 106.266 353.577C106.142 353.688 106.081 353.895 106.081 354.2V354.666H107.208V355.332H106.081V359.718H105.106Z" fill="white"/>
<path d="M111.933 358.091L112.946 358.2C112.786 358.717 112.491 359.118 112.059 359.404C111.627 359.689 111.075 359.832 110.404 359.832C109.558 359.832 108.886 359.605 108.389 359.152C107.895 358.695 107.649 358.056 107.649 357.235C107.649 356.385 107.899 355.725 108.4 355.256C108.901 354.786 109.551 354.552 110.349 354.552C111.122 354.552 111.754 354.782 112.244 355.242C112.734 355.701 112.979 356.348 112.979 357.182C112.979 357.233 112.977 357.309 112.973 357.411H108.661C108.698 357.966 108.877 358.391 109.2 358.685C109.523 358.98 109.926 359.128 110.409 359.128C110.768 359.128 111.075 359.045 111.329 358.881C111.583 358.716 111.785 358.452 111.933 358.091ZM108.716 356.707H111.944C111.901 356.282 111.777 355.963 111.574 355.751C111.262 355.421 110.857 355.256 110.36 355.256C109.91 355.256 109.531 355.387 109.222 355.651C108.917 355.914 108.748 356.266 108.716 356.707Z" fill="white"/>
<path d="M114.187 353.729V352.744H115.167V353.729H114.187ZM114.187 359.718V354.666H115.167V359.718H114.187Z" fill="white"/>
<path d="M120.438 357.867L121.401 357.977C121.296 358.557 121.026 359.012 120.59 359.342C120.158 359.669 119.626 359.832 118.995 359.832C118.204 359.832 117.567 359.607 117.084 359.156C116.605 358.703 116.365 358.054 116.365 357.211C116.365 356.665 116.469 356.188 116.676 355.779C116.882 355.37 117.196 355.064 117.617 354.861C118.042 354.655 118.503 354.552 119 354.552C119.628 354.552 120.142 354.691 120.541 354.97C120.94 355.246 121.196 355.64 121.309 356.15L120.356 356.279C120.265 355.939 120.104 355.684 119.871 355.513C119.643 355.341 119.365 355.256 119.038 355.256C118.545 355.256 118.144 355.411 117.835 355.722C117.527 356.03 117.372 356.518 117.372 357.187C117.372 357.866 117.521 358.359 117.819 358.666C118.117 358.974 118.505 359.128 118.984 359.128C119.369 359.128 119.69 359.025 119.948 358.819C120.205 358.613 120.369 358.295 120.438 357.867ZM118.167 360.355L118.45 359.513H119.18L119 360.022C119.309 360.054 119.541 360.136 119.697 360.27C119.853 360.406 119.931 360.557 119.931 360.721C119.931 360.959 119.801 361.169 119.539 361.349C119.278 361.533 118.884 361.625 118.358 361.625C118.06 361.625 117.799 361.606 117.574 361.568L117.634 361.012C117.866 361.024 118.037 361.031 118.146 361.031C118.487 361.031 118.726 360.989 118.864 360.907C118.969 360.844 119.022 360.766 119.022 360.674C119.022 360.617 119 360.566 118.957 360.522C118.917 360.477 118.841 360.439 118.728 360.407C118.616 360.376 118.429 360.358 118.167 360.355Z" fill="white"/>
<path d="M126.013 359.095C125.65 359.364 125.3 359.554 124.962 359.665C124.628 359.776 124.269 359.832 123.884 359.832C123.249 359.832 122.761 359.697 122.419 359.428C122.078 359.155 121.908 358.808 121.908 358.386C121.908 358.138 121.971 357.913 122.098 357.71C122.229 357.504 122.398 357.339 122.605 357.216C122.815 357.092 123.051 356.998 123.312 356.935C123.505 356.891 123.795 356.848 124.183 356.807C124.975 356.724 125.557 356.626 125.931 356.512C125.935 356.394 125.937 356.32 125.937 356.288C125.937 355.939 125.844 355.693 125.659 355.551C125.408 355.357 125.036 355.261 124.543 355.261C124.082 355.261 123.741 355.332 123.519 355.475C123.301 355.614 123.14 355.863 123.035 356.221L122.076 356.107C122.164 355.749 122.307 355.46 122.507 355.242C122.706 355.02 122.995 354.85 123.372 354.733C123.75 354.612 124.187 354.552 124.684 354.552C125.178 354.552 125.579 354.603 125.888 354.704C126.196 354.805 126.423 354.934 126.568 355.089C126.713 355.242 126.815 355.435 126.873 355.67C126.906 355.816 126.922 356.079 126.922 356.459V357.601C126.922 358.397 126.942 358.901 126.982 359.114C127.025 359.323 127.109 359.524 127.232 359.718H126.209C126.107 359.54 126.042 359.332 126.013 359.095ZM125.931 357.182C125.575 357.309 125.042 357.417 124.33 357.506C123.928 357.557 123.643 357.614 123.476 357.677C123.309 357.74 123.18 357.834 123.089 357.958C122.998 358.078 122.953 358.213 122.953 358.362C122.953 358.59 123.051 358.781 123.247 358.933C123.447 359.085 123.737 359.161 124.118 359.161C124.496 359.161 124.831 359.09 125.125 358.947C125.419 358.801 125.635 358.603 125.773 358.353C125.879 358.159 125.931 357.874 125.931 357.496V357.182ZM122.752 353.919C122.748 353.589 122.851 353.326 123.062 353.129C123.269 352.933 123.534 352.835 123.857 352.835C124.082 352.835 124.389 352.92 124.777 353.091C124.991 353.187 125.162 353.234 125.289 353.234C125.405 353.234 125.494 353.207 125.555 353.153C125.617 353.096 125.661 352.985 125.686 352.82H126.394C126.383 353.182 126.278 353.453 126.078 353.634C125.882 353.814 125.632 353.905 125.327 353.905C125.098 353.905 124.797 353.816 124.423 353.638C124.18 353.524 124.002 353.467 123.889 353.467C123.766 353.467 123.666 353.505 123.59 353.581C123.51 353.657 123.472 353.77 123.476 353.919H122.752Z" fill="white"/>
<path d="M128.082 357.192C128.082 356.256 128.379 355.563 128.975 355.113C129.472 354.739 130.078 354.552 130.793 354.552C131.588 354.552 132.238 354.78 132.742 355.237C133.247 355.69 133.499 356.318 133.499 357.12C133.499 357.771 133.386 358.283 133.161 358.657C132.94 359.028 132.615 359.317 132.187 359.523C131.762 359.729 131.298 359.832 130.793 359.832C129.984 359.832 129.328 359.605 128.828 359.152C128.33 358.698 128.082 358.045 128.082 357.192ZM129.089 357.192C129.089 357.839 129.25 358.324 129.574 358.647C129.897 358.968 130.303 359.128 130.793 359.128C131.279 359.128 131.684 358.966 132.007 358.643C132.33 358.319 132.492 357.826 132.492 357.163C132.492 356.539 132.328 356.066 132.002 355.746C131.679 355.422 131.276 355.261 130.793 355.261C130.303 355.261 129.897 355.421 129.574 355.741C129.25 356.061 129.089 356.545 129.089 357.192Z" fill="white"/>
</g>
<path d="M257.818 210.5H184.182C179.663 210.5 176 214.278 176 218.938V269.562C176 274.222 179.663 278 184.182 278H257.818C262.337 278 266 274.222 266 269.562V218.938C266 214.278 262.337 210.5 257.818 210.5Z" fill="#007858"/>
<path d="M225.832 249.834C224.984 250.669 223.879 251.191 222.696 251.317C221.512 251.442 220.322 251.163 219.317 250.526L217.34 253.663C219.053 254.745 221.081 255.217 223.095 255.003C225.11 254.789 226.993 253.902 228.44 252.484L225.832 249.834ZM222.272 237.052C220.638 237.026 219.028 237.445 217.614 238.263C216.201 239.082 215.036 240.271 214.247 241.701C213.457 243.131 213.071 244.749 213.131 246.382C213.192 248.015 213.695 249.6 214.587 250.969L230.886 243.997C230.428 242.045 229.333 240.302 227.772 239.044C226.212 237.786 224.276 237.084 222.272 237.051V237.052ZM216.872 246.608C216.752 245.481 216.996 244.346 217.569 243.369C218.142 242.392 219.014 241.625 220.055 241.18C221.097 240.735 222.254 240.635 223.356 240.896C224.458 241.157 225.447 241.765 226.179 242.63L216.872 246.608ZM236.007 233.002V250.371L239.021 251.622L237.599 255.038L234.61 253.8C234.009 253.543 233.497 253.112 233.142 252.563C232.744 251.923 232.544 251.181 232.565 250.429V233L236.007 233.002ZM209.759 233.002V250.371L212.748 251.622L211.326 255.038L208.334 253.8C207.753 253.543 207.259 253.122 206.912 252.59C206.514 251.951 206.312 251.209 206.331 250.456V233L209.759 233.002Z" fill="white"/>
<path d="M250.839 241.274C251.466 241.577 252.026 241.999 252.489 242.518C252.952 243.037 253.308 243.642 253.537 244.298C253.767 244.955 253.864 245.65 253.824 246.344C253.785 247.039 253.609 247.718 253.307 248.344L256.634 249.945C257.536 248.063 257.756 245.925 257.256 243.899C256.756 241.872 255.567 240.083 253.892 238.836C252.218 237.59 250.163 236.964 248.078 237.066C245.993 237.168 244.008 237.992 242.464 239.396L244.957 242.132C245.739 241.417 246.718 240.953 247.766 240.8C248.815 240.647 249.886 240.812 250.839 241.274Z" fill="#C7D540"/>
<path d="M246.249 250.823C244.983 250.214 244.01 249.127 243.545 247.801C243.08 246.476 243.16 245.02 243.768 243.753L240.44 242.148C239.547 244.028 239.334 246.159 239.835 248.178C240.337 250.198 241.523 251.981 243.191 253.225C244.86 254.468 246.907 255.095 248.986 254.999C251.065 254.903 253.046 254.09 254.592 252.697L252.099 249.966C251.321 250.673 250.349 251.133 249.308 251.285C248.267 251.438 247.204 251.277 246.255 250.823H246.249ZM202.928 251.076V246.046C202.929 244.096 202.293 242.199 201.118 240.642C199.943 239.086 198.293 237.955 196.417 237.422C194.541 236.888 192.543 236.98 190.724 237.685C188.906 238.39 187.367 239.669 186.341 241.327C185.315 242.986 184.858 244.933 185.039 246.875C185.22 248.817 186.029 250.647 187.344 252.087C188.659 253.527 190.407 254.499 192.325 254.856C194.242 255.213 196.223 254.934 197.968 254.063L196.523 250.692C195.859 251.06 195.124 251.281 194.367 251.34C193.61 251.4 192.849 251.296 192.136 251.036C191.422 250.777 190.773 250.367 190.231 249.835C189.69 249.303 189.268 248.661 188.996 247.952C188.724 247.243 188.607 246.484 188.653 245.726C188.699 244.968 188.907 244.229 189.264 243.559C189.62 242.888 190.116 242.302 190.718 241.839C191.32 241.377 192.014 241.049 192.754 240.878C193.145 240.785 193.546 240.738 193.949 240.737C195.358 240.736 196.71 241.294 197.707 242.289C198.705 243.284 199.266 244.634 199.269 246.043V251.035C199.248 251.788 199.448 252.53 199.845 253.169C200.203 253.716 200.714 254.147 201.314 254.407L202.996 255.072L204.422 251.657L202.928 251.076Z" fill="white"/>
<path d="M477.818 210.5H404.182C399.663 210.5 396 214.278 396 218.938V269.562C396 274.222 399.663 278 404.182 278H477.818C482.337 278 486 274.222 486 269.562V218.938C486 214.278 482.337 210.5 477.818 210.5Z" fill="#B5DC19"/>
<path fill-rule="evenodd" clip-rule="evenodd" d="M412.606 253.522L412.547 253.358L410.022 246.192L409.963 246.027L410.128 245.968L417.505 243.374C417.764 243.282 418.036 243.235 418.31 243.235C418.809 243.234 419.296 243.389 419.703 243.677C420.11 243.966 420.417 244.374 420.582 244.844L422.365 249.897L422.424 250.06L422.256 250.119L412.771 253.459L412.606 253.522Z" fill="#A3CA3F"/>
<path fill-rule="evenodd" clip-rule="evenodd" d="M416.194 252.069L412.71 253.293L410.19 246.127L416.194 244.015L417.567 243.534C417.806 243.45 418.057 243.408 418.311 243.408C418.773 243.408 419.224 243.551 419.602 243.819C419.979 244.086 420.264 244.464 420.417 244.901L422.201 249.954L416.194 252.069ZM416.194 243.644L410.071 245.804L409.743 245.918L409.858 246.248L412.383 253.411L412.498 253.74L412.825 253.624L416.196 252.447L422.32 250.285L422.65 250.171L422.534 249.838L420.749 244.789C420.572 244.284 420.242 243.846 419.805 243.537C419.368 243.227 418.846 243.061 418.311 243.061C418.017 243.061 417.726 243.111 417.449 243.208L416.194 243.644Z" fill="white"/>
<path fill-rule="evenodd" clip-rule="evenodd" d="M419.4 260.473C418.136 260.471 416.903 260.078 415.871 259.347C414.839 258.617 414.059 257.585 413.638 256.392L412.993 254.557L412.935 254.392L413.099 254.333L423.135 250.803C423.399 250.713 423.676 250.667 423.956 250.665C424.468 250.667 424.968 250.827 425.387 251.123C425.806 251.419 426.123 251.836 426.297 252.318L428.143 257.574L428.203 257.738L428.039 257.797L421.435 260.125C420.781 260.354 420.094 260.471 419.402 260.471" fill="#194084"/>
<path fill-rule="evenodd" clip-rule="evenodd" d="M420.567 260.183C420.182 260.261 419.791 260.3 419.398 260.299C418.169 260.297 416.97 259.915 415.967 259.203C414.965 258.492 414.207 257.487 413.8 256.328L413.154 254.49L420.567 251.883L423.19 250.959C423.435 250.872 423.694 250.828 423.955 250.83C424.431 250.829 424.896 250.977 425.285 251.252C425.674 251.528 425.969 251.917 426.127 252.367L427.98 257.629L421.375 259.955C421.111 260.048 420.841 260.122 420.567 260.175V260.183ZM420.567 251.513L413.039 254.161L412.707 254.282L412.822 254.608L413.47 256.444C413.903 257.67 414.706 258.733 415.767 259.484C416.829 260.236 418.097 260.64 419.398 260.641C419.79 260.642 420.182 260.606 420.567 260.533C420.881 260.474 421.19 260.39 421.491 260.283L428.093 257.957L428.423 257.842L428.308 257.514L426.455 252.255C426.273 251.737 425.935 251.288 425.487 250.97C425.039 250.652 424.504 250.482 423.955 250.482C423.654 250.482 423.356 250.531 423.072 250.63L420.567 251.513Z" fill="white"/>
<path fill-rule="evenodd" clip-rule="evenodd" d="M434.111 260.6C430.721 260.6 428.928 258.872 428.928 255.599C428.881 253.751 429.486 251.945 430.638 250.5C431.234 249.803 431.979 249.248 432.817 248.878C433.656 248.507 434.567 248.329 435.483 248.357C436.776 248.299 438.053 248.654 439.131 249.369C439.643 249.76 440.054 250.268 440.33 250.851C440.606 251.433 440.738 252.074 440.717 252.718V252.81H437.387V252.718C437.387 251.47 436.765 250.912 435.376 250.912C432.907 250.912 432.259 254.022 432.259 255.667C432.259 256.755 432.617 258.051 434.333 258.051C434.913 258.03 435.47 257.816 435.914 257.443C436.359 257.07 436.667 256.559 436.788 255.992L436.81 255.923H440.155L440.112 256.048C439.783 257.379 439.008 258.558 437.916 259.387C436.824 260.217 435.481 260.647 434.11 260.607L434.111 260.6ZM445.897 258.241C446.448 258.079 446.94 257.762 447.315 257.328C447.689 256.894 447.93 256.36 448.009 255.792L448.259 254.9C447.551 255.191 446.792 255.341 446.026 255.342L445.897 255.349L445.765 255.361C444.422 255.508 443.527 255.865 443.527 257.126C443.527 258.008 444.41 258.317 445.16 258.317C445.407 258.319 445.654 258.294 445.895 258.242L445.897 258.241ZM445.895 253.388L446.02 253.372C448.021 253.175 448.936 253.078 448.936 251.951C448.936 250.744 447.482 250.65 447.037 250.65C446.646 250.645 446.258 250.718 445.895 250.866C445.61 250.986 445.36 251.176 445.169 251.42C444.978 251.664 444.853 251.953 444.806 252.259L441.771 252.335C441.78 251.696 441.954 251.071 442.277 250.519C442.599 249.967 443.059 249.509 443.611 249.188C444.316 248.789 445.093 248.536 445.897 248.443C446.327 248.388 446.76 248.362 447.193 248.366C448.676 248.211 450.162 248.638 451.338 249.557C451.57 249.798 451.752 250.082 451.874 250.393C451.996 250.705 452.055 251.037 452.048 251.372C452.025 252.057 451.942 252.739 451.801 253.41L450.783 258.02C450.679 258.522 450.629 259.033 450.636 259.545C450.639 259.761 450.674 259.975 450.74 260.181L450.783 260.304H447.509L447.415 259.32C446.98 259.738 446.466 260.064 445.901 260.276C445.297 260.503 444.656 260.618 444.01 260.616C441.38 260.616 440.199 259.058 440.199 257.513C440.199 255.321 441.827 253.865 444.664 253.522L445.895 253.388ZM455.435 260.301H452.101L452.127 260.192L454.517 248.743L454.532 248.671H457.715L457.692 248.786L457.33 250.373C457.734 249.74 458.296 249.222 458.96 248.87C459.624 248.517 460.367 248.343 461.119 248.363C461.448 248.361 461.776 248.383 462.103 248.427L462.206 248.438L462.185 248.541L461.544 251.593L461.523 251.687L461.429 251.669C461.357 251.651 461.282 251.635 461.2 251.616C460.845 251.531 460.483 251.482 460.118 251.469C457.636 251.469 456.883 253.444 456.516 255.159L455.451 260.228L455.435 260.301ZM466.642 257.985C468.512 257.544 469.394 255.043 469.394 253.299C469.394 251.785 468.601 250.916 467.227 250.916C467.029 250.915 466.832 250.936 466.639 250.978C464.746 251.398 463.888 253.831 463.888 255.603C463.851 255.908 463.879 256.218 463.969 256.511C464.06 256.804 464.211 257.076 464.413 257.307C464.615 257.538 464.864 257.724 465.143 257.853C465.421 257.981 465.724 258.05 466.031 258.054C466.236 258.054 466.44 258.031 466.639 257.983L466.642 257.985ZM466.639 248.366H466.896C467.533 248.33 468.168 248.468 468.733 248.765C469.297 249.063 469.77 249.508 470.101 250.054L471.316 244.385L474.552 244.31L471.31 260.215L468.189 260.29L468.336 259.094C467.914 259.667 467.326 260.098 466.652 260.328C466.129 260.514 465.577 260.606 465.022 260.601C464.414 260.64 463.804 260.546 463.235 260.325C462.666 260.105 462.152 259.763 461.729 259.325C461.305 258.886 460.982 258.361 460.781 257.785C460.58 257.209 460.507 256.596 460.567 255.989C460.527 254.123 461.072 252.291 462.125 250.75C462.637 250.022 463.315 249.426 464.101 249.01C464.888 248.594 465.762 248.37 466.652 248.355L466.639 248.366ZM468.446 241.948C467.262 241.979 466.09 241.7 465.046 241.139C464.523 240.849 464.091 240.422 463.795 239.903C463.498 239.385 463.35 238.795 463.366 238.198V237.627H466.546V238.108C466.546 239.087 467.662 239.599 468.767 239.599C469.223 239.599 470.711 239.507 470.711 238.289C470.711 237.567 470.357 237.328 469.621 237.092L467.149 236.294C465.499 235.76 464.543 235.085 464.543 233.206C464.543 230.576 467.201 229.395 469.838 229.395C470.551 229.322 471.271 229.391 471.957 229.598C472.643 229.805 473.281 230.147 473.834 230.602C474.156 230.956 474.402 231.372 474.558 231.824C474.714 232.277 474.776 232.756 474.74 233.234V233.331H471.557V233.234C471.534 232.244 470.957 231.742 469.841 231.742C468.985 231.742 467.964 231.926 467.964 232.798C467.964 233.197 468.198 233.525 469.37 233.887L470.988 234.407C472.622 234.947 474.133 235.74 474.133 237.856C474.146 238.5 473.983 239.135 473.662 239.692C473.341 240.25 472.873 240.709 472.31 241.02C471.131 241.662 469.803 241.981 468.461 241.944L468.446 241.948ZM448.925 241.628H445.513L445.537 241.507L446.963 234.637C447.075 234.176 447.143 233.706 447.166 233.232C447.166 232.581 446.407 232.125 445.722 232.125C443.438 232.125 442.727 234.354 442.526 235.312L441.217 241.548L441.201 241.626H437.782L437.809 241.506L440.256 229.784L440.272 229.709H443.552L443.526 229.829L443.232 231.152C443.725 230.582 444.338 230.128 445.027 229.823C445.716 229.518 446.464 229.369 447.218 229.387C449.49 229.387 450.739 230.54 450.739 232.633C450.683 233.322 450.567 234.005 450.395 234.674L448.946 241.544L448.925 241.628ZM417.713 234.421H415.105L414.193 238.674H418.539C418.888 238.718 419.242 238.685 419.576 238.577C419.91 238.469 420.217 238.289 420.474 238.05C420.731 237.81 420.932 237.517 421.062 237.191C421.193 236.865 421.251 236.514 421.231 236.163C421.231 234.556 419.831 234.421 418.517 234.421H417.713ZM417.713 228.203H416.399L415.643 231.802H419.562C419.85 231.834 420.141 231.806 420.417 231.719C420.693 231.631 420.948 231.487 421.166 231.296C421.383 231.104 421.558 230.87 421.679 230.606C421.8 230.343 421.865 230.058 421.869 229.768C421.869 228.702 421.302 228.203 420.085 228.203H417.713ZM417.713 241.632H410.064L413.368 225.322L417.714 225.25H420.263C421.606 225.143 422.953 225.403 424.161 226C424.665 226.341 425.067 226.812 425.324 227.364C425.581 227.915 425.684 228.526 425.621 229.131C425.63 230.048 425.34 230.942 424.795 231.679C424.307 232.328 423.601 232.778 422.806 232.945C423.473 233.188 424.044 233.637 424.437 234.228C424.829 234.819 425.022 235.52 424.988 236.228C425.01 237.006 424.849 237.777 424.517 238.481C424.185 239.184 423.691 239.799 423.075 240.274C421.807 241.194 420.272 241.671 418.706 241.632H417.713ZM457.72 234.318H460.279C460.263 233.225 459.985 232.02 458.196 232.02C458.033 232.018 457.87 232.028 457.708 232.048C457.107 232.142 456.546 232.406 456.089 232.808C455.633 233.21 455.3 233.734 455.131 234.318H457.72ZM457.72 229.406L458.027 229.398C459.483 229.326 460.914 229.793 462.047 230.71C462.572 231.21 462.983 231.819 463.249 232.493C463.515 233.168 463.631 233.893 463.588 234.618C463.586 235.24 463.525 235.861 463.406 236.472L457.72 236.549H454.762L454.745 237.137C454.745 238.532 455.65 239.329 457.234 239.329C457.397 239.329 457.559 239.314 457.72 239.285C458.113 239.173 458.479 238.979 458.793 238.717C459.108 238.454 459.363 238.128 459.543 237.761L462.842 237.723H462.99L462.938 237.849C462.606 238.99 461.921 239.997 460.982 240.727C460.044 241.456 458.899 241.87 457.711 241.91C457.417 241.934 457.099 241.948 456.774 241.948C456.066 242.021 455.351 241.936 454.68 241.701C454.009 241.465 453.398 241.085 452.89 240.586C452.383 240.087 451.992 239.483 451.745 238.816C451.498 238.149 451.401 237.436 451.461 236.727C451.437 234.88 452.058 233.082 453.216 231.644C453.764 230.975 454.447 230.43 455.22 230.044C455.993 229.657 456.838 229.437 457.702 229.399L457.72 229.406ZM431.403 234.538L431.53 234.526C433.589 234.32 434.519 234.232 434.519 233.069C434.519 231.835 433.032 231.745 432.573 231.745C432.169 231.736 431.768 231.812 431.396 231.969C431.105 232.089 430.849 232.283 430.654 232.531C430.459 232.779 430.331 233.073 430.283 233.385L427.172 233.466C427.182 232.812 427.361 232.172 427.692 231.607C428.022 231.043 428.493 230.574 429.059 230.245C429.777 229.835 430.572 229.575 431.395 229.483C431.834 229.427 432.276 229.399 432.718 229.398C434.239 229.24 435.761 229.678 436.965 230.621C437.201 230.866 437.387 231.156 437.512 231.473C437.637 231.79 437.698 232.128 437.691 232.469C437.672 233.174 437.588 233.876 437.44 234.566L436.4 239.286C436.287 239.801 436.234 240.328 436.241 240.855C436.246 241.075 436.282 241.292 436.348 241.501L436.394 241.632H433.039L432.94 240.616C432.497 241.048 431.969 241.384 431.389 241.6C430.77 241.831 430.115 241.949 429.454 241.948C426.758 241.948 425.549 240.349 425.549 238.771C425.549 236.528 427.217 235.041 430.124 234.684L431.403 234.538ZM431.511 239.504C432.857 239.21 433.26 238.108 433.57 237.011L433.829 236.091C433.101 236.392 432.322 236.548 431.534 236.549L431.267 236.569C429.893 236.716 428.971 237.087 428.971 238.376C428.971 239.277 429.872 239.593 430.644 239.593C430.934 239.594 431.224 239.564 431.508 239.505" fill="#194084"/>
<path d="M367.818 210.5H294.182C289.663 210.5 286 214.278 286 218.938V269.562C286 274.222 289.663 278 294.182 278H367.818C372.337 278 376 274.222 376 269.562V218.938C376 214.278 372.337 210.5 367.818 210.5Z" fill="white"/>
<path d="M347.573 248.506H352.297C352.432 248.506 352.746 248.461 352.881 248.461C353.362 248.358 353.791 248.09 354.095 247.704C354.399 247.318 354.558 246.838 354.546 246.347C354.545 245.859 354.38 245.386 354.078 245.003C353.777 244.62 353.355 244.349 352.881 244.233C352.689 244.194 352.493 244.179 352.297 244.188H347.573V248.506Z" fill="url(#paint0_linear_786_6722)"/>
<path d="M351.757 218.681C349.586 218.681 347.504 219.544 345.968 221.079C344.433 222.614 343.571 224.696 343.57 226.868V235.37H355.133C355.404 235.361 355.675 235.376 355.943 235.414C358.552 235.55 360.486 236.899 360.486 239.238C360.486 241.083 359.177 242.657 356.752 242.972V243.061C359.406 243.241 361.431 244.726 361.431 247.02C361.431 249.494 359.182 251.114 356.213 251.114H343.524V267.759H355.535C357.706 267.759 359.788 266.897 361.323 265.361C362.859 263.826 363.721 261.744 363.722 259.573V218.681H351.757Z" fill="url(#paint1_linear_786_6722)"/>
<path d="M353.96 239.778C353.969 239.308 353.805 238.85 353.497 238.493C353.19 238.136 352.762 237.905 352.296 237.844C352.206 237.844 351.98 237.8 351.846 237.8H347.573V241.758H351.846C351.997 241.771 352.15 241.756 352.296 241.714C352.763 241.652 353.191 241.421 353.498 241.064C353.805 240.707 353.97 240.249 353.96 239.778Z" fill="url(#paint2_linear_786_6722)"/>
<path d="M306.503 218.681C304.332 218.681 302.25 219.544 300.714 221.079C299.179 222.614 298.316 224.696 298.316 226.868V247.065C300.499 248.209 302.915 248.84 305.378 248.909C308.215 248.909 309.742 247.2 309.742 244.861V235.324H316.759V244.814C316.759 248.503 314.469 251.517 306.683 251.517C303.847 251.519 301.022 251.171 298.271 250.482V267.713H310.282C312.453 267.712 314.535 266.85 316.071 265.314C317.606 263.779 318.468 261.697 318.469 259.526V218.681H306.503Z" fill="url(#paint3_linear_786_6722)"/>
<path d="M329.128 218.681C326.957 218.681 324.875 219.544 323.34 221.079C321.804 222.614 320.942 224.696 320.941 226.868V237.573C323.014 235.819 326.614 234.694 332.412 234.964C334.582 235.101 336.736 235.432 338.848 235.953V239.417C336.927 238.39 334.812 237.777 332.64 237.618C328.232 237.303 325.578 239.463 325.578 243.241C325.578 247.065 328.232 249.225 332.64 248.865C334.808 248.685 336.919 248.073 338.848 247.066V250.524C336.737 251.049 334.583 251.381 332.412 251.513C326.608 251.783 323.01 250.658 320.941 248.904V267.803H332.952C335.123 267.803 337.205 266.94 338.74 265.405C340.276 263.87 341.138 261.787 341.139 259.616V218.681H329.128Z" fill="url(#paint4_linear_786_6722)"/>
<mask id="mask2_786_6722" style="mask-type:alpha" maskUnits="userSpaceOnUse" x="66" y="210" width="90" height="68">
<path d="M147.818 210H74.1818C69.6631 210 66 213.778 66 218.438V269.062C66 273.722 69.6631 277.5 74.1818 277.5H147.818C152.337 277.5 156 273.722 156 269.062V218.438C156 213.778 152.337 210 147.818 210Z" fill="white"/>
</mask>
<g mask="url(#mask2_786_6722)">
<path fill-rule="evenodd" clip-rule="evenodd" d="M57.8174 210.002H162.908V243.28L129.883 235.437L91.1397 234.85L57.8174 241.042V210" fill="#2E3192"/>
<path fill-rule="evenodd" clip-rule="evenodd" d="M110.375 221.238C113.112 221.238 115.823 221.777 118.351 222.824C120.88 223.872 123.178 225.407 125.113 227.342C127.049 229.278 128.584 231.576 129.631 234.104C130.679 236.633 131.218 239.343 131.218 242.081C131.218 247.608 129.022 252.91 125.113 256.819C121.204 260.727 115.903 262.923 110.375 262.923C104.847 262.923 99.5458 260.727 95.637 256.819C91.7282 252.91 89.5322 247.608 89.5322 242.081C89.5322 236.553 91.7282 231.251 95.637 227.342C99.5458 223.434 104.847 221.238 110.375 221.238Z" fill="#FFF200"/>
<path fill-rule="evenodd" clip-rule="evenodd" d="M107.476 233.537C126.354 233.367 145.115 236.509 162.908 242.82V279.544H57.8174V240.836C73.9018 235.887 90.6477 233.423 107.476 233.528" fill="#ED1C24"/>
<path fill-rule="evenodd" clip-rule="evenodd" d="M107.476 244.067C126.354 243.898 145.115 247.04 162.908 253.35V279.546H57.8174V251.369C73.9019 246.421 90.6477 243.956 107.476 244.062" fill="#FFF200"/>
<path d="M79.8887 266.736L87.9771 255.494H90.9809L99.6018 266.736H96.4264L93.9742 263.331H85.1624L82.8487 266.736H79.8887ZM85.9664 262.119H93.109L90.9091 259.006C90.367 258.259 89.8699 257.481 89.4203 256.675C89.1318 257.435 88.7506 258.156 88.2854 258.822L85.9664 262.119Z" fill="#2E3192"/>
<path d="M111.496 266.735V265.539C110.082 266.528 108.376 267.014 106.653 266.919C105.802 266.925 104.954 266.832 104.124 266.643C103.506 266.524 102.916 266.29 102.385 265.952C102.028 265.693 101.754 265.336 101.595 264.924C101.469 264.507 101.416 264.071 101.437 263.635V258.589H104.024V263.106C103.994 263.597 104.048 264.09 104.182 264.563C104.4 264.975 104.772 265.283 105.217 265.422C105.844 265.643 106.507 265.747 107.172 265.728C107.911 265.734 108.647 265.628 109.356 265.415C109.911 265.278 110.412 264.975 110.792 264.548C111.109 264.078 111.26 263.517 111.223 262.952V258.589H113.817V266.732L111.496 266.735Z" fill="#2E3192"/>
<path d="M117.83 266.736V258.591H120.149V259.817C120.612 259.329 121.169 258.941 121.787 258.675C122.322 258.486 122.886 258.393 123.454 258.398C124.358 258.404 125.256 258.554 126.113 258.843L125.221 260.124C124.608 259.927 123.968 259.826 123.325 259.824C122.803 259.816 122.286 259.91 121.801 260.101C121.405 260.237 121.065 260.501 120.837 260.852C120.551 261.34 120.402 261.896 120.407 262.462V266.725L117.83 266.736Z" fill="#2E3192"/>
<path d="M137.614 265.73C136.728 266.14 135.798 266.449 134.842 266.649C133.905 266.833 132.952 266.923 131.997 266.917C130.677 266.982 129.358 266.76 128.132 266.266C127.231 265.825 126.781 265.266 126.781 264.586C126.785 264.38 126.832 264.176 126.918 263.989C127.005 263.801 127.129 263.634 127.284 263.497C127.669 263.14 128.124 262.869 128.62 262.7C129.226 262.488 129.852 262.337 130.487 262.248C130.995 262.177 131.762 262.108 132.787 262.041C134.332 261.967 135.871 261.809 137.399 261.566C137.408 261.377 137.413 261.257 137.413 261.206C137.428 260.956 137.366 260.708 137.235 260.495C137.104 260.282 136.91 260.115 136.681 260.016C135.742 259.656 134.739 259.497 133.735 259.549C132.821 259.507 131.907 259.626 131.034 259.899C130.466 260.117 130.007 260.549 129.755 261.102L127.226 260.918C127.45 260.345 127.847 259.855 128.361 259.517C129.058 259.096 129.832 258.817 130.638 258.697C131.78 258.491 132.94 258.393 134.101 258.407C135.165 258.387 136.228 258.469 137.276 258.652C137.907 258.75 138.515 258.96 139.072 259.274C139.432 259.493 139.713 259.82 139.875 260.209C139.983 260.624 140.027 261.054 140.005 261.482V263.323C139.967 264.139 140.02 264.957 140.163 265.761C140.301 266.134 140.528 266.468 140.823 266.735H138.122C137.861 266.455 137.685 266.106 137.614 265.73ZM137.399 262.647C136.003 262.912 134.592 263.087 133.174 263.173C132.417 263.215 131.663 263.307 130.918 263.449C130.548 263.52 130.2 263.674 129.899 263.901C129.793 263.975 129.705 264.072 129.643 264.185C129.581 264.298 129.545 264.424 129.54 264.553C129.54 264.921 129.798 265.227 130.316 265.472C131.048 265.754 131.832 265.879 132.615 265.84C133.514 265.852 134.409 265.734 135.274 265.49C135.92 265.33 136.51 264.999 136.984 264.532C137.288 264.139 137.437 263.647 137.401 263.152L137.399 262.647Z" fill="#2E3192"/>
</g>
<path d="M257.818 123H184.182C179.663 123 176 126.778 176 131.438V182.062C176 186.722 179.663 190.5 184.182 190.5H257.818C262.337 190.5 266 186.722 266 182.062V131.438C266 126.778 262.337 123 257.818 123Z" fill="white"/>
<path d="M226.731 150.517C226.731 150.952 226.379 151.305 225.944 151.305C225.509 151.305 225.156 150.952 225.156 150.517V137.288C225.156 136.853 225.509 136.5 225.944 136.5C226.379 136.5 226.731 136.853 226.731 137.288V150.517ZM230.452 149.305C230.452 150.409 231.347 151.305 232.452 151.305H233.345C234.45 151.305 235.345 150.409 235.345 149.305V138.5C235.345 137.395 234.45 136.5 233.345 136.5H232.45C231.346 136.5 230.45 137.396 230.45 138.5L230.452 149.305ZM246.714 136.5C246.117 136.5 245.634 136.984 245.634 137.58V150.225C245.634 150.821 246.117 151.305 246.714 151.305C247.31 151.305 247.794 150.821 247.794 150.225V137.58C247.794 136.984 247.31 136.5 246.714 136.5ZM213.409 150.374C213.409 150.888 213.825 151.305 214.339 151.305C214.852 151.305 215.269 150.888 215.269 150.374V137.43C215.269 136.916 214.852 136.5 214.339 136.5C213.825 136.5 213.409 136.916 213.409 137.43V150.374ZM204.292 149.305C204.292 150.409 205.188 151.305 206.292 151.305H206.8C207.905 151.305 208.8 150.409 208.8 149.305V138.5C208.8 137.395 207.905 136.5 206.8 136.5H206.292C205.188 136.5 204.292 137.395 204.292 138.5V149.305ZM193.718 149.838C193.718 150.648 194.375 151.305 195.184 151.305C195.994 151.305 196.65 150.648 196.65 149.838V137.966C196.65 137.156 195.994 136.5 195.184 136.5C194.375 136.5 193.718 137.156 193.718 137.966V149.838ZM253.476 136.5C252.773 136.5 252.203 137.07 252.203 137.774V175.726C252.203 176.43 252.773 177 253.476 177C254.18 177 254.75 176.43 254.75 175.726V137.774C254.75 137.07 254.18 136.5 253.476 136.5ZM187.25 175.726C187.25 176.43 187.82 177 188.524 177C189.227 177 189.797 176.43 189.797 175.727V137.774C189.797 137.07 189.227 136.5 188.524 136.5C187.82 136.5 187.25 137.07 187.25 137.774V175.726ZM193.718 176.7V169.49H195.968C196.625 169.448 197.277 169.617 197.829 169.973C198.04 170.134 198.212 170.34 198.331 170.577C198.45 170.814 198.513 171.074 198.515 171.339C198.524 171.685 198.418 172.024 198.214 172.305C198.006 172.607 197.687 172.817 197.325 172.888C197.728 172.987 198.097 173.188 198.398 173.471C198.54 173.628 198.647 173.812 198.713 174.012C198.779 174.212 198.803 174.424 198.784 174.633C198.785 174.938 198.715 175.238 198.578 175.51C198.441 175.782 198.242 176.018 197.996 176.199C197.317 176.593 196.529 176.762 195.746 176.682C195.779 176.7 193.718 176.7 193.718 176.7ZM195.277 172.318H195.864C196.138 172.311 196.407 172.243 196.651 172.118C196.739 172.047 196.811 171.958 196.862 171.858C196.914 171.757 196.945 171.648 196.953 171.535C196.968 171.419 196.947 171.301 196.893 171.197C196.839 171.093 196.755 171.008 196.651 170.952C196.376 170.816 196.071 170.748 195.763 170.753H195.277V172.318ZM195.277 175.349H195.964C196.109 175.361 196.256 175.34 196.392 175.288C196.528 175.236 196.651 175.155 196.751 175.049C196.846 174.962 196.922 174.857 196.974 174.739C197.026 174.622 197.053 174.495 197.053 174.367C197.053 174.238 197.026 174.111 196.974 173.994C196.922 173.876 196.846 173.771 196.751 173.684C196.64 173.6 196.513 173.539 196.378 173.505C196.243 173.47 196.102 173.463 195.964 173.484H195.277V175.349ZM199.198 176.698L202.919 169.304H203.02L206.64 176.698H204.879L204.393 175.632H201.46L200.974 176.698H199.198ZM201.947 174.366H203.81L202.838 172.13L201.947 174.366ZM207.729 176.698V169.307H207.929L212.437 173.487V169.49H214.012V176.984H213.795L209.286 172.804V176.7L207.729 176.698ZM221.335 171.738C221.078 171.429 220.742 171.193 220.363 171.056C220.065 170.897 219.727 170.827 219.391 170.857C219.118 170.851 218.847 170.9 218.594 171C218.341 171.101 218.11 171.25 217.916 171.44C217.508 171.89 217.297 172.483 217.329 173.088C217.314 173.375 217.359 173.662 217.46 173.931C217.561 174.2 217.716 174.446 217.916 174.653C218.109 174.844 218.34 174.994 218.593 175.095C218.847 175.195 219.118 175.243 219.391 175.236C219.756 175.218 220.117 175.151 220.464 175.037C220.843 174.845 221.203 174.617 221.536 174.354L221.436 176.3C220.804 176.732 220.058 176.97 219.291 176.982C218.893 176.973 218.499 176.906 218.121 176.783C217.719 176.683 217.349 176.482 217.048 176.2C216.584 175.837 216.216 175.369 215.975 174.834C215.684 174.299 215.551 173.693 215.59 173.085C215.585 172.581 215.687 172.081 215.892 171.619C216.094 171.163 216.359 170.738 216.679 170.354C217.024 170.032 217.419 169.767 217.849 169.571C218.316 169.375 218.817 169.273 219.324 169.272C219.721 169.29 220.114 169.357 220.494 169.471C220.867 169.597 221.226 169.759 221.567 169.954L221.335 171.738ZM222.223 176.701L225.944 169.307H226.04L229.66 176.701H227.904L227.418 175.635H224.486L224 176.701H222.223ZM224.87 174.369H226.73L225.758 172.133L224.87 174.369ZM225.155 168.723L226.127 166.975H227.2L225.725 168.723H225.155ZM230.652 176.7V169.49H232.512C232.972 169.462 233.435 169.495 233.886 169.59C234.197 169.682 234.495 169.811 234.774 169.973C235.047 170.122 235.255 170.365 235.361 170.655C235.523 170.92 235.593 171.23 235.562 171.538C235.579 171.748 235.554 171.958 235.488 172.158C235.422 172.358 235.316 172.542 235.177 172.701C234.918 173.033 234.586 173.301 234.205 173.483L236.365 176.598H234.41L232.449 173.767H232.248V176.598H230.673V176.698L230.652 176.7ZM232.61 170.772H232.308V172.722H232.694C233.044 172.746 233.391 172.64 233.666 172.423C233.783 172.327 233.878 172.208 233.944 172.073C234.011 171.938 234.047 171.79 234.051 171.64C234.063 171.495 234.042 171.35 233.99 171.215C233.937 171.079 233.855 170.957 233.749 170.857C233.479 170.874 233.096 170.774 232.61 170.774V170.772ZM237.604 176.7V169.49H239.27V176.7H237.604ZM240.839 173.103C240.833 172.599 240.936 172.099 241.14 171.637C241.343 171.181 241.608 170.755 241.928 170.372C242.239 170.011 242.644 169.74 243.098 169.589C243.53 169.395 243.998 169.293 244.472 169.29C244.947 169.284 245.417 169.387 245.846 169.589C246.287 169.767 246.685 170.033 247.016 170.372C247.365 170.734 247.633 171.165 247.804 171.637C248.002 172.101 248.104 172.6 248.105 173.103C248.099 173.532 248.033 173.958 247.91 174.369C247.81 174.768 247.608 175.135 247.323 175.435C246.973 175.87 246.541 176.232 246.05 176.501C245.54 176.772 244.968 176.904 244.391 176.884C243.916 176.889 243.446 176.787 243.017 176.584C242.576 176.407 242.178 176.14 241.847 175.802C241.498 175.439 241.23 175.008 241.059 174.536C240.927 174.07 240.854 173.589 240.841 173.105L240.839 173.103ZM242.699 173.103C242.688 173.68 242.898 174.239 243.286 174.668C243.459 174.858 243.672 175.008 243.909 175.108C244.146 175.209 244.402 175.258 244.66 175.251C244.918 175.256 245.173 175.207 245.41 175.106C245.647 175.006 245.86 174.857 246.034 174.668C246.428 174.242 246.638 173.681 246.621 173.103C246.635 172.526 246.425 171.966 246.034 171.538C245.861 171.349 245.648 171.199 245.411 171.098C245.174 170.997 244.918 170.949 244.66 170.955C244.143 170.965 243.65 171.174 243.286 171.538C243.068 171.732 242.9 171.976 242.798 172.249C242.696 172.521 242.663 172.815 242.701 173.103H242.699ZM193.415 165.709V155.584H196.549C197.484 155.503 198.419 155.744 199.197 156.267C199.499 156.489 199.74 156.785 199.895 157.126C200.051 157.467 200.116 157.842 200.085 158.215C200.103 158.699 199.968 159.176 199.7 159.58C199.375 159.996 198.931 160.304 198.426 160.463C199.013 160.559 199.541 160.875 199.901 161.346C200.264 161.784 200.439 162.346 200.387 162.911C200.408 163.343 200.32 163.773 200.133 164.163C199.946 164.553 199.665 164.891 199.314 165.147C198.332 165.72 197.2 165.987 196.064 165.913H193.417L193.415 165.709ZM195.678 159.581H196.465C196.848 159.62 197.231 159.513 197.538 159.282C197.677 159.183 197.786 159.049 197.854 158.893C197.921 158.738 197.945 158.567 197.923 158.399C197.942 158.231 197.916 158.061 197.848 157.907C197.781 157.752 197.674 157.617 197.538 157.516C197.187 157.302 196.779 157.198 196.368 157.216H195.58V159.548H195.681L195.678 159.581ZM195.678 163.964H196.65C196.86 163.981 197.073 163.956 197.274 163.89C197.475 163.824 197.66 163.719 197.82 163.581C197.959 163.464 198.067 163.314 198.134 163.146C198.201 162.977 198.225 162.795 198.205 162.615C198.214 162.436 198.184 162.257 198.118 162.09C198.051 161.924 197.95 161.773 197.82 161.649C197.468 161.435 197.061 161.331 196.65 161.349H195.678V163.964ZM201.645 160.648C201.625 159.914 201.756 159.184 202.03 158.502C202.306 157.851 202.703 157.258 203.2 156.753C203.685 156.278 204.245 155.885 204.858 155.59C205.472 155.311 206.144 155.18 206.819 155.208C207.493 155.188 208.163 155.319 208.78 155.59C209.393 155.885 209.953 156.278 210.438 156.753C210.946 157.232 211.317 157.835 211.515 158.502C211.796 159.181 211.928 159.913 211.9 160.648C211.916 161.245 211.813 161.839 211.599 162.397C211.394 162.945 211.13 163.47 210.811 163.962C210.334 164.632 209.694 165.17 208.951 165.527C208.263 165.908 207.489 166.109 206.701 166.11C206.027 166.13 205.357 165.999 204.741 165.727C204.131 165.427 203.572 165.034 203.082 164.565C202.58 164.064 202.182 163.47 201.912 162.816C201.784 162.1 201.694 161.377 201.642 160.651L201.645 160.648ZM204.192 160.648C204.181 161.462 204.46 162.254 204.979 162.884C205.218 163.169 205.518 163.396 205.858 163.549C206.197 163.702 206.567 163.776 206.94 163.767C207.311 163.766 207.678 163.687 208.016 163.535C208.354 163.383 208.656 163.161 208.901 162.884C209.411 162.251 209.689 161.464 209.689 160.653C209.689 159.841 209.411 159.055 208.901 158.421C208.663 158.136 208.362 157.909 208.023 157.756C207.683 157.603 207.313 157.529 206.94 157.538C206.57 157.538 206.204 157.616 205.866 157.766C205.528 157.917 205.226 158.137 204.98 158.412C204.431 159.025 204.148 159.829 204.192 160.648ZM213.794 165.71V155.584H216.24V163.561H220.161V165.708L213.794 165.71ZM221.436 165.71V155.584H227.703V157.632H223.782V159.485H227.12V161.534H223.782V163.582H227.703V165.728H221.436V165.71ZM231.926 165.71V157.732H228.691V155.586H237.607V157.732H234.372V165.709L231.926 165.71ZM238.19 160.648C238.171 159.914 238.302 159.184 238.575 158.502C238.851 157.851 239.248 157.258 239.745 156.753C240.23 156.278 240.791 155.885 241.404 155.59C242.018 155.311 242.69 155.18 243.365 155.208C244.039 155.188 244.709 155.319 245.325 155.59C245.938 155.885 246.499 156.278 246.984 156.753C247.486 157.254 247.884 157.848 248.154 158.502C248.435 159.181 248.567 159.913 248.539 160.648C248.555 161.245 248.452 161.839 248.238 162.397C248.033 162.945 247.769 163.47 247.45 163.962C246.973 164.632 246.333 165.17 245.59 165.527C244.902 165.908 244.127 166.109 243.34 166.11C242.666 166.13 241.996 165.999 241.38 165.727C240.77 165.427 240.211 165.034 239.721 164.565C239.219 164.064 238.821 163.47 238.551 162.816C238.294 162.123 238.172 161.387 238.19 160.648ZM240.636 160.648C240.626 161.462 240.905 162.254 241.424 162.884C241.662 163.169 241.963 163.396 242.302 163.549C242.642 163.702 243.012 163.776 243.385 163.767C243.756 163.766 244.123 163.687 244.461 163.535C244.799 163.383 245.101 163.161 245.346 162.884C245.856 162.251 246.134 161.464 246.134 160.653C246.134 159.841 245.856 159.055 245.346 158.421C245.107 158.136 244.807 157.909 244.467 157.756C244.128 157.603 243.758 157.529 243.385 157.538C243.014 157.539 242.647 157.618 242.309 157.77C241.971 157.922 241.669 158.144 241.424 158.421C241.147 158.719 240.934 159.071 240.799 159.454C240.665 159.837 240.61 160.243 240.64 160.648H240.636Z" fill="#16161B"/>
<path d="M477.818 122.5H404.182C399.663 122.5 396 126.278 396 130.938V181.562C396 186.222 399.663 190 404.182 190H477.818C482.337 190 486 186.222 486 181.562V130.938C486 126.278 482.337 122.5 477.818 122.5Z" fill="black"/>
<path fill-rule="evenodd" clip-rule="evenodd" d="M429.058 164.953C427.939 166.048 426.484 166.733 424.928 166.897C423.371 167.062 421.805 166.697 420.481 165.861L417.893 169.96C420.143 171.369 422.8 171.983 425.441 171.703C428.081 171.424 430.551 170.268 432.457 168.421L429.058 164.953Z" fill="#FEFEFE"/>
<path fill-rule="evenodd" clip-rule="evenodd" d="M417.265 160.739C417.232 160.462 417.217 160.184 417.222 159.906C417.255 158.493 417.716 157.124 418.545 155.98C419.373 154.836 420.529 153.97 421.86 153.497C423.191 153.024 424.635 152.967 425.999 153.332C427.364 153.698 428.585 154.469 429.502 155.543L417.265 160.739ZM424.374 148.253C421.247 148.196 418.225 149.384 415.973 151.555C413.721 153.726 412.424 156.702 412.366 159.829C412.325 162.172 412.992 164.472 414.28 166.429L435.708 157.325C435.097 154.766 433.65 152.485 431.596 150.842C429.542 149.198 426.999 148.287 424.369 148.252L424.374 148.253Z" fill="#FEFEFE"/>
<path fill-rule="evenodd" clip-rule="evenodd" d="M442.433 142.954V165.658L446.398 167.29L444.521 171.768L440.608 170.15C439.822 169.811 439.151 169.252 438.676 168.541C438.152 167.697 437.888 166.717 437.918 165.724V142.954H442.433Z" fill="#FEFEFE"/>
<path fill-rule="evenodd" clip-rule="evenodd" d="M456.726 153.446C457.659 153.137 458.647 153.028 459.624 153.126C460.602 153.224 461.548 153.528 462.401 154.017C463.253 154.506 463.993 155.17 464.571 155.964C465.15 156.759 465.554 157.667 465.758 158.628L470.533 157.661C470.187 156.027 469.499 154.484 468.516 153.134C467.533 151.784 466.276 150.656 464.828 149.825C463.379 148.993 461.771 148.477 460.109 148.309C458.448 148.142 456.769 148.327 455.184 148.852L456.726 153.446Z" fill="#FFF100"/>
<path fill-rule="evenodd" clip-rule="evenodd" d="M451.09 168.818L454.317 165.197C453.579 164.55 452.988 163.753 452.583 162.859C452.178 161.966 451.969 160.996 451.969 160.015C451.969 159.034 452.178 158.064 452.583 157.17C452.988 156.277 453.579 155.48 454.317 154.833L451.09 151.202C449.836 152.301 448.831 153.656 448.142 155.175C447.454 156.693 447.098 158.342 447.098 160.01C447.098 161.677 447.454 163.326 448.142 164.844C448.831 166.363 449.836 167.718 451.09 168.817" fill="#00A4DF"/>
<path fill-rule="evenodd" clip-rule="evenodd" d="M465.758 161.397C465.554 162.358 465.149 163.265 464.57 164.059C463.991 164.853 463.251 165.516 462.398 166.004C461.546 166.492 460.6 166.795 459.622 166.893C458.644 166.991 457.657 166.881 456.724 166.571L455.178 171.162C456.762 171.688 458.44 171.874 460.101 171.708C461.762 171.541 463.37 171.026 464.819 170.197C466.267 169.367 467.525 168.241 468.509 166.892C469.493 165.543 470.182 164.002 470.53 162.369L465.758 161.397Z" fill="#EE4123"/>
<path d="M367.818 122.5H294.182C289.663 122.5 286 126.278 286 130.938V181.562C286 186.222 289.663 190 294.182 190H367.818C372.337 190 376 186.222 376 181.562V130.938C376 126.278 372.337 122.5 367.818 122.5Z" fill="#00579F"/>
<path fill-rule="evenodd" clip-rule="evenodd" d="M330.641 145.434L325.721 169.172H319.772L324.691 145.434H330.641ZM355.678 160.762L358.808 151.847L360.61 160.762H355.678ZM362.32 169.172H367.818L363.011 145.434H357.936C357.393 145.428 356.861 145.591 356.409 145.901C355.957 146.212 355.606 146.655 355.401 147.174L346.473 169.17H352.722L353.962 165.624H361.595L362.32 169.172ZM346.782 161.422C346.808 155.158 338.392 154.81 338.447 152.011C338.466 151.161 339.251 150.254 340.97 150.022C342.983 149.825 345.011 150.192 346.839 151.085L347.878 146.049C346.099 145.362 344.216 145.007 342.316 145C336.434 145 332.299 148.225 332.263 152.846C332.225 156.266 335.219 158.17 337.469 159.306C339.79 160.469 340.568 161.216 340.557 162.257C340.54 163.85 338.706 164.555 336.998 164.582C334.87 164.63 332.766 164.113 330.887 163.081L329.807 168.285C331.916 169.129 334.16 169.556 336.422 169.545C342.675 169.545 346.767 166.358 346.782 161.422ZM322.139 145.434L312.498 169.172H306.209L301.465 150.227C301.422 149.784 301.269 149.359 301.022 148.994C300.774 148.629 300.44 148.336 300.052 148.142C298.184 147.219 296.212 146.541 294.182 146.122L294.322 145.434H304.447C305.109 145.432 305.75 145.675 306.253 146.119C306.757 146.563 307.09 147.177 307.192 147.852L309.698 161.59L315.888 145.434H322.139Z" fill="white"/>
<path d="M477.818 35H404.182C399.663 35 396 38.7776 396 43.4375V94.0625C396 98.7224 399.663 102.5 404.182 102.5H477.818C482.337 102.5 486 98.7224 486 94.0625V43.4375C486 38.7776 482.337 35 477.818 35Z" fill="#006FCF"/>
<mask id="mask3_786_6722" style="mask-type:alpha" maskUnits="userSpaceOnUse" x="396" y="51" width="90" height="38">
<path d="M396 51.3641V88.2641H486V51.3641H396Z" fill="white"/>
</mask>
<g mask="url(#mask3_786_6722)">
<path d="M474.84 67.2041H481.68V51.5441H474.48V54.0641L472.86 51.5441H466.56V54.7841L465.12 51.5441H454.68C454.14 51.5441 453.78 51.5441 453.24 51.7241C452.88 51.7241 452.52 51.9041 452.16 52.0841C451.8 52.2641 451.62 52.2641 451.26 52.4441C450.9 52.6241 450.54 52.8041 450.36 52.9841V52.4441V51.7241H416.52L415.62 54.4241L414.72 51.7241H406.8V54.9641L405.36 51.3641H398.88L396 58.2041V65.7641V67.2041H400.5L401.4 64.8641H403.02L403.92 67.2041H439.02V64.8641L440.82 67.2041H450.54V66.6641V65.9441C450.72 66.1241 451.08 66.3041 451.26 66.3041C451.44 66.4841 451.8 66.4841 451.98 66.6641C452.34 66.8441 452.7 66.8441 453.06 66.8441C453.6 67.0241 454.14 67.0241 454.68 67.0241H460.44L461.34 64.6841H462.96L463.86 67.0241H473.4V64.8641L474.84 67.2041ZM486 87.3641V72.6041H485.28H430.2L428.76 74.5841L427.32 72.6041H411.3V88.2641H427.32L428.76 86.2841L430.2 88.2641H440.28V84.8441H440.1C441.36 84.8441 442.44 84.6641 443.52 84.3041V88.2641H450.54V85.9241L452.34 88.2641H482.4C483.3 88.2641 484.02 88.0841 484.74 87.9041C485.28 87.7241 485.64 87.5441 486 87.3641Z" fill="white"/>
<mask id="mask4_786_6722" style="mask-type:alpha" maskUnits="userSpaceOnUse" x="413" y="75" width="73" height="11">
<path d="M485.998 85.7836V75.1636H413.818V85.7836H485.998Z" fill="white"/>
</mask>
<g mask="url(#mask4_786_6722)">
<path d="M482.399 83.6233H476.999V85.7833H482.399C484.739 85.7833 485.999 84.3433 485.999 82.3633C485.999 80.3833 484.739 79.3033 482.759 79.3033H480.239C479.699 79.3033 479.159 78.9433 479.159 78.2233C479.159 77.5033 479.519 77.1433 480.239 77.1433H484.919L485.819 74.9833H480.419C478.079 74.9833 476.819 76.4233 476.819 78.2233C476.819 80.2033 478.079 81.2833 480.059 81.2833H482.579C483.119 81.2833 483.659 81.6433 483.659 82.3633C483.479 83.0833 483.119 83.6233 482.399 83.6233ZM472.319 83.6233H466.919V85.7833H472.319C474.659 85.7833 475.919 84.3433 475.919 82.3633C475.919 80.3833 474.659 79.3033 472.679 79.3033H470.159C469.619 79.3033 469.079 78.9433 469.079 78.2233C469.079 77.5033 469.439 77.1433 470.159 77.1433H474.839L475.739 75.1633H470.339C467.999 75.1633 466.739 76.6033 466.739 78.4033C466.739 80.3833 467.999 81.4633 469.979 81.4633H472.499C473.039 81.4633 473.579 81.8233 473.579 82.5433C473.399 83.0833 473.039 83.6233 472.319 83.6233ZM465.299 77.3233V75.1633H456.839V85.7833H465.299V83.6233H459.359V81.4633H465.119V79.3033H459.359V77.3233H465.299ZM451.259 77.3233C452.159 77.3233 452.699 77.8633 452.699 78.5833C452.699 79.3033 452.159 79.8433 451.259 79.8433H448.199V77.3233H451.259ZM448.199 81.8233H449.459L452.699 85.6033H455.939L452.339 81.6433C454.139 81.2833 455.219 80.0233 455.219 78.2233C455.219 76.2433 453.779 74.8033 451.619 74.8033H445.859V85.4233H448.379V81.8233H448.199ZM441.719 78.5833C441.719 79.3033 441.179 79.8433 440.459 79.8433H437.399V77.3233H440.459C441.179 77.3233 441.719 77.8633 441.719 78.5833ZM434.699 75.1633V85.7833H437.219V82.1833H440.459C442.799 82.1833 444.239 80.7433 444.239 78.5833C444.239 76.4233 442.799 74.9833 440.639 74.9833H434.699V75.1633ZM431.099 85.7833H434.339L430.019 80.3833L434.159 75.1633H431.099L428.579 78.4033L425.879 75.1633H422.819L427.139 80.3833L422.819 85.7833H425.879L428.399 82.3633L431.099 85.7833ZM422.279 77.3233V75.1633H413.819V85.7833H422.279V83.6233H416.339V81.4633H422.099V79.3033H416.339V77.3233H422.279Z" fill="#006FCF"/>
</g>
<path d="M471.42 58.204V57.304L471.96 58.204L476.1 64.504H478.98V54.064H476.46V60.184V60.904L475.92 60.184L471.96 54.064H468.9V64.684H471.42V58.204ZM461.34 58.024L462.06 56.044L462.78 58.024L463.68 60.364H460.26L461.34 58.024ZM465.48 64.504H468.36L463.86 53.884H460.44L455.94 64.504H458.64L459.54 62.164H464.58L465.48 64.504ZM454.32 64.504L455.58 62.164H454.86C453.06 62.164 452.16 61.084 452.16 59.284C452.16 57.664 453.06 56.404 454.86 56.404H457.56V54.064H454.68C451.44 54.064 449.64 56.224 449.64 59.284V59.464C449.46 62.524 451.26 64.504 454.32 64.504ZM445.32 64.504H447.84V60.004V54.064H445.32V60.004V64.504ZM439.92 56.224C440.82 56.224 441.36 56.764 441.36 57.484C441.36 58.204 440.82 58.744 439.92 58.744H436.86V56.224H439.92ZM437.04 60.724H438.3L441.54 64.504H444.6L441 60.724C442.8 60.364 443.88 59.104 443.88 57.484C443.88 55.504 442.44 54.064 440.28 54.064H434.52V64.684H437.04V60.724ZM432.54 56.224V54.064H424.08V64.684H432.54V62.344H426.6V60.364H432.36V58.204H426.6V56.224H432.54ZM411.48 57.304V54.424L414.36 64.504H416.7L419.58 54.424V57.124V64.324H422.1V54.064H417.6L415.62 61.624L413.46 54.064H408.96V64.684H411.48V57.304ZM401.4 58.024L402.12 56.044L402.84 58.024L403.74 60.364H400.5L401.4 58.024ZM405.54 64.504H408.42L403.92 54.064H400.5L396 64.504H398.7L399.6 62.344H404.64L405.54 64.504Z" fill="#006FCF"/>
</g>
<path d="M147.818 122.5H74.1818C69.6631 122.5 66 126.278 66 130.938V181.562C66 186.222 69.6631 190 74.1818 190H147.818C152.337 190 156 186.222 156 181.562V130.938C156 126.278 152.337 122.5 147.818 122.5Z" fill="#013474"/>
<path d="M119.849 171.95H102.146V139.225H119.849V171.95Z" fill="#6C6BBD"/>
<path d="M103.281 155.584C103.281 148.946 106.303 143.032 111.009 139.222C107.567 136.435 103.224 134.772 98.5044 134.772C87.3303 134.772 78.2725 144.09 78.2725 155.584C78.2725 167.078 87.3303 176.396 98.5044 176.396C103.224 176.396 107.567 174.733 111.009 171.946C106.303 168.135 103.281 162.222 103.281 155.584Z" fill="#EB001B"/>
<path d="M143.727 155.584C143.727 167.078 134.669 176.396 123.495 176.396C118.775 176.396 114.432 174.733 110.989 171.946C115.696 168.135 118.718 162.222 118.718 155.584C118.718 148.946 115.696 143.032 110.989 139.222C114.432 136.435 118.775 134.772 123.495 134.772C134.669 134.772 143.727 144.09 143.727 155.584Z" fill="#0099DF"/>
<path d="M367.818 35H294.182C289.663 35 286 38.7776 286 43.4375V94.0625C286 98.7224 289.663 102.5 294.182 102.5H367.818C372.337 102.5 376 98.7224 376 94.0625V43.4375C376 38.7776 372.337 35 367.818 35Z" fill="#16161B"/>
<path fill-rule="evenodd" clip-rule="evenodd" d="M321.521 84.2406H341.334V52.3687H321.521V84.2406Z" fill="#FF5F00"/>
<path fill-rule="evenodd" clip-rule="evenodd" d="M323.268 68.3002C323.266 65.2358 323.96 62.2109 325.299 59.4544C326.637 56.6978 328.585 54.2818 330.995 52.389C328.458 50.398 325.482 49.0421 322.315 48.4343C319.148 47.8265 315.882 47.9844 312.788 48.8948C309.694 49.8051 306.863 51.4417 304.53 53.668C302.197 55.8943 300.429 58.6459 299.375 61.6936C298.321 64.7413 298.01 67.9968 298.469 71.1889C298.928 74.381 300.143 77.4172 302.013 80.0446C303.883 82.672 306.354 84.8144 309.219 86.2935C312.085 87.7725 315.263 88.5453 318.488 88.5474C323.026 88.5551 327.433 87.0299 330.995 84.2189C328.584 82.3252 326.636 79.908 325.297 77.1501C323.958 74.3922 323.264 71.3658 323.268 68.3002Z" fill="#EB001B"/>
<path fill-rule="evenodd" clip-rule="evenodd" d="M363.727 68.3005C363.73 72.0982 362.664 75.82 360.651 79.0401C358.638 82.2602 355.759 84.8486 352.344 86.509C348.928 88.1695 345.114 88.835 341.338 88.4294C337.562 88.0238 333.977 86.5634 330.992 84.2155C333.4 82.3202 335.347 79.9031 336.685 77.1463C338.024 74.3896 338.719 71.365 338.719 68.3005C338.719 65.236 338.024 62.2114 336.685 59.4547C335.347 56.6979 333.4 54.2809 330.992 52.3856C333.977 50.0376 337.562 48.5772 341.338 48.1716C345.114 47.766 348.928 48.4315 352.344 50.092C355.759 51.7525 358.638 54.3408 360.651 57.5609C362.664 60.7811 363.73 64.5029 363.727 68.3005Z" fill="#F79E1B"/>
<path d="M257.818 35H184.182C179.663 35 176 38.7776 176 43.4375V94.0625C176 98.7224 179.663 102.5 184.182 102.5H257.818C262.337 102.5 266 98.7224 266 94.0625V43.4375C266 38.7776 262.337 35 257.818 35Z" fill="#004A98"/>
<mask id="mask5_786_6722" style="mask-type:alpha" maskUnits="userSpaceOnUse" x="197" y="49" width="49" height="40">
<path d="M197 49.5H245.943V88.728H197V49.5Z" fill="white"/>
</mask>
<g mask="url(#mask5_786_6722)">
<path fill-rule="evenodd" clip-rule="evenodd" d="M225.674 88.7282C236.271 88.7791 245.944 79.9825 245.944 69.2832C245.944 57.5813 236.271 49.495 225.674 49.5H216.553C205.828 49.495 197 57.5843 197 69.2832C197 79.9875 205.828 88.7791 216.553 88.7282H225.674Z" fill="#FEFEFE"/>
<path fill-rule="evenodd" clip-rule="evenodd" d="M220.945 79.1906V58.3567C225.132 59.9639 228.107 64.0176 228.114 68.7727C228.107 73.5288 225.132 77.5805 220.945 79.1906ZM205.793 68.7727C205.803 64.0206 208.77 59.9688 212.957 58.3596V79.1857C208.77 77.5776 205.803 73.5268 205.793 68.7727ZM216.952 51.1669C207.229 51.1688 199.35 59.0493 199.347 68.7727C199.35 78.4971 207.229 86.3766 216.952 86.3795C226.678 86.3766 234.557 78.4971 234.56 68.7727C234.557 59.0493 226.678 51.1688 216.952 51.1669Z" fill="#004A98"/>
</g>
</g>
<defs>
<filter id="filter0_d_786_6722" x="62" y="293.5" width="98" height="75.5" filterUnits="userSpaceOnUse" color-interpolation-filters="sRGB">
<feFlood flood-opacity="0" result="BackgroundImageFix"/>
<feColorMatrix in="SourceAlpha" type="matrix" values="0 0 0 0 0 0 0 0 0 0 0 0 0 0 0 0 0 0 127 0" result="hardAlpha"/>
<feOffset/>
<feGaussianBlur stdDeviation="2"/>
<feColorMatrix type="matrix" values="0 0 0 0 0 0 0 0 0 0 0 0 0 0 0 0 0 0 0.1 0"/>
<feBlend mode="normal" in2="BackgroundImageFix" result="effect1_dropShadow_786_6722"/>
<feBlend mode="normal" in="SourceGraphic" in2="effect1_dropShadow_786_6722" result="shape"/>
</filter>
<linearGradient id="paint0_linear_786_6722" x1="342.35" y1="248.009" x2="360.321" y2="248.009" gradientUnits="userSpaceOnUse">
<stop stop-color="#007940"/>
<stop offset="0.228" stop-color="#00873F"/>
<stop offset="0.743" stop-color="#40A737"/>
<stop offset="1" stop-color="#5CB531"/>
</linearGradient>
<linearGradient id="paint1_linear_786_6722" x1="342.353" y1="245.232" x2="360.308" y2="245.232" gradientUnits="userSpaceOnUse">
<stop stop-color="#007940"/>
<stop offset="0.228" stop-color="#00873F"/>
<stop offset="0.743" stop-color="#40A737"/>
<stop offset="1" stop-color="#5CB531"/>
</linearGradient>
<linearGradient id="paint2_linear_786_6722" x1="342.348" y1="242.167" x2="360.316" y2="242.167" gradientUnits="userSpaceOnUse">
<stop stop-color="#007940"/>
<stop offset="0.228" stop-color="#00873F"/>
<stop offset="0.743" stop-color="#40A737"/>
<stop offset="1" stop-color="#5CB531"/>
</linearGradient>
<linearGradient id="paint3_linear_786_6722" x1="302.129" y1="245.207" x2="320.367" y2="245.207" gradientUnits="userSpaceOnUse">
<stop stop-color="#1F286F"/>
<stop offset="0.475" stop-color="#004E94"/>
<stop offset="0.826" stop-color="#0066B1"/>
<stop offset="1" stop-color="#006FBC"/>
</linearGradient>
<linearGradient id="paint4_linear_786_6722" x1="322.133" y1="245.207" x2="339.866" y2="245.207" gradientUnits="userSpaceOnUse">
<stop stop-color="#6C2C2F"/>
<stop offset="0.174" stop-color="#882730"/>
<stop offset="0.573" stop-color="#BE1833"/>
<stop offset="0.859" stop-color="#DC0436"/>
<stop offset="1" stop-color="#E60039"/>
</linearGradient>
</defs>
</svg>
